<svg id="Layer_1" data-name="Layer 1" xmlns="http://www.w3.org/2000/svg" xmlns:xlink="http://www.w3.org/1999/xlink" viewBox="0 0 268.04 101.64">
  <defs>
    <style>
      .cls-1 {
        fill: #231f20;
      }

      .cls-10, .cls-11, .cls-2, .cls-3, .cls-4, .cls-5, .cls-6, .cls-7, .cls-8, .cls-9 {
        stroke: #000;
        stroke-miterlimit: 10;
        stroke-width: 0.75px;
      }

      .cls-2 {
        fill: url(#linear-gradient);
      }

      .cls-3 {
        fill: url(#linear-gradient-2);
      }

      .cls-4 {
        fill: url(#linear-gradient-3);
      }

      .cls-5 {
        fill: url(#linear-gradient-4);
      }

      .cls-6 {
        fill: url(#linear-gradient-5);
      }

      .cls-7 {
        fill: url(#linear-gradient-6);
      }

      .cls-8 {
        fill: url(#linear-gradient-7);
      }

      .cls-9 {
        fill: url(#linear-gradient-8);
      }

      .cls-10 {
        fill: url(#linear-gradient-9);
      }

      .cls-11 {
        fill: url(#linear-gradient-10);
      }
    </style>
    <linearGradient id="linear-gradient" x1="32.18" y1="56.05" x2="48.6" y2="84.5" gradientUnits="userSpaceOnUse">
      <stop offset="0" stop-color="#fee6d6"/>
      <stop offset="0.34" stop-color="#fee8d9"/>
      <stop offset="0.62" stop-color="#feeee3"/>
      <stop offset="0.88" stop-color="#fff9f4"/>
      <stop offset="1" stop-color="#fff"/>
    </linearGradient>
    <linearGradient id="linear-gradient-2" x1="55.27" y1="57.98" x2="70.26" y2="83.93" xlink:href="#linear-gradient"/>
    <linearGradient id="linear-gradient-3" x1="77.22" y1="49.3" x2="92.83" y2="76.34" xlink:href="#linear-gradient"/>
    <linearGradient id="linear-gradient-4" x1="93.61" y1="40.84" x2="110.88" y2="70.76" xlink:href="#linear-gradient"/>
    <linearGradient id="linear-gradient-5" x1="113.8" y1="39.33" x2="131.91" y2="70.7" xlink:href="#linear-gradient"/>
    <linearGradient id="linear-gradient-6" x1="139.14" y1="36.49" x2="151.86" y2="58.52" xlink:href="#linear-gradient"/>
    <linearGradient id="linear-gradient-7" x1="163.08" y1="27.81" x2="175.96" y2="50.12" xlink:href="#linear-gradient"/>
    <linearGradient id="linear-gradient-8" x1="187.5" y1="20.07" x2="202.23" y2="45.58" xlink:href="#linear-gradient"/>
    <linearGradient id="linear-gradient-9" x1="211.53" y1="5.68" x2="229.19" y2="36.27" xlink:href="#linear-gradient"/>
    <linearGradient id="linear-gradient-10" x1="232.93" y1="10.67" x2="248.74" y2="38.05" xlink:href="#linear-gradient"/>
  </defs>
  <g>
    <path class="cls-1" d="M24.67,73.68c0-9.08,4.47-17.27,14.16-18,3.26-.25,6.6.5,8.82-.58a20.34,20.34,0,0,1,1,6.39c0,4.2-1.38,7.11-4.28,7.42-2,.2-4.07-1.18-6.5-4a9.62,9.62,0,0,0-.8,4.12c0,4.54,1.89,7.3,5.63,7a7.82,7.82,0,0,0,5.4-3.4,18.3,18.3,0,0,1,1,6.1c0,6-3.6,11.48-10.82,12C30.62,91.3,24.67,85.11,24.67,73.68Z" transform="translate(-24.67 -1.2)"/>
    <path class="cls-1" d="M49.61,82.64c0-4.7,2.72-8.51,9.62-9.65a14.45,14.45,0,0,1,2.36-.22V69.85a10.66,10.66,0,0,1-5.3,2.8c-3.27.51-4.94-1.43-4.94-5.4a19.42,19.42,0,0,1,.87-5.76,11.34,11.34,0,0,0,4.36,0c3.66-.58,6.42-2.28,9.62-2.9,4.83-1,7.22,1.45,7.22,7.11,0,2-.36,4.38-.36,5.82,0,1,.4,1.49,1.12,1.33A2.94,2.94,0,0,0,75.49,72,11.81,11.81,0,0,1,76,75.38c0,5.21-3.3,10.2-7.8,11.11-3.7.75-5.7-1.49-5.48-4.88l-.73.13c-.8,4.21-3.45,6.55-6.42,7C51.9,89.3,49.61,86.51,49.61,82.64Zm12-3.61V75l-.55.09a5.33,5.33,0,0,0-1.16,3.22c0,1,.44,1.36.91,1.28A1.3,1.3,0,0,0,61.59,79Z" transform="translate(-24.67 -1.2)"/>
    <path class="cls-1" d="M77.12,74.06q.18-3.27.37-6.54a56.14,56.14,0,0,0-1.06-15,12.68,12.68,0,0,1,6.76-4.21c5.44-1.37,7.4,1.66,6.93,9l-.66,10c-.1,1.41.33,1.73,1.13,1.51a3,3,0,0,0,1.31-.83,12.82,12.82,0,0,1,.47,3.32c0,5.2-3.3,10.34-8.31,11.61C79.34,84,76.72,81.08,77.12,74.06Z" transform="translate(-24.67 -1.2)"/>
    <path class="cls-1" d="M92,48.81c0-4.5,1.92-6.92,5.41-7.92,1.67-.47,4.06-.45,6.28-1.11a9.72,9.72,0,0,0,2.5-1.33,10.12,10.12,0,0,1,.51,3.48c0,3.54-1,5-3.48,5.79-.62.18-2,.44-4.07,1a16.12,16.12,0,0,0-6.79,3.78A20.34,20.34,0,0,1,92,48.81Zm1.52,21.06c.1-1.41.2-2.83.29-4.24A38.14,38.14,0,0,0,92.7,55a13.06,13.06,0,0,1,6.78-4.5c4.47-1.3,7.12.8,6.76,6.8l-.33,5.26c-.07,1.41.33,1.72,1.12,1.48a3.2,3.2,0,0,0,1.31-.88,12.31,12.31,0,0,1,.47,3.3c0,5.21-3.3,10.45-8.31,11.92C95.78,79.73,93,76.94,93.49,69.87Z" transform="translate(-24.67 -1.2)"/>
    <path class="cls-1" d="M111.83,79.05c1.19-4,1.34-8.12,1.52-13.58l0-1.11a13.15,13.15,0,0,0-3.23,1.72,8.58,8.58,0,0,1-1-4.48c0-2.87,1.12-6.42,4.53-7.53l.15-5c.22-6.52,2.87-10.45,8.24-12.18,2-.66,6.21-1.2,8.09-2.16a11.26,11.26,0,0,1,.87,4.69c0,3.4-.76,6.33-3.41,7.2-1.7.55-3.81.14-6.39-3.44a75.45,75.45,0,0,1,2.47,7.48l1.45-.47a17.63,17.63,0,0,0,4.43-2,7.1,7.1,0,0,1,1,4.18c0,2.82-1.16,6.6-3.88,7.39l-.95.26a42,42,0,0,1,.37,5c0,9.14-3.34,13.86-8.13,15.39C115.42,81.28,113.21,80.92,111.83,79.05Z" transform="translate(-24.67 -1.2)"/>
    <path class="cls-1" d="M131.32,55.15c0-8.9,5.15-16.57,13.25-19.24,7.55-2.49,12.52,1.37,12.52,10.12A19.52,19.52,0,0,1,143.84,64.8C136.4,67.25,131.32,63.57,131.32,55.15Zm14.34-5.58c0-3.35-.55-4.94-1.45-4.65s-1.46,2.35-1.46,6c0,3.35.55,4.94,1.46,4.64S145.66,53.25,145.66,49.57Z" transform="translate(-24.67 -1.2)"/>
    <path class="cls-1" d="M158.43,59.14q.23-5.84.44-11.67A43.65,43.65,0,0,0,157.56,34a14.3,14.3,0,0,1,6.28-4.1c4.76-1.5,5.78,1.36,5.34,7.47l.91-.28c0-6.45,1.88-9.86,4.5-10.64,1.45-.43,2.65-.11,4-.65a15.66,15.66,0,0,1,1.45,6.9c0,4.31-1.59,9.06-4.79,10-1.85.55-3.23.21-4.14-1.33l-.36.11q.12,6.84.25,13.7C166.81,56.48,162.62,57.8,158.43,59.14Z" transform="translate(-24.67 -1.2)"/>
    <path class="cls-1" d="M195.31,38.34a37.92,37.92,0,0,1,.48-5.81.81.81,0,0,0-.58-.09c-1,.23-1.57,1.49-1.57,5.27v11.1q-6.19,1.59-12.41,3.37l.36-12.11a46.14,46.14,0,0,0-1.09-12.6,12.8,12.8,0,0,1,6.39-4.38c4-1.1,6.39.8,6.25,5.86l.72-.19c1.06-4.81,3.85-8.49,7.81-9.42,4.32-1,6.6,2.28,6.17,8.44L207.55,32c-.11,1.41.43,1.78,1.23,1.61a2.84,2.84,0,0,0,1.31-.75,11.88,11.88,0,0,1,.47,3.35c0,5.22-3.3,10.07-8.17,11.19C197.67,48.44,195.31,45.52,195.31,38.34Z" transform="translate(-24.67 -1.2)"/>
    <path class="cls-1" d="M210.16,13.71c0-4.49,1.92-6.82,5.41-7.46,1.67-.31,4.06,0,6.28-.36a8.51,8.51,0,0,0,2.5-1,10.79,10.79,0,0,1,.51,3.56c0,3.54-1,4.87-3.48,5.27-.62.1-2,.18-4.07.54a13.71,13.71,0,0,0-6.79,3.16A21.77,21.77,0,0,1,210.16,13.71Zm1.52,21.17.3-4.22a39.15,39.15,0,0,0-1.09-10.74,11.19,11.19,0,0,1,6.78-3.86c4.47-.78,7.12,1.77,6.76,7.7L224.1,29c-.07,1.4.33,1.77,1.13,1.65a2.67,2.67,0,0,0,1.3-.66,13.07,13.07,0,0,1,.47,3.38c0,5.21-3.3,9.85-8.31,10.71C214,44.87,211.21,41.92,211.68,34.88Z" transform="translate(-24.67 -1.2)"/>
    <path class="cls-1" d="M227.73,35.73c0-4.66,2.72-8.66,9.62-9.3a13.23,13.23,0,0,1,2.36,0V23.51a10.44,10.44,0,0,1-5.3,2.39c-3.27.34-4.94-1.58-4.94-5.56a19.32,19.32,0,0,1,.87-5.75,12.31,12.31,0,0,0,4.36.13c3.67-.37,6.42-1.77,9.62-2,4.83-.24,7.22,2.73,7.22,8.37,0,2-.36,4.31-.36,5.74,0,1,.4,1.58,1.12,1.57a2.32,2.32,0,0,0,1.31-.49,12.87,12.87,0,0,1,.47,3.44c0,5.22-3.3,9.4-7.8,9.6-3.7.17-5.7-2.25-5.48-5.62l-.73.06c-.8,4.12-3.45,6.2-6.42,6.52C230,42.35,227.73,39.61,227.73,35.73Zm12-3v-4l-.55,0A4.87,4.87,0,0,0,238,31.83c0,1,.44,1.39.91,1.35A1.14,1.14,0,0,0,239.71,32.69Z" transform="translate(-24.67 -1.2)"/>
  </g>
  <g>
    <path class="cls-2" d="M26,71.24c0-9.08,4.46-17.27,14.16-18,3.27-.25,6.61.49,8.82-.6A20.34,20.34,0,0,1,50,59c0,4.2-1.38,7.12-4.28,7.43-2,.21-4.07-1.17-6.5-4a9.62,9.62,0,0,0-.8,4.12c0,4.54,1.89,7.3,5.63,6.94a7.9,7.9,0,0,0,5.41-3.42,18.46,18.46,0,0,1,.94,6.09c0,6.06-3.59,11.49-10.82,12.07C32,88.84,26,82.67,26,71.24Z" transform="translate(-24.67 -1.2)"/>
    <path class="cls-3" d="M50.93,80.14c0-4.71,2.73-8.52,9.63-9.69a14.45,14.45,0,0,1,2.36-.22V67.31a10.79,10.79,0,0,1-5.3,2.82c-3.27.52-4.94-1.42-4.94-5.39A19.19,19.19,0,0,1,53.55,59a11.18,11.18,0,0,0,4.36,0c3.66-.59,6.42-2.3,9.62-2.93,4.83-1,7.22,1.43,7.22,7.08,0,2-.36,4.39-.36,5.82,0,1,.4,1.49,1.13,1.33a2.87,2.87,0,0,0,1.3-.78,11.78,11.78,0,0,1,.48,3.34C77.3,78,74,83,69.49,83.92c-3.7.76-5.7-1.47-5.48-4.85l-.73.13c-.8,4.21-3.45,6.56-6.43,7C53.22,86.79,50.93,84,50.93,80.14Zm12-3.65v-4l-.55.1a5.33,5.33,0,0,0-1.16,3.22c0,1,.44,1.36.91,1.28A1.34,1.34,0,0,0,62.92,76.49Z" transform="translate(-24.67 -1.2)"/>
    <path class="cls-4" d="M78.45,71.46l.36-6.54a56.2,56.2,0,0,0-1-15,12.72,12.72,0,0,1,6.75-4.23c5.45-1.4,7.41,1.62,6.94,8.93l-.66,10c-.1,1.42.33,1.73,1.13,1.52a3.15,3.15,0,0,0,1.31-.84,12.81,12.81,0,0,1,.47,3.31c0,5.21-3.3,10.36-8.31,11.65C80.66,81.44,78.05,78.49,78.45,71.46Z" transform="translate(-24.67 -1.2)"/>
    <path class="cls-5" d="M93.3,46.16c0-4.5,1.92-6.93,5.41-7.94,1.67-.48,4.06-.47,6.28-1.14a9.78,9.78,0,0,0,2.5-1.34,10.12,10.12,0,0,1,.51,3.48c0,3.54-1,5.05-3.48,5.8-.62.18-2,.46-4.07,1.06a16.08,16.08,0,0,0-6.79,3.81A20.43,20.43,0,0,1,93.3,46.16Zm1.52,21L95.11,63A37.72,37.72,0,0,0,94,52.32a13.23,13.23,0,0,1,6.79-4.53c4.47-1.31,7.12.78,6.76,6.78l-.33,5.26c-.07,1.41.33,1.72,1.12,1.48a3.24,3.24,0,0,0,1.31-.89,12.31,12.31,0,0,1,.47,3.3c0,5.21-3.3,10.46-8.31,12C97.11,77.06,94.35,74.28,94.82,67.21Z" transform="translate(-24.67 -1.2)"/>
    <path class="cls-6" d="M113.15,76.32c1.2-4,1.35-8.13,1.53-13.59l0-1.11a13.4,13.4,0,0,0-3.23,1.73,8.54,8.54,0,0,1-1-4.47c0-2.88,1.13-6.42,4.54-7.55l.15-5c.21-6.52,2.87-10.47,8.24-12.22,2-.66,6.21-1.22,8.1-2.19a11.36,11.36,0,0,1,.87,4.69c0,3.39-.77,6.33-3.42,7.2-1.7.57-3.81.16-6.39-3.4a74.35,74.35,0,0,1,2.47,7.47l1.46-.48a18.38,18.38,0,0,0,4.43-2,7.11,7.11,0,0,1,1,4.17c0,2.82-1.17,6.6-3.89,7.41l-.94.26a43.9,43.9,0,0,1,.36,5c0,9.14-3.34,13.88-8.13,15.43C116.75,78.53,114.53,78.18,113.15,76.32Z" transform="translate(-24.67 -1.2)"/>
    <path class="cls-7" d="M132.64,52.33c0-8.89,5.16-16.59,13.26-19.29,7.55-2.52,12.53,1.31,12.53,10.07a19.62,19.62,0,0,1-13.26,18.82C137.73,64.42,132.64,60.75,132.64,52.33ZM147,46.69c0-3.35-.55-4.94-1.45-4.64s-1.46,2.35-1.46,6c0,3.35.55,4.93,1.46,4.63S147,50.37,147,46.69Z" transform="translate(-24.67 -1.2)"/>
    <path class="cls-8" d="M159.76,56.21q.23-5.84.44-11.67a44,44,0,0,0-1.31-13.45A14.55,14.55,0,0,1,165.17,27c4.76-1.51,5.77,1.35,5.34,7.46l.91-.29c0-6.45,1.88-9.86,4.5-10.66,1.45-.43,2.65-.12,4-.66a15.58,15.58,0,0,1,1.45,6.89c0,4.31-1.59,9.07-4.79,10-1.85.56-3.23.22-4.14-1.32l-.36.11q.12,6.85.25,13.7C168.14,53.51,164,54.85,159.76,56.21Z" transform="translate(-24.67 -1.2)"/>
    <path class="cls-9" d="M196.64,35.26a37.92,37.92,0,0,1,.48-5.81.81.81,0,0,0-.58-.09c-.95.24-1.57,1.5-1.57,5.28v11.1c-4.14,1.07-8.27,2.22-12.41,3.42L182.92,37a46.05,46.05,0,0,0-1.09-12.59,12.78,12.78,0,0,1,6.39-4.4c4-1.12,6.39.77,6.25,5.82l.72-.18c1.05-4.82,3.85-8.51,7.81-9.45,4.32-1,6.61,2.25,6.17,8.41-.1,1.39-.19,2.79-.29,4.18s.44,1.77,1.23,1.6a2.93,2.93,0,0,0,1.31-.75,11.76,11.76,0,0,1,.47,3.34c0,5.22-3.3,10.09-8.17,11.22C199,45.35,196.64,42.44,196.64,35.26Z" transform="translate(-24.67 -1.2)"/>
    <path class="cls-10" d="M211.49,10.58c0-4.5,1.92-6.82,5.41-7.48,1.67-.32,4.06,0,6.28-.38a8.67,8.67,0,0,0,2.5-1,10.79,10.79,0,0,1,.51,3.56c0,3.54-1,4.88-3.48,5.28-.62.1-2,.18-4.07.56a13.59,13.59,0,0,0-6.79,3.18A20.82,20.82,0,0,1,211.49,10.58ZM213,31.74c.1-1.4.19-2.81.29-4.22a38.64,38.64,0,0,0-1.09-10.73A11.28,11.28,0,0,1,219,12.9c4.47-.8,7.12,1.75,6.76,7.68l-.33,5.22c-.07,1.4.33,1.77,1.12,1.65a2.68,2.68,0,0,0,1.31-.67,13.13,13.13,0,0,1,.47,3.38c0,5.22-3.3,9.86-8.31,10.73C215.3,41.73,212.54,38.78,213,31.74Z" transform="translate(-24.67 -1.2)"/>
    <path class="cls-11" d="M229.05,32.54c0-4.66,2.73-8.67,9.63-9.33a13.23,13.23,0,0,1,2.36,0V20.28a10.44,10.44,0,0,1-5.3,2.41c-3.27.35-4.94-1.57-4.94-5.54a19.09,19.09,0,0,1,.87-5.76,12.11,12.11,0,0,0,4.36.12c3.66-.38,6.42-1.79,9.62-2,4.83-.26,7.22,2.71,7.22,8.34,0,2-.36,4.31-.36,5.75,0,1,.4,1.57,1.13,1.56a2.25,2.25,0,0,0,1.3-.49,12.89,12.89,0,0,1,.48,3.44c0,5.22-3.31,9.41-7.81,9.62-3.7.17-5.7-2.23-5.48-5.6l-.73.05c-.8,4.13-3.45,6.21-6.43,6.54C231.34,39.15,229.06,36.42,229.05,32.54Zm12-3.07v-4l-.55,0a4.89,4.89,0,0,0-1.16,3.11c0,1,.44,1.4.91,1.36A1.14,1.14,0,0,0,241,29.47Z" transform="translate(-24.67 -1.2)"/>
  </g>
  <g>
    <path d="M173.62,87.77c-3.72,0-6.27-2.38-8.35-7.84-.06-.19-.19-.28-.28-.28s-.1,0-.13.13c-.8,1.9-3.76,8.41-10.06,8.41-2.52,0-3.73-1.43-3.73-4.61,0-3.84,2.89-12.85,2.89-15.13,0-.61-.28-.86-.87-.86-.81,0-1.12.32-1.86.32a.87.87,0,0,1-1-1c0-1.74,2.67-5.26,6.06-5.26,1.65,0,2,2,2,3.46,0,5.71-2.77,8.18-2.77,14.94,0,1.08,0,2.79,1.31,2.79,4,0,6.68-12,7.21-14.34.37-1.62.62-2.86,2.23-3.08.44,0,1-.12,1.34-.12.71,0,1.15.22,1.15,1,0,1.55-.75,4.79-.75,7.55,0,3.52.72,8.73,5.47,8.86,5.34-.8,8.54-6.89,8.54-12,0-3.14-1.55-5.8-5.87-5.93a.91.91,0,0,1-.87-.8c0-1,2.58-2.28,4.94-2.28,4.6,0,7.3,3.65,7.3,8.88C187.54,75.21,182.94,87.77,173.62,87.77Z" transform="translate(-24.67 -1.2)"/>
    <path d="M190,83.74s0,.76,2.7.76c2.27,0,3-1.36,4.13-1.36.63,0,1,.32,1,.79,0,2.13-3.67,3.75-7.09,3.75-4.07,0-5.77-1.91-5.77-4.19,0-3.56,4.1-8.13,9.66-8.13,2.79,0,3.91.93,3.91,2.13C198.54,79.78,194.53,83.17,190,83.74Zm3.23-5.93c-1.27,0-3.79,1.68-3.79,3.17,0,.19.06.32.31.32,1.52,0,4.35-1.87,4.35-3C194.13,77.9,193.7,77.81,193.26,77.81Z" transform="translate(-24.67 -1.2)"/>
    <path d="M214.08,80.66a2.52,2.52,0,0,0-.1.73,2.07,2.07,0,0,0,2,2.35c.81,0,1.31-.51,1.62-.51s.77.16.77.83c0,1.94-2.2,3.21-4,3.21a3.37,3.37,0,0,1-3.27-2.42,17.25,17.25,0,0,1-8.76,2.83c-2.39,0-4.25-.89-4.25-3.3,0-3.4,5.15-8.29,9.72-8.29,1.37,0,1.89.7,1.89,1.46a2.17,2.17,0,0,1-1.8,2.07c-3.38.06-5.9,2.44-5.9,3.93,0,.67.5,1.14,1.71,1.14,2.83,0,5.28-2.06,6.74-3.68V80.6c0-5.87,2.45-13.52,2.45-13.52.94-2,2.24-3.23,3.58-3.23,1.83,0,2.08,1.58,2.08,3.3C218.55,70.67,214.45,79.14,214.08,80.66Z" transform="translate(-24.67 -1.2)"/>
    <path d="M234.64,80.66a2.92,2.92,0,0,0-.09.73,2.07,2.07,0,0,0,2,2.35c.81,0,1.3-.51,1.61-.51s.78.16.78.83c0,1.94-2.21,3.21-4,3.21a3.36,3.36,0,0,1-3.26-2.42,17.25,17.25,0,0,1-8.76,2.83c-2.39,0-4.26-.89-4.26-3.3,0-3.4,5.16-8.29,9.73-8.29,1.36,0,1.89.7,1.89,1.46a2.17,2.17,0,0,1-1.8,2.07c-3.39.06-5.9,2.44-5.9,3.93,0,.67.5,1.14,1.71,1.14,2.82,0,5.28-2.06,6.74-3.68V80.6c0-5.87,2.45-13.52,2.45-13.52.93-2,2.24-3.23,3.57-3.23,1.84,0,2.08,1.58,2.08,3.3C239.11,70.67,235,79.14,234.64,80.66Z" transform="translate(-24.67 -1.2)"/>
    <path d="M243.09,87.49a3.24,3.24,0,0,1-3.57-3.43c0-1.68.59-5.4,1.49-6.79a10.47,10.47,0,0,1,3.2-.89.59.59,0,0,1,.65.57c0,.51-1.3,3.37-1.3,4.67s.53,2.22,1.8,2.22,1-.67,1.93-.67a.94.94,0,0,1,1,.73C248.31,85.84,245.52,87.49,243.09,87.49Zm-.21-14.19s-1.15,0-1.15-.73a16.27,16.27,0,0,1,1.08-3.17,1.69,1.69,0,0,1,1.65-.79c.65,0,2,.09,2,1A3.7,3.7,0,0,1,242.88,73.3Z" transform="translate(-24.67 -1.2)"/>
    <path d="M259.9,87c-1.93,0-2-1.21-2-3.55,0-.45-.09-.77-.65-.77s-4.41,3.56-4.85,3.94a1.89,1.89,0,0,1-1.21.44c-.62,0-1.46-.32-1.46-1.08,0-1,1.4-3.55,1.4-4.95a1.13,1.13,0,0,0-1.28-1.2c-.71,0-1.42.51-1.92.51s-.84-.61-.84-1.18c0,0,0-2.73,4.47-2.73,1.93,0,2.46.8,2.46,1.72a15.81,15.81,0,0,1-.65,2.72.26.26,0,0,0,.24.29c.5,0,4.07-2.92,6.37-2.92,1.09,0,2.15.29,2.15,1.52s-.56,1.81-.56,2.86c0,.35.06,1,.8,1,1.31,0,3.3-1.31,3.92-1.31.4,0,.62.35.62.8C266.89,84.66,262.82,87,259.9,87Z" transform="translate(-24.67 -1.2)"/>
    <path d="M283.48,88.44c-.22,1.27-1.3,1.36-2.45,1.65-.78.19-1.59.38-2.4.6-3.26,8.35-9,12.16-12.79,12.16A3.6,3.6,0,0,1,262,98.94c0-4.85,7.36-8.69,13.52-10.75a17.23,17.23,0,0,0,.12-2.19,16.93,16.93,0,0,1-5.72,1.39c-1.92,0-3.57-.73-3.57-3.33,0-3.24,5.41-8,11.78-8,.77.29.83.51.83.76a4.68,4.68,0,0,1-.74,2.1,1.58,1.58,0,0,1-1.28.76c-1.49,0-6.64,2.22-6.64,4,0,.34.43.5,1.05.5,1.71,0,4.94-1.14,5.81-3,.13-.22,0-.51,1.62-1.14a3.49,3.49,0,0,1,1.27-.29.84.84,0,0,1,1,.89v.16a38.6,38.6,0,0,1-1.08,6.13,16.38,16.38,0,0,1,3-.48c.47,0,.75.19.75.79A7.62,7.62,0,0,1,283.48,88.44Zm-18.27,9.8A1.55,1.55,0,0,0,267,99.86c2.24,0,6.06-2.57,7.77-8C269.72,93.61,265.21,95.86,265.21,98.24Z" transform="translate(-24.67 -1.2)"/>
    <path d="M286.18,87.11c-1.18,0-1.86-.32-1.86-1.84a3.26,3.26,0,0,1,.25-1.34,1.69,1.69,0,0,1,1.65-.79c.65,0,1.95.09,1.95,1S287.8,87.11,286.18,87.11Zm6.12-21.26c-.18.69-3.79,8.85-3.79,14.12,0,1.14,0,1.84-.65,1.84,0,0-2.08-.51-2.08-1.84a3.47,3.47,0,0,1,.16-1c1.49-5.23,1.43-11.45,2.3-13.55.52-1.3,1.8-1.36,3.26-1.36.37,0,1.21,0,1.21.41A7.26,7.26,0,0,1,292.3,65.85Z" transform="translate(-24.67 -1.2)"/>
  </g>
</svg>
