<?xml version="1.0" encoding="utf-8"?>
<!-- Generator: Adobe Illustrator 25.2.0, SVG Export Plug-In . SVG Version: 6.00 Build 0)  -->
<svg version="1.1" id="Layer_1" xmlns="http://www.w3.org/2000/svg" xmlns:xlink="http://www.w3.org/1999/xlink" x="0px" y="0px"
	 viewBox="0 0 268 101.6" style="enable-background:new 0 0 268 101.6;" xml:space="preserve">
<style type="text/css">
	.st0{fill:#231F20;}
	.st1{fill:url(#SVGID_1_);stroke:#000000;stroke-width:0.75;stroke-miterlimit:10;}
	.st2{fill:url(#SVGID_2_);stroke:#000000;stroke-width:0.75;stroke-miterlimit:10;}
	.st3{fill:url(#SVGID_3_);stroke:#000000;stroke-width:0.75;stroke-miterlimit:10;}
	.st4{fill:url(#SVGID_4_);stroke:#000000;stroke-width:0.75;stroke-miterlimit:10;}
	.st5{fill:url(#SVGID_5_);stroke:#000000;stroke-width:0.75;stroke-miterlimit:10;}
	.st6{fill:url(#SVGID_6_);stroke:#000000;stroke-width:0.75;stroke-miterlimit:10;}
	.st7{fill:url(#SVGID_7_);stroke:#000000;stroke-width:0.75;stroke-miterlimit:10;}
	.st8{fill:url(#SVGID_8_);stroke:#000000;stroke-width:0.75;stroke-miterlimit:10;}
	.st9{fill:url(#SVGID_9_);stroke:#000000;stroke-width:0.75;stroke-miterlimit:10;}
	.st10{fill:url(#SVGID_10_);stroke:#000000;stroke-width:0.75;stroke-miterlimit:10;}
</style>
<g>
	<path class="st0" d="M38,66.5c0-6.9,3.4-13.2,10.8-13.7c2.5-0.2,5,0.4,6.7-0.4c0.5,1.6,0.8,3.2,0.8,4.9c0,3.2-1.1,5.4-3.3,5.7
		c-1.5,0.2-3.1-0.9-5-3.1c-0.4,1-0.6,2.1-0.6,3.1c0,3.5,1.4,5.6,4.3,5.3c1.7-0.2,3.2-1.2,4.1-2.6c0.5,1.5,0.8,3.1,0.8,4.7
		c0,4.6-2.7,8.8-8.3,9.2C42.5,79.9,38,75.2,38,66.5z"/>
	<path class="st0" d="M57,73.3c0-3.6,2.1-6.5,7.3-7.4c0.6-0.1,1.2-0.2,1.8-0.2v-2.2c-1.1,1.1-2.5,1.8-4,2.1
		c-2.5,0.4-3.8-1.1-3.8-4.1c0-1.5,0.2-3,0.7-4.4c1.1,0.2,2.2,0.2,3.3,0c2.8-0.4,4.9-1.7,7.3-2.2c3.7-0.8,5.5,1.1,5.5,5.4
		c0,1.5-0.3,3.3-0.3,4.4c0,0.8,0.3,1.1,0.9,1c0.4-0.1,0.7-0.3,1-0.6c0.3,0.8,0.4,1.7,0.4,2.6c0,4-2.5,7.8-6,8.5
		c-2.8,0.6-4.4-1.1-4.2-3.7l-0.6,0.1c-0.6,3.2-2.6,5-4.9,5.3C58.8,78.4,57,76.3,57,73.3z M66.2,70.6v-3.1l-0.4,0.1
		c-0.6,0.7-0.9,1.6-0.9,2.5c0,0.8,0.3,1,0.7,1C65.9,70.9,66.1,70.8,66.2,70.6L66.2,70.6z"/>
	<path class="st0" d="M78.1,66.8c0.1-1.7,0.2-3.3,0.3-5c0.2-3.8,0-7.7-0.8-11.5c1.3-1.6,3.1-2.7,5.2-3.2c4.2-1,5.7,1.3,5.3,6.9
		l-0.5,7.6c-0.1,1.1,0.3,1.3,0.9,1.2c0.4-0.1,0.7-0.3,1-0.6c0.2,0.8,0.4,1.7,0.4,2.5c0,4-2.5,7.9-6.3,8.9
		C79.8,74.4,77.8,72.1,78.1,66.8z"/>
	<path class="st0" d="M89.4,47.5c0-3.4,1.5-5.3,4.1-6c1.3-0.4,3.1-0.3,4.8-0.8c0.7-0.2,1.3-0.6,1.9-1c0.3,0.9,0.4,1.8,0.4,2.7
		c0,2.7-0.8,3.8-2.7,4.4c-0.5,0.1-1.5,0.3-3.1,0.8c-1.9,0.5-3.7,1.5-5.2,2.9C89.5,49.4,89.4,48.4,89.4,47.5z M90.6,63.6
		c0.1-1.1,0.2-2.2,0.2-3.2c0.1-2.7-0.2-5.5-0.8-8.1c1.3-1.7,3.1-2.9,5.2-3.4c3.4-1,5.4,0.6,5.2,5.2l-0.3,4c-0.1,1.1,0.3,1.3,0.9,1.1
		c0.4-0.1,0.7-0.4,1-0.7c0.2,0.8,0.4,1.7,0.4,2.5c0,4-2.5,8-6.3,9.1C92.3,71.1,90.2,69,90.6,63.6L90.6,63.6z"/>
	<path class="st0" d="M104.6,70.6c0.9-3.1,1-6.2,1.2-10.4v-0.8c-0.9,0.3-1.7,0.8-2.5,1.3c-0.6-1.1-0.8-2.2-0.8-3.4
		c0-2.2,0.9-4.9,3.5-5.8l0.1-3.8c0.2-5,2.2-8,6.3-9.3c1.5-0.5,4.7-0.9,6.2-1.6c0.5,1.1,0.7,2.4,0.7,3.6c0,2.6-0.6,4.8-2.6,5.5
		c-1.3,0.4-2.9,0.1-4.9-2.6c0.7,1.9,1.4,3.8,1.9,5.7l1.1-0.4c1.2-0.4,2.3-0.9,3.4-1.5c0.6,1,0.8,2.1,0.8,3.2c0,2.2-0.9,5-3,5.6
		l-0.7,0.2c0.2,1.3,0.3,2.5,0.3,3.8c0,7-2.6,10.6-6.2,11.8C107.3,72.3,105.6,72,104.6,70.6z"/>
	<path class="st0" d="M119.5,52.3c0-6.8,3.9-12.7,10.1-14.7c5.8-1.9,9.6,1,9.6,7.7c0.1,6.5-4,12.3-10.1,14.3
		C123.3,61.6,119.5,58.8,119.5,52.3z M130.4,48.1c0-2.6-0.4-3.8-1.1-3.6c-0.7,0.2-1.1,1.8-1.1,4.6c0,2.6,0.4,3.8,1.1,3.5
		S130.4,50.9,130.4,48.1z"/>
	<path class="st0" d="M140.2,55.4c0.1-3,0.2-5.9,0.3-8.9c0.2-3.5-0.1-6.9-1-10.3c1.3-1.5,2.9-2.5,4.8-3.1c3.6-1.1,4.4,1,4.1,5.7
		l0.7-0.2c0-4.9,1.4-7.5,3.4-8.1c1.1-0.3,2-0.1,3.1-0.5c0.8,1.6,1.1,3.5,1.1,5.3c0,3.3-1.2,6.9-3.7,7.6c-1.4,0.4-2.5,0.2-3.2-1
		l-0.3,0.1c0.1,3.5,0.1,7,0.2,10.5C146.6,53.3,143.4,54.4,140.2,55.4z"/>
	<path class="st0" d="M168.3,39.5c0-1.5,0.1-3,0.4-4.4c-0.1-0.1-0.3-0.1-0.4-0.1c-0.8,0.2-1.2,1.1-1.2,4v8.5
		c-3.2,0.8-6.3,1.7-9.5,2.6l0.3-9.2c0.2-3.2-0.1-6.5-0.8-9.6c1.2-1.6,2.9-2.8,4.9-3.3c3.1-0.8,4.9,0.6,4.8,4.5l0.5-0.1
		c0.8-3.7,2.9-6.5,6-7.2c3.3-0.8,5,1.7,4.7,6.4l-0.2,3.2c-0.1,1.1,0.3,1.4,0.9,1.2c0.4-0.1,0.7-0.3,1-0.6c0.2,0.8,0.4,1.7,0.4,2.6
		c0,4-2.5,7.7-6.2,8.5C170.1,47.2,168.3,45,168.3,39.5z"/>
	<path class="st0" d="M179.7,20.7c0-3.4,1.5-5.2,4.1-5.7c1.3-0.2,3.1,0,4.8-0.3c0.7-0.2,1.3-0.4,1.9-0.8c0.3,0.9,0.4,1.8,0.4,2.7
		c0,2.7-0.8,3.7-2.7,4c-0.5,0.1-1.5,0.1-3.1,0.4c-1.9,0.3-3.7,1.1-5.2,2.4C179.8,22.6,179.7,21.6,179.7,20.7z M180.8,36.8l0.2-3.2
		c0.1-2.8-0.2-5.5-0.8-8.2c1.3-1.6,3.2-2.6,5.2-2.9c3.4-0.6,5.4,1.4,5.2,5.9l-0.3,4c-0.1,1.1,0.3,1.4,0.9,1.3c0.4-0.1,0.7-0.2,1-0.5
		c0.2,0.8,0.4,1.7,0.4,2.6c0,4-2.5,7.5-6.3,8.2C182.6,44.5,180.5,42.2,180.8,36.8L180.8,36.8z"/>
	<path class="st0" d="M193.1,37.5c0-3.6,2.1-6.6,7.3-7.1c0.6-0.1,1.2-0.1,1.8,0v-2.2c-1.1,1-2.6,1.6-4,1.8c-2.5,0.3-3.8-1.2-3.8-4.2
		c0-1.5,0.2-3,0.7-4.4c1.1,0.2,2.2,0.3,3.3,0.1c2.8-0.3,4.9-1.4,7.3-1.5c3.7-0.2,5.5,2.1,5.5,6.4c0,1.5-0.3,3.3-0.3,4.4
		c0,0.8,0.3,1.2,0.9,1.2c0.4,0,0.7-0.1,1-0.4c0.2,0.9,0.4,1.7,0.4,2.6c0,4-2.5,7.2-6,7.3c-2.8,0.1-4.4-1.7-4.2-4.3l-0.6,0
		c-0.6,3.1-2.6,4.7-4.9,5C194.8,42.6,193.1,40.5,193.1,37.5z M202.3,35.2v-3.1h-0.4c-0.6,0.7-0.9,1.5-0.9,2.4c0,0.8,0.3,1.1,0.7,1
		C201.9,35.5,202.1,35.4,202.3,35.2L202.3,35.2z"/>
</g>
<g>
	
		<linearGradient id="SVGID_1_" gradientUnits="userSpaceOnUse" x1="68.4105" y1="49.785" x2="80.9523" y2="28.0546" gradientTransform="matrix(1 0 0 -1 -24.67 102.8)">
		<stop  offset="0" style="stop-color:#FEE6D6"/>
		<stop  offset="0.34" style="stop-color:#FEE8D9"/>
		<stop  offset="0.62" style="stop-color:#FEEEE3"/>
		<stop  offset="0.88" style="stop-color:#FFF9F4"/>
		<stop  offset="1" style="stop-color:#FFFFFF"/>
	</linearGradient>
	<path class="st1" d="M39,64.6c0-6.9,3.4-13.2,10.8-13.7c2.5-0.2,5,0.4,6.7-0.5c0.5,1.6,0.8,3.2,0.8,4.9c0,3.2-1.1,5.4-3.3,5.7
		c-1.5,0.2-3.1-0.9-5-3.1c-0.4,1-0.6,2.1-0.6,3.1c0,3.5,1.4,5.6,4.3,5.3c1.7-0.2,3.2-1.2,4.1-2.6c0.5,1.5,0.7,3.1,0.7,4.7
		c0,4.6-2.7,8.8-8.3,9.2C43.6,78.1,39,73.3,39,64.6z"/>
	
		<linearGradient id="SVGID_2_" gradientUnits="userSpaceOnUse" x1="86.0401" y1="48.287" x2="97.4831" y2="28.4774" gradientTransform="matrix(1 0 0 -1 -24.67 102.8)">
		<stop  offset="0" style="stop-color:#FEE6D6"/>
		<stop  offset="0.34" style="stop-color:#FEE8D9"/>
		<stop  offset="0.62" style="stop-color:#FEEEE3"/>
		<stop  offset="0.88" style="stop-color:#FFF9F4"/>
		<stop  offset="1" style="stop-color:#FFFFFF"/>
	</linearGradient>
	<path class="st2" d="M58.1,71.4c0-3.6,2.1-6.5,7.4-7.4c0.6-0.1,1.2-0.2,1.8-0.2v-2.2c-1.1,1.1-2.5,1.8-4,2.2
		c-2.5,0.4-3.8-1.1-3.8-4.1c0-1.5,0.2-3,0.7-4.4c1.1,0.2,2.2,0.2,3.3,0c2.8-0.5,4.9-1.8,7.3-2.2c3.7-0.8,5.5,1.1,5.5,5.4
		c0,1.5-0.3,3.4-0.3,4.4c0,0.8,0.3,1.1,0.9,1c0.4-0.1,0.7-0.3,1-0.6c0.2,0.8,0.4,1.7,0.4,2.6c0,3.9-2.5,7.7-6,8.4
		c-2.8,0.6-4.4-1.1-4.2-3.7l-0.6,0.1c-0.6,3.2-2.6,5-4.9,5.3C59.8,76.5,58.1,74.4,58.1,71.4z M67.2,68.6v-3.1l-0.4,0.1
		c-0.6,0.7-0.9,1.6-0.9,2.5c0,0.8,0.3,1,0.7,1C66.9,69,67.1,68.9,67.2,68.6L67.2,68.6z"/>
	
		<linearGradient id="SVGID_3_" gradientUnits="userSpaceOnUse" x1="102.8232" y1="54.9472" x2="114.7524" y2="34.2832" gradientTransform="matrix(1 0 0 -1 -24.67 102.8)">
		<stop  offset="0" style="stop-color:#FEE6D6"/>
		<stop  offset="0.34" style="stop-color:#FEE8D9"/>
		<stop  offset="0.62" style="stop-color:#FEEEE3"/>
		<stop  offset="0.88" style="stop-color:#FFF9F4"/>
		<stop  offset="1" style="stop-color:#FFFFFF"/>
	</linearGradient>
	<path class="st3" d="M79.1,64.8l0.3-5c0.3-3.8,0-7.7-0.8-11.5c1.3-1.6,3.1-2.7,5.2-3.2c4.2-1.1,5.7,1.2,5.3,6.8l-0.5,7.6
		c-0.1,1.1,0.3,1.3,0.9,1.2c0.4-0.1,0.7-0.3,1-0.6c0.2,0.8,0.4,1.7,0.4,2.5c0,4-2.5,7.9-6.3,8.9C80.8,72.4,78.8,70.2,79.1,64.8z"/>
	
		<linearGradient id="SVGID_4_" gradientUnits="userSpaceOnUse" x1="115.3274" y1="61.3956" x2="128.5246" y2="38.5317" gradientTransform="matrix(1 0 0 -1 -24.67 102.8)">
		<stop  offset="0" style="stop-color:#FEE6D6"/>
		<stop  offset="0.34" style="stop-color:#FEE8D9"/>
		<stop  offset="0.62" style="stop-color:#FEEEE3"/>
		<stop  offset="0.88" style="stop-color:#FFF9F4"/>
		<stop  offset="1" style="stop-color:#FFFFFF"/>
	</linearGradient>
	<path class="st4" d="M90.4,45.5c0-3.4,1.5-5.3,4.1-6.1c1.3-0.4,3.1-0.4,4.8-0.9c0.7-0.2,1.3-0.6,1.9-1c0.3,0.9,0.4,1.8,0.4,2.7
		c0,2.7-0.8,3.9-2.7,4.4c-0.5,0.1-1.5,0.4-3.1,0.8c-1.9,0.5-3.7,1.5-5.2,2.9C90.5,47.4,90.4,46.4,90.4,45.5z M91.6,61.5l0.2-3.2
		c0.1-2.7-0.2-5.5-0.8-8.2c1.3-1.7,3.1-2.9,5.2-3.5c3.4-1,5.4,0.6,5.2,5.2l-0.3,4c-0.1,1.1,0.3,1.3,0.9,1.1c0.4-0.1,0.7-0.4,1-0.7
		c0.2,0.8,0.4,1.7,0.4,2.5c0,4-2.5,8-6.3,9.2C93.3,69.1,91.2,66.9,91.6,61.5L91.6,61.5z"/>
	
		<linearGradient id="SVGID_5_" gradientUnits="userSpaceOnUse" x1="130.7343" y1="62.5457" x2="144.5698" y2="38.58" gradientTransform="matrix(1 0 0 -1 -24.67 102.8)">
		<stop  offset="0" style="stop-color:#FEE6D6"/>
		<stop  offset="0.34" style="stop-color:#FEE8D9"/>
		<stop  offset="0.62" style="stop-color:#FEEEE3"/>
		<stop  offset="0.88" style="stop-color:#FFF9F4"/>
		<stop  offset="1" style="stop-color:#FFFFFF"/>
	</linearGradient>
	<path class="st5" d="M105.6,68.5c0.9-3.1,1-6.2,1.2-10.4v-0.8c-0.9,0.3-1.7,0.8-2.5,1.3c-0.6-1-0.8-2.2-0.8-3.4
		c0-2.2,0.9-4.9,3.5-5.8l0.1-3.8c0.2-5,2.2-8,6.3-9.3c1.5-0.5,4.7-0.9,6.2-1.7c0.5,1.1,0.7,2.4,0.7,3.6c0,2.6-0.6,4.8-2.6,5.5
		c-1.3,0.4-2.9,0.1-4.9-2.6c0.7,1.9,1.4,3.8,1.9,5.7l1.1-0.4c1.2-0.4,2.3-0.9,3.4-1.5c0.6,1,0.8,2.1,0.8,3.2c0,2.2-0.9,5-3,5.7
		l-0.7,0.2c0.2,1.3,0.3,2.5,0.3,3.8c0,7-2.6,10.6-6.2,11.8C108.3,70.2,106.6,69.9,105.6,68.5z"/>
	
		<linearGradient id="SVGID_6_" gradientUnits="userSpaceOnUse" x1="150.1063" y1="64.7195" x2="159.8219" y2="47.8929" gradientTransform="matrix(1 0 0 -1 -24.67 102.8)">
		<stop  offset="0" style="stop-color:#FEE6D6"/>
		<stop  offset="0.34" style="stop-color:#FEE8D9"/>
		<stop  offset="0.62" style="stop-color:#FEEEE3"/>
		<stop  offset="0.88" style="stop-color:#FFF9F4"/>
		<stop  offset="1" style="stop-color:#FFFFFF"/>
	</linearGradient>
	<path class="st6" d="M120.5,50.2c0-6.8,3.9-12.7,10.1-14.7c5.8-1.9,9.6,1,9.6,7.7c0.1,6.5-4,12.3-10.1,14.4
		C124.4,59.4,120.5,56.6,120.5,50.2z M131.4,45.9c0-2.6-0.4-3.8-1.1-3.5c-0.7,0.2-1.1,1.8-1.1,4.6c0,2.6,0.4,3.8,1.1,3.5
		C131,50.2,131.4,48.7,131.4,45.9z"/>
	
		<linearGradient id="SVGID_7_" gradientUnits="userSpaceOnUse" x1="168.3843" y1="71.3504" x2="178.214" y2="54.3239" gradientTransform="matrix(1 0 0 -1 -24.67 102.8)">
		<stop  offset="0" style="stop-color:#FEE6D6"/>
		<stop  offset="0.34" style="stop-color:#FEE8D9"/>
		<stop  offset="0.62" style="stop-color:#FEEEE3"/>
		<stop  offset="0.88" style="stop-color:#FFF9F4"/>
		<stop  offset="1" style="stop-color:#FFFFFF"/>
	</linearGradient>
	<path class="st7" d="M141.2,53.1c0.1-3,0.2-5.9,0.3-8.9c0.2-3.5-0.1-6.9-1-10.3c1.3-1.4,3-2.5,4.8-3.1c3.6-1.2,4.4,1,4.1,5.7
		l0.7-0.2c0-4.9,1.4-7.5,3.4-8.1c1.1-0.3,2-0.1,3.1-0.5c0.8,1.6,1.1,3.4,1.1,5.3c0,3.3-1.2,6.9-3.7,7.6c-1.4,0.4-2.5,0.2-3.2-1
		l-0.3,0.1c0.1,3.5,0.1,7,0.2,10.5C147.6,51.1,144.4,52.1,141.2,53.1z"/>
	
		<linearGradient id="SVGID_8_" gradientUnits="userSpaceOnUse" x1="187.0361" y1="77.2847" x2="198.281" y2="57.8105" gradientTransform="matrix(1 0 0 -1 -24.67 102.8)">
		<stop  offset="0" style="stop-color:#FEE6D6"/>
		<stop  offset="0.34" style="stop-color:#FEE8D9"/>
		<stop  offset="0.62" style="stop-color:#FEEEE3"/>
		<stop  offset="0.88" style="stop-color:#FFF9F4"/>
		<stop  offset="1" style="stop-color:#FFFFFF"/>
	</linearGradient>
	<path class="st8" d="M169.4,37.1c0-1.5,0.1-3,0.4-4.4c-0.1-0.1-0.3-0.1-0.4-0.1c-0.7,0.2-1.2,1.1-1.2,4v8.5
		c-3.2,0.8-6.3,1.7-9.5,2.6l0.3-9.3c0.2-3.2-0.1-6.5-0.8-9.6c1.2-1.6,2.9-2.8,4.9-3.4c3.1-0.9,4.9,0.6,4.8,4.4l0.5-0.1
		c0.8-3.7,2.9-6.5,6-7.2c3.3-0.8,5,1.7,4.7,6.4c-0.1,1.1-0.1,2.1-0.2,3.2s0.3,1.4,0.9,1.2c0.4-0.1,0.7-0.3,1-0.6
		c0.2,0.8,0.4,1.7,0.4,2.6c0,4-2.5,7.7-6.2,8.6C171.2,44.8,169.4,42.6,169.4,37.1z"/>
	
		<linearGradient id="SVGID_9_" gradientUnits="userSpaceOnUse" x1="205.3948" y1="88.2586" x2="218.8829" y2="64.895" gradientTransform="matrix(1 0 0 -1 -24.67 102.8)">
		<stop  offset="0" style="stop-color:#FEE6D6"/>
		<stop  offset="0.34" style="stop-color:#FEE8D9"/>
		<stop  offset="0.62" style="stop-color:#FEEEE3"/>
		<stop  offset="0.88" style="stop-color:#FFF9F4"/>
		<stop  offset="1" style="stop-color:#FFFFFF"/>
	</linearGradient>
	<path class="st9" d="M180.7,18.3c0-3.4,1.5-5.2,4.1-5.7c1.3-0.2,3.1,0,4.8-0.3c0.7-0.2,1.3-0.4,1.9-0.8c0.3,0.9,0.4,1.8,0.4,2.7
		c0,2.7-0.8,3.7-2.7,4c-0.5,0.1-1.5,0.1-3.1,0.4c-1.9,0.3-3.7,1.1-5.2,2.4C180.8,20.2,180.7,19.2,180.7,18.3z M181.8,34.4
		c0.1-1.1,0.1-2.1,0.2-3.2c0.1-2.8-0.2-5.5-0.8-8.2c1.3-1.6,3.2-2.6,5.2-3c3.4-0.6,5.4,1.3,5.2,5.9l-0.3,4c-0.1,1.1,0.3,1.4,0.9,1.3
		c0.4-0.1,0.7-0.3,1-0.5c0.2,0.8,0.4,1.7,0.4,2.6c0,4-2.5,7.5-6.3,8.2C183.6,42.1,181.5,39.8,181.8,34.4z"/>
	
		<linearGradient id="SVGID_10_" gradientUnits="userSpaceOnUse" x1="221.7425" y1="84.4516" x2="233.8126" y2="63.5484" gradientTransform="matrix(1 0 0 -1 -24.67 102.8)">
		<stop  offset="0" style="stop-color:#FEE6D6"/>
		<stop  offset="0.34" style="stop-color:#FEE8D9"/>
		<stop  offset="0.62" style="stop-color:#FEEEE3"/>
		<stop  offset="0.88" style="stop-color:#FFF9F4"/>
		<stop  offset="1" style="stop-color:#FFFFFF"/>
	</linearGradient>
	<path class="st10" d="M194.1,35.1c0-3.6,2.1-6.6,7.4-7.1c0.6-0.1,1.2-0.1,1.8,0v-2.2c-1.1,1-2.6,1.6-4,1.8
		c-2.5,0.3-3.8-1.2-3.8-4.2c0-1.5,0.2-3,0.7-4.4c1.1,0.2,2.2,0.3,3.3,0.1c2.8-0.3,4.9-1.4,7.3-1.5c3.7-0.2,5.5,2.1,5.5,6.4
		c0,1.5-0.3,3.3-0.3,4.4c0,0.8,0.3,1.2,0.9,1.2c0.4,0,0.7-0.1,1-0.4c0.2,0.9,0.4,1.7,0.4,2.6c0,4-2.5,7.2-6,7.3
		c-2.8,0.1-4.4-1.7-4.2-4.3l-0.6,0c-0.6,3.2-2.6,4.7-4.9,5C195.9,40.1,194.1,38,194.1,35.1z M203.3,32.7v-3.1h-0.4
		c-0.6,0.7-0.9,1.5-0.9,2.4c0,0.8,0.3,1.1,0.7,1C202.9,33,203.1,32.9,203.3,32.7L203.3,32.7z"/>
</g>
<g>
	<path d="M151.8,77.2c-2.8,0-4.8-1.8-6.4-6c0-0.1-0.1-0.2-0.2-0.2s-0.1,0-0.1,0.1c-0.6,1.5-2.9,6.4-7.7,6.4c-1.9,0-2.8-1.1-2.8-3.5
		c0-2.9,2.2-9.8,2.2-11.6c0-0.5-0.2-0.7-0.7-0.7c-0.6,0-0.9,0.2-1.4,0.2c-0.4,0.1-0.7-0.2-0.8-0.5c0-0.1,0-0.1,0-0.2
		c0-1.3,2-4,4.6-4c1.3,0,1.5,1.5,1.5,2.6c0,4.4-2.1,6.2-2.1,11.4c0,0.8,0,2.1,1,2.1c3.1,0,5.1-9.2,5.5-11c0.3-1.2,0.5-2.2,1.7-2.4
		c0.3,0,0.8-0.1,1-0.1c0.5,0,0.9,0.2,0.9,0.8c0,1.2-0.6,3.7-0.6,5.8c0,2.7,0.5,6.7,4.2,6.8c4.1-0.6,6.5-5.3,6.5-9.2
		c0-2.4-1.2-4.4-4.5-4.5c-0.3,0-0.6-0.3-0.7-0.6c0-0.8,2-1.7,3.8-1.7c3.5,0,5.6,2.8,5.6,6.8C162.4,67.7,158.9,77.2,151.8,77.2z"/>
	<path d="M164.3,74.2c0,0,0,0.6,2.1,0.6c1.7,0,2.3-1,3.2-1c0.5,0,0.8,0.2,0.8,0.6c0,1.6-2.8,2.9-5.4,2.9c-3.1,0-4.4-1.5-4.4-3.2
		c0-2.7,3.1-6.2,7.4-6.2c2.1,0,3,0.7,3,1.6C170.8,71.1,167.7,73.7,164.3,74.2z M166.7,69.6c-1,0-2.9,1.3-2.9,2.4
		c0,0.1,0,0.2,0.2,0.2c1.2,0,3.3-1.4,3.3-2.3C167.4,69.7,167.1,69.6,166.7,69.6L166.7,69.6z"/>
	<path d="M182.7,71.8c-0.1,0.2-0.1,0.4-0.1,0.6c-0.1,0.9,0.5,1.7,1.4,1.8c0.1,0,0.1,0,0.2,0c0.6,0,1-0.4,1.2-0.4
		c0.2,0,0.6,0.1,0.6,0.6c0,1.5-1.7,2.5-3.1,2.5c-1.2,0-2.2-0.7-2.5-1.8c-2,1.3-4.3,2.1-6.7,2.2c-1.8,0-3.2-0.7-3.2-2.5
		c0-2.6,3.9-6.3,7.4-6.3c1,0,1.4,0.5,1.4,1.1c0,0.8-0.6,1.4-1.4,1.6c-2.6,0-4.5,1.9-4.5,3c0,0.5,0.4,0.9,1.3,0.9
		c2.2,0,4-1.6,5.1-2.8v-0.3c0-4.5,1.9-10.3,1.9-10.3c0.7-1.5,1.7-2.5,2.7-2.5c1.4,0,1.6,1.2,1.6,2.5C186.1,64.2,183,70.7,182.7,71.8
		z"/>
	<path d="M198.4,71.8c0,0.2-0.1,0.4-0.1,0.6c-0.1,0.9,0.5,1.7,1.4,1.8c0.1,0,0.1,0,0.2,0c0.6,0,1-0.4,1.2-0.4s0.6,0.1,0.6,0.6
		c0,1.5-1.7,2.5-3.1,2.5c-1.2,0-2.2-0.7-2.5-1.8c-2,1.3-4.3,2.1-6.7,2.2c-1.8,0-3.3-0.7-3.3-2.5c0-2.6,3.9-6.3,7.4-6.3
		c1,0,1.4,0.5,1.4,1.1c0,0.8-0.6,1.4-1.4,1.6c-2.6,0-4.5,1.9-4.5,3c0,0.5,0.4,0.9,1.3,0.9c2.2,0,4-1.6,5.1-2.8v-0.3
		c0-4.5,1.9-10.3,1.9-10.3c0.7-1.5,1.7-2.5,2.7-2.5c1.4,0,1.6,1.2,1.6,2.5C201.8,64.2,198.7,70.7,198.4,71.8z"/>
	<path d="M204.8,77c-1.4,0.1-2.6-0.8-2.7-2.2c0-0.1,0-0.3,0-0.4c0-1.3,0.5-4.1,1.1-5.2c0.8-0.4,1.6-0.6,2.4-0.7
		c0.2,0,0.5,0.2,0.5,0.4c0,0,0,0,0,0c0,0.4-1,2.6-1,3.6c0,1,0.4,1.7,1.4,1.7s0.8-0.5,1.5-0.5c0.4,0,0.7,0.2,0.8,0.6
		C208.8,75.8,206.7,77,204.8,77z M204.7,66.2c0,0-0.9,0-0.9-0.6c0.2-0.8,0.5-1.6,0.8-2.4c0.3-0.4,0.8-0.7,1.3-0.6
		c0.5,0,1.5,0.1,1.5,0.8C207.4,64.9,206.2,66.1,204.7,66.2L204.7,66.2z"/>
	<path d="M217.7,76.7c-1.5,0-1.5-0.9-1.5-2.7c0-0.3-0.1-0.6-0.5-0.6c-0.4,0-3.4,2.7-3.7,3c-0.3,0.2-0.6,0.3-0.9,0.3
		c-0.5,0-1.1-0.2-1.1-0.8c0-0.8,1.1-2.7,1.1-3.8c0-0.5-0.3-0.9-0.8-0.9c-0.1,0-0.1,0-0.2,0c-0.5,0-1.1,0.4-1.5,0.4s-0.6-0.5-0.6-0.9
		c0,0,0-2.1,3.4-2.1c1.5,0,1.9,0.6,1.9,1.3c-0.1,0.7-0.3,1.4-0.5,2.1c0,0.1,0.1,0.2,0.2,0.2c0,0,0,0,0,0c0.4,0,3.1-2.2,4.9-2.2
		c0.8,0,1.6,0.2,1.6,1.2c0,0.9-0.4,1.4-0.4,2.2c0,0.3,0,0.8,0.6,0.8c1,0,2.5-1,3-1c0.3,0,0.5,0.3,0.5,0.6
		C223,74.9,219.9,76.7,217.7,76.7z"/>
	<path d="M235.7,77.8c-0.2,1-1,1-1.9,1.3c-0.6,0.1-1.2,0.3-1.8,0.5c-2.5,6.4-6.9,9.3-9.8,9.3c-1.5,0.1-2.8-1-2.9-2.5
		c0-0.1,0-0.3,0-0.4c0-3.7,5.6-6.6,10.3-8.2c0.1-0.6,0.1-1.1,0.1-1.7c-1.4,0.6-2.9,1-4.4,1.1c-1.5,0-2.7-0.6-2.7-2.5
		c0-2.5,4.1-6.1,9-6.1c0.6,0.2,0.6,0.4,0.6,0.6c-0.1,0.6-0.3,1.1-0.6,1.6c-0.2,0.3-0.6,0.6-1,0.6c-1.1,0-5.1,1.7-5.1,3.1
		c0,0.3,0.3,0.4,0.8,0.4c1.3,0,3.8-0.9,4.4-2.3c0.1-0.2,0-0.4,1.2-0.9c0.3-0.1,0.6-0.2,1-0.2c0.3-0.1,0.7,0.2,0.8,0.5
		c0,0.1,0,0.1,0,0.2v0.1c-0.1,1.6-0.4,3.1-0.8,4.7c0.8-0.2,1.5-0.3,2.3-0.4c0.4,0,0.6,0.1,0.6,0.6C235.8,77.2,235.8,77.5,235.7,77.8
		z M221.7,85.2c0,0.7,0.5,1.2,1.1,1.2c0.1,0,0.2,0,0.3,0c1.7,0,4.6-2,5.9-6.1C225.2,81.7,221.7,83.4,221.7,85.2L221.7,85.2z"/>
	<path d="M237.7,76.7c-0.9,0-1.4-0.2-1.4-1.4c0-0.4,0.1-0.7,0.2-1c0.3-0.4,0.8-0.7,1.3-0.6c0.5,0,1.5,0.1,1.5,0.8
		S239,76.7,237.7,76.7z M242.4,60.5c-0.1,0.5-2.9,6.8-2.9,10.8c0,0.9,0,1.4-0.5,1.4c0,0-1.6-0.4-1.6-1.4c0-0.3,0-0.5,0.1-0.8
		c1.1-4,1.1-8.7,1.8-10.3c0.4-1,1.4-1,2.5-1c0.3,0,0.9,0,0.9,0.3C242.7,59.8,242.6,60.2,242.4,60.5z"/>
</g>
</svg>
