<svg id="Layer_1" data-name="Layer 1" xmlns="http://www.w3.org/2000/svg" viewBox="0 0 348.66 57.41">
  <defs>
    <style>
      .cls-1 {
        fill: #cce8f9;
      }

      .cls-2 {
        fill: #f5bd60;
      }

      .cls-3 {
        fill: #fee7d6;
      }
    </style>
  </defs>
  <g>
    <path class="cls-1" d="M2.64,45.46c-.55-6.67,2.47-12.35,10.12-11.73,2.58.2,5.28,1.17,7,.67a15.6,15.6,0,0,1,1.17,4.7c.25,2.94-.67,4.68-3,4.59-1.54-.07-3.3-1.21-5.4-3.46a5.47,5.47,0,0,0-.39,2.8c.28,3.17,1.94,5.11,4.89,5.17a5.31,5.31,0,0,0,4.12-1.72,11.24,11.24,0,0,1,1.12,3.92c.37,3.68-2.17,6.41-7.87,6.87C8.4,57.82,3.33,54,2.64,45.46Z" transform="translate(0)"/>
    <path class="cls-1" d="M23,52.8c-.28-2.76,1.66-5,7.1-4.89a13,13,0,0,1,1.87.13c-.06-.59-.12-1.18-.17-1.79a7.81,7.81,0,0,1-4.07,1.13c-2.58,0-4-1.4-4.27-4a10.6,10.6,0,0,1,.35-3.84,11.06,11.06,0,0,0,3.47.56c2.9.09,5-.68,7.52-.65,3.81,0,5.88,2.17,6.22,5.72.12,1.23,0,2.63.07,3.46a.9.9,0,0,0,.9.9h.1a2.06,2.06,0,0,0,1-.28,5.69,5.69,0,0,1,.58,1.89c.32,2.79-2,4.75-5.59,4.92-2.92.12-4.65-1.06-4.68-2.86h-.58c-.38,2.18-2.36,3.16-4.71,3.29C25.15,56.63,23.2,55.09,23,52.8Zm9.35-1.12c-.08-.75-.16-1.52-.24-2.3h-.43a2,2,0,0,0-.74,1.74.79.79,0,0,0,.78.8h0A.85.85,0,0,0,32.31,51.68Z" transform="translate(0)"/>
    <path class="cls-1" d="M44.47,50.54c0-1.18-.07-2.41-.11-3.7a38.71,38.71,0,0,0-1.75-10.13,7.49,7.49,0,0,1,5.17-2c4.3-.16,6.06,2.67,6.12,7.48q0,3.26.08,6.06c0,.79.37,1,1,1a2.2,2.2,0,0,0,1-.3,6.33,6.33,0,0,1,.58,1.85c.32,2.74-2,4.6-6,4.77C46.85,55.67,44.57,54.29,44.47,50.54Z" transform="translate(0)"/>
    <path class="cls-1" d="M54.89,36.54c-.28-3.33,1.13-5,3.88-5.14,1.31-.08,3.25.38,5,.25a5.48,5.48,0,0,0,1.94-.6,9.56,9.56,0,0,1,.62,2.85c.21,2.73-.52,3.6-2.47,3.73-.48,0-1.58,0-3.21.08a10.08,10.08,0,0,0-5.25,1.57A14.09,14.09,0,0,1,54.89,36.54Zm2.5,13.62V47.84A23.83,23.83,0,0,0,55.87,41a7.86,7.86,0,0,1,5.2-2c3.53-.22,5.8,1.84,5.86,5.57,0,1.08,0,2.11.06,3.1,0,.8.37,1,1,1a2.11,2.11,0,0,0,1-.32,6.33,6.33,0,0,1,.58,1.85c.31,2.76-2,4.64-6,4.81-3.75.12-6.14-1.15-6.18-4.83Z" transform="translate(0)"/>
    <path class="cls-1" d="M72.73,56.33c.73-1.48.6-3.24.42-6.08v-.58a10.78,10.78,0,0,0-2.51.52,4.43,4.43,0,0,1-1.06-2.59,3.31,3.31,0,0,1,2.65-3.87,2.67,2.67,0,0,1,.56-.06c-.06-1-.12-2.14-.18-3.28-.22-4.49,1.68-7.25,5.92-7.62,1.61-.16,5,.15,6.42-.28a10.14,10.14,0,0,1,1,3.74c.2,2.53-.24,4.4-2.33,4.59-1.34.11-3.07-.41-5.37-3.41.8,1.69,1.66,3.63,2.45,5.53l1.14-.1a12,12,0,0,0,3.46-.69,5.1,5.1,0,0,1,1,2.8c.17,1.76-.54,3.73-2.7,3.83H82.9a17.84,17.84,0,0,1,.6,2.7c.56,4.5-1.86,5.64-5.64,5.87A8.49,8.49,0,0,1,72.73,56.33Z" transform="translate(0)"/>
    <path class="cls-1" d="M87.05,46.72c-.53-5.24,3.17-10.27,9.56-11,6-.78,10.21,3,10.74,8.51s-3.25,8.56-9.58,9C91.9,53.59,87.56,51.62,87.05,46.72Zm11.27-1.61c-.21-2.06-.74-3.22-1.46-3.13s-1,1.39-.81,3.64c.2,2,.74,2.93,1.46,2.87s1-1.12.81-3.38Z" transform="translate(0)"/>
    <path class="cls-1" d="M109.23,51.84c-.12-2-.23-4.18-.35-6.55A30.14,30.14,0,0,0,107,36.1a9.05,9.05,0,0,1,4.83-2.25c3.75-.57,4.74,1.79,4.76,5.94l.72-.1c-.39-4.45.93-6.93,3-7.22,1.15-.17,2.13.19,3.18-.09a12.64,12.64,0,0,1,1.59,5.15c.26,3-.74,6-3.26,6.33a3.38,3.38,0,0,1-3.42-1.22h-.29c.35,3,.69,5.7,1,8.21Q114.16,51.41,109.23,51.84Z" transform="translate(0)"/>
    <path class="cls-1" d="M137.73,42.31a21.28,21.28,0,0,1,0-3.91,1,1,0,0,0-.47-.09c-.75.11-1.17,1-.94,3.5s.45,4.81.67,7c-3.27.41-6.53.8-9.8,1.17-.14-2.31-.29-4.78-.44-7.39a32.86,32.86,0,0,0-1.64-8.84A8.45,8.45,0,0,1,130,31c3.18-.53,5.19,1.09,5.38,4.7l.57-.09c.56-3.38,2.59-6,5.71-6.55,3.41-.59,5.44,2,5.46,6.33v2.93c0,.93.46,1.22,1.09,1.12a2.11,2.11,0,0,0,1-.5,7.57,7.57,0,0,1,.58,2.29,6.45,6.45,0,0,1-5.74,7.09h-.14C140.24,48.83,138.15,47,137.73,42.31Z" transform="translate(0)"/>
    <path class="cls-1" d="M148.15,25.1c-.28-3.46,1.13-5.25,3.88-5.67,1.31-.21,3.25,0,5-.22a6.74,6.74,0,0,0,1.94-.75,8.63,8.63,0,0,1,.62,2.7c.21,2.67-.52,3.69-2.46,4-.49.09-1.59.17-3.22.45a10.46,10.46,0,0,0-5.25,2.32A15.14,15.14,0,0,1,148.15,25.1Zm2.5,15.32V37.51a27.19,27.19,0,0,0-1.52-7.72,8.43,8.43,0,0,1,5.2-2.85c3.53-.62,5.8,1.21,5.86,5.49,0,1.25,0,2.5.06,3.73,0,1,.37,1.23,1,1.13a2.24,2.24,0,0,0,1-.52,8.77,8.77,0,0,1,.58,2.36,6.8,6.8,0,0,1-6,7.48c-3.68.51-6.12-1.42-6.16-6.19Z" transform="translate(0)"/>
    <path class="cls-1" d="M163.54,40.76c-.28-3.26,1.65-6.16,7.1-7.14a11.75,11.75,0,0,1,1.87-.2l-.18-2.09a8.53,8.53,0,0,1-4.06,2.13c-2.58.45-4-.84-4.27-3.71a12.82,12.82,0,0,1,.35-4.23,10.37,10.37,0,0,0,3.47-.14c2.9-.51,5-1.75,7.52-2.18,3.81-.64,5.88,1.14,6.22,5.15.12,1.4,0,3.13.06,4.17.07.72.41,1.08,1,1a2.1,2.1,0,0,0,1-.52,8.39,8.39,0,0,1,.58,2.42c.32,3.79-2,7.34-5.59,7.89-2.92.46-4.65-1.13-4.68-3.55l-.58.1a5.45,5.45,0,0,1-4.71,5,4.24,4.24,0,0,1-5-3.31A3.55,3.55,0,0,1,163.54,40.76Zm9.35-2.86L172.65,35l-.43.08a3.33,3.33,0,0,0-.74,2.31c.06.72.43,1,.81.9A1,1,0,0,0,172.89,37.9Z" transform="translate(0)"/>
    <path class="cls-1" d="M193.43,33.22c-.18-2.13.45-5,.25-7.38-.12-1.41-.77-1.83-1.8-1.66a2,2,0,0,0-1.27.76A8.88,8.88,0,0,1,190,22.5c-.29-3.36,1.38-6.43,5.65-7,4-.52,6.53,2.13,7,7.1s-.62,7.65-.56,8.4c0,.35.16.47.39.43.94-.16,2.16-4.38,1.76-8.93a12.93,12.93,0,0,0-2-6.41A8.27,8.27,0,0,1,207.08,14c3.21-.36,5.66.86,6.16,6.23s-.56,8.24-.49,9c0,.35.15.47.38.43,1-.15,2.17-4.37,1.77-8.78a12.24,12.24,0,0,0-2-6.17,8.41,8.41,0,0,1,4.82-2c3.2-.31,5.77.79,6.27,6,.61,6.08-2.11,17.44-10.13,18.84a5,5,0,0,1-5.33-2.11,11.69,11.69,0,0,1-7,4.15C196.51,40.35,193.83,38,193.43,33.22Z" transform="translate(0)"/>
    <path class="cls-1" d="M224.86,25.54c-.65-7.55,4.64-10.35,9.22-10.92,5.16-.53,8.37,1.22,8.81,5.88a16.45,16.45,0,0,1,0,2.22c-2.83.48-5.65,1-8.48,1.49.54,1.21,1.6,1.72,3.43,1.45a7.52,7.52,0,0,0,4.18-2c.47.14,1,1.2,1.15,2.62.23,2.73-1.12,7.09-7.53,8.06C228.82,35.39,225.34,31.1,224.86,25.54ZM234,22.29l2.18-.65c.14-1.25-.24-2.8-1.12-2.68-.69.09-1.24,1.31-1.07,3.21Z" transform="translate(0)"/>
    <path class="cls-1" d="M244.15,22.47c-.54-6,1.8-9,5.73-9.44a5.44,5.44,0,0,1,4.64,1.64h.28a11.67,11.67,0,0,0-1.21-4,11,11,0,0,1,5.52-1.62c3.32-.19,5.08.79,5.35,3.11a11.05,11.05,0,0,1-.48,4c.07,1.22.15,2.5.23,3.84.06.93.46,1.22,1.09,1.16a2,2,0,0,0,1-.41,7.28,7.28,0,0,1,.58,2.29c.32,3.59-2,7.22-5.59,7.63a4,4,0,0,1-4.74-4,8.34,8.34,0,0,1,0-1l-.58.07c-.84,4.12-2.51,5.91-4.77,6.17C247.36,32.41,244.66,28.61,244.15,22.47Zm11.23.25q-.19-3.09-.4-5.79c-1.21.27-1.7,1.8-1.55,3.4s.78,2.52,1.75,2.41Z" transform="translate(0)"/>
    <path class="cls-1" d="M267.32,19.92c-.54-5.75,1.8-8.37,5.72-8.65a5.72,5.72,0,0,1,4.64,1.64H278a10,10,0,0,0-1.21-3.75,11.8,11.8,0,0,1,5.51-1.4c3.32-.13,5.08.82,5.36,3a10.1,10.1,0,0,1-.48,3.78q.12,1.76.24,3.69c0,.9.46,1.19,1.09,1.16a2.11,2.11,0,0,0,1-.35,7.07,7.07,0,0,1,.58,2.22c.31,3.48-2,6.87-5.59,7.13a4.23,4.23,0,0,1-4.72-3.66,3.4,3.4,0,0,1,0-.45v-.91h-.57c-.84,3.94-2.51,5.62-4.77,5.8C270.57,29.65,267.86,25.8,267.32,19.92Zm11.23.64c-.14-2-.27-3.81-.4-5.51-1.22.21-1.7,1.64-1.55,3.16s.77,2.44,1.75,2.37Z" transform="translate(0)"/>
    <path class="cls-1" d="M288.37,8.72c-.27-2,1.13-2.71,3.88-2.85,1.32-.06,3.26.14,5,.07a10.62,10.62,0,0,0,1.94-.32,2.84,2.84,0,0,1,.63,1.49c.21,1.54-.52,2.18-2.47,2.24h-3.22a13.3,13.3,0,0,0-5.24,1.1A6.91,6.91,0,0,1,288.37,8.72Zm2.5,11.83V17.88a15.57,15.57,0,0,0-1.52-6.14,9.32,9.32,0,0,1,5.2-1.49c3.52-.1,5.79,1.15,5.86,4.5q0,1.48.06,3.09c0,.86.36,1.13,1,1.12a2,2,0,0,0,1-.33,7.82,7.82,0,0,1,.58,2.22,6.14,6.14,0,0,1-5.39,6.81c-.2,0-.41,0-.61,0-3.74.2-6.13-2.53-6.18-7.16Z" transform="translate(0)"/>
    <path class="cls-1" d="M314.87,20a18,18,0,0,1,0-3.6,1,1,0,0,0-.48-.15c-.74,0-1.16.64-.94,3.06s.45,4.93.68,7.63c-3.27,0-6.53,0-9.8.08-.15-3-.29-5.7-.44-8.24a19.35,19.35,0,0,0-1.64-7.42,9,9,0,0,1,4.88-1.44c3.18-.08,5.2,1.08,5.39,4h.63c.56-2.61,2.58-4.15,5.7-4.24,3.41-.08,5.44,1.89,5.47,5.65v2.59c0,.88.45,1.22,1.08,1.24a2.07,2.07,0,0,0,1-.29,8.43,8.43,0,0,1,.58,2.31,5.6,5.6,0,0,1-5.88,6.39C317.38,27.43,315.3,24.69,314.87,20Z" transform="translate(0)"/>
    <path class="cls-1" d="M329.94,27.71a5.86,5.86,0,0,1,.4-2.81,11.71,11.71,0,0,0,4.47,1.31c3.81.26,5.16-1.6,4.34-5.22h-.29A4.44,4.44,0,0,1,334,24.86c-3.44-.19-6.39-3.05-6.84-7.89s2.28-7.53,6.24-7.69a5.75,5.75,0,0,1,5.06,2.22H339c.1-.65.21-1.29.31-1.94A12.8,12.8,0,0,1,342.66,9c3.53-.13,5.17,1.34,6,4a5.13,5.13,0,0,1-1,2.23c.26,2.15.51,4.31.77,6.49.94,8-2.36,12.63-10.41,12.07C332.47,33.43,330.15,30.54,329.94,27.71Zm8.8-8.79c-.1-1.52-.19-3-.29-4.47-1.46,0-2.07,1-1.95,2.39a2.08,2.08,0,0,0,1.92,2.06Z" transform="translate(0)"/>
  </g>
  <g>
    <path class="cls-2" d="M1.35,42.77C.81,36.1,3.83,30.43,11.47,31c2.58.2,5.28,1.17,7,.67a15.6,15.6,0,0,1,1.17,4.7c.25,2.94-.67,4.69-3,4.59-1.55-.07-3.31-1.2-5.41-3.46a5.52,5.52,0,0,0-.38,2.81c.3,3.19,2,5.11,4.91,5.19a5.28,5.28,0,0,0,4.09-1.71A11.24,11.24,0,0,1,21,47.75c.37,3.67-2.17,6.41-7.87,6.86C7.15,55.13,2,51.3,1.35,42.77Z" transform="translate(0)"/>
    <path class="cls-2" d="M21.68,50.11c-.29-2.76,1.65-5,7.09-4.89a16.8,16.8,0,0,1,1.88.13c-.06-.58-.12-1.18-.18-1.79a7.81,7.81,0,0,1-4.07,1.13c-2.58,0-4-1.4-4.26-4a10.22,10.22,0,0,1,.34-3.81,11.12,11.12,0,0,0,3.48.56c2.89.1,5-.68,7.52-.65,3.81,0,5.88,2.17,6.22,5.73.12,1.23,0,2.63.06,3.45a.9.9,0,0,0,.9.9h.1a2,2,0,0,0,1-.28,5.74,5.74,0,0,1,.58,1.9c.32,2.79-2,4.74-5.59,4.91-2.92.13-4.65-1-4.68-2.86h-.59c-.39,2.18-2.37,3.16-4.71,3.29C23.9,54,21.91,52.4,21.68,50.11ZM31,49c-.08-.75-.16-1.51-.24-2.3h-.43a2.05,2.05,0,0,0-.73,1.75.8.8,0,0,0,.8.8h0A.9.9,0,0,0,31,49Z" transform="translate(0)"/>
    <path class="cls-2" d="M43.15,47.85c0-1.17-.07-2.41-.11-3.7A38.63,38.63,0,0,0,41.29,34a7.42,7.42,0,0,1,5.18-2c4.29-.17,6.06,2.67,6.12,7.48,0,2.16,0,4.18.07,6,0,.79.37,1,1,1a2.24,2.24,0,0,0,1-.3,5.7,5.7,0,0,1,.58,1.85c.32,2.73-2,4.59-6,4.76C45.56,53,43.28,51.61,43.15,47.85Z" transform="translate(0)"/>
    <path class="cls-2" d="M53.6,33.89c-.27-3.33,1.13-5,3.88-5.14,1.32-.08,3.25.38,5,.26a5.5,5.5,0,0,0,1.94-.61A9.56,9.56,0,0,1,65,31.25c.22,2.73-.51,3.61-2.46,3.74-.49,0-1.59,0-3.22.07a10.12,10.12,0,0,0-5.21,1.57A14.16,14.16,0,0,1,53.6,33.89Zm2.55,13.65V45.23a24.24,24.24,0,0,0-1.52-6.83,7.86,7.86,0,0,1,5.2-2c3.52-.22,5.79,1.85,5.86,5.57,0,1.08,0,2.12,0,3.11,0,.79.37,1,1,1a2.35,2.35,0,0,0,1-.32,6.06,6.06,0,0,1,.51,1.78c.32,2.75-2,4.63-6,4.8C58.54,52.46,56.15,51.19,56.15,47.54Z" transform="translate(0)"/>
    <path class="cls-2" d="M71.45,53.64c.72-1.48.59-3.24.41-6.07V47a11.25,11.25,0,0,0-2.5.53,4.35,4.35,0,0,1-1.07-2.59A3.32,3.32,0,0,1,71,41,2.57,2.57,0,0,1,71.5,41q-.09-1.57-.18-3.27c-.22-4.5,1.69-7.26,5.93-7.63,1.6-.15,4.94.15,6.41-.28a10.19,10.19,0,0,1,1,3.75c.21,2.52-.23,4.39-2.32,4.59-1.35.1-3.08-.42-5.38-3.42.8,1.69,1.67,3.63,2.45,5.54l1.14-.1A12.81,12.81,0,0,0,84,39.47a5,5,0,0,1,1,2.8c.17,1.76-.54,3.73-2.69,3.83h-.75a20.65,20.65,0,0,1,.6,2.7c.55,4.49-1.87,5.64-5.65,5.87A8.52,8.52,0,0,1,71.45,53.64Z" transform="translate(0)"/>
    <path class="cls-2" d="M85.77,44c-.54-5.24,3.17-10.27,9.55-11,6-.78,10.22,3,10.75,8.51s-3.26,8.57-9.59,9C90.61,50.9,86.28,48.93,85.77,44ZM97,42.43c-.2-2.07-.74-3.23-1.45-3.14s-1,1.39-.82,3.64c.21,2,.74,2.93,1.46,2.87S97.25,44.68,97,42.43Z" transform="translate(0)"/>
    <path class="cls-2" d="M107.94,49.16c-.11-2-.23-4.18-.35-6.56a30.14,30.14,0,0,0-1.87-9.19,9.05,9.05,0,0,1,4.83-2.25c3.75-.57,4.75,1.79,4.76,5.95L116,37c-.39-4.44.93-6.93,3-7.21,1.15-.18,2.13.18,3.19-.09a12.63,12.63,0,0,1,1.58,5.15c.26,3-.74,6-3.26,6.32A3.37,3.37,0,0,1,117.15,40h-.29c.35,3,.69,5.71,1,8.21C114.55,48.54,111.25,48.86,107.94,49.16Z" transform="translate(0)"/>
    <path class="cls-2" d="M136.44,39.62a23.09,23.09,0,0,1,0-3.9.85.85,0,0,0-.47-.1c-.75.12-1.17,1-.94,3.51s.45,4.8.67,7c-3.26.4-6.53.79-9.79,1.16q-.22-3.45-.44-7.39a33.66,33.66,0,0,0-1.64-8.84,8.37,8.37,0,0,1,4.88-2.74c3.18-.53,5.19,1.09,5.38,4.71l.58-.1c.55-3.38,2.58-6,5.7-6.55,3.41-.58,5.44,2,5.46,6.33v2.93c0,.93.46,1.23,1.09,1.12a2,2,0,0,0,1-.5,7.34,7.34,0,0,1,.58,2.3,6.44,6.44,0,0,1-5.73,7.08h-.14C139,46.14,136.88,44.33,136.44,39.62Z" transform="translate(0)"/>
    <path class="cls-2" d="M146.88,22.41c-.27-3.46,1.13-5.25,3.88-5.67,1.32-.21,3.25,0,5-.22a6.46,6.46,0,0,0,1.94-.75,8.11,8.11,0,0,1,.62,2.7c.22,2.67-.51,3.69-2.46,4-.49.08-1.59.16-3.22.44a10.6,10.6,0,0,0-5.24,2.32A15.06,15.06,0,0,1,146.88,22.41Zm2.5,15.33V34.82a27.19,27.19,0,0,0-1.52-7.72,8.43,8.43,0,0,1,5.2-2.85c3.52-.61,5.79,1.21,5.86,5.49,0,1.26,0,2.5.05,3.73,0,1,.37,1.24,1,1.13a2.14,2.14,0,0,0,1-.52,8.33,8.33,0,0,1,.58,2.36,6.79,6.79,0,0,1-6,7.48C151.82,44.43,149.43,42.54,149.38,37.74Z" transform="translate(0)"/>
    <path class="cls-2" d="M162.26,38.08c-.29-3.26,1.65-6.17,7.09-7.15a13,13,0,0,1,1.87-.19c0-.7-.11-1.4-.17-2.09A8.68,8.68,0,0,1,167,30.77c-2.58.46-4-.83-4.27-3.7a12.88,12.88,0,0,1,.35-4.24,10.43,10.43,0,0,0,3.48-.14c2.89-.51,5-1.75,7.52-2.18,3.81-.63,5.88,1.14,6.22,5.16.12,1.4,0,3.13.06,4.16.06.72.41,1.08,1,1a2.26,2.26,0,0,0,1-.53,8.08,8.08,0,0,1,.58,2.42c.32,3.79-2,7.34-5.59,7.9-2.92.46-4.65-1.14-4.68-3.55l-.57.09a5.45,5.45,0,0,1-4.72,5,4.23,4.23,0,0,1-5-3.27A3.72,3.72,0,0,1,162.26,38.08Zm9.34-2.87-.24-2.87-.43.08a3.29,3.29,0,0,0-.73,2.31c.06.72.43,1,.8.9A.9.9,0,0,0,171.6,35.21Z" transform="translate(0)"/>
    <path class="cls-2" d="M192.15,30.54c-.17-2.13.46-5,.25-7.37-.12-1.41-.77-1.84-1.8-1.67a2,2,0,0,0-1.27.77,8.88,8.88,0,0,1-.59-2.44c-.29-3.37,1.38-6.44,5.65-7,4-.52,6.53,2.14,7,7.1s-.62,7.65-.56,8.4c0,.35.16.47.39.43.94-.16,2.17-4.38,1.76-8.93a13.09,13.09,0,0,0-2-6.4,8.19,8.19,0,0,1,4.82-2.12c3.21-.36,5.67.87,6.17,6.24a32.73,32.73,0,0,1-.5,9c0,.35.16.47.39.43.94-.15,2.16-4.37,1.76-8.78a12,12,0,0,0-2-6.16,8.28,8.28,0,0,1,4.82-2c3.21-.31,5.78.79,6.28,6,.6,6.09-2.12,17.44-10.14,18.84a5,5,0,0,1-5.33-2.11,11.67,11.67,0,0,1-7,4.16C195.22,37.66,192.54,35.35,192.15,30.54Z" transform="translate(0)"/>
    <path class="cls-2" d="M223.58,22.86c-.66-7.54,4.63-10.35,9.21-10.92,5.16-.53,8.38,1.23,8.81,5.88a13.71,13.71,0,0,1,0,2.22q-4.23.72-8.48,1.5c.54,1.2,1.6,1.71,3.43,1.45a7.52,7.52,0,0,0,4.18-2c.48.14,1,1.2,1.15,2.62.23,2.73-1.11,7.09-7.53,8.07C227.53,32.7,224.05,28.41,223.58,22.86Zm9.08-3.24,2.18-.66c.15-1.25-.23-2.79-1.12-2.68-.69.1-1.24,1.32-1.07,3.21Z" transform="translate(0)"/>
    <path class="cls-2" d="M242.83,19.78c-.54-6,1.8-9,5.72-9.44A5.41,5.41,0,0,1,253.19,12h.29a11.69,11.69,0,0,0-1.22-4,11.1,11.1,0,0,1,5.52-1.63c3.32-.19,5.08.79,5.36,3.11a11.06,11.06,0,0,1-.49,4c.08,1.21.16,2.49.23,3.83.06.94.46,1.23,1.09,1.16a2,2,0,0,0,1-.41,7.57,7.57,0,0,1,.58,2.29c.31,3.59-2,7.22-5.59,7.63-2.78.33-4.53-1.43-4.75-4V23l-.57.07c-.85,4.12-2.51,5.91-4.78,6.18C246.07,29.72,243.37,25.92,242.83,19.78Zm11.23.25q-.21-3.09-.4-5.79c-1.22.27-1.71,1.81-1.56,3.4s.78,2.53,1.76,2.41Z" transform="translate(0)"/>
    <path class="cls-2" d="M266,17.24c-.54-5.75,1.8-8.38,5.73-8.66a5.75,5.75,0,0,1,4.64,1.65h.28a10,10,0,0,0-1.21-3.75A11.8,11.8,0,0,1,281,5.08c3.33-.13,5.09.82,5.36,3a10.15,10.15,0,0,1-.48,3.79c.07,1.16.15,2.39.23,3.68.06.9.46,1.2,1.09,1.16a1.89,1.89,0,0,0,1-.35,6.93,6.93,0,0,1,.58,2.23c.32,3.47-2,6.87-5.59,7.12a4.2,4.2,0,0,1-4.71-3.62,4.15,4.15,0,0,1,0-.49,6.91,6.91,0,0,1,0-.91h-.58c-.84,3.94-2.51,5.63-4.77,5.8C269.28,27,266.58,23.11,266,17.24Zm11.23.64c-.13-2-.27-3.82-.4-5.52-1.22.21-1.7,1.64-1.55,3.16s.78,2.44,1.75,2.37Z" transform="translate(0)"/>
    <path class="cls-2" d="M287.09,6c-.28-2,1.13-2.71,3.88-2.85,1.31-.06,3.25.14,5,.07a11.72,11.72,0,0,0,1.94-.32,2.91,2.91,0,0,1,.62,1.49c.21,1.54-.52,2.18-2.46,2.24h-3.22a13.17,13.17,0,0,0-5.25,1.09A7.4,7.4,0,0,1,287.09,6Zm2.5,11.83V15.19a15.75,15.75,0,0,0-1.53-6.14,9.32,9.32,0,0,1,5.2-1.49c3.53-.1,5.79,1.16,5.87,4.5,0,1,0,2,.05,3.09,0,.86.37,1.13,1,1.12a2.11,2.11,0,0,0,1-.32,7.82,7.82,0,0,1,.58,2.22,6.14,6.14,0,0,1-5.4,6.8c-.2,0-.4,0-.6,0C292,25.21,289.63,22.48,289.59,17.86Z" transform="translate(0)"/>
    <path class="cls-2" d="M313.58,17.26a18,18,0,0,1,0-3.6,1.06,1.06,0,0,0-.43-.12c-.74,0-1.16.63-.93,3s.45,4.93.67,7.63c-3.27,0-6.53,0-9.8.08-.15-3-.29-5.7-.44-8.24A19.35,19.35,0,0,0,301,8.59a9,9,0,0,1,4.89-1.44c3.18-.08,5.19,1.09,5.38,4h.57c.56-2.61,2.58-4.15,5.71-4.24C321,6.83,323,8.8,323,12.56v2.59c0,.88.46,1.22,1.09,1.24a1.87,1.87,0,0,0,1-.28,7.93,7.93,0,0,1,.58,2.3,5.6,5.6,0,0,1-5.88,6.39C316.09,24.74,314,22,313.58,17.26Z" transform="translate(0)"/>
    <path class="cls-2" d="M328.66,25a5.64,5.64,0,0,1,.39-2.81,11.71,11.71,0,0,0,4.47,1.31c3.81.27,5.17-1.59,4.34-5.22h-.29a4.42,4.42,0,0,1-4.85,3.87c-3.44-.19-6.38-3.05-6.84-7.89s2.27-7.54,6.27-7.74a5.74,5.74,0,0,1,5.06,2.23h.58l.3-2a12.37,12.37,0,0,1,3.31-.53c3.53-.13,5.18,1.33,6,4a4.86,4.86,0,0,1-1,2.23c.26,2.14.51,4.31.77,6.48.94,8-2.36,12.63-10.41,12.07C331.15,30.75,328.89,27.88,328.66,25Zm8.79-8.79c-.09-1.51-.19-3-.28-4.47-1.46,0-2.08,1-2,2.4a2.07,2.07,0,0,0,1.93,2Z" transform="translate(0)"/>
  </g>
  <g>
    <path class="cls-3" d="M.06,39.85C-.48,33.18,2.53,27.5,10.18,28.12c2.58.2,5.28,1.16,7,.66a15.6,15.6,0,0,1,1.17,4.7c.25,2.94-.67,4.69-3,4.6C13.8,38,12,36.87,9.94,34.62a5.47,5.47,0,0,0-.38,2.8c.27,3.16,1.94,5.11,4.89,5.17a5.33,5.33,0,0,0,4.09-1.72,11.24,11.24,0,0,1,1.12,3.92c.37,3.68-2.17,6.41-7.87,6.86C5.82,52.21.75,48.37.06,39.85Z" transform="translate(0)"/>
    <path class="cls-3" d="M20.39,47.19c-.29-2.77,1.65-5,7.09-4.9a16.8,16.8,0,0,1,1.88.13c-.06-.58-.12-1.18-.18-1.79a7.87,7.87,0,0,1-4,1.14c-2.58,0-4-1.4-4.26-4a10.25,10.25,0,0,1,.26-3.86,11.12,11.12,0,0,0,3.48.56c2.89.1,5-.68,7.52-.64C36,33.83,38,36,38.37,39.55c.12,1.23,0,2.63.06,3.46a.9.9,0,0,0,.9.9h.1a2.07,2.07,0,0,0,1-.29,5.74,5.74,0,0,1,.58,1.9c.32,2.79-2,4.74-5.59,4.91-2.92.13-4.65-1-4.68-2.85h-.59c-.39,2.17-2.37,3.15-4.71,3.28C22.61,51,20.62,49.47,20.39,47.19Zm9.34-1.13c-.08-.74-.16-1.51-.24-2.3h-.43a2,2,0,0,0-.73,1.78.8.8,0,0,0,.8.8h0a.81.81,0,0,0,.6-.28Z" transform="translate(0)"/>
    <path class="cls-3" d="M41.89,44.92c0-1.17-.07-2.4-.11-3.69A38.71,38.71,0,0,0,40,31.1a7.49,7.49,0,0,1,5.17-2c4.3-.16,6.07,2.67,6.13,7.48,0,2.17.05,4.19.07,6.05,0,.8.37,1,1,1a2.2,2.2,0,0,0,1-.3A5.7,5.7,0,0,1,54,45.18c.32,2.73-2,4.6-6,4.76C44.27,50.05,42,48.68,41.89,44.92Z" transform="translate(0)"/>
    <path class="cls-3" d="M52.31,31c-.27-3.34,1.13-5,3.88-5.15,1.32-.08,3.25.38,5,.26a5.5,5.5,0,0,0,1.94-.61,9.7,9.7,0,0,1,.62,2.86c.21,2.72-.51,3.6-2.46,3.73-.49,0-1.59,0-3.22.08a9.84,9.84,0,0,0-5.24,1.57A14.1,14.1,0,0,1,52.31,31Zm2.5,13.57V42.23a24.24,24.24,0,0,0-1.52-6.83,7.86,7.86,0,0,1,5.2-2c3.52-.21,5.79,1.85,5.86,5.57v3.11c0,.79.37,1,1,1a2.11,2.11,0,0,0,1-.32,6,6,0,0,1,.58,1.85c.32,2.76-2,4.63-6,4.81C57.25,49.54,54.86,48.26,54.81,44.54Z" transform="translate(0)"/>
    <path class="cls-3" d="M70.15,50.71c.72-1.48.59-3.24.41-6.07v-.59a11.25,11.25,0,0,0-2.5.53A4.35,4.35,0,0,1,67,42a3.33,3.33,0,0,1,2.66-3.89,4.23,4.23,0,0,1,.5-.05q-.09-1.57-.18-3.27c-.22-4.49,1.69-7.25,5.93-7.63,1.6-.15,4.94.16,6.41-.27a10.14,10.14,0,0,1,1,3.74c.21,2.53-.23,4.39-2.32,4.59-1.35.11-3.08-.42-5.38-3.42.8,1.69,1.66,3.63,2.45,5.54l1.14-.1a12.81,12.81,0,0,0,3.46-.69,5,5,0,0,1,1,2.8c.17,1.76-.54,3.73-2.7,3.83h-.74a21,21,0,0,1,.6,2.7c.55,4.49-1.87,5.64-5.65,5.87A8.52,8.52,0,0,1,70.15,50.71Z" transform="translate(0)"/>
    <path class="cls-3" d="M84.48,41.1c-.54-5.24,3.17-10.27,9.55-11,6-.78,10.22,3,10.75,8.52s-3.26,8.56-9.59,9C89.32,48,85,46,84.48,41.1Zm11.26-1.56c-.2-2.07-.74-3.22-1.45-3.14s-1,1.4-.82,3.64c.21,2,.74,2.93,1.46,2.88S96,41.75,95.74,39.54Z" transform="translate(0)"/>
    <path class="cls-3" d="M106.65,46.23c-.11-2-.22-4.18-.35-6.55a30.37,30.37,0,0,0-1.87-9.14,9.07,9.07,0,0,1,4.83-2.26c3.75-.57,4.75,1.79,4.76,5.95l.72-.1c-.39-4.45.93-6.93,3-7.22,1.15-.18,2.13.18,3.18-.09A12.49,12.49,0,0,1,122.51,32c.26,3-.74,6-3.26,6.32a3.35,3.35,0,0,1-3.42-1.22h-.29c.35,3,.69,5.71,1,8.22C113.26,45.61,110,45.93,106.65,46.23Z" transform="translate(0)"/>
    <path class="cls-3" d="M135.15,36.7a23.21,23.21,0,0,1,0-3.91.77.77,0,0,0-.47-.09c-.75.11-1.17,1-.94,3.5s.45,4.8.67,7c-3.26.41-6.53.8-9.79,1.16q-.23-3.45-.44-7.38a33.73,33.73,0,0,0-1.64-8.85,8.37,8.37,0,0,1,4.88-2.74c3.18-.53,5.19,1.1,5.38,4.71l.58-.09c.55-3.39,2.58-6,5.7-6.56,3.41-.58,5.44,2,5.46,6.34v2.92c0,.92.46,1.23,1.09,1.13a2.2,2.2,0,0,0,1-.5,7.28,7.28,0,0,1,.58,2.29,6.45,6.45,0,0,1-5.74,7.09h-.13C137.66,43.21,135.59,41.4,135.15,36.7Z" transform="translate(0)"/>
    <path class="cls-3" d="M145.59,19.48c-.27-3.46,1.13-5.25,3.88-5.67,1.32-.2,3.25.06,5-.22a6.46,6.46,0,0,0,1.94-.75,8.17,8.17,0,0,1,.62,2.71c.22,2.67-.51,3.68-2.46,4-.49.08-1.59.16-3.22.44a10.6,10.6,0,0,0-5.24,2.32A15,15,0,0,1,145.59,19.48Zm2.5,15.33V31.89a27.54,27.54,0,0,0-1.52-7.72,8.48,8.48,0,0,1,5.2-2.85c3.52-.61,5.79,1.21,5.86,5.5v3.72c0,1,.37,1.24,1,1.13a1.94,1.94,0,0,0,1-.52,8.77,8.77,0,0,1,.58,2.36,6.81,6.81,0,0,1-6,7.49C150.53,41.54,148.15,39.54,148.09,34.81Z" transform="translate(0)"/>
    <path class="cls-3" d="M161,35.15c-.29-3.26,1.65-6.17,7.09-7.14a11.75,11.75,0,0,1,1.87-.2c-.06-.7-.11-1.39-.17-2.09a8.46,8.46,0,0,1-4.07,2.12c-2.58.46-4-.83-4.27-3.7a12.88,12.88,0,0,1,.35-4.24,9.93,9.93,0,0,0,3.48-.14c2.89-.5,5-1.75,7.52-2.17,3.81-.64,5.88,1.13,6.22,5.15.12,1.4,0,3.13.06,4.16.06.72.41,1.08,1,1a2,2,0,0,0,1-.53,8.08,8.08,0,0,1,.58,2.42c.32,3.79-2,7.34-5.59,7.9-2.92.46-4.65-1.13-4.68-3.55l-.57.1a5.47,5.47,0,0,1-4.72,5,4.23,4.23,0,0,1-5-3.29A3.57,3.57,0,0,1,161,35.15Zm9.34-2.86-.24-2.87-.43.07a3.35,3.35,0,0,0-.74,2.32c.07.71.44,1,.81.89A.94.94,0,0,0,170.31,32.29Z" transform="translate(0)"/>
    <path class="cls-3" d="M190.85,27.61c-.17-2.14.46-5,.25-7.38-.12-1.41-.77-1.84-1.8-1.66a2,2,0,0,0-1.27.76,8.88,8.88,0,0,1-.59-2.44c-.29-3.36,1.38-6.44,5.65-7,4-.51,6.53,2.14,7,7.1s-.62,7.66-.56,8.41c0,.35.16.47.39.43.94-.16,2.17-4.39,1.76-8.93a12.93,12.93,0,0,0-2-6.41,8.25,8.25,0,0,1,4.82-2.12c3.21-.35,5.67.87,6.16,6.24s-.55,8.23-.49,9c0,.34.16.46.39.42.94-.15,2.16-4.37,1.76-8.78a12,12,0,0,0-2-6.16,8.41,8.41,0,0,1,4.82-2c3.21-.3,5.78.8,6.28,6,.6,6.08-2.12,17.43-10.14,18.83A5,5,0,0,1,206,29.81a11.67,11.67,0,0,1-7,4.16C193.93,34.74,191.25,32.42,190.85,27.61Z" transform="translate(0)"/>
    <path class="cls-3" d="M222.29,19.93c-.66-7.54,4.63-10.34,9.21-10.91,5.16-.54,8.38,1.22,8.81,5.87a13.71,13.71,0,0,1,0,2.22q-4.23.72-8.48,1.5c.54,1.2,1.6,1.71,3.43,1.45a7.52,7.52,0,0,0,4.18-2c.48.14,1,1.19,1.15,2.61.23,2.73-1.11,7.09-7.53,8.07C226.24,29.77,222.76,25.48,222.29,19.93Zm9.08-3.24,2.18-.66c.15-1.25-.23-2.79-1.12-2.67-.69.09-1.24,1.31-1.07,3.2Z" transform="translate(0)"/>
    <path class="cls-3" d="M241.54,16.86c-.54-6,1.8-9,5.72-9.44a5.4,5.4,0,0,1,4.64,1.64h.29a11.69,11.69,0,0,0-1.22-4,11.1,11.1,0,0,1,5.52-1.63c3.32-.19,5.08.8,5.36,3.11a11.06,11.06,0,0,1-.49,4c.08,1.21.15,2.49.23,3.84.06.93.46,1.22,1.09,1.16a2.17,2.17,0,0,0,1-.42,7.57,7.57,0,0,1,.58,2.29c.31,3.59-2,7.23-5.59,7.64a4,4,0,0,1-4.75-4v-1l-.57.07c-.85,4.13-2.51,5.91-4.78,6.18C244.78,26.8,242.08,23,241.54,16.86Zm11.23.24c-.14-2.05-.27-4-.4-5.78-1.22.26-1.71,1.8-1.56,3.39s.78,2.53,1.76,2.41Z" transform="translate(0)"/>
    <path class="cls-3" d="M264.74,14.31c-.54-5.75,1.8-8.38,5.73-8.66a5.75,5.75,0,0,1,4.64,1.65h.28a10.05,10.05,0,0,0-1.24-3.76,11.91,11.91,0,0,1,5.51-1.39C283,2,284.75,3,285,5.15a10.1,10.1,0,0,1-.48,3.78c.07,1.17.15,2.39.23,3.69.06.89.46,1.19,1.09,1.16a2,2,0,0,0,1-.36,7.2,7.2,0,0,1,.58,2.23c.32,3.47-2,6.87-5.59,7.12a4.2,4.2,0,0,1-4.71-3.62,3.87,3.87,0,0,1,0-.48,7.06,7.06,0,0,1,0-.92h-.58c-.84,4-2.51,5.63-4.77,5.81C268,24,265.29,20.19,264.74,14.31ZM276,15c-.13-2-.27-3.81-.4-5.52-1.22.21-1.7,1.64-1.55,3.16S274.8,15,275.77,15Z" transform="translate(0)"/>
    <path class="cls-3" d="M285.8,3.1c-.28-2,1.13-2.7,3.88-2.84,1.31-.06,3.25.14,5,.06A9.7,9.7,0,0,0,296.62,0a3,3,0,0,1,.62,1.49c.21,1.55-.52,2.19-2.46,2.24h-3.22a13.18,13.18,0,0,0-5.25,1.1A7.33,7.33,0,0,1,285.8,3.1Zm2.5,11.83V12.27a15.57,15.57,0,0,0-1.52-6.14A9.32,9.32,0,0,1,292,4.64c3.53-.1,5.79,1.15,5.86,4.5,0,1,0,2,.06,3.08,0,.86.37,1.14,1,1.12a1.88,1.88,0,0,0,1-.32,7.82,7.82,0,0,1,.58,2.22A6.14,6.14,0,0,1,295.1,22c-.2,0-.41,0-.62,0C290.73,22.28,288.34,19.54,288.3,14.93Z" transform="translate(0)"/>
    <path class="cls-3" d="M312.29,14.34a18,18,0,0,1,0-3.6,1,1,0,0,0-.48-.15c-.74,0-1.16.63-.93,3s.44,4.94.67,7.64c-3.27,0-6.53,0-9.8.08-.15-3-.29-5.71-.44-8.25a19.34,19.34,0,0,0-1.64-7.41,9.11,9.11,0,0,1,4.89-1.45c3.18-.07,5.19,1.09,5.38,4h.57c.56-2.61,2.58-4.15,5.71-4.23,3.41-.08,5.44,1.89,5.46,5.64V12.2c0,.88.46,1.22,1.09,1.24a1.87,1.87,0,0,0,1-.28,7.69,7.69,0,0,1,.58,2.31,5.6,5.6,0,0,1-4.74,6.34,5.45,5.45,0,0,1-1.14.05C314.8,21.82,312.72,19.07,312.29,14.34Z" transform="translate(0)"/>
    <path class="cls-3" d="M327.37,22.1a5.64,5.64,0,0,1,.39-2.81,11.71,11.71,0,0,0,4.47,1.31c3.81.26,5.16-1.6,4.34-5.23h-.29a4.42,4.42,0,0,1-4.85,3.87c-3.44-.18-6.38-3-6.84-7.88-.47-5,2.29-7.53,6.24-7.69a5.71,5.71,0,0,1,5.06,2.22h.57c.11-.65.21-1.3.31-1.94a12,12,0,0,1,3.31-.54c3.53-.13,5.18,1.33,6,4a5,5,0,0,1-1,2.23c.26,2.15.51,4.31.77,6.49.94,8-2.36,12.62-10.41,12.07C329.89,27.82,327.6,25,327.37,22.1Zm8.79-8.8c-.09-1.51-.19-3-.28-4.47-1.46,0-2.08,1-2,2.4a2.09,2.09,0,0,0,1.93,2.06Z" transform="translate(0)"/>
  </g>
</svg>
