<svg id="Layer_1" data-name="Layer 1" xmlns="http://www.w3.org/2000/svg" xmlns:xlink="http://www.w3.org/1999/xlink" viewBox="0 0 268.04 101.64">
  <defs>
    <style>
      .cls-1 {
        fill: #231f20;
      }

      .cls-10, .cls-11, .cls-2, .cls-3, .cls-4, .cls-5, .cls-6, .cls-7, .cls-8, .cls-9 {
        stroke: #000;
        stroke-miterlimit: 10;
        stroke-width: 0.75px;
      }

      .cls-2 {
        fill: url(#linear-gradient);
      }

      .cls-3 {
        fill: url(#linear-gradient-2);
      }

      .cls-4 {
        fill: url(#linear-gradient-3);
      }

      .cls-5 {
        fill: url(#linear-gradient-4);
      }

      .cls-6 {
        fill: url(#linear-gradient-5);
      }

      .cls-7 {
        fill: url(#linear-gradient-6);
      }

      .cls-8 {
        fill: url(#linear-gradient-7);
      }

      .cls-9 {
        fill: url(#linear-gradient-8);
      }

      .cls-10 {
        fill: url(#linear-gradient-9);
      }

      .cls-11 {
        fill: url(#linear-gradient-10);
      }
    </style>
    <linearGradient id="linear-gradient" x1="68.41" y1="49.79" x2="80.95" y2="28.05" gradientTransform="matrix(1, 0, 0, -1, -24.67, 102.8)" gradientUnits="userSpaceOnUse">
      <stop offset="0" stop-color="#fee6d6"/>
      <stop offset="0.34" stop-color="#fee8d9"/>
      <stop offset="0.62" stop-color="#feeee3"/>
      <stop offset="0.88" stop-color="#fff9f4"/>
      <stop offset="1" stop-color="#fff"/>
    </linearGradient>
    <linearGradient id="linear-gradient-2" x1="86.04" y1="48.29" x2="97.48" y2="28.48" xlink:href="#linear-gradient"/>
    <linearGradient id="linear-gradient-3" x1="102.82" y1="54.95" x2="114.75" y2="34.28" xlink:href="#linear-gradient"/>
    <linearGradient id="linear-gradient-4" x1="115.33" y1="61.4" x2="128.52" y2="38.53" xlink:href="#linear-gradient"/>
    <linearGradient id="linear-gradient-5" x1="130.73" y1="62.55" x2="144.57" y2="38.58" xlink:href="#linear-gradient"/>
    <linearGradient id="linear-gradient-6" x1="150.11" y1="64.72" x2="159.82" y2="47.89" xlink:href="#linear-gradient"/>
    <linearGradient id="linear-gradient-7" x1="168.38" y1="71.35" x2="178.21" y2="54.32" xlink:href="#linear-gradient"/>
    <linearGradient id="linear-gradient-8" x1="187.04" y1="77.28" x2="198.28" y2="57.81" xlink:href="#linear-gradient"/>
    <linearGradient id="linear-gradient-9" x1="205.39" y1="88.26" x2="218.88" y2="64.89" xlink:href="#linear-gradient"/>
    <linearGradient id="linear-gradient-10" x1="221.74" y1="84.45" x2="233.81" y2="63.55" xlink:href="#linear-gradient"/>
  </defs>
  <g>
    <path class="cls-1" d="M38,66.48c0-6.93,3.41-13.19,10.82-13.75,2.49-.19,5,.39,6.73-.44a15.61,15.61,0,0,1,.77,4.88c0,3.21-1.06,5.43-3.27,5.67-1.53.15-3.11-.9-5-3.06a7.44,7.44,0,0,0-.61,3.15c0,3.47,1.44,5.58,4.3,5.35a6,6,0,0,0,4.13-2.6,14.22,14.22,0,0,1,.76,4.66c0,4.58-2.75,8.77-8.26,9.17C42.54,79.94,38,75.21,38,66.48Z"/>
    <path class="cls-1" d="M57.05,73.33c0-3.59,2.08-6.5,7.35-7.37a9.89,9.89,0,0,1,1.8-.17V63.56a8.18,8.18,0,0,1-4.05,2.14c-2.5.39-3.77-1.1-3.77-4.13a14.94,14.94,0,0,1,.66-4.4,8.48,8.48,0,0,0,3.33,0c2.8-.44,4.91-1.74,7.35-2.21,3.69-.77,5.52,1.1,5.52,5.43,0,1.53-.28,3.34-.28,4.44,0,.77.31,1.14.86,1a2.29,2.29,0,0,0,1-.65,9.43,9.43,0,0,1,.39,2.58c0,4-2.52,7.79-6,8.49-2.83.57-4.36-1.14-4.19-3.73l-.55.1c-.62,3.22-2.64,5-4.91,5.35C58.8,78.41,57.05,76.28,57.05,73.33Zm9.16-2.76V67.49l-.42.07A4.12,4.12,0,0,0,64.91,70c0,.76.33,1,.69,1a1,1,0,0,0,.6-.45Z"/>
    <path class="cls-1" d="M78.06,66.77c.09-1.66.19-3.33.28-5a42.4,42.4,0,0,0-.81-11.46,9.73,9.73,0,0,1,5.17-3.21c4.15-1,5.65,1.26,5.29,6.87l-.5,7.64c-.08,1.07.25,1.32.86,1.15a2.34,2.34,0,0,0,1-.63,9.85,9.85,0,0,1,.36,2.53c0,4-2.52,7.9-6.35,8.87C79.76,74.37,77.76,72.14,78.06,66.77Z"/>
    <path class="cls-1" d="M89.43,47.49c0-3.44,1.46-5.29,4.13-6.05,1.27-.36,3.1-.35,4.8-.85a7.48,7.48,0,0,0,1.91-1,7.76,7.76,0,0,1,.38,2.66c0,2.71-.76,3.82-2.65,4.42-.48.14-1.53.34-3.11.77a12.19,12.19,0,0,0-5.19,2.89A14.88,14.88,0,0,1,89.43,47.49Zm1.16,16.08c.07-1.07.15-2.16.22-3.24A29.15,29.15,0,0,0,90,52.22a10,10,0,0,1,5.18-3.44c3.41-1,5.44.61,5.16,5.19l-.25,4c0,1.08.25,1.31.86,1.13a2.52,2.52,0,0,0,1-.67,9.77,9.77,0,0,1,.36,2.52c0,4-2.52,8-6.35,9.1-3.61,1-5.73-1.1-5.36-6.5Z"/>
    <path class="cls-1" d="M104.57,70.58c.91-3,1-6.2,1.16-10.37v-.85a10.22,10.22,0,0,0-2.46,1.32,6.56,6.56,0,0,1-.77-3.42c0-2.2.86-4.91,3.46-5.75l.12-3.82c.17-5,2.19-8,6.29-9.31,1.53-.5,4.74-.91,6.18-1.65a8.68,8.68,0,0,1,.67,3.59c0,2.59-.59,4.83-2.61,5.49-1.3.42-2.91.11-4.88-2.62a57,57,0,0,1,1.89,5.71l1.1-.36A13.11,13.11,0,0,0,118.11,47a5.44,5.44,0,0,1,.76,3.2c0,2.15-.88,5-3,5.64l-.73.2a30.54,30.54,0,0,1,.28,3.82c0,7-2.55,10.58-6.2,11.75C107.32,72.29,105.63,72,104.57,70.58Z"/>
    <path class="cls-1" d="M119.46,52.33c0-6.8,3.93-12.66,10.12-14.7,5.77-1.9,9.56,1,9.56,7.73A14.9,14.9,0,0,1,129,59.7C123.34,61.57,119.46,58.76,119.46,52.33Zm11-4.26c0-2.56-.42-3.78-1.11-3.55s-1.11,1.79-1.11,4.58c0,2.56.42,3.77,1.11,3.54S130.41,50.88,130.41,48.07Z"/>
    <path class="cls-1" d="M140.17,55.38c.11-3,.23-6,.33-8.92a33,33,0,0,0-1-10.28A10.88,10.88,0,0,1,144.3,33c3.63-1.14,4.41,1,4.08,5.71l.69-.21c0-4.93,1.44-7.54,3.44-8.13,1.11-.33,2-.09,3.05-.5a11.84,11.84,0,0,1,1.11,5.27c0,3.29-1.21,6.92-3.66,7.64-1.41.42-2.46.16-3.16-1l-.27.09q.09,5.22.19,10.46C146.57,53.35,143.37,54.35,140.17,55.38Z"/>
    <path class="cls-1" d="M168.34,39.49a28.69,28.69,0,0,1,.36-4.44.67.67,0,0,0-.44-.07c-.77.18-1.2,1.14-1.2,4v8.48q-4.73,1.21-9.48,2.57l.28-9.25a35.34,35.34,0,0,0-.84-9.62,9.88,9.88,0,0,1,4.88-3.35c3.06-.84,4.88.61,4.78,4.48l.55-.15c.81-3.67,2.94-6.48,6-7.19,3.3-.77,5,1.74,4.72,6.44l-.23,3.23c-.08,1.07.33,1.36.94,1.23a2.15,2.15,0,0,0,1-.58,8.61,8.61,0,0,1,.36,2.56c0,4-2.52,7.7-6.24,8.55S168.34,45,168.34,39.49Z"/>
    <path class="cls-1" d="M179.68,20.68c0-3.43,1.46-5.21,4.13-5.7,1.28-.24,3.1,0,4.8-.27a6.72,6.72,0,0,0,1.91-.77,8.37,8.37,0,0,1,.39,2.72c0,2.7-.77,3.72-2.66,4-.48.07-1.53.13-3.11.41A10.49,10.49,0,0,0,180,23.51,16.74,16.74,0,0,1,179.68,20.68Zm1.16,16.17.23-3.23a30.16,30.16,0,0,0-.83-8.2,8.53,8.53,0,0,1,5.17-3c3.42-.59,5.44,1.35,5.17,5.88l-.25,4c-.06,1.07.25,1.35.86,1.26a2.09,2.09,0,0,0,1-.51,10.23,10.23,0,0,1,.36,2.58c0,4-2.52,7.53-6.35,8.18-3.58.61-5.71-1.65-5.35-7Z"/>
    <path class="cls-1" d="M193.1,37.5c0-3.56,2.08-6.62,7.35-7.11a10.82,10.82,0,0,1,1.8,0V28.16A8,8,0,0,1,198.2,30c-2.5.26-3.77-1.21-3.77-4.25a14.83,14.83,0,0,1,.66-4.39,9.56,9.56,0,0,0,3.33.1c2.8-.28,4.9-1.35,7.35-1.53,3.69-.18,5.51,2.09,5.51,6.39,0,1.53-.27,3.3-.27,4.39,0,.76.3,1.21.85,1.2a1.71,1.71,0,0,0,1-.38,9.76,9.76,0,0,1,.36,2.63c0,4-2.52,7.18-5.95,7.33a3.72,3.72,0,0,1-4.19-4.29l-.56.05c-.61,3.14-2.63,4.73-4.9,5C194.83,42.55,193.1,40.46,193.1,37.5Zm9.16-2.29V32.15h-.42a3.75,3.75,0,0,0-.9,2.37c0,.76.34,1.06.7,1a.88.88,0,0,0,.61-.38Z"/>
  </g>
  <g>
    <path class="cls-2" d="M39,64.62c0-6.94,3.4-13.19,10.81-13.75,2.5-.19,5.05.38,6.74-.46a15.74,15.74,0,0,1,.78,4.86c0,3.21-1.06,5.44-3.27,5.68-1.53.16-3.11-.9-5-3.06A7.41,7.41,0,0,0,48.5,61c0,3.46,1.45,5.57,4.3,5.3a6,6,0,0,0,4.13-2.61,13.87,13.87,0,0,1,.72,4.65c0,4.63-2.74,8.77-8.26,9.22C43.6,78.06,39,73.35,39,64.62Z"/>
    <path class="cls-3" d="M58.06,71.42c0-3.6,2.08-6.51,7.35-7.4a10,10,0,0,1,1.81-.17V61.62a8.32,8.32,0,0,1-4,2.15c-2.5.4-3.78-1.08-3.78-4.12a14.82,14.82,0,0,1,.67-4.38,8.48,8.48,0,0,0,3.33,0c2.79-.45,4.9-1.76,7.35-2.24,3.69-.76,5.51,1.09,5.51,5.41,0,1.53-.27,3.35-.27,4.45,0,.76.3,1.13.86,1a2.14,2.14,0,0,0,1-.59,8.74,8.74,0,0,1,.37,2.55c0,3.92-2.52,7.74-6,8.44-2.82.59-4.35-1.12-4.18-3.7l-.56.1c-.61,3.21-2.63,5-4.91,5.35C59.81,76.5,58.06,74.37,58.06,71.42Zm9.16-2.79V65.57l-.42.08a4.08,4.08,0,0,0-.88,2.46c0,.76.33,1,.69,1a1.08,1.08,0,0,0,.61-.46Z"/>
    <path class="cls-4" d="M79.08,64.79l.27-5a43.12,43.12,0,0,0-.76-11.45,9.69,9.69,0,0,1,5.15-3.24C87.91,44,89.4,46.34,89,51.93l-.5,7.63c-.08,1.09.25,1.32.86,1.16a2.21,2.21,0,0,0,1-.64,9.91,9.91,0,0,1,.36,2.53c0,4-2.52,7.91-6.34,8.9C80.77,72.41,78.77,70.16,79.08,64.79Z"/>
    <path class="cls-5" d="M90.42,45.46c0-3.43,1.47-5.29,4.13-6.06,1.28-.37,3.1-.36,4.8-.87a7.52,7.52,0,0,0,1.91-1,8,8,0,0,1,.39,2.66c0,2.71-.77,3.86-2.66,4.43-.47.14-1.53.35-3.11.81a12.33,12.33,0,0,0-5.19,2.91A16,16,0,0,1,90.42,45.46Zm1.16,16,.22-3.17A28.72,28.72,0,0,0,91,50.17a10.17,10.17,0,0,1,5.19-3.46c3.41-1,5.44.59,5.16,5.18l-.25,4c0,1.08.25,1.32.86,1.13a2.52,2.52,0,0,0,1-.67,9.71,9.71,0,0,1,.36,2.52c0,4-2.52,8-6.35,9.16-3.59,1-5.7-1.1-5.34-6.5Z"/>
    <path class="cls-6" d="M105.58,68.5c.92-3.06,1-6.21,1.17-10.38v-.85a10.48,10.48,0,0,0-2.47,1.32,6.5,6.5,0,0,1-.76-3.41c0-2.2.86-4.9,3.47-5.77l.11-3.82c.16-5,2.19-8,6.29-9.33,1.53-.5,4.75-.93,6.19-1.67a8.77,8.77,0,0,1,.67,3.58c0,2.59-.59,4.83-2.62,5.5-1.29.43-2.91.12-4.88-2.6a57,57,0,0,1,1.89,5.71l1.12-.37a14.1,14.1,0,0,0,3.38-1.53,5.48,5.48,0,0,1,.76,3.19c0,2.15-.89,5-3,5.66l-.72.2a32.4,32.4,0,0,1,.28,3.82c0,7-2.55,10.6-6.21,11.78C108.33,70.19,106.64,69.92,105.58,68.5Z"/>
    <path class="cls-7" d="M120.47,50.18c0-6.79,3.94-12.68,10.13-14.74,5.76-1.92,9.57,1,9.57,7.69A15,15,0,0,1,130,57.51C124.36,59.41,120.47,56.61,120.47,50.18Zm11-4.31c0-2.56-.42-3.78-1.11-3.55s-1.12,1.8-1.12,4.59c0,2.56.42,3.76,1.12,3.53S131.44,48.68,131.44,45.87Z"/>
    <path class="cls-8" d="M141.18,53.14c.12-3,.23-6,.34-8.91a33.6,33.6,0,0,0-1-10.28,11.1,11.1,0,0,1,4.79-3.12c3.64-1.15,4.41,1,4.08,5.7l.7-.22c0-4.93,1.43-7.54,3.44-8.15,1.1-.33,2-.09,3.05-.5a12,12,0,0,1,1.11,5.26c0,3.29-1.22,6.93-3.66,7.64-1.41.43-2.47.17-3.16-1l-.28.09c.06,3.48.13,7,.19,10.46C147.58,51.08,144.42,52.1,141.18,53.14Z"/>
    <path class="cls-9" d="M169.35,37.14a28.7,28.7,0,0,1,.37-4.44.64.64,0,0,0-.45-.07c-.72.18-1.19,1.15-1.19,4v8.48c-3.17.82-6.32,1.7-9.48,2.61l.27-9.28a35,35,0,0,0-.83-9.62,9.75,9.75,0,0,1,4.88-3.36c3.06-.86,4.88.59,4.77,4.45l.55-.14c.81-3.68,2.94-6.5,6-7.22,3.3-.76,5,1.72,4.71,6.42-.07,1.07-.14,2.13-.22,3.2s.34,1.35.94,1.22a2.28,2.28,0,0,0,1-.57A9.08,9.08,0,0,1,181,35.4c0,4-2.52,7.7-6.24,8.57S169.35,42.62,169.35,37.14Z"/>
    <path class="cls-10" d="M180.69,18.29c0-3.44,1.47-5.21,4.14-5.72,1.27-.24,3.1,0,4.79-.29a6.58,6.58,0,0,0,1.91-.76,8.37,8.37,0,0,1,.39,2.72c0,2.7-.76,3.73-2.66,4-.47.08-1.52.14-3.11.43A10.41,10.41,0,0,0,181,21.13,16,16,0,0,1,180.69,18.29Zm1.16,16.16c.07-1.07.14-2.15.22-3.22a29.39,29.39,0,0,0-.83-8.2,8.61,8.61,0,0,1,5.19-3c3.41-.61,5.44,1.34,5.16,5.87l-.25,4c-.05,1.07.25,1.35.86,1.26a2,2,0,0,0,1-.51,10.23,10.23,0,0,1,.36,2.58c0,4-2.52,7.53-6.35,8.2C183.6,42.08,181.5,39.83,181.85,34.45Z"/>
    <path class="cls-11" d="M194.11,35.06c0-3.56,2.08-6.62,7.35-7.13a10.82,10.82,0,0,1,1.8,0V25.7a8,8,0,0,1-4,1.84c-2.5.26-3.78-1.2-3.78-4.23a14.54,14.54,0,0,1,.67-4.4,9.31,9.31,0,0,0,3.33.09c2.79-.29,4.9-1.37,7.34-1.53,3.69-.2,5.52,2.07,5.52,6.37,0,1.53-.28,3.29-.28,4.39,0,.77.31,1.2.87,1.19a1.63,1.63,0,0,0,1-.37,10.12,10.12,0,0,1,.37,2.63c0,4-2.53,7.18-6,7.34a3.71,3.71,0,0,1-4.18-4.27l-.56,0c-.61,3.15-2.64,4.74-4.91,5C195.85,40.11,194.11,38,194.11,35.06Zm9.16-2.34V29.66h-.42A3.68,3.68,0,0,0,202,32c0,.76.33,1.07.69,1a.83.83,0,0,0,.57-.35Z"/>
  </g>
  <g>
    <path d="M151.77,77.25c-2.84,0-4.79-1.82-6.38-6,0-.15-.14-.22-.21-.22s-.08,0-.1.1c-.61,1.45-2.87,6.43-7.69,6.43-1.92,0-2.85-1.1-2.85-3.53,0-2.93,2.21-9.81,2.21-11.55,0-.47-.21-.66-.66-.66-.62,0-.86.25-1.42.25a.67.67,0,0,1-.77-.55.81.81,0,0,1,0-.22c0-1.33,2-4,4.63-4,1.26,0,1.53,1.53,1.53,2.65,0,4.36-2.12,6.25-2.12,11.41,0,.82,0,2.13,1,2.13,3.06,0,5.11-9.17,5.51-11,.28-1.24.47-2.19,1.7-2.36.34,0,.77-.09,1-.09.54,0,.88.17.88.77,0,1.18-.58,3.65-.58,5.76,0,2.69.55,6.67,4.18,6.77,4.08-.61,6.52-5.26,6.52-9.17,0-2.39-1.18-4.43-4.48-4.52a.71.71,0,0,1-.66-.62c0-.76,2-1.74,3.77-1.74,3.51,0,5.58,2.79,5.58,6.79C162.4,67.65,158.89,77.25,151.77,77.25Z"/>
    <path d="M164.28,74.17s0,.58,2.06.58c1.74,0,2.29-1,3.16-1,.48,0,.76.24.76.6,0,1.63-2.8,2.87-5.42,2.87-3.1,0-4.4-1.46-4.4-3.2,0-2.72,3.13-6.21,7.38-6.21,2.13,0,3,.71,3,1.62C170.8,71.14,167.74,73.73,164.28,74.17Zm2.47-4.53c-1,0-2.9,1.28-2.9,2.42,0,.14.05.24.24.24,1.16,0,3.32-1.42,3.32-2.29,0-.3-.3-.37-.64-.37Z"/>
    <path d="M182.67,71.81a1.79,1.79,0,0,0-.07.56A1.57,1.57,0,0,0,184,74.15l.17,0c.62,0,1-.39,1.24-.39a.56.56,0,0,1,.59.63c0,1.48-1.68,2.45-3.06,2.45A2.55,2.55,0,0,1,180.4,75a13.15,13.15,0,0,1-6.7,2.17c-1.82,0-3.24-.68-3.24-2.52,0-2.6,3.93-6.34,7.42-6.34,1.05,0,1.45.54,1.45,1.12A1.66,1.66,0,0,1,178,71c-2.58,0-4.51,1.86-4.51,3,0,.51.39.87,1.31.87,2.16,0,4-1.57,5.15-2.81v-.31a41.65,41.65,0,0,1,1.87-10.33c.72-1.53,1.71-2.46,2.73-2.46,1.4,0,1.59,1.2,1.59,2.52C186.09,64.18,183,70.65,182.67,71.81Z"/>
    <path d="M198.38,71.81a2.15,2.15,0,0,0-.07.56,1.57,1.57,0,0,0,1.35,1.78l.17,0c.62,0,1-.39,1.23-.39a.57.57,0,0,1,.6.63c0,1.48-1.69,2.45-3.06,2.45A2.57,2.57,0,0,1,196.11,75a13.08,13.08,0,0,1-6.69,2.17c-1.82,0-3.25-.68-3.25-2.52,0-2.6,3.94-6.34,7.43-6.34,1,0,1.45.54,1.45,1.12A1.66,1.66,0,0,1,193.67,71c-2.59,0-4.51,1.86-4.51,3,0,.51.39.87,1.31.87,2.15,0,4-1.57,5.15-2.81v-.31a41.65,41.65,0,0,1,1.87-10.33c.71-1.53,1.71-2.46,2.73-2.46,1.4,0,1.58,1.2,1.58,2.52C201.79,64.18,198.65,70.65,198.38,71.81Z"/>
    <path d="M204.83,77a2.47,2.47,0,0,1-2.72-2.2,3,3,0,0,1,0-.42,13.14,13.14,0,0,1,1.14-5.18,7.71,7.71,0,0,1,2.45-.68.45.45,0,0,1,.49.4v0c0,.39-1,2.57-1,3.57s.4,1.69,1.37,1.69.77-.51,1.48-.51a.72.72,0,0,1,.76.56C208.82,75.77,206.69,77,204.83,77Zm-.16-10.84s-.88,0-.88-.55a12.23,12.23,0,0,1,.83-2.43,1.28,1.28,0,0,1,1.26-.6c.49,0,1.52.07,1.52.76a2.82,2.82,0,0,1-2.73,2.82Z"/>
    <path d="M217.67,76.66c-1.48,0-1.53-.93-1.53-2.71,0-.35-.07-.59-.49-.59s-3.37,2.72-3.71,3a1.48,1.48,0,0,1-.92.33c-.48,0-1.12-.24-1.12-.82,0-.77,1.07-2.71,1.07-3.78a.87.87,0,0,0-.8-.93H210c-.54,0-1.08.39-1.46.39s-.65-.47-.65-.9c0,0,0-2.09,3.42-2.09,1.47,0,1.88.61,1.88,1.32a12.24,12.24,0,0,1-.5,2.07.22.22,0,0,0,.18.23h0c.39,0,3.11-2.23,4.87-2.23.83,0,1.64.22,1.64,1.16s-.43,1.38-.43,2.18c0,.27.05.77.62.77,1,0,2.52-1,3-1,.31,0,.47.27.47.62C223,74.87,219.9,76.66,217.67,76.66Z"/>
    <path d="M235.68,77.76c-.17,1-1,1-1.87,1.26-.6.14-1.22.29-1.83.46-2.49,6.37-6.88,9.28-9.77,9.28a2.75,2.75,0,0,1-2.94-2.55,3.09,3.09,0,0,1,0-.43c0-3.71,5.62-6.64,10.33-8.21a11.83,11.83,0,0,0,.09-1.68A12.68,12.68,0,0,1,225.32,77c-1.46,0-2.72-.55-2.72-2.54,0-2.47,4.13-6.11,9-6.11.59.22.64.39.64.58a3.63,3.63,0,0,1-.57,1.61,1.22,1.22,0,0,1-1,.58c-1.13,0-5.07,1.69-5.07,3.05,0,.26.33.38.8.38,1.31,0,3.78-.87,4.44-2.29.1-.17,0-.39,1.24-.87a2.74,2.74,0,0,1,1-.22.64.64,0,0,1,.75.5.55.55,0,0,1,0,.18v.12A29.57,29.57,0,0,1,233,76.6a12.69,12.69,0,0,1,2.29-.36c.36,0,.57.14.57.6A4.83,4.83,0,0,1,235.68,77.76Zm-14,7.48a1.2,1.2,0,0,0,1.12,1.25,1,1,0,0,0,.25,0c1.71,0,4.63-2,5.94-6.11-3.86,1.34-7.31,3-7.31,4.87Z"/>
    <path d="M237.74,76.74c-.9,0-1.42-.24-1.42-1.4a2.58,2.58,0,0,1,.19-1,1.3,1.3,0,0,1,1.26-.6c.5,0,1.49.07,1.49.76S239,76.74,237.74,76.74Zm4.68-16.24c-.14.53-2.9,6.76-2.9,10.79,0,.87,0,1.4-.49,1.4,0,0-1.59-.39-1.59-1.4a2.53,2.53,0,0,1,.12-.77c1.14-4,1.09-8.74,1.76-10.35.39-1,1.37-1,2.49-1,.28,0,.92,0,.92.31A5.5,5.5,0,0,1,242.42,60.5Z"/>
  </g>
</svg>
