<svg id="Layer_1" data-name="Layer 1" xmlns="http://www.w3.org/2000/svg" viewBox="0 0 348.57 91.25">
  <defs>
    <style>
      .cls-1 {
        fill: #cce8f9;
      }

      .cls-2 {
        fill: #f5bd60;
      }

      .cls-3 {
        fill: #fee7d6;
      }

      .cls-4 {
        fill: #1c3557;
      }
    </style>
  </defs>
  <g>
    <path class="cls-1" d="M-19.85,158c-.45-5.41,2.66-10.72,10.3-11.36,2.58-.22,5.27.22,7-.41a10,10,0,0,1,1.1,3.83c.21,2.52-.74,4.25-3,4.44-1.55.13-3.29-.68-5.36-2.32a4.47,4.47,0,0,0-.43,2.48c.23,2.73,1.86,4.32,4.81,4.07a6.26,6.26,0,0,0,4.13-2,9.16,9.16,0,0,1,1.06,3.66c.3,3.64-2.29,6.8-8,7.27C-14.27,168.14-19.27,164.87-19.85,158Z" transform="translate(22.38 -76.44)"/>
    <path class="cls-1" d="M.37,162.74c-.24-2.81,1.73-5.11,7.18-5.57a14.19,14.19,0,0,1,1.87,0l-.15-1.74a8.78,8.78,0,0,1-4.08,1.49c-2.58.22-4-1-4.21-3.34a8.58,8.58,0,0,1,.41-3.44,12.27,12.27,0,0,0,3.47.09c2.89-.24,5-1.14,7.53-1.35,3.81-.32,5.85,1.3,6.13,4.68.1,1.17-.07,2.6,0,3.46a.84.84,0,0,0,1,.87,2.24,2.24,0,0,0,1-.37,6.08,6.08,0,0,1,.54,2c.26,3.12-2.13,5.86-5.69,6.16-2.92.24-4.62-1.17-4.62-3.19l-.57,0c-.43,2.49-2.43,3.78-4.78,4C2.52,166.74.56,165.06.37,162.74Zm9.36-1.85-.2-2.41-.43,0a2.33,2.33,0,0,0-.76,1.88c.05.6.41.83.78.8A.92.92,0,0,0,9.73,160.89Z" transform="translate(22.38 -76.44)"/>
    <path class="cls-1" d="M21.91,158.8l0-3.89a27.43,27.43,0,0,0-1.6-9.07,8.85,8.85,0,0,1,5.2-2c4.3-.36,6,1.66,6,6l0,5.91c0,.84.35,1.07,1,1a2.15,2.15,0,0,0,1-.38,6.65,6.65,0,0,1,.54,2c.26,3.13-2.13,5.87-6.09,6.2C24.18,164.93,21.94,163,21.91,158.8Z" transform="translate(22.38 -76.44)"/>
    <path class="cls-1" d="M32.55,145c-.23-2.69,1.2-4,4-4.2,1.31-.11,3.24.16,5,0a7.83,7.83,0,0,0,1.95-.51,5.57,5.57,0,0,1,.58,2.14c.18,2.12-.57,2.91-2.51,3.07-.49,0-1.59,0-3.22.18A11.5,11.5,0,0,0,33,147.23,9.77,9.77,0,0,1,32.55,145Zm2.28,12.76,0-2.51a19.35,19.35,0,0,0-1.41-6.49,8.78,8.78,0,0,1,5.23-2c3.52-.29,5.76,1.28,5.77,4.83v3.12c0,.83.35,1.06,1,1a2.09,2.09,0,0,0,1-.37,6.58,6.58,0,0,1,.55,2c.26,3.12-2.14,5.86-6.09,6.19C37.16,163.84,34.8,161.91,34.83,157.72Z" transform="translate(22.38 -76.44)"/>
    <path class="cls-1" d="M50,165.25c.77-2.26.68-4.7.55-7.95l0-.66a9.72,9.72,0,0,0-2.52.64,5,5,0,0,1-1-2.8,3.4,3.4,0,0,1,3.27-4l-.13-3c-.15-3.88,1.79-5.92,6-6.27,1.61-.13,4.94.08,6.42-.25a6.24,6.24,0,0,1,.93,2.92c.17,2-.29,3.69-2.38,3.87-1.35.11-3.07-.41-5.32-2.88a48.94,48.94,0,0,1,2.36,4.8l1.15-.1A14.83,14.83,0,0,0,62.8,149a4.24,4.24,0,0,1,1,2.62c.14,1.69-.6,3.8-2.76,3.93l-.75,0a20.4,20.4,0,0,1,.55,3.07c.46,5.47-2,7.87-5.78,8.19A6,6,0,0,1,50,165.25Z" transform="translate(22.38 -76.44)"/>
    <path class="cls-1" d="M64.53,153.39c-.45-5.33,3.32-9.25,9.71-9.78,6-.5,10.15,2.44,10.59,7.68s-3.4,9-9.73,9.53C69.23,161.31,65,158.43,64.53,153.39Zm11.27-1.46c-.17-2-.69-3-1.4-3s-1.06,1.21-.87,3.42c.17,2,.68,3,1.4,3S76,154.13,75.8,151.93Z" transform="translate(22.38 -76.44)"/>
    <path class="cls-1" d="M86.57,159.31l-.23-6.93a22.29,22.29,0,0,0-1.73-8.23,9.8,9.8,0,0,1,4.85-1.67c3.75-.32,4.71,1.51,4.67,5.12l.72-.06c-.33-3.87,1-5.68,3.08-5.86,1.15-.09,2.13.23,3.18.06a8.82,8.82,0,0,1,1.51,4.28c.22,2.58-.83,5.26-3.35,5.48a3.59,3.59,0,0,1-3.39-1.28l-.29,0,.89,8.23Z" transform="translate(22.38 -76.44)"/>
    <path class="cls-1" d="M115.17,150.86a16.81,16.81,0,0,1,.09-3.44.92.92,0,0,0-.47-.11c-.74.07-1.18.76-1,3l.56,6.64-9.8.82-.31-7.21a23.08,23.08,0,0,0-1.51-7.66,8.67,8.67,0,0,1,4.91-2c3.18-.27,5.17,1.06,5.31,4.08l.57,0a6.14,6.14,0,0,1,5.78-5c3.41-.28,5.4,1.8,5.36,5.47l0,2.48c0,.84.44,1.09,1.07,1a2.15,2.15,0,0,0,1-.38,6.2,6.2,0,0,1,.54,2c.26,3.13-2.13,5.87-6,6.19S115.53,155.16,115.17,150.86Z" transform="translate(22.38 -76.44)"/>
    <path class="cls-1" d="M125.83,137.16c-.23-2.69,1.2-4,4-4.2,1.31-.11,3.24.16,5,0a7.83,7.83,0,0,0,1.95-.51,5.57,5.57,0,0,1,.58,2.14c.18,2.12-.57,2.91-2.51,3.07-.49,0-1.59,0-3.22.18a11.5,11.5,0,0,0-5.26,1.57A9.77,9.77,0,0,1,125.83,137.16Zm2.28,12.76,0-2.51a19.35,19.35,0,0,0-1.41-6.49,8.78,8.78,0,0,1,5.23-2c3.52-.29,5.76,1.28,5.77,4.83v3.12c0,.83.35,1.06,1,1a2.16,2.16,0,0,0,1-.37,6.58,6.58,0,0,1,.55,2c.26,3.12-2.14,5.86-6.09,6.19C130.44,156,128.08,154.11,128.11,149.92Z" transform="translate(22.38 -76.44)"/>
    <path class="cls-1" d="M141,151c-.24-2.81,1.73-5.11,7.18-5.56a14.19,14.19,0,0,1,1.87,0l-.15-1.75a8.8,8.8,0,0,1-4.08,1.5c-2.58.21-4-1-4.21-3.34a8.58,8.58,0,0,1,.41-3.44,12.71,12.71,0,0,0,3.47.08c2.89-.24,5-1.14,7.53-1.35,3.81-.32,5.85,1.3,6.13,4.68.1,1.18-.07,2.6,0,3.46a.83.83,0,0,0,1,.87,2.13,2.13,0,0,0,1-.37,6.14,6.14,0,0,1,.54,2c.26,3.13-2.13,5.86-5.69,6.16-2.92.25-4.62-1.17-4.62-3.19l-.57.05c-.43,2.49-2.43,3.78-4.78,4C143.1,155,141.14,153.3,141,151Zm9.36-1.85-.2-2.41-.43,0a2.34,2.34,0,0,0-.76,1.88c.05.6.41.83.78.8A.92.92,0,0,0,150.31,149.13Z" transform="translate(22.38 -76.44)"/>
    <path class="cls-1" d="M170.87,146.55c-.15-1.75.52-4.11.35-6.12a1.44,1.44,0,0,0-1.77-1.52,1.93,1.93,0,0,0-1.28.56,6.88,6.88,0,0,1-.55-2.11c-.24-2.9,1.47-5.52,5.74-5.88,4-.33,6.48,2.31,6.85,6.7s-.73,6.44-.68,7.07c0,.28.15.39.38.37.94-.08,2.22-3.42,1.88-7.43a11.6,11.6,0,0,0-1.87-5.87,8.43,8.43,0,0,1,4.84-1.79c3.21-.27,5.64,1.17,6.05,6.13s-.68,7.06-.62,7.69c0,.29.14.4.37.38.95-.08,2.23-3.42,1.89-7.43a11.6,11.6,0,0,0-1.87-5.87,8.36,8.36,0,0,1,4.84-1.79c3.21-.27,5.75,1.16,6.16,6.12.5,6-2.36,14.53-10.38,15.2-2.41.2-4.17-.49-5.29-1.86a12.28,12.28,0,0,1-7.09,2.9C173.84,152.41,171.2,150.5,170.87,146.55Z" transform="translate(22.38 -76.44)"/>
    <path class="cls-1" d="M202.33,142c-.54-6.47,4.79-9.34,9.37-9.72,5.16-.43,8.34,1.69,8.7,6a13.44,13.44,0,0,1,0,2l-8.49,1c.52,1,1.57,1.52,3.4,1.36a7.82,7.82,0,0,0,4.2-1.56c.47.13,1,1.07,1.11,2.24.19,2.3-1.21,5.56-7.63,6.09C206.15,149.94,202.73,146.68,202.33,142Zm9.12-2.4,2.18-.5c.17-1.11-.19-2.58-1.08-2.51-.68.06-1.25,1.2-1.11,2.89Z" transform="translate(22.38 -76.44)"/>
    <path class="cls-1" d="M221.59,140.06c-.45-5.36,1.95-8.79,5.87-9.12a5.23,5.23,0,0,1,4.6,1.86l.29,0a16.09,16.09,0,0,0-1.14-4.58,10.13,10.13,0,0,1,5.55-2c3.32-.28,5.05,1.14,5.28,3.86a12.65,12.65,0,0,1-.56,4.34l.17,3.74c0,.86.44,1.12,1.07,1.06a2.13,2.13,0,0,0,1-.37,6.08,6.08,0,0,1,.54,2c.26,3.12-2.13,5.86-5.69,6.16-2.77.23-4.5-1.09-4.68-3.21a6.77,6.77,0,0,1,0-.78l-.58.05c-.9,3.36-2.58,4.6-4.85,4.79C224.69,148.16,222,145.44,221.59,140.06Zm11.2.47-.3-5.4c-1.22.25-1.73,1.76-1.61,3.22s.74,2.28,1.71,2.2Z" transform="translate(22.38 -76.44)"/>
    <path class="cls-1" d="M244.8,138.12c-.45-5.36,1.94-8.79,5.87-9.12a5.23,5.23,0,0,1,4.6,1.86l.28,0a16.19,16.19,0,0,0-1.13-4.58,10.07,10.07,0,0,1,5.54-2c3.33-.28,5.06,1.14,5.29,3.86a12.9,12.9,0,0,1-.56,4.34l.17,3.74c0,.86.44,1.12,1.07,1.06a2.09,2.09,0,0,0,1-.37,6.1,6.1,0,0,1,.55,2c.26,3.12-2.14,5.86-5.69,6.16-2.78.23-4.5-1.09-4.68-3.21a6.77,6.77,0,0,1,0-.78l-.57.05c-.9,3.36-2.59,4.6-4.85,4.79C247.9,146.22,245.25,143.5,244.8,138.12Zm11.2.47-.31-5.4c-1.22.25-1.72,1.76-1.6,3.22s.74,2.28,1.71,2.2Z" transform="translate(22.38 -76.44)"/>
    <path class="cls-1" d="M266,125.43c-.23-2.69,1.19-4,3.94-4.19,1.32-.11,3.25.16,5,0a7.22,7.22,0,0,0,1.94-.5,5.4,5.4,0,0,1,.59,2.14c.17,2.12-.57,2.9-2.52,3.06-.48,0-1.58,0-3.21.19a11.56,11.56,0,0,0-5.27,1.56A10.18,10.18,0,0,1,266,125.43Zm2.28,12.77,0-2.52a19.28,19.28,0,0,0-1.41-6.48,8.75,8.75,0,0,1,5.23-2c3.52-.29,5.76,1.28,5.76,4.83v3.11c0,.84.34,1.07,1,1a2.16,2.16,0,0,0,1-.38,6.64,6.64,0,0,1,.55,2c.26,3.12-2.14,5.86-6.09,6.19C270.64,144.32,268.29,142.38,268.32,138.2Z" transform="translate(22.38 -76.44)"/>
    <path class="cls-1" d="M292.31,136.05a16.12,16.12,0,0,1,.09-3.44.92.92,0,0,0-.47-.11c-.75.06-1.18.76-1,3l.56,6.64-9.8.82-.32-7.21a23.47,23.47,0,0,0-1.5-7.67,8.74,8.74,0,0,1,4.91-2c3.18-.26,5.17,1.07,5.3,4.09l.58,0a6.14,6.14,0,0,1,5.78-5c3.41-.29,5.4,1.8,5.36,5.47l0,2.48c0,.84.43,1.09,1.06,1a2.26,2.26,0,0,0,1-.38,6.17,6.17,0,0,1,.55,2c.26,3.13-2.14,5.86-6,6.19S292.67,140.34,292.31,136.05Z" transform="translate(22.38 -76.44)"/>
    <path class="cls-1" d="M307.28,141.17a4.52,4.52,0,0,1,.43-2.43,12,12,0,0,0,4.46.52c3.81-.32,5.19-2.08,4.42-5.1l-.29,0a5.21,5.21,0,0,1-4.91,4c-3.44.29-6.35-1.72-6.73-6.22-.39-4.69,2.42-7.7,6.37-8a5.62,5.62,0,0,1,5,1.77l.57,0,.34-1.82a13.42,13.42,0,0,1,3.32-.68c3.52-.3,5.14.86,5.9,3a4.53,4.53,0,0,1-1.05,2l.68,5.31c.83,6.45-2.55,11-10.6,11.64C309.72,145.55,307.48,143.52,307.28,141.17Zm8.93-8.77-.22-4a2,2,0,0,0-2,2.39,1.65,1.65,0,0,0,1.9,1.6Z" transform="translate(22.38 -76.44)"/>
  </g>
  <g>
    <path class="cls-2" d="M-21.09,155.81c-.46-5.41,2.65-10.72,10.3-11.36,2.58-.22,5.27.22,7-.41a9.87,9.87,0,0,1,1.1,3.83c.21,2.52-.74,4.25-3,4.44-1.55.13-3.29-.68-5.36-2.32a4.47,4.47,0,0,0-.43,2.48c.23,2.72,1.87,4.32,4.82,4.07a6.2,6.2,0,0,0,4.12-2,9.25,9.25,0,0,1,1.06,3.67c.3,3.63-2.29,6.79-8,7.27C-15.52,165.93-20.52,162.66-21.09,155.81Z" transform="translate(22.38 -76.44)"/>
    <path class="cls-2" d="M-.88,160.52c-.23-2.8,1.74-5.1,7.18-5.56a14.24,14.24,0,0,1,1.87,0L8,153.17a8.88,8.88,0,0,1-4.09,1.5c-2.58.21-4-1-4.2-3.34a8.54,8.54,0,0,1,.4-3.44,12.34,12.34,0,0,0,3.47.08c2.89-.24,5-1.14,7.53-1.35,3.81-.31,5.85,1.3,6.13,4.68.1,1.18-.07,2.61,0,3.46a.85.85,0,0,0,1,.88,2.15,2.15,0,0,0,1-.38,6,6,0,0,1,.54,2c.26,3.13-2.13,5.87-5.68,6.16-2.93.25-4.63-1.17-4.63-3.19l-.57.05c-.43,2.49-2.42,3.78-4.77,4C1.27,164.53-.69,162.84-.88,160.52Zm9.37-1.85-.21-2.4-.43,0a2.42,2.42,0,0,0-.76,1.88c0,.61.41.83.79.8A.9.9,0,0,0,8.49,158.67Z" transform="translate(22.38 -76.44)"/>
    <path class="cls-2" d="M20.66,156.59l0-3.89A27.22,27.22,0,0,0,19,143.63a8.83,8.83,0,0,1,5.2-2c4.29-.36,6,1.66,6,6l0,5.92c0,.84.35,1.07,1,1a2.13,2.13,0,0,0,1-.37,6.58,6.58,0,0,1,.54,2c.26,3.12-2.13,5.86-6.08,6.19C22.93,162.72,20.69,160.77,20.66,156.59Z" transform="translate(22.38 -76.44)"/>
    <path class="cls-2" d="M31.3,142.75c-.22-2.7,1.2-4,3.95-4.2,1.32-.11,3.24.16,5,0a7.72,7.72,0,0,0,1.95-.51,5.57,5.57,0,0,1,.58,2.14c.18,2.12-.56,2.9-2.51,3.07-.49,0-1.58,0-3.22.18A11.55,11.55,0,0,0,31.78,145,10.22,10.22,0,0,1,31.3,142.75Zm2.28,12.76,0-2.51a19,19,0,0,0-1.41-6.49,8.78,8.78,0,0,1,5.23-2c3.52-.29,5.76,1.28,5.77,4.83v3.11c0,.84.35,1.07,1,1a2.24,2.24,0,0,0,1-.37,6.5,6.5,0,0,1,.54,2c.26,3.12-2.13,5.86-6.09,6.19C35.91,161.63,33.55,159.69,33.58,155.51Z" transform="translate(22.38 -76.44)"/>
    <path class="cls-2" d="M48.78,163c.76-2.26.67-4.71.54-8l0-.66a10.19,10.19,0,0,0-2.52.65,5.12,5.12,0,0,1-1-2.8,3.41,3.41,0,0,1,3.28-4l-.14-3c-.15-3.88,1.79-5.92,6-6.27,1.6-.14,4.94.07,6.41-.25a6.35,6.35,0,0,1,.94,2.92c.17,2-.3,3.69-2.39,3.86-1.35.12-3.07-.4-5.32-2.87a48.94,48.94,0,0,1,2.36,4.8l1.15-.1a14.34,14.34,0,0,0,3.46-.64,4.3,4.3,0,0,1,1,2.63c.14,1.69-.6,3.8-2.76,3.93l-.74,0a21.4,21.4,0,0,1,.54,3.07c.46,5.47-2,7.87-5.78,8.18A6,6,0,0,1,48.78,163Z" transform="translate(22.38 -76.44)"/>
    <path class="cls-2" d="M63.28,151.18c-.45-5.33,3.32-9.25,9.71-9.79,6-.49,10.16,2.44,10.59,7.69s-3.4,9-9.73,9.52C68,159.09,63.7,156.22,63.28,151.18Zm11.27-1.46c-.17-2-.68-3-1.4-3s-1.05,1.21-.87,3.42c.17,2,.69,3,1.4,3S74.74,151.92,74.55,149.72Z" transform="translate(22.38 -76.44)"/>
    <path class="cls-2" d="M85.32,157.1l-.23-6.94a22.28,22.28,0,0,0-1.73-8.22,9.8,9.8,0,0,1,4.85-1.67c3.76-.32,4.72,1.51,4.67,5.12l.72-.06c-.32-3.87,1-5.69,3.09-5.86,1.14-.09,2.12.23,3.17.05a9,9,0,0,1,1.52,4.29c.21,2.58-.83,5.26-3.35,5.47a3.58,3.58,0,0,1-3.4-1.27l-.29,0,.89,8.24Z" transform="translate(22.38 -76.44)"/>
    <path class="cls-2" d="M113.93,148.65a16.87,16.87,0,0,1,.08-3.45,1,1,0,0,0-.47-.1c-.74.06-1.17.76-1,3l.55,6.64-9.8.82-.31-7.21a23.15,23.15,0,0,0-1.51-7.67,8.75,8.75,0,0,1,4.92-2c3.18-.26,5.16,1.07,5.3,4.09l.57-.05a6.15,6.15,0,0,1,5.79-5c3.4-.29,5.4,1.8,5.36,5.47l0,2.48c0,.84.44,1.09,1.07,1a2.13,2.13,0,0,0,1-.37,5.91,5.91,0,0,1,.54,2c.26,3.13-2.13,5.86-6,6.18S114.29,152.94,113.93,148.65Z" transform="translate(22.38 -76.44)"/>
    <path class="cls-2" d="M124.58,135c-.22-2.7,1.2-4,4-4.2,1.32-.11,3.24.16,5,0a7.72,7.72,0,0,0,1.95-.51,5.57,5.57,0,0,1,.58,2.14c.18,2.12-.56,2.9-2.51,3.07-.49,0-1.58,0-3.22.18a11.55,11.55,0,0,0-5.26,1.56A10.83,10.83,0,0,1,124.58,135Zm2.28,12.76,0-2.51a19,19,0,0,0-1.41-6.49,8.78,8.78,0,0,1,5.23-2c3.52-.29,5.76,1.28,5.77,4.83v3.11c0,.84.35,1.07,1,1a2.24,2.24,0,0,0,1-.37,6.5,6.5,0,0,1,.54,2c.26,3.12-2.13,5.86-6.09,6.19C129.19,153.83,126.83,151.89,126.86,147.71Z" transform="translate(22.38 -76.44)"/>
    <path class="cls-2" d="M139.7,148.77c-.23-2.81,1.74-5.11,7.18-5.56a14.24,14.24,0,0,1,1.87,0l-.14-1.75a8.85,8.85,0,0,1-4.09,1.49c-2.58.22-4-1-4.2-3.34a8.58,8.58,0,0,1,.4-3.44,12.28,12.28,0,0,0,3.47.09c2.89-.24,5-1.14,7.53-1.35,3.81-.32,5.85,1.3,6.13,4.68.1,1.17-.07,2.6,0,3.46a.84.84,0,0,0,1,.87,2.13,2.13,0,0,0,1-.37,5.85,5.85,0,0,1,.54,2c.26,3.12-2.13,5.86-5.68,6.16-2.93.24-4.63-1.17-4.63-3.19l-.57.05c-.43,2.48-2.42,3.78-4.77,4C141.85,152.77,139.89,151.09,139.7,148.77Zm9.37-1.85-.21-2.41-.43,0a2.36,2.36,0,0,0-.76,1.88c.05.6.41.83.79.8A1,1,0,0,0,149.07,146.92Z" transform="translate(22.38 -76.44)"/>
    <path class="cls-2" d="M169.62,144.33c-.15-1.74.52-4.11.35-6.11a1.45,1.45,0,0,0-1.77-1.53,2,2,0,0,0-1.28.57,7.23,7.23,0,0,1-.55-2.12c-.24-2.89,1.47-5.51,5.74-5.87,4-.33,6.48,2.31,6.85,6.7s-.73,6.43-.68,7.06c0,.29.15.4.38.38.94-.08,2.22-3.42,1.89-7.43a11.6,11.6,0,0,0-1.88-5.87,8.41,8.41,0,0,1,4.84-1.79c3.21-.27,5.64,1.17,6.05,6.13a23.25,23.25,0,0,1-.62,7.69c0,.29.15.39.38.38.94-.08,2.22-3.42,1.88-7.43a11.6,11.6,0,0,0-1.87-5.88,8.43,8.43,0,0,1,4.84-1.78c3.21-.27,5.75,1.16,6.16,6.11.5,6-2.36,14.54-10.38,15.21a5.81,5.81,0,0,1-5.29-1.87,12.15,12.15,0,0,1-7.08,2.9C172.59,150.2,170,148.29,169.62,144.33Z" transform="translate(22.38 -76.44)"/>
    <path class="cls-2" d="M201.09,139.74c-.55-6.47,4.78-9.34,9.37-9.72,5.15-.44,8.33,1.69,8.69,6a13.44,13.44,0,0,1,0,2l-8.49,1c.52,1.05,1.57,1.51,3.41,1.36a8,8,0,0,0,4.19-1.56c.48.13,1,1.07,1.11,2.24.19,2.29-1.21,5.55-7.62,6.09C204.9,147.73,201.48,144.47,201.09,139.74Zm9.11-2.4,2.18-.5c.17-1.11-.18-2.58-1.07-2.51-.69.06-1.26,1.2-1.12,2.89Z" transform="translate(22.38 -76.44)"/>
    <path class="cls-2" d="M220.34,137.84c-.45-5.35,1.95-8.79,5.88-9.11a5.23,5.23,0,0,1,4.59,1.86l.29,0A16.19,16.19,0,0,0,230,126a10,10,0,0,1,5.54-2c3.32-.28,5.06,1.13,5.28,3.85a12.64,12.64,0,0,1-.55,4.35l.16,3.74c0,.86.44,1.11,1.07,1.06a2.24,2.24,0,0,0,1-.37,6.1,6.1,0,0,1,.55,2c.26,3.12-2.14,5.86-5.69,6.16-2.78.23-4.51-1.1-4.68-3.22a5,5,0,0,1,0-.77l-.57,0c-.91,3.37-2.59,4.6-4.85,4.79C223.44,146,220.79,143.23,220.34,137.84Zm11.21.48-.31-5.4c-1.22.25-1.73,1.76-1.61,3.22s.74,2.28,1.72,2.2Z" transform="translate(22.38 -76.44)"/>
    <path class="cls-2" d="M243.55,135.9c-.45-5.36,1.95-8.79,5.87-9.11a5.23,5.23,0,0,1,4.6,1.86l.29,0a16.34,16.34,0,0,0-1.14-4.58,10.06,10.06,0,0,1,5.55-2c3.32-.28,5,1.13,5.28,3.85a12.68,12.68,0,0,1-.56,4.35l.17,3.74c0,.86.44,1.11,1.07,1.06a2.24,2.24,0,0,0,1-.37,6.08,6.08,0,0,1,.54,2c.26,3.12-2.13,5.86-5.69,6.16-2.77.23-4.5-1.1-4.68-3.22,0-.26,0-.51,0-.77l-.57,0c-.9,3.37-2.58,4.6-4.85,4.79C246.65,144,244,141.29,243.55,135.9Zm11.2.48-.3-5.4c-1.22.25-1.73,1.76-1.61,3.22s.74,2.28,1.71,2.2Z" transform="translate(22.38 -76.44)"/>
    <path class="cls-2" d="M264.79,123.22c-.23-2.69,1.2-4,3.95-4.19,1.31-.11,3.24.16,5,0a7.42,7.42,0,0,0,1.95-.51,5.62,5.62,0,0,1,.58,2.15c.18,2.12-.57,2.9-2.51,3.06-.49,0-1.59.05-3.22.18a11.66,11.66,0,0,0-5.26,1.57A9.66,9.66,0,0,1,264.79,123.22ZM267.07,136l0-2.51a19.35,19.35,0,0,0-1.41-6.49,8.84,8.84,0,0,1,5.23-2c3.52-.3,5.76,1.28,5.77,4.83v3.11c0,.84.35,1.07,1,1a2.26,2.26,0,0,0,1-.38,6.87,6.87,0,0,1,.54,2c.26,3.13-2.14,5.86-6.09,6.2C269.4,142.11,267,140.17,267.07,136Z" transform="translate(22.38 -76.44)"/>
    <path class="cls-2" d="M291.06,133.83a16.83,16.83,0,0,1,.09-3.44,1,1,0,0,0-.47-.1c-.75.06-1.18.76-1,3l.56,6.65-9.8.82-.31-7.22a23.14,23.14,0,0,0-1.51-7.66,8.74,8.74,0,0,1,4.91-2c3.18-.26,5.17,1.07,5.31,4.09l.57-.05a6.14,6.14,0,0,1,5.78-5c3.41-.29,5.4,1.8,5.36,5.46l0,2.49c0,.83.44,1.09,1.07,1a2.13,2.13,0,0,0,1-.37,6.33,6.33,0,0,1,.54,2c.26,3.12-2.14,5.86-6,6.18S291.42,138.13,291.06,133.83Z" transform="translate(22.38 -76.44)"/>
    <path class="cls-2" d="M306,139a4.52,4.52,0,0,1,.43-2.43,12,12,0,0,0,4.46.52c3.81-.32,5.19-2.08,4.42-5.1l-.29,0a5.21,5.21,0,0,1-4.91,4c-3.44.29-6.35-1.72-6.72-6.22-.4-4.7,2.41-7.7,6.37-8a5.57,5.57,0,0,1,5,1.77l.57-.05.34-1.81A13,13,0,0,1,319,121c3.52-.29,5.15.87,5.9,3a4.39,4.39,0,0,1-1.05,2l.68,5.31c.83,6.45-2.54,11-10.59,11.65C308.48,143.34,306.23,141.31,306,139Zm8.93-8.77-.21-4a2,2,0,0,0-2,2.39,1.65,1.65,0,0,0,1.9,1.6Z" transform="translate(22.38 -76.44)"/>
  </g>
  <g>
    <path class="cls-3" d="M-22.34,153.4C-22.79,148-19.69,142.68-12,142c2.58-.22,5.27.22,7-.41A10.23,10.23,0,0,1-4,145.46c.21,2.52-.75,4.24-3,4.44-1.54.12-3.29-.68-5.36-2.33a4.52,4.52,0,0,0-.42,2.49c.22,2.72,1.86,4.32,4.81,4.07a6.24,6.24,0,0,0,4.13-2,9.2,9.2,0,0,1,1,3.67c.31,3.63-2.29,6.79-8,7.27C-16.76,163.52-21.77,160.25-22.34,153.4Z" transform="translate(22.38 -76.44)"/>
    <path class="cls-3" d="M-2.13,158.11c-.23-2.8,1.74-5.1,7.18-5.56a14.24,14.24,0,0,1,1.87,0l-.14-1.75a8.84,8.84,0,0,1-4.09,1.5c-2.58.21-4-1-4.2-3.34a8.54,8.54,0,0,1,.4-3.44,12.35,12.35,0,0,0,3.47.08c2.9-.24,5-1.14,7.53-1.35,3.81-.32,5.85,1.3,6.14,4.68.09,1.18-.07,2.6,0,3.46a.84.84,0,0,0,1,.88,2.26,2.26,0,0,0,1-.38,6.23,6.23,0,0,1,.55,2c.26,3.13-2.14,5.87-5.69,6.16-2.92.25-4.63-1.17-4.62-3.19l-.58.05c-.42,2.49-2.42,3.78-4.77,4C0,162.12-1.93,160.43-2.13,158.11Zm9.37-1.85-.2-2.4-.43,0a2.39,2.39,0,0,0-.77,1.88c0,.61.42.83.79.8A.88.88,0,0,0,7.24,156.26Z" transform="translate(22.38 -76.44)"/>
    <path class="cls-3" d="M19.41,154.18l0-3.89a27.22,27.22,0,0,0-1.59-9.07,8.9,8.9,0,0,1,5.2-2c4.3-.35,6,1.66,6,6l0,5.92c0,.84.35,1.07,1,1a2.13,2.13,0,0,0,1-.37,6.58,6.58,0,0,1,.55,2c.26,3.12-2.14,5.86-6.09,6.19C21.68,160.3,19.44,158.36,19.41,154.18Z" transform="translate(22.38 -76.44)"/>
    <path class="cls-3" d="M30.05,140.33c-.22-2.69,1.2-4,3.95-4.19,1.32-.11,3.25.16,5,0a7.19,7.19,0,0,0,1.95-.5,5.4,5.4,0,0,1,.58,2.14c.18,2.12-.56,2.9-2.51,3.06-.49.05-1.58.05-3.22.19a11.55,11.55,0,0,0-5.26,1.56A10.78,10.78,0,0,1,30.05,140.33Zm2.28,12.77,0-2.51a18.82,18.82,0,0,0-1.41-6.49,8.78,8.78,0,0,1,5.23-2c3.53-.29,5.76,1.28,5.77,4.83V150c0,.84.35,1.07,1,1a2.15,2.15,0,0,0,1-.38,6.64,6.64,0,0,1,.54,2c.27,3.12-2.13,5.86-6.08,6.19C34.66,159.22,32.31,157.28,32.33,153.1Z" transform="translate(22.38 -76.44)"/>
    <path class="cls-3" d="M47.53,160.62c.76-2.25.67-4.7.55-8l0-.66a9.7,9.7,0,0,0-2.51.65,5.07,5.07,0,0,1-1-2.8,3.4,3.4,0,0,1,3.28-4l-.13-3c-.16-3.88,1.78-5.92,6-6.27,1.6-.14,4.94.07,6.41-.25a6.35,6.35,0,0,1,.94,2.92c.17,2-.3,3.69-2.39,3.86-1.35.12-3.06-.4-5.32-2.87a52.23,52.23,0,0,1,2.37,4.79l1.14-.09a14.33,14.33,0,0,0,3.47-.64,4.42,4.42,0,0,1,1,2.63c.14,1.69-.61,3.8-2.76,3.92l-.75,0a20.19,20.19,0,0,1,.55,3.07c.45,5.47-2,7.87-5.78,8.18A6,6,0,0,1,47.53,160.62Z" transform="translate(22.38 -76.44)"/>
    <path class="cls-3" d="M62,148.77c-.44-5.33,3.32-9.25,9.71-9.79,6-.5,10.16,2.44,10.6,7.69s-3.4,9-9.74,9.52C66.73,156.68,62.45,153.81,62,148.77ZM73.3,147.3c-.16-2-.68-3-1.4-3s-1.05,1.21-.87,3.41c.17,2,.69,3,1.41,3S73.49,149.51,73.3,147.3Z" transform="translate(22.38 -76.44)"/>
    <path class="cls-3" d="M84.08,154.68l-.24-6.93a22.23,22.23,0,0,0-1.72-8.22A9.71,9.71,0,0,1,87,137.85c3.75-.31,4.71,1.51,4.67,5.12l.71-.06c-.32-3.86,1-5.68,3.09-5.85,1.15-.1,2.12.23,3.18.05a8.9,8.9,0,0,1,1.51,4.29c.22,2.58-.83,5.26-3.35,5.47a3.6,3.6,0,0,1-3.4-1.27l-.28,0,.89,8.24Z" transform="translate(22.38 -76.44)"/>
    <path class="cls-3" d="M112.68,146.23a16.15,16.15,0,0,1,.09-3.44,1,1,0,0,0-.47-.1c-.75.06-1.18.76-1,3l.55,6.65-9.79.82-.32-7.22a23.46,23.46,0,0,0-1.5-7.66,8.74,8.74,0,0,1,4.91-2c3.18-.26,5.17,1.07,5.3,4.09l.58,0a6.14,6.14,0,0,1,5.78-5c3.41-.29,5.4,1.8,5.36,5.46l0,2.49c0,.83.43,1.09,1.06,1a2.13,2.13,0,0,0,1-.37,6.1,6.1,0,0,1,.55,2c.26,3.12-2.14,5.86-6,6.18S113,150.53,112.68,146.23Z" transform="translate(22.38 -76.44)"/>
    <path class="cls-3" d="M123.33,132.54c-.22-2.7,1.2-4,4-4.2,1.32-.11,3.25.16,5,0a7.19,7.19,0,0,0,1.95-.5,5.23,5.23,0,0,1,.58,2.14c.18,2.12-.56,2.9-2.51,3.06-.49,0-1.58,0-3.21.19a11.56,11.56,0,0,0-5.27,1.56A10.83,10.83,0,0,1,123.33,132.54Zm2.28,12.76,0-2.51a19.06,19.06,0,0,0-1.4-6.49,8.72,8.72,0,0,1,5.22-2c3.53-.29,5.76,1.28,5.77,4.83v3.11c0,.84.35,1.07,1,1a2.15,2.15,0,0,0,1-.38,6.64,6.64,0,0,1,.54,2c.27,3.12-2.13,5.86-6.08,6.19C127.94,151.42,125.59,149.48,125.61,145.3Z" transform="translate(22.38 -76.44)"/>
    <path class="cls-3" d="M138.45,146.36c-.23-2.81,1.74-5.11,7.18-5.56a16.11,16.11,0,0,1,1.87-.05l-.14-1.74a8.82,8.82,0,0,1-4.09,1.49c-2.58.22-4-1-4.2-3.34a8.58,8.58,0,0,1,.4-3.44,12.3,12.3,0,0,0,3.47.09c2.9-.24,5-1.14,7.53-1.35,3.81-.32,5.85,1.3,6.14,4.68.09,1.17-.07,2.6,0,3.46a.83.83,0,0,0,1,.87,2.13,2.13,0,0,0,1-.37,6.1,6.1,0,0,1,.55,2c.26,3.12-2.14,5.86-5.69,6.16-2.92.24-4.63-1.17-4.62-3.19l-.58.05c-.42,2.48-2.42,3.77-4.77,4C140.6,150.36,138.65,148.68,138.45,146.36Zm9.37-1.85-.2-2.41-.43,0a2.37,2.37,0,0,0-.77,1.88c.05.6.42.83.79.8A1,1,0,0,0,147.82,144.51Z" transform="translate(22.38 -76.44)"/>
    <path class="cls-3" d="M168.37,141.92c-.14-1.74.52-4.11.36-6.11a1.45,1.45,0,0,0-1.77-1.53,2,2,0,0,0-1.28.57,7,7,0,0,1-.56-2.12c-.24-2.89,1.47-5.51,5.74-5.87,4-.33,6.49,2.31,6.85,6.7S177,140,177,140.62c0,.29.15.39.38.37,1-.07,2.23-3.41,1.89-7.42a11.61,11.61,0,0,0-1.88-5.88,8.49,8.49,0,0,1,4.85-1.78c3.2-.27,5.63,1.17,6,6.12a23.44,23.44,0,0,1-.63,7.7c0,.29.15.39.38.37.94-.08,2.22-3.41,1.89-7.43a11.6,11.6,0,0,0-1.88-5.87,8.56,8.56,0,0,1,4.84-1.79c3.21-.26,5.75,1.17,6.17,6.12.5,6-2.36,14.54-10.38,15.21a5.82,5.82,0,0,1-5.3-1.87,12.15,12.15,0,0,1-7.08,2.9C171.34,147.79,168.7,145.88,168.37,141.92Z" transform="translate(22.38 -76.44)"/>
    <path class="cls-3" d="M199.84,137.33c-.54-6.47,4.78-9.34,9.37-9.73,5.16-.43,8.33,1.7,8.7,6a13.52,13.52,0,0,1,0,2l-8.48,1c.52,1,1.57,1.51,3.4,1.36a7.93,7.93,0,0,0,4.19-1.56c.48.13,1,1.07,1.12,2.24.19,2.29-1.21,5.55-7.63,6.09C203.65,145.32,200.23,142.06,199.84,137.33Zm9.12-2.41,2.17-.5c.17-1.11-.18-2.58-1.07-2.5-.69.05-1.26,1.2-1.11,2.89Z" transform="translate(22.38 -76.44)"/>
    <path class="cls-3" d="M219.1,135.43c-.45-5.36,1.94-8.79,5.87-9.12a5.24,5.24,0,0,1,4.6,1.87l.28,0a16.09,16.09,0,0,0-1.13-4.58,9.92,9.92,0,0,1,5.54-2c3.33-.28,5.06,1.13,5.29,3.85a12.93,12.93,0,0,1-.56,4.35l.17,3.73c0,.87.44,1.12,1.07,1.07a2.2,2.2,0,0,0,1-.37,6.1,6.1,0,0,1,.55,2c.26,3.12-2.14,5.86-5.69,6.16-2.78.23-4.5-1.1-4.68-3.22a6.77,6.77,0,0,1,0-.78l-.57.05c-.9,3.37-2.59,4.6-4.85,4.79C222.2,143.54,219.55,140.82,219.1,135.43Zm11.2.48-.31-5.4c-1.22.25-1.73,1.76-1.6,3.22s.73,2.28,1.71,2.2Z" transform="translate(22.38 -76.44)"/>
    <path class="cls-3" d="M242.3,133.49c-.45-5.36,1.95-8.79,5.87-9.12a5.24,5.24,0,0,1,4.6,1.87l.29,0a16.45,16.45,0,0,0-1.13-4.58,9.92,9.92,0,0,1,5.54-2c3.32-.28,5.06,1.13,5.28,3.85a12.68,12.68,0,0,1-.56,4.35l.17,3.73c.05.87.44,1.12,1.07,1.07a2.24,2.24,0,0,0,1-.37,5.85,5.85,0,0,1,.54,2c.27,3.12-2.13,5.86-5.68,6.16-2.78.23-4.51-1.1-4.69-3.22a6.77,6.77,0,0,1,0-.78l-.58.05c-.9,3.37-2.58,4.6-4.85,4.79C245.4,141.6,242.75,138.88,242.3,133.49Zm11.21.48-.31-5.4c-1.22.25-1.73,1.76-1.61,3.22s.74,2.28,1.71,2.2Z" transform="translate(22.38 -76.44)"/>
    <path class="cls-3" d="M263.54,120.81c-.22-2.69,1.2-4,3.95-4.2,1.32-.11,3.24.17,5,0a7.32,7.32,0,0,0,1.95-.51,5.44,5.44,0,0,1,.58,2.15c.18,2.12-.56,2.9-2.51,3.06-.49,0-1.58,0-3.22.18a11.54,11.54,0,0,0-5.26,1.57A10.92,10.92,0,0,1,263.54,120.81Zm2.28,12.76,0-2.51a19.11,19.11,0,0,0-1.41-6.49,8.84,8.84,0,0,1,5.23-2c3.52-.3,5.76,1.28,5.77,4.82v3.12c0,.84.35,1.07,1,1a2.13,2.13,0,0,0,1-.37,6.58,6.58,0,0,1,.54,2c.26,3.12-2.13,5.86-6.09,6.19C268.15,139.7,265.8,137.76,265.82,133.57Z" transform="translate(22.38 -76.44)"/>
    <path class="cls-3" d="M289.82,131.42a16.78,16.78,0,0,1,.08-3.44,1,1,0,0,0-.47-.1c-.74.06-1.17.76-1,3l.55,6.65-9.8.82-.31-7.22a23.14,23.14,0,0,0-1.51-7.66,8.74,8.74,0,0,1,4.91-2c3.18-.27,5.17,1.07,5.31,4.09l.57,0a6.14,6.14,0,0,1,5.78-5c3.41-.29,5.41,1.8,5.37,5.46l0,2.49c0,.83.44,1.08,1.07,1a2.13,2.13,0,0,0,1-.37,6.08,6.08,0,0,1,.54,2c.26,3.12-2.13,5.86-6,6.18S290.17,135.72,289.82,131.42Z" transform="translate(22.38 -76.44)"/>
    <path class="cls-3" d="M304.78,136.55a4.43,4.43,0,0,1,.44-2.43,11.9,11.9,0,0,0,4.45.52c3.81-.32,5.2-2.08,4.42-5.1l-.28,0a5.23,5.23,0,0,1-4.92,4c-3.43.28-6.34-1.72-6.72-6.22-.39-4.7,2.41-7.7,6.37-8a5.57,5.57,0,0,1,5,1.77l.57,0,.34-1.81a13.09,13.09,0,0,1,3.32-.69c3.52-.29,5.15.87,5.91,3a4.6,4.6,0,0,1-1.05,2l.67,5.31c.83,6.45-2.54,11-10.59,11.65C307.23,140.93,305,138.9,304.78,136.55Zm8.94-8.77-.22-4a2,2,0,0,0-2,2.38,1.64,1.64,0,0,0,1.89,1.61Z" transform="translate(22.38 -76.44)"/>
  </g>
  <g>
    <path class="cls-4" d="M97.55,86.22A.4.4,0,0,1,98,85.8h.85a.4.4,0,0,0,.44-.28l3.29-8.47a.82.82,0,0,1,.78-.58h.13a.86.86,0,0,1,.79.56l3.24,8.49a.45.45,0,0,0,.42.28h1a.43.43,0,1,1,0,.85h-3.53a.43.43,0,1,1,0-.85h.93c.13,0,.25,0,.25-.17a1.2,1.2,0,0,0-.07-.19l-.9-2.34a.39.39,0,0,0-.38-.25h-3.66a.4.4,0,0,0-.38.27l-.93,2.38a.3.3,0,0,0,0,.12c0,.15.17.18.25.18h.9a.43.43,0,1,1,0,.85H98A.4.4,0,0,1,97.55,86.22ZM105,82.07c.12,0,.18,0,.18-.13a.39.39,0,0,0,0-.13l-1.6-4.31c0-.08-.07-.11-.1-.11s-.07,0-.1.1l-1.62,4.32a.39.39,0,0,0,0,.13c0,.08.06.13.16.13Z" transform="translate(22.38 -76.44)"/>
    <path class="cls-4" d="M109.67,86.24a.41.41,0,0,1,.41-.41h1.16c.12,0,.17,0,.17-.16V80.5a.18.18,0,0,0-.17-.17h-1.16a.4.4,0,0,1-.41-.4.41.41,0,0,1,.41-.41h1.78a.43.43,0,0,1,.43.42v.72s0,.08,0,.08a.11.11,0,0,0,.1-.06,3.46,3.46,0,0,1,2.63-1.1.47.47,0,0,0,.28-.08.57.57,0,0,1,.31-.08.4.4,0,0,1,.43.37l.16,1.48a3,3,0,0,1,0,.39.4.4,0,0,1-.44.39.41.41,0,0,1-.44-.39l-.11-.92c0-.18-.15-.26-.51-.26a2.39,2.39,0,0,0-2.47,2.14v3a.14.14,0,0,0,.16.16h1.66a.4.4,0,0,1,.4.41.39.39,0,0,1-.4.41h-4A.41.41,0,0,1,109.67,86.24Z" transform="translate(22.38 -76.44)"/>
    <path class="cls-4" d="M117.69,83.07a3.64,3.64,0,0,1,3.82-3.72,3.6,3.6,0,0,1,3.82,3.29c0,.46-.18.72-.71.72h-5.84c-.08,0-.13,0-.13.13,0,1.1,1.26,2.47,3.54,2.47a6.94,6.94,0,0,0,2.06-.28,1.75,1.75,0,0,1,.42-.08.37.37,0,0,1,.38.41c0,.18-.12.3-.36.41a6.75,6.75,0,0,1-2.67.39C119.27,86.81,117.69,85.27,117.69,83.07Zm6.51-.51c.11,0,.16,0,.16-.13a2.78,2.78,0,0,0-2.85-2.23,2.74,2.74,0,0,0-2.84,2.23c0,.08,0,.13.15.13Z" transform="translate(22.38 -76.44)"/>
    <path class="cls-4" d="M132.41,86.22a.39.39,0,0,1,.42-.42h1.26a.18.18,0,0,0,.2-.2v-8a.18.18,0,0,0-.2-.2h-1.26a.43.43,0,0,1,0-.85h3.7a.43.43,0,1,1,0,.85H135.4c-.13,0-.19.06-.19.2v3.3a.15.15,0,0,0,.14.15H141a.15.15,0,0,0,.15-.15v-3.3a.18.18,0,0,0-.2-.2h-1.13a.43.43,0,0,1,0-.85h3.7a.43.43,0,0,1,0,.85h-1.26a.18.18,0,0,0-.2.2v8a.18.18,0,0,0,.2.2h1.26a.43.43,0,0,1,0,.85h-3.7a.43.43,0,0,1,0-.85H141a.18.18,0,0,0,.2-.2V82.08a.15.15,0,0,0-.15-.14h-5.68a.14.14,0,0,0-.14.14V85.6c0,.13.06.2.19.2h1.13a.43.43,0,1,1,0,.85h-3.7A.39.39,0,0,1,132.41,86.22Z" transform="translate(22.38 -76.44)"/>
    <path class="cls-4" d="M145.15,84.56a2,2,0,0,1,1.18-1.94,11.83,11.83,0,0,1,3.68-.31h1c.12,0,.17,0,.17-.16,0-1.65-.72-2-2.34-2a8.88,8.88,0,0,0-2.08.3,4.57,4.57,0,0,1-.48.08.42.42,0,0,1-.42-.43.38.38,0,0,1,.33-.39,11.82,11.82,0,0,1,2.76-.38c2,0,3.11.64,3.11,2.67v3.65a.14.14,0,0,0,.16.16h1.16a.41.41,0,1,1,0,.82h-1.71c-.4,0-.48-.34-.48-1,0-.07,0-.1-.06-.1s-.12.06-.23.16a4.47,4.47,0,0,1-3,1.08C146.16,86.81,145.15,86,145.15,84.56Zm6-.77v-.53c0-.11-.05-.16-.17-.16a22,22,0,0,0-4.15.21,1.12,1.12,0,0,0-.82,1.18c0,1.05.74,1.52,1.88,1.52C149.57,86,151.19,85.27,151.19,83.79Z" transform="translate(22.38 -76.44)"/>
    <path class="cls-4" d="M157.76,86.34l-2.88-5.83a.35.35,0,0,0-.28-.18h-.83a.41.41,0,1,1,0-.81H157a.41.41,0,0,1,0,.81h-1c-.1,0-.15,0-.15.09a.32.32,0,0,0,0,.09l2.64,5.3s.06.09.09.09.07,0,.1-.09l2.6-5.25a.25.25,0,0,0,0-.11.12.12,0,0,0-.13-.12h-1a.41.41,0,1,1,0-.81h3.22a.41.41,0,1,1,0,.81h-.83a.4.4,0,0,0-.33.23l-2.85,5.78a.62.62,0,0,1-.59.39h-.47A.66.66,0,0,1,157.76,86.34Z" transform="translate(22.38 -76.44)"/>
    <path class="cls-4" d="M164.3,86.24a.39.39,0,0,1,.41-.41h1.16a.16.16,0,0,0,.17-.16V80.5a.18.18,0,0,0-.17-.17h-1.16a.4.4,0,0,1-.41-.4.41.41,0,0,1,.41-.41h1.79a.42.42,0,0,1,.42.41v5.74a.15.15,0,0,0,.16.16h1.17a.41.41,0,0,1,0,.82h-3.54A.39.39,0,0,1,164.3,86.24Zm1.26-9a.76.76,0,0,1,.77-.75.76.76,0,0,1,0,1.51A.76.76,0,0,1,165.56,77.19Z" transform="translate(22.38 -76.44)"/>
    <path class="cls-4" d="M179.6,86.24a.39.39,0,0,1-.41.41H176a.39.39,0,0,1-.41-.41.38.38,0,0,1,.41-.41h.85q.15,0,.15-.18V83.46c0-2-.25-3.29-2.44-3.29-1.45,0-2.78.84-2.78,1.88v3.6a.18.18,0,0,0,.17.18h1a.37.37,0,0,1,.41.41.38.38,0,0,1-.41.41h-3.39a.39.39,0,0,1-.41-.41.38.38,0,0,1,.41-.41h1.16a.17.17,0,0,0,.17-.18V80.5c0-.12,0-.17-.17-.17h-1.16a.4.4,0,0,1-.41-.4.41.41,0,0,1,.41-.41h1.8a.39.39,0,0,1,.41.41c0,.19,0,.44.12.44s.11-.05.18-.1a4.67,4.67,0,0,1,2.66-.92c3.14,0,3.14,2.46,3.14,4.11v2.19c0,.12,0,.18.18.18h1.15A.38.38,0,0,1,179.6,86.24Z" transform="translate(22.38 -76.44)"/>
    <path class="cls-4" d="M180.58,88.68a2.29,2.29,0,0,1,1.68-2.13c.07,0,.12,0,.12-.1a.19.19,0,0,0,0-.08,1,1,0,0,1-.26-.64.8.8,0,0,1,.29-.67c.07,0,.07-.06.07-.08s0-.06-.1-.1a2.48,2.48,0,0,1-1.6-2.55c0-2.22,1.53-3,3.84-3h.06a4.72,4.72,0,0,1,.64,0s.92,0,1.83,0l1.82,0a.43.43,0,0,1,.38.43.42.42,0,0,1-.38.42h-.62l-.61,0c-.05,0-.06,0-.06,0s0,.07.08.11a2.56,2.56,0,0,1,.77,2c0,2.24-1.54,3-3.85,3h-1.11c-.36,0-.52.21-.52.44s.23.53.69.53h1.16c2.58,0,3.78.7,3.78,2.25,0,1.79-1.26,2.6-4,2.6h-.06C181.84,91.11,180.58,90.35,180.58,88.68Zm4,1.63c1.71,0,3.08-.18,3.08-1.71,0-1.3-1.34-1.54-3.14-1.54s-3.08.06-3.08,1.54,1.31,1.71,3.08,1.71Zm0-5.85c1.75,0,2.93-.4,2.93-2.13s-1.18-2.13-2.93-2.13h-.06c-1.75,0-2.93.41-2.93,2.13s1.18,2.13,2.93,2.13Z" transform="translate(22.38 -76.44)"/>
    <path class="cls-4" d="M195.53,86.22a.39.39,0,0,1,.42-.42h.85a.42.42,0,0,0,.45-.28l3.28-8.47a.84.84,0,0,1,.79-.58h.13a.84.84,0,0,1,.78.56l3.24,8.49a.45.45,0,0,0,.43.28h1a.43.43,0,0,1,0,.85h-3.54a.43.43,0,0,1,0-.85h.93c.14,0,.25,0,.25-.17a.93.93,0,0,0-.06-.19l-.9-2.34a.39.39,0,0,0-.38-.25h-3.66a.39.39,0,0,0-.38.27l-.93,2.38a.3.3,0,0,0,0,.12c0,.15.16.18.25.18h.9a.43.43,0,0,1,0,.85H196A.39.39,0,0,1,195.53,86.22Zm7.41-4.15c.11,0,.18,0,.18-.13a.46.46,0,0,0,0-.13l-1.6-4.31c0-.08-.06-.11-.1-.11s-.06,0-.09.1l-1.62,4.32a.46.46,0,0,0,0,.13c0,.08.07.13.17.13Z" transform="translate(22.38 -76.44)"/>
  </g>
</svg>
