<svg id="Layer_1" data-name="Layer 1" xmlns="http://www.w3.org/2000/svg" viewBox="0 0 291.46 105.9">
  <defs>
    <style>
      .cls-1 {
        fill: #cce7f9;
      }

      .cls-2 {
        fill: #fff;
      }

      .cls-3 {
        fill: #fee6d6;
      }
    </style>
  </defs>
  <g>
    <path class="cls-1" d="M5.84,85.27c0-7.31,4.74-13.88,15-14.49,3.46-.22,7,.36,9.35-.53a12.69,12.69,0,0,1,1,5.13c0,3.39-1.46,5.74-4.54,6-2.08.18-4.31-.92-6.89-3.2A6.24,6.24,0,0,0,19,81.51c0,3.66,2,5.88,6,5.57a9,9,0,0,0,5.73-2.79,11.45,11.45,0,0,1,1,4.91c0,4.87-3.81,9.27-11.47,9.76C12.16,99.46,5.84,94.47,5.84,85.27Z" transform="translate(-5.84 -20.83)"/>
    <path class="cls-1" d="M32.29,92.37c0-3.79,2.89-6.88,10.2-7.88a21.21,21.21,0,0,1,2.5-.21V81.94a12.87,12.87,0,0,1-5.62,2.31c-3.46.45-5.23-1.1-5.23-4.29a12.16,12.16,0,0,1,.92-4.65,15.37,15.37,0,0,0,4.62-.07c3.89-.51,6.81-1.91,10.2-2.45C55,72,57.54,73.85,57.54,78.4c0,1.57-.38,3.53-.38,4.69,0,.8.42,1.19,1.19,1a3.58,3.58,0,0,0,1.39-.65,7.55,7.55,0,0,1,.5,2.68c0,4.19-3.51,8.26-8.28,9.07-3.93.65-6-1.13-5.81-3.85l-.77.11a7.69,7.69,0,0,1-6.82,5.72C34.71,97.7,32.29,95.48,32.29,92.37Zm12.7-3V86.09l-.57.09a3.71,3.71,0,0,0-1.24,2.6c0,.81.47,1.09,1,1A1.49,1.49,0,0,0,45,89.33Z" transform="translate(-5.84 -20.83)"/>
    <path class="cls-1" d="M61.47,85.09c.13-1.76.25-3.52.38-5.27a34.6,34.6,0,0,0-1.11-12.07,14.68,14.68,0,0,1,7.16-3.5c5.77-1.21,7.85,1.18,7.35,7.08l-.69,8c-.12,1.14.34,1.39,1.19,1.2a3.63,3.63,0,0,0,1.39-.7,7.92,7.92,0,0,1,.5,2.66c0,4.19-3.51,8.4-8.82,9.51C63.82,93.09,61,90.75,61.47,85.09Z" transform="translate(-5.84 -20.83)"/>
    <path class="cls-1" d="M77.21,64.5c0-3.63,2-5.62,5.74-6.49,1.77-.42,4.31-.45,6.66-1a12.08,12.08,0,0,0,2.66-1.12,6.44,6.44,0,0,1,.54,2.79c0,2.85-1.08,4.08-3.7,4.73-.65.16-2.12.4-4.31.93a19.44,19.44,0,0,0-7.2,3.18A12.75,12.75,0,0,1,77.21,64.5Zm1.62,16.91L79.14,78A23.28,23.28,0,0,0,78,69.44a15.22,15.22,0,0,1,7.2-3.76c4.74-1.14,7.55.49,7.16,5.33-.11,1.41-.23,2.83-.34,4.24-.08,1.14.34,1.38,1.19,1.16a3.6,3.6,0,0,0,1.39-.73,7.72,7.72,0,0,1,.5,2.65c0,4.19-3.51,8.48-8.82,9.76C81.26,89.3,78.33,87.11,78.83,81.41Z" transform="translate(-5.84 -20.83)"/>
    <path class="cls-1" d="M98.27,88.4c1.27-3.25,1.43-6.56,1.62-11l0-.9A16.27,16.27,0,0,0,96.5,78a5.51,5.51,0,0,1-1-3.58,6.19,6.19,0,0,1,4.81-6.17l.16-4c.23-5.26,3-8.48,8.74-10,2.15-.57,6.58-1.11,8.58-1.93a7.08,7.08,0,0,1,.92,3.76c0,2.73-.8,5.11-3.61,5.87-1.81.48-4,.2-6.78-2.61a49.23,49.23,0,0,1,2.62,6l1.54-.42a22.06,22.06,0,0,0,4.69-1.73,4.63,4.63,0,0,1,1,3.34c0,2.27-1.23,5.34-4.11,6l-1,.23a24.92,24.92,0,0,1,.39,4.06c0,7.35-3.54,11.24-8.62,12.58C102.08,90.12,99.73,89.88,98.27,88.4Z" transform="translate(-5.84 -20.83)"/>
    <path class="cls-1" d="M118.94,68.71c0-7.16,5.47-13.46,14.05-15.8,8-2.19,13.29.8,13.29,7.84s-5.55,13.1-14.05,15.43C124.33,78.33,118.94,75.49,118.94,68.71Zm15.21-4.84c0-2.69-.58-4-1.54-3.7s-1.54,1.92-1.54,4.89c0,2.69.58,4,1.54,3.7S134.15,66.84,134.15,63.87Z" transform="translate(-5.84 -20.83)"/>
    <path class="cls-1" d="M147.7,71.27c.15-3.13.31-6.27.46-9.4a27,27,0,0,0-1.38-10.8,16.82,16.82,0,0,1,6.66-3.44c5-1.31,6.12,1,5.65,5.89l1-.24c0-5.2,2-8,4.77-8.67,1.54-.38,2.81-.15,4.24-.61a10.07,10.07,0,0,1,1.54,5.53c0,3.46-1.7,7.32-5.09,8.16-2,.48-3.42.23-4.38-1l-.39.1.27,11Q154.36,69.5,147.7,71.27Z" transform="translate(-5.84 -20.83)"/>
    <path class="cls-1" d="M186.81,53.75a24.2,24.2,0,0,1,.5-4.69,1.16,1.16,0,0,0-.61-.06c-1,.21-1.66,1.23-1.66,4.27V62.2q-6.58,1.39-13.16,3,.18-4.87.38-9.75a28.6,28.6,0,0,0-1.15-10.12,14.49,14.49,0,0,1,6.77-3.65c4.27-1,6.78.51,6.62,4.59l.77-.17a10.6,10.6,0,0,1,8.28-7.71c4.58-.88,7,1.72,6.54,6.68l-.3,3.37c-.12,1.13.46,1.42,1.3,1.27a3.42,3.42,0,0,0,1.39-.62,7.35,7.35,0,0,1,.5,2.69c0,4.2-3.5,8.15-8.66,9.13C189.31,61.83,186.81,59.53,186.81,53.75Z" transform="translate(-5.84 -20.83)"/>
    <path class="cls-1" d="M202.56,33.67c0-3.61,2-5.51,5.73-6.08,1.77-.27,4.31-.06,6.66-.37a11,11,0,0,0,2.66-.8,7,7,0,0,1,.54,2.86c0,2.85-1.08,3.94-3.7,4.29-.65.08-2.12.16-4.31.48a17.06,17.06,0,0,0-7.2,2.64A13,13,0,0,1,202.56,33.67Zm1.61,17c.11-1.13.21-2.27.31-3.4a24.06,24.06,0,0,0-1.15-8.62,13.26,13.26,0,0,1,7.2-3.21c4.73-.69,7.54,1.34,7.16,6.12-.12,1.4-.23,2.8-.35,4.2-.08,1.13.35,1.42,1.19,1.32a3.2,3.2,0,0,0,1.39-.55,8.34,8.34,0,0,1,.5,2.72c0,4.2-3.5,8-8.82,8.71C206.6,58.7,203.67,56.36,204.17,50.69Z" transform="translate(-5.84 -20.83)"/>
    <path class="cls-1" d="M221.19,51.18c0-3.75,2.89-7,10.2-7.57a17.3,17.3,0,0,1,2.5,0V41.25a13.14,13.14,0,0,1-5.62,2c-3.46.3-5.23-1.23-5.23-4.43a12.08,12.08,0,0,1,.92-4.64,17.52,17.52,0,0,0,4.62.07c3.89-.32,6.81-1.47,10.2-1.62,5.12-.22,7.66,2.18,7.66,6.71,0,1.58-.38,3.47-.38,4.63a1.1,1.1,0,0,0,1.19,1.25,2.94,2.94,0,0,0,1.39-.39,8.29,8.29,0,0,1,.5,2.77c0,4.2-3.51,7.56-8.28,7.74-3.93.14-6-1.79-5.81-4.5l-.77.05c-.85,3.32-3.66,5-6.82,5.29C223.61,56.48,221.19,54.3,221.19,51.18Zm12.7-2.54V45.4l-.57,0A3.44,3.44,0,0,0,232.08,48c0,.81.46,1.12,1,1.09A1.31,1.31,0,0,0,233.89,48.64Z" transform="translate(-5.84 -20.83)"/>
  </g>
  <g>
    <path class="cls-2" d="M5.84,82.8c0-7.31,4.74-13.88,15-14.5,3.46-.21,7,.36,9.35-.52a12.66,12.66,0,0,1,1,5.13c0,3.38-1.46,5.74-4.54,6-2.08.17-4.31-.93-6.89-3.2A6.24,6.24,0,0,0,19,79c0,3.65,2,5.87,6,5.57a9,9,0,0,0,5.73-2.79,11.43,11.43,0,0,1,1,4.9c0,4.87-3.81,9.28-11.47,9.77C12.16,97,5.84,92,5.84,82.8Z" transform="translate(-5.84 -20.83)"/>
    <path class="cls-2" d="M32.29,89.89c0-3.79,2.89-6.87,10.2-7.87a19.28,19.28,0,0,1,2.5-.21V79.46a12.89,12.89,0,0,1-5.62,2.32c-3.46.45-5.23-1.1-5.23-4.29a12.1,12.1,0,0,1,.92-4.65,15.37,15.37,0,0,0,4.62-.07c3.89-.51,6.81-1.91,10.2-2.46,5.12-.83,7.66,1.06,7.66,5.61,0,1.58-.38,3.54-.38,4.69,0,.81.42,1.2,1.19,1A3.41,3.41,0,0,0,59.74,81a7.51,7.51,0,0,1,.5,2.68c0,4.19-3.51,8.26-8.28,9.06-3.93.66-6-1.12-5.81-3.85l-.77.12a7.68,7.68,0,0,1-6.82,5.71C34.71,95.23,32.29,93,32.29,89.89Zm12.7-3V83.62l-.57.08a3.73,3.73,0,0,0-1.24,2.61c0,.8.47,1.09,1,1A1.38,1.38,0,0,0,45,86.85Z" transform="translate(-5.84 -20.83)"/>
    <path class="cls-2" d="M61.47,82.62c.13-1.76.25-3.52.38-5.28a34.53,34.53,0,0,0-1.11-12.06,14.77,14.77,0,0,1,7.16-3.51c5.77-1.21,7.85,1.19,7.35,7.08l-.69,8.05c-.12,1.14.34,1.38,1.19,1.2a3.78,3.78,0,0,0,1.39-.7,7.83,7.83,0,0,1,.5,2.66c0,4.19-3.51,8.39-8.82,9.51C63.82,90.61,61,88.27,61.47,82.62Z" transform="translate(-5.84 -20.83)"/>
    <path class="cls-2" d="M77.21,62c0-3.62,2-5.61,5.74-6.48,1.77-.42,4.31-.46,6.66-1a11.61,11.61,0,0,0,2.66-1.12,6.5,6.5,0,0,1,.54,2.79c0,2.85-1.08,4.09-3.7,4.73-.65.16-2.12.41-4.31.93A19.44,19.44,0,0,0,77.6,65,12.62,12.62,0,0,1,77.21,62Zm1.62,16.92.31-3.42A23.25,23.25,0,0,0,78,67a15.23,15.23,0,0,1,7.2-3.77c4.74-1.13,7.55.5,7.16,5.33-.11,1.42-.23,2.83-.34,4.25-.08,1.13.34,1.37,1.19,1.16a3.9,3.9,0,0,0,1.39-.73,7.71,7.71,0,0,1,.5,2.64c0,4.2-3.51,8.48-8.82,9.77C81.26,86.83,78.33,84.63,78.83,78.94Z" transform="translate(-5.84 -20.83)"/>
    <path class="cls-2" d="M98.27,85.93c1.27-3.25,1.43-6.56,1.62-11l0-.9a16.27,16.27,0,0,0-3.43,1.46,5.54,5.54,0,0,1-1-3.59,6.17,6.17,0,0,1,4.81-6.16l.16-4c.23-5.25,3-8.48,8.74-10,2.15-.57,6.58-1.11,8.58-1.92a7.06,7.06,0,0,1,.92,3.75c0,2.74-.8,5.11-3.61,5.87-1.81.49-4,.21-6.78-2.61a49.94,49.94,0,0,1,2.62,6l1.54-.41a22.61,22.61,0,0,0,4.69-1.73,4.59,4.59,0,0,1,1,3.34c0,2.27-1.23,5.34-4.11,6l-1,.23a24.8,24.8,0,0,1,.39,4c0,7.36-3.54,11.24-8.62,12.58C102.08,87.64,99.73,87.4,98.27,85.93Z" transform="translate(-5.84 -20.83)"/>
    <path class="cls-2" d="M118.94,66.23c0-7.15,5.47-13.46,14.05-15.8,8-2.18,13.29.81,13.29,7.85s-5.55,13.1-14.05,15.42C124.33,75.86,118.94,73,118.94,66.23Zm15.21-4.83c0-2.7-.58-4-1.54-3.7s-1.54,1.92-1.54,4.88c0,2.7.58,4,1.54,3.7S134.15,64.36,134.15,61.4Z" transform="translate(-5.84 -20.83)"/>
    <path class="cls-2" d="M147.7,68.8c.15-3.14.31-6.27.46-9.4a27,27,0,0,0-1.38-10.8,16.83,16.83,0,0,1,6.66-3.45c5-1.31,6.12,1,5.65,5.9l1-.25c0-5.19,2-8,4.77-8.66,1.54-.38,2.81-.15,4.24-.61a10,10,0,0,1,1.54,5.52c0,3.47-1.7,7.33-5.09,8.16-2,.49-3.42.24-4.38-1l-.39.1.27,11Q154.36,67,147.7,68.8Z" transform="translate(-5.84 -20.83)"/>
    <path class="cls-2" d="M186.81,51.27a24.18,24.18,0,0,1,.5-4.68,1.08,1.08,0,0,0-.61-.07c-1,.21-1.66,1.24-1.66,4.28v8.93q-6.58,1.4-13.16,3,.18-4.87.38-9.76a28.63,28.63,0,0,0-1.15-10.12,14.67,14.67,0,0,1,6.77-3.65c4.27-1,6.78.52,6.62,4.59l.77-.16a10.63,10.63,0,0,1,8.28-7.72c4.58-.88,7,1.72,6.54,6.69l-.3,3.36c-.12,1.14.46,1.42,1.3,1.28a3.32,3.32,0,0,0,1.39-.63,7.43,7.43,0,0,1,.5,2.69c0,4.2-3.5,8.16-8.66,9.14C189.31,59.36,186.81,57.05,186.81,51.27Z" transform="translate(-5.84 -20.83)"/>
    <path class="cls-2" d="M202.56,31.2c0-3.61,2-5.51,5.73-6.08,1.77-.27,4.31-.06,6.66-.37a11,11,0,0,0,2.66-.8,7,7,0,0,1,.54,2.86c0,2.85-1.08,3.93-3.7,4.28-.65.09-2.12.17-4.31.49a16.79,16.79,0,0,0-7.2,2.64A13.08,13.08,0,0,1,202.56,31.2Zm1.61,17,.31-3.4a24.15,24.15,0,0,0-1.15-8.63,13.25,13.25,0,0,1,7.2-3.2c4.73-.69,7.54,1.34,7.16,6.12-.12,1.4-.23,2.8-.35,4.2-.08,1.13.35,1.42,1.19,1.32a3.33,3.33,0,0,0,1.39-.55,8.33,8.33,0,0,1,.5,2.71c0,4.2-3.5,8-8.82,8.72C206.6,56.23,203.67,53.89,204.17,48.22Z" transform="translate(-5.84 -20.83)"/>
    <path class="cls-2" d="M221.19,48.71c0-3.75,2.89-7,10.2-7.57a18.79,18.79,0,0,1,2.5,0V38.77a12.88,12.88,0,0,1-5.62,2C224.81,41,223,39.5,223,36.31a12,12,0,0,1,.92-4.64,17.52,17.52,0,0,0,4.62.07c3.89-.33,6.81-1.47,10.2-1.62,5.12-.22,7.66,2.17,7.66,6.71,0,1.58-.38,3.47-.38,4.62a1.1,1.1,0,0,0,1.19,1.26,2.94,2.94,0,0,0,1.39-.39,8.25,8.25,0,0,1,.5,2.77c0,4.2-3.51,7.56-8.28,7.73-3.93.15-6-1.78-5.81-4.49l-.77,0c-.85,3.33-3.66,5-6.82,5.29C223.61,54,221.19,51.83,221.19,48.71Zm12.7-2.54V42.93l-.57,0a3.42,3.42,0,0,0-1.24,2.51c0,.81.46,1.12,1,1.09A1.31,1.31,0,0,0,233.89,46.17Z" transform="translate(-5.84 -20.83)"/>
  </g>
  <g>
    <path class="cls-3" d="M5.84,79.68c0-7.32,4.74-13.89,15-14.5,3.46-.22,7,.36,9.35-.53a12.72,12.72,0,0,1,1,5.13c0,3.39-1.46,5.75-4.54,6-2.08.18-4.31-.92-6.89-3.19A6.22,6.22,0,0,0,19,75.92c0,3.65,2,5.87,6,5.56a9,9,0,0,0,5.73-2.78,11.43,11.43,0,0,1,1,4.9c0,4.87-3.81,9.28-11.47,9.76C12.16,93.86,5.84,88.87,5.84,79.68Z" transform="translate(-5.84 -20.83)"/>
    <path class="cls-3" d="M32.29,86.77c0-3.79,2.89-6.87,10.2-7.88a21.29,21.29,0,0,1,2.5-.2V76.34a12.89,12.89,0,0,1-5.62,2.32c-3.46.45-5.23-1.1-5.23-4.3a12.08,12.08,0,0,1,.92-4.64,15.71,15.71,0,0,0,4.62-.07c3.89-.51,6.81-1.91,10.2-2.46,5.12-.83,7.66,1.06,7.66,5.61,0,1.58-.38,3.53-.38,4.69,0,.81.42,1.19,1.19,1.05a3.41,3.41,0,0,0,1.39-.64,7.51,7.51,0,0,1,.5,2.68c0,4.19-3.51,8.26-8.28,9.06-3.93.65-6-1.12-5.81-3.85l-.77.12a7.68,7.68,0,0,1-6.82,5.71C34.71,92.11,32.29,89.89,32.29,86.77Zm12.7-3V80.5l-.57.08a3.73,3.73,0,0,0-1.24,2.6c0,.81.47,1.09,1,1A1.38,1.38,0,0,0,45,83.73Z" transform="translate(-5.84 -20.83)"/>
    <path class="cls-3" d="M61.47,79.49c.13-1.75.25-3.51.38-5.27a34.53,34.53,0,0,0-1.11-12.06,14.69,14.69,0,0,1,7.16-3.51c5.77-1.21,7.85,1.19,7.35,7.08l-.69,8c-.12,1.14.34,1.38,1.19,1.19a3.59,3.59,0,0,0,1.39-.69,7.83,7.83,0,0,1,.5,2.66c0,4.19-3.51,8.39-8.82,9.51C63.82,87.49,61,85.15,61.47,79.49Z" transform="translate(-5.84 -20.83)"/>
    <path class="cls-3" d="M77.21,58.9c0-3.62,2-5.61,5.74-6.49,1.77-.41,4.31-.45,6.66-1a12.08,12.08,0,0,0,2.66-1.12,6.47,6.47,0,0,1,.54,2.79c0,2.85-1.08,4.09-3.7,4.73-.65.16-2.12.41-4.31.93a19.44,19.44,0,0,0-7.2,3.18A12.69,12.69,0,0,1,77.21,58.9Zm1.62,16.92.31-3.42A23.3,23.3,0,0,0,78,63.84a15.3,15.3,0,0,1,7.2-3.76c4.74-1.14,7.55.5,7.16,5.33-.11,1.42-.23,2.83-.34,4.24-.08,1.14.34,1.38,1.19,1.17a3.79,3.79,0,0,0,1.39-.74,7.77,7.77,0,0,1,.5,2.65c0,4.19-3.51,8.48-8.82,9.77C81.26,83.7,78.33,81.51,78.83,75.82Z" transform="translate(-5.84 -20.83)"/>
    <path class="cls-3" d="M98.27,82.81c1.27-3.25,1.43-6.57,1.62-11l0-.89a16.27,16.27,0,0,0-3.43,1.46,5.56,5.56,0,0,1-1-3.59,6.17,6.17,0,0,1,4.81-6.16l.16-4c.23-5.26,3-8.48,8.74-10,2.15-.57,6.58-1.11,8.58-1.92a7.06,7.06,0,0,1,.92,3.75c0,2.73-.8,5.11-3.61,5.87-1.81.49-4,.2-6.78-2.61a49.94,49.94,0,0,1,2.62,6l1.54-.41a23.2,23.2,0,0,0,4.69-1.73,4.59,4.59,0,0,1,1,3.34c0,2.27-1.23,5.34-4.11,6l-1,.23a24.8,24.8,0,0,1,.39,4c0,7.35-3.54,11.24-8.62,12.58C102.08,84.52,99.73,84.28,98.27,82.81Z" transform="translate(-5.84 -20.83)"/>
    <path class="cls-3" d="M118.94,63.11c0-7.16,5.47-13.46,14.05-15.8,8-2.18,13.29.8,13.29,7.85,0,6.89-5.55,13.1-14.05,15.42C124.33,72.73,118.94,69.89,118.94,63.11Zm15.21-4.83c0-2.7-.58-4-1.54-3.7s-1.54,1.92-1.54,4.88c0,2.7.58,4,1.54,3.7S134.15,61.24,134.15,58.28Z" transform="translate(-5.84 -20.83)"/>
    <path class="cls-3" d="M147.7,65.68c.15-3.14.31-6.27.46-9.4a27,27,0,0,0-1.38-10.8A16.71,16.71,0,0,1,153.44,42c5-1.31,6.12,1,5.65,5.9l1-.25c0-5.19,2-8,4.77-8.66,1.54-.38,2.81-.15,4.24-.61a10,10,0,0,1,1.54,5.52c0,3.47-1.7,7.33-5.09,8.16-2,.49-3.42.24-4.38-1l-.39.09.27,11Q154.36,63.9,147.7,65.68Z" transform="translate(-5.84 -20.83)"/>
    <path class="cls-3" d="M186.81,48.15a24.18,24.18,0,0,1,.5-4.68,1.08,1.08,0,0,0-.61-.07c-1,.21-1.66,1.24-1.66,4.28v8.93q-6.58,1.39-13.16,3,.18-4.89.38-9.76a28.63,28.63,0,0,0-1.15-10.12A14.67,14.67,0,0,1,177.88,36c4.27-1,6.78.52,6.62,4.59l.77-.16a10.63,10.63,0,0,1,8.28-7.72c4.58-.88,7,1.72,6.54,6.69l-.3,3.36c-.12,1.14.46,1.42,1.3,1.27a3.42,3.42,0,0,0,1.39-.62,7.39,7.39,0,0,1,.5,2.69c0,4.2-3.5,8.16-8.66,9.14C189.31,56.24,186.81,53.93,186.81,48.15Z" transform="translate(-5.84 -20.83)"/>
    <path class="cls-3" d="M202.56,28.08c0-3.62,2-5.52,5.73-6.08,1.77-.27,4.31-.06,6.66-.37a11,11,0,0,0,2.66-.8,6.92,6.92,0,0,1,.54,2.86c0,2.85-1.08,3.93-3.7,4.28-.65.09-2.12.17-4.31.49a16.93,16.93,0,0,0-7.2,2.63A12.92,12.92,0,0,1,202.56,28.08Zm1.61,17,.31-3.4a24.12,24.12,0,0,0-1.15-8.63,13.25,13.25,0,0,1,7.2-3.2c4.73-.69,7.54,1.34,7.16,6.12-.12,1.4-.23,2.8-.35,4.2-.08,1.12.35,1.42,1.19,1.31a3.3,3.3,0,0,0,1.39-.54,8.28,8.28,0,0,1,.5,2.71c0,4.2-3.5,8-8.82,8.72C206.6,53.1,203.67,50.77,204.17,45.1Z" transform="translate(-5.84 -20.83)"/>
    <path class="cls-3" d="M221.19,45.59c0-3.76,2.89-7,10.2-7.57a17.24,17.24,0,0,1,2.5,0V35.65a12.88,12.88,0,0,1-5.62,2c-3.46.3-5.23-1.23-5.23-4.43a12.08,12.08,0,0,1,.92-4.64,17,17,0,0,0,4.62.08c3.89-.33,6.81-1.47,10.2-1.63,5.12-.22,7.66,2.18,7.66,6.72,0,1.57-.38,3.46-.38,4.62a1.11,1.11,0,0,0,1.19,1.26,3,3,0,0,0,1.39-.4,8.35,8.35,0,0,1,.5,2.78c0,4.2-3.51,7.56-8.28,7.73-3.93.15-6-1.78-5.81-4.5l-.77,0c-.85,3.33-3.66,5-6.82,5.29C223.61,50.89,221.19,48.71,221.19,45.59ZM233.89,43V39.81l-.57,0a3.41,3.41,0,0,0-1.24,2.51c0,.81.46,1.12,1,1.09A1.32,1.32,0,0,0,233.89,43Z" transform="translate(-5.84 -20.83)"/>
  </g>
  <g>
    <path class="cls-1" d="M73.44,118.86c0-2.35,1.15-5.45,1.15-8.14,0-1.62-.8-2.22-2.19-2.21a2.67,2.67,0,0,0-1.77.63,9.2,9.2,0,0,1-.5-2.89c0-3.9,2.58-7.16,8.31-7.33,5.36-.18,8.4,3.4,8.4,9.3s-1.7,8.61-1.7,9.46c0,.38.16.53.47.51,1.27-.07,3.34-4.53,3.34-9.92,0-3.08-.57-6-1.84-7.92A12.43,12.43,0,0,1,93.77,98c4.31-.37,7.39,1.47,7.39,8.13s-1.7,9.54-1.7,10.39c0,.38.16.52.47.49,1.27-.13,3.35-4.68,3.35-10.07,0-3.08-.58-6-1.85-7.84a12.9,12.9,0,0,1,6.66-2.64c4.31-.55,7.54,1.16,7.54,7.82,0,8-4.77,19.93-15.55,21.1-3.23.34-5.5-.58-6.85-2.43a16.69,16.69,0,0,1-9.78,3.74C76.75,127,73.44,124.16,73.44,118.86Z" transform="translate(-5.84 -20.83)"/>
    <path class="cls-1" d="M115.94,112.6c0-8.69,7.43-13,13.59-14.14,6.93-1.24,10.93,1.14,10.93,7a17.46,17.46,0,0,1-.27,2.7q-5.72,1.32-11.43,2.51c.58,1.36,1.93,1.86,4.39,1.41a12.38,12.38,0,0,0,5.77-2.71c.62.12,1.24,1.3,1.24,2.88,0,3.07-2.24,7.76-10.86,9.3C120.14,123.12,115.94,118.94,115.94,112.6Zm12.44-4.2,3-1c.35-1.53,0-3.47-1.16-3.26-.92.17-1.8,1.78-1.8,4.06Z" transform="translate(-5.84 -20.83)"/>
    <path class="cls-1" d="M141.85,107.69c0-7.2,3.58-12.21,8.85-13.31,2.58-.54,5,.28,5.93,1.74L157,96a19.86,19.86,0,0,0-1-6,16.75,16.75,0,0,1,7.62-3.74c4.46-1,6.62.59,6.62,4.25a19.5,19.5,0,0,1-1.23,6c-.07,1.68-.13,3.36-.2,5,0,1.17.47,1.44,1.31,1.25a3.56,3.56,0,0,0,1.39-.7,7.12,7.12,0,0,1,.5,2.66c0,4.19-3.5,8.38-8.28,9.44-3.73.83-5.89-.67-5.89-3.52a9.28,9.28,0,0,1,.08-1l-.77.16c-1.58,4.73-4,6.71-7,7.34C145.08,118.23,141.85,114.93,141.85,107.69Zm14.9-1.2c.06-2.43.13-4.86.19-7.28-1.66.55-2.5,2.69-2.5,4.66s.73,3,2,2.68Z" transform="translate(-5.84 -20.83)"/>
    <path class="cls-1" d="M173,101c0-7.2,3.58-12.32,8.85-13.53,2.58-.59,5,.2,5.93,1.65l.39-.09a19.77,19.77,0,0,0-1-6,16.67,16.67,0,0,1,7.62-3.81c4.47-1,6.62.58,6.62,4.24a19.39,19.39,0,0,1-1.23,6c-.07,1.69-.13,3.37-.19,5,0,1.16.46,1.44,1.31,1.25a3.6,3.6,0,0,0,1.38-.7,7.2,7.2,0,0,1,.5,2.66c0,4.2-3.5,8.36-8.28,9.45-3.73.84-5.89-.62-5.89-3.47a9.45,9.45,0,0,1,.08-1.06l-.77.18c-1.58,4.74-4,6.75-7,7.45C176.26,111.41,173,108.22,173,101Zm14.9-1.51c.06-2.43.13-4.86.19-7.29-1.65.57-2.5,2.73-2.5,4.7s.73,3,2,2.65Z" transform="translate(-5.84 -20.83)"/>
    <path class="cls-1" d="M202.79,79.67c0-3.62,2-5.62,5.73-6.43,1.77-.38,4.31-.35,6.66-.85a11.41,11.41,0,0,0,2.66-1,6.67,6.67,0,0,1,.54,2.82c0,2.84-1.08,4-3.7,4.58-.65.14-2.11.34-4.31.81a18.48,18.48,0,0,0-7.2,3.08A12.69,12.69,0,0,1,202.79,79.67Zm1.61,16.92c.11-1.14.21-2.28.31-3.41a23.54,23.54,0,0,0-1.15-8.56,14.43,14.43,0,0,1,7.2-3.66c4.73-1,7.54.75,7.16,5.56-.12,1.41-.23,2.82-.35,4.23-.08,1.14.35,1.39,1.19,1.22a3.59,3.59,0,0,0,1.39-.67,7.89,7.89,0,0,1,.5,2.67c0,4.19-3.5,8.29-8.82,9.43C206.83,104.48,203.9,102.29,204.4,96.59Z" transform="translate(-5.84 -20.83)"/>
    <path class="cls-1" d="M236.66,89.84a24,24,0,0,1,.5-4.67,1.08,1.08,0,0,0-.61-.08c-1,.18-1.66,1.18-1.66,4.22v8.94q-6.58,1.2-13.16,2.54.18-4.86.38-9.74A29,29,0,0,0,221,80.89a14.11,14.11,0,0,1,6.77-3.43c4.28-.83,6.78.72,6.62,4.79l.77-.14a10.24,10.24,0,0,1,8.28-7.48c4.58-.76,7,1.9,6.55,6.85l-.31,3.36c-.12,1.13.46,1.43,1.31,1.3a3.21,3.21,0,0,0,1.38-.59,7.52,7.52,0,0,1,.5,2.7c0,4.2-3.5,8.08-8.66,8.93C239.17,98,236.66,95.62,236.66,89.84Z" transform="translate(-5.84 -20.83)"/>
    <path class="cls-1" d="M256.07,95.27a6.71,6.71,0,0,1,.84-3.31,15.58,15.58,0,0,0,5.89.45c5.12-.59,7.16-3,6.47-7l-.38,0a8.1,8.1,0,0,1-7,5.59c-4.62.56-8.28-1.91-8.28-8,0-6.31,4.08-10.6,9.4-11.23,3.11-.36,5.27.58,6.5,2.22l.77-.07.66-2.45a17.68,17.68,0,0,1,4.5-.93c4.74-.37,6.78,1.27,7.55,4.15a6.73,6.73,0,0,1-1.62,2.6l.31,7.14c.38,8.71-4.62,14.52-15.44,15.66C258.84,101,256.07,98.44,256.07,95.27ZM269,83c.05-1.78.11-3.55.16-5.33A3.09,3.09,0,0,0,266.19,81a2,2,0,0,0,2.35,2.1Z" transform="translate(-5.84 -20.83)"/>
    <path class="cls-1" d="M283,66.74a14.89,14.89,0,0,1,7.13-2.18c5.58-.13,7.16,2.34,7.16,6.18,0,5.28-4.16,10.55-10.67,11.85C286.32,74.86,285.09,70.94,283,66.74Zm1.58,20.79a8.3,8.3,0,0,1,.5-2.68,10,10,0,0,1,4.78-1.49c3.73-.1,5.23,2.29,5.23,6.48a8.32,8.32,0,0,1-5.85,2.66C286.09,92.6,284.59,90.23,284.59,87.53Z" transform="translate(-5.84 -20.83)"/>
  </g>
  <g>
    <path class="cls-2" d="M73.09,116.85c0-2.35,1.15-5.45,1.15-8.14,0-1.62-.81-2.22-2.19-2.21a2.62,2.62,0,0,0-1.77.63,9.2,9.2,0,0,1-.5-2.89c0-3.9,2.58-7.16,8.31-7.33,5.35-.18,8.39,3.4,8.39,9.3s-1.69,8.61-1.69,9.46c0,.38.15.53.46.51,1.27-.07,3.35-4.53,3.35-9.92,0-3.08-.58-6-1.85-7.92A12.49,12.49,0,0,1,93.41,96c4.32-.37,7.4,1.47,7.4,8.13s-1.7,9.54-1.7,10.39c0,.38.16.52.46.49,1.27-.13,3.35-4.68,3.35-10.07,0-3.08-.57-6-1.84-7.84a12.9,12.9,0,0,1,6.66-2.64c4.31-.55,7.54,1.16,7.54,7.82,0,8-4.77,19.93-15.55,21.1-3.24.34-5.51-.58-6.85-2.43a16.72,16.72,0,0,1-9.78,3.74C76.4,125,73.09,122.15,73.09,116.85Z" transform="translate(-5.84 -20.83)"/>
    <path class="cls-2" d="M115.59,110.59c0-8.69,7.43-13,13.59-14.14,6.93-1.24,10.93,1.14,10.93,7a17.47,17.47,0,0,1-.27,2.71q-5.72,1.32-11.43,2.51c.57,1.36,1.92,1.86,4.39,1.41a12.38,12.38,0,0,0,5.77-2.71c.62.11,1.23,1.3,1.23,2.88,0,3.07-2.23,7.75-10.85,9.3C119.78,121.11,115.59,116.93,115.59,110.59Zm12.43-4.2,3-1c.34-1.53,0-3.47-1.16-3.26-.92.17-1.81,1.78-1.81,4.06Z" transform="translate(-5.84 -20.83)"/>
    <path class="cls-2" d="M141.5,105.68c0-7.2,3.58-12.21,8.85-13.31,2.58-.54,5,.28,5.93,1.74l.38-.09a19.23,19.23,0,0,0-1-6,16.83,16.83,0,0,1,7.63-3.74c4.46-1,6.62.59,6.62,4.25a19.45,19.45,0,0,1-1.24,6c-.06,1.69-.12,3.37-.19,5,0,1.17.46,1.44,1.31,1.25a3.78,3.78,0,0,0,1.39-.7,7.33,7.33,0,0,1,.5,2.66c0,4.19-3.51,8.38-8.28,9.44-3.73.83-5.89-.67-5.89-3.52a9.63,9.63,0,0,1,.08-1.06l-.77.17c-1.58,4.73-4,6.71-7,7.34C144.73,116.22,141.5,112.92,141.5,105.68Zm14.89-1.2c.07-2.43.13-4.86.2-7.28-1.66.55-2.51,2.69-2.51,4.65s.74,3,2,2.68Z" transform="translate(-5.84 -20.83)"/>
    <path class="cls-2" d="M172.68,99c0-7.2,3.58-12.32,8.85-13.53,2.58-.59,5,.2,5.93,1.65l.39-.09a19.29,19.29,0,0,0-1-6,16.87,16.87,0,0,1,7.63-3.82c4.46-1,6.62.59,6.62,4.25a19.69,19.69,0,0,1-1.23,6c-.07,1.68-.13,3.37-.2,5,0,1.16.47,1.44,1.31,1.25a3.56,3.56,0,0,0,1.39-.7,7.2,7.2,0,0,1,.5,2.66c0,4.2-3.5,8.36-8.28,9.45-3.73.84-5.89-.63-5.89-3.47a9.45,9.45,0,0,1,.08-1.06l-.77.17c-1.58,4.75-4,6.76-7,7.46C175.91,109.4,172.68,106.21,172.68,99Zm14.9-1.52q.09-3.63.19-7.28c-1.66.57-2.5,2.73-2.5,4.69s.73,3,2,2.66Z" transform="translate(-5.84 -20.83)"/>
    <path class="cls-2" d="M202.43,77.66c0-3.62,2-5.62,5.74-6.43,1.77-.38,4.31-.35,6.66-.85a11.88,11.88,0,0,0,2.66-1,6.62,6.62,0,0,1,.54,2.81c0,2.85-1.08,4-3.7,4.59-.65.14-2.12.33-4.31.81a18.41,18.41,0,0,0-7.2,3.08A12.75,12.75,0,0,1,202.43,77.66Zm1.62,16.92c.1-1.14.21-2.28.31-3.42a23.37,23.37,0,0,0-1.16-8.56A14.59,14.59,0,0,1,210.4,79c4.74-1,7.55.75,7.16,5.56-.11,1.41-.23,2.82-.34,4.23-.08,1.14.34,1.39,1.19,1.22a3.66,3.66,0,0,0,1.39-.67,7.89,7.89,0,0,1,.5,2.67c0,4.19-3.51,8.29-8.82,9.43C206.48,102.47,203.55,100.28,204.05,94.58Z" transform="translate(-5.84 -20.83)"/>
    <path class="cls-2" d="M236.31,87.83a23.93,23.93,0,0,1,.5-4.67,1.08,1.08,0,0,0-.61-.08c-1,.18-1.66,1.18-1.66,4.22v8.94q-6.58,1.2-13.17,2.54l.39-9.74a28.7,28.7,0,0,0-1.16-10.16,14.19,14.19,0,0,1,6.78-3.43c4.27-.83,6.78.72,6.62,4.79l.77-.14a10.22,10.22,0,0,1,8.28-7.48c4.58-.76,7,1.9,6.54,6.85l-.3,3.36c-.12,1.13.46,1.43,1.3,1.3a3.32,3.32,0,0,0,1.39-.59,7.52,7.52,0,0,1,.5,2.7c0,4.2-3.5,8.08-8.66,8.92C238.81,96,236.31,93.61,236.31,87.83Z" transform="translate(-5.84 -20.83)"/>
    <path class="cls-2" d="M255.71,93.26a6.58,6.58,0,0,1,.85-3.31,15.57,15.57,0,0,0,5.89.45c5.12-.59,7.16-3,6.47-7l-.39,0a8.08,8.08,0,0,1-7,5.59c-4.62.56-8.28-1.91-8.28-8,0-6.31,4.08-10.61,9.39-11.23,3.12-.36,5.28.57,6.51,2.22l.77-.07c.22-.82.44-1.63.65-2.45a17.84,17.84,0,0,1,4.51-.93c4.73-.37,6.77,1.27,7.54,4.15a6.6,6.6,0,0,1-1.61,2.6l.3,7.14c.39,8.71-4.61,14.52-15.43,15.66C258.49,99,255.71,96.43,255.71,93.26ZM268.61,81l.15-5.33A3.09,3.09,0,0,0,265.84,79a2,2,0,0,0,2.35,2.1Z" transform="translate(-5.84 -20.83)"/>
    <path class="cls-2" d="M282.66,64.73a14.88,14.88,0,0,1,7.12-2.18c5.59-.14,7.16,2.34,7.16,6.18,0,5.28-4.15,10.54-10.66,11.85C286,72.85,284.74,68.93,282.66,64.73Zm1.58,20.79a8,8,0,0,1,.5-2.68,10,10,0,0,1,4.77-1.49c3.74-.1,5.24,2.29,5.24,6.48a8.33,8.33,0,0,1-5.85,2.66C285.74,90.59,284.24,88.22,284.24,85.52Z" transform="translate(-5.84 -20.83)"/>
  </g>
  <g>
    <path class="cls-3" d="M73,114.64c0-2.34,1.15-5.44,1.15-8.14,0-1.62-.81-2.21-2.19-2.2a2.67,2.67,0,0,0-1.77.62,9.14,9.14,0,0,1-.5-2.88c0-3.9,2.58-7.16,8.31-7.34,5.35-.18,8.39,3.41,8.39,9.3s-1.69,8.62-1.69,9.46c0,.39.15.53.46.51,1.27-.07,3.35-4.52,3.35-9.91,0-3.08-.58-6-1.85-7.93a12.49,12.49,0,0,1,6.66-2.34c4.32-.37,7.4,1.48,7.4,8.14S99,111.46,99,112.31c0,.38.16.52.46.49,1.27-.13,3.35-4.68,3.35-10.07,0-3.08-.57-6-1.85-7.84a13.07,13.07,0,0,1,6.66-2.63c4.32-.55,7.55,1.15,7.55,7.82,0,8-4.77,19.93-15.55,21.1-3.24.34-5.51-.59-6.85-2.44A16.65,16.65,0,0,1,83,122.48C76.29,122.81,73,119.94,73,114.64Z" transform="translate(-5.84 -20.83)"/>
    <path class="cls-3" d="M115.48,108.39c0-8.7,7.43-13,13.59-14.15C136,93,140,95.39,140,101.21a18.78,18.78,0,0,1-.27,2.71q-5.72,1.31-11.43,2.51c.57,1.36,1.92,1.85,4.39,1.4a12.44,12.44,0,0,0,5.77-2.7c.62.11,1.23,1.3,1.23,2.88,0,3.06-2.23,7.75-10.85,9.29C119.67,118.91,115.48,114.72,115.48,108.39Zm12.43-4.21,3-1c.34-1.52,0-3.47-1.16-3.25-.92.16-1.81,1.78-1.81,4Z" transform="translate(-5.84 -20.83)"/>
    <path class="cls-3" d="M141.39,103.48c0-7.2,3.58-12.21,8.85-13.32,2.58-.54,5,.29,5.93,1.74l.38-.08a19.23,19.23,0,0,0-1-6,16.76,16.76,0,0,1,7.62-3.75c4.47-1,6.63.6,6.63,4.26a19.56,19.56,0,0,1-1.24,6c-.06,1.68-.12,3.37-.19,5.05,0,1.16.46,1.43,1.31,1.24a3.49,3.49,0,0,0,1.39-.7,7.41,7.41,0,0,1,.5,2.66c0,4.2-3.51,8.38-8.28,9.44-3.73.83-5.89-.67-5.89-3.51a9.45,9.45,0,0,1,.08-1.06l-.77.17c-1.58,4.73-4,6.7-7,7.34C144.62,114,141.39,110.71,141.39,103.48Zm14.89-1.21c.07-2.43.13-4.85.2-7.28-1.66.55-2.51,2.7-2.51,4.66s.74,3,2,2.68Z" transform="translate(-5.84 -20.83)"/>
    <path class="cls-3" d="M172.57,96.77c0-7.2,3.58-12.33,8.85-13.53,2.58-.59,5,.2,5.93,1.64l.39-.09a19.2,19.2,0,0,0-1-6A16.77,16.77,0,0,1,194.36,75c4.46-1,6.62.59,6.62,4.25a19.8,19.8,0,0,1-1.23,6c-.07,1.68-.13,3.36-.2,5,0,1.16.47,1.43,1.31,1.24a3.67,3.67,0,0,0,1.39-.69,7.12,7.12,0,0,1,.5,2.66c0,4.19-3.5,8.36-8.28,9.44-3.73.85-5.89-.62-5.89-3.47a9.63,9.63,0,0,1,.08-1.06l-.77.18c-1.58,4.75-4,6.76-7,7.45C175.8,107.2,172.57,104,172.57,96.77Zm14.9-1.52c.06-2.43.12-4.85.19-7.28-1.66.57-2.5,2.73-2.5,4.69s.73,3,2,2.65Z" transform="translate(-5.84 -20.83)"/>
    <path class="cls-3" d="M202.32,75.45c0-3.62,2-5.62,5.74-6.42,1.77-.39,4.31-.36,6.66-.86a11.81,11.81,0,0,0,2.66-1,6.59,6.59,0,0,1,.54,2.81c0,2.85-1.08,4-3.7,4.59-.65.13-2.12.33-4.31.8a18.56,18.56,0,0,0-7.2,3.08A12.62,12.62,0,0,1,202.32,75.45Zm1.62,16.93c.1-1.14.21-2.28.31-3.42a23.34,23.34,0,0,0-1.16-8.56,14.68,14.68,0,0,1,7.2-3.66c4.74-1,7.55.75,7.16,5.57-.11,1.41-.23,2.82-.34,4.23-.08,1.13.34,1.39,1.19,1.21a3.51,3.51,0,0,0,1.39-.67,8,8,0,0,1,.5,2.67c0,4.2-3.51,8.29-8.82,9.44C206.37,100.26,203.44,98.07,203.94,92.38Z" transform="translate(-5.84 -20.83)"/>
    <path class="cls-3" d="M236.2,85.63a24,24,0,0,1,.5-4.68,1.18,1.18,0,0,0-.61-.08c-1,.18-1.66,1.19-1.66,4.23V94q-6.59,1.2-13.17,2.55l.39-9.74a28.63,28.63,0,0,0-1.16-10.16,14.11,14.11,0,0,1,6.78-3.44c4.27-.83,6.77.73,6.62,4.8l.77-.14a10.25,10.25,0,0,1,8.28-7.49c4.58-.75,7,1.9,6.54,6.86l-.31,3.35c-.11,1.14.47,1.43,1.31,1.31a3.32,3.32,0,0,0,1.39-.59,7.44,7.44,0,0,1,.5,2.7c0,4.2-3.5,8.07-8.66,8.92S236.2,91.41,236.2,85.63Z" transform="translate(-5.84 -20.83)"/>
    <path class="cls-3" d="M255.6,91.05a6.64,6.64,0,0,1,.85-3.31,15.57,15.57,0,0,0,5.89.46c5.12-.6,7.16-3,6.47-7l-.39,0a8.08,8.08,0,0,1-7,5.58c-4.62.56-8.28-1.91-8.28-8,0-6.31,4.08-10.61,9.39-11.23,3.12-.37,5.28.57,6.51,2.22l.77-.08c.22-.81.44-1.63.65-2.45a17.84,17.84,0,0,1,4.51-.93c4.73-.36,6.77,1.28,7.54,4.16a6.68,6.68,0,0,1-1.61,2.59l.3,7.14c.39,8.71-4.62,14.52-15.43,15.66C258.38,96.75,255.6,94.23,255.6,91.05Zm12.9-12.23.15-5.32a3.08,3.08,0,0,0-2.92,3.26,2,2,0,0,0,2.35,2.11Z" transform="translate(-5.84 -20.83)"/>
    <path class="cls-3" d="M282.55,62.53a14.88,14.88,0,0,1,7.12-2.18c5.58-.14,7.16,2.34,7.16,6.17,0,5.29-4.15,10.55-10.66,11.85C285.86,70.65,284.63,66.73,282.55,62.53Zm1.58,20.78a8.09,8.09,0,0,1,.5-2.68,10.12,10.12,0,0,1,4.77-1.49c3.74-.1,5.24,2.3,5.24,6.49a8.42,8.42,0,0,1-5.85,2.66C285.63,88.39,284.13,86,284.13,83.31Z" transform="translate(-5.84 -20.83)"/>
  </g>
</svg>
