<svg id="Layer_1" data-name="Layer 1" xmlns="http://www.w3.org/2000/svg" viewBox="0 0 348.63 87.41">
  <defs>
    <style>
      .cls-1 {
        fill: #cce8f9;
      }

      .cls-2 {
        fill: #f5bd60;
      }

      .cls-3 {
        fill: #fee7d6;
      }

      .cls-4 {
        fill: #1c3557;
      }
    </style>
  </defs>
  <g>
    <path class="cls-1" d="M-19.51,151.92c-.55-6.67,2.47-12.35,10.12-11.73,2.58.2,5.28,1.17,7,.67a15.55,15.55,0,0,1,1.17,4.7c.25,2.94-.67,4.68-3,4.59-1.54-.07-3.3-1.21-5.4-3.46a5.52,5.52,0,0,0-.39,2.8c.28,3.17,1.94,5.11,4.89,5.17A5.32,5.32,0,0,0-1,152.94a11.17,11.17,0,0,1,1.12,3.92c.37,3.68-2.17,6.41-7.87,6.87C-13.75,164.28-18.82,160.44-19.51,151.92Z" transform="translate(22.15 -76.44)"/>
    <path class="cls-1" d="M.81,159.26c-.28-2.76,1.66-5,7.1-4.89a14,14,0,0,1,1.87.13c-.06-.59-.12-1.18-.17-1.79a7.78,7.78,0,0,1-4.07,1.13c-2.58,0-4-1.4-4.27-4A10.43,10.43,0,0,1,1.62,146a11,11,0,0,0,3.47.56c2.9.09,5-.68,7.52-.65,3.81,0,5.88,2.17,6.22,5.72.12,1.23,0,2.63.07,3.46a.9.9,0,0,0,1,.89,2.08,2.08,0,0,0,1-.28,5.58,5.58,0,0,1,.58,1.89c.32,2.79-2,4.75-5.59,4.92-2.92.12-4.65-1.06-4.68-2.86h-.58c-.38,2.18-2.36,3.16-4.71,3.29C3,163.09,1.05,161.55.81,159.26Zm9.35-1.12c-.08-.75-.16-1.52-.24-2.3H9.49a2,2,0,0,0-.74,1.74.79.79,0,0,0,.81.8A.85.85,0,0,0,10.16,158.14Z" transform="translate(22.15 -76.44)"/>
    <path class="cls-1" d="M22.32,157c0-1.18-.07-2.41-.11-3.7a39,39,0,0,0-1.75-10.13,7.48,7.48,0,0,1,5.17-2c4.3-.16,6.06,2.67,6.12,7.48q0,3.26.08,6.06c0,.79.37,1,1,1a2.12,2.12,0,0,0,1-.3,6.34,6.34,0,0,1,.58,1.85c.32,2.74-2,4.6-6,4.77C24.7,162.13,22.42,160.75,22.32,157Z" transform="translate(22.15 -76.44)"/>
    <path class="cls-1" d="M32.74,143c-.28-3.33,1.13-5,3.88-5.14,1.31-.08,3.25.38,5,.25a5.6,5.6,0,0,0,1.94-.6,9.78,9.78,0,0,1,.62,2.85c.21,2.73-.52,3.6-2.47,3.73-.48,0-1.58,0-3.21.08a10.14,10.14,0,0,0-5.25,1.57A14.28,14.28,0,0,1,32.74,143Zm2.5,13.62c0-.75,0-1.52,0-2.32a23.89,23.89,0,0,0-1.52-6.82,7.84,7.84,0,0,1,5.2-2c3.53-.22,5.8,1.84,5.86,5.57,0,1.08,0,2.11.06,3.1,0,.8.37,1,1,1a2.12,2.12,0,0,0,1-.32,6.34,6.34,0,0,1,.58,1.85c.31,2.76-2,4.64-6,4.81C37.67,161.61,35.28,160.34,35.24,156.66Z" transform="translate(22.15 -76.44)"/>
    <path class="cls-1" d="M50.58,162.79c.73-1.48.6-3.24.42-6.08,0-.19,0-.38,0-.58a10.92,10.92,0,0,0-2.51.52,4.42,4.42,0,0,1-1.06-2.59,3.32,3.32,0,0,1,3.21-3.93c-.06-1-.12-2.14-.18-3.28-.22-4.49,1.68-7.25,5.92-7.62,1.61-.16,4.95.15,6.42-.28a10.22,10.22,0,0,1,1,3.74c.2,2.53-.24,4.4-2.33,4.59-1.34.11-3.07-.41-5.37-3.41.8,1.69,1.66,3.63,2.45,5.53l1.14-.1a12.22,12.22,0,0,0,3.46-.69,5.05,5.05,0,0,1,1.05,2.8c.17,1.76-.54,3.73-2.7,3.83l-.75,0a17.48,17.48,0,0,1,.6,2.7c.56,4.5-1.86,5.64-5.64,5.87A8.49,8.49,0,0,1,50.58,162.79Z" transform="translate(22.15 -76.44)"/>
    <path class="cls-1" d="M64.9,153.18c-.53-5.24,3.17-10.27,9.56-11,6-.78,10.21,3,10.74,8.51s-3.25,8.56-9.58,9C69.75,160.05,65.41,158.08,64.9,153.18Zm11.27-1.61c-.21-2.06-.74-3.22-1.46-3.13s-1,1.39-.81,3.64c.2,2,.74,2.93,1.46,2.87S76.39,153.83,76.17,151.57Z" transform="translate(22.15 -76.44)"/>
    <path class="cls-1" d="M87.08,158.3c-.12-2-.23-4.18-.35-6.55a30.27,30.27,0,0,0-1.87-9.19,9,9,0,0,1,4.83-2.25c3.75-.57,4.74,1.79,4.76,5.94l.72-.1c-.39-4.45.93-6.93,3-7.22,1.15-.17,2.13.19,3.18-.09a12.62,12.62,0,0,1,1.59,5.15c.26,3-.74,6-3.26,6.33a3.38,3.38,0,0,1-3.42-1.22l-.29,0c.35,3,.69,5.7,1,8.21Q92,157.86,87.08,158.3Z" transform="translate(22.15 -76.44)"/>
    <path class="cls-1" d="M115.58,148.77a21.41,21.41,0,0,1,0-3.91.9.9,0,0,0-.47-.09c-.75.11-1.17,1-.94,3.5s.45,4.81.67,7c-3.27.41-6.53.8-9.8,1.17q-.21-3.47-.44-7.39a32.68,32.68,0,0,0-1.64-8.84,8.42,8.42,0,0,1,4.89-2.74c3.18-.53,5.19,1.09,5.38,4.7l.57-.09c.56-3.38,2.59-6,5.71-6.55,3.41-.59,5.44,2,5.46,6.33,0,1,0,2,0,2.93s.46,1.22,1.09,1.12a2.09,2.09,0,0,0,1-.5,7.72,7.72,0,0,1,.58,2.29,6.45,6.45,0,0,1-5.88,7.1C118.09,155.29,116,153.47,115.58,148.77Z" transform="translate(22.15 -76.44)"/>
    <path class="cls-1" d="M126,131.56c-.28-3.46,1.13-5.25,3.88-5.67,1.31-.21,3.25,0,5-.22a6.66,6.66,0,0,0,1.94-.75,8.48,8.48,0,0,1,.62,2.7c.21,2.67-.52,3.69-2.46,4-.49.09-1.59.17-3.22.45a10.48,10.48,0,0,0-5.25,2.32A15.28,15.28,0,0,1,126,131.56Zm2.5,15.32q0-1.44,0-2.91a27,27,0,0,0-1.52-7.72,8.47,8.47,0,0,1,5.2-2.85c3.53-.62,5.8,1.21,5.86,5.49,0,1.25,0,2.5.06,3.73,0,1,.37,1.23,1,1.13a2.24,2.24,0,0,0,1-.52,8.87,8.87,0,0,1,.58,2.36,6.8,6.8,0,0,1-6,7.48C131,153.58,128.56,151.65,128.52,146.88Z" transform="translate(22.15 -76.44)"/>
    <path class="cls-1" d="M141.39,147.22c-.28-3.26,1.65-6.16,7.1-7.14a11.91,11.91,0,0,1,1.87-.2l-.18-2.09a8.53,8.53,0,0,1-4.06,2.13c-2.58.45-4-.84-4.27-3.71a12.94,12.94,0,0,1,.35-4.23,10.29,10.29,0,0,0,3.47-.14c2.9-.51,5-1.75,7.52-2.18,3.81-.64,5.88,1.14,6.22,5.15.12,1.4,0,3.13.06,4.17.07.72.41,1.08,1,1a2.06,2.06,0,0,0,1-.52,8.28,8.28,0,0,1,.58,2.42c.32,3.79-2,7.34-5.59,7.89-2.92.46-4.65-1.13-4.68-3.55l-.58.1a5.45,5.45,0,0,1-4.71,5A4.25,4.25,0,0,1,141.39,147.22Zm9.35-2.86-.24-2.87-.43.08a3.35,3.35,0,0,0-.74,2.31c.06.72.43,1,.81.9A1,1,0,0,0,150.74,144.36Z" transform="translate(22.15 -76.44)"/>
    <path class="cls-1" d="M171.28,139.68c-.18-2.13.45-5,.25-7.38-.12-1.41-.77-1.83-1.8-1.66a2,2,0,0,0-1.27.76,9,9,0,0,1-.59-2.44c-.29-3.36,1.38-6.43,5.65-7,4-.52,6.53,2.13,7,7.1s-.62,7.65-.56,8.4c0,.35.16.47.39.43.94-.16,2.16-4.38,1.76-8.93a13,13,0,0,0-2-6.41,8.23,8.23,0,0,1,4.82-2.11c3.21-.36,5.66.86,6.16,6.23s-.56,8.24-.49,9c0,.35.15.47.38.43.95-.15,2.17-4.37,1.77-8.78a12.2,12.2,0,0,0-2-6.17,8.4,8.4,0,0,1,4.82-2c3.2-.31,5.77.79,6.27,6,.61,6.08-2.11,17.44-10.13,18.84a5,5,0,0,1-5.33-2.11,11.7,11.7,0,0,1-7,4.15C174.36,146.81,171.68,144.5,171.28,139.68Z" transform="translate(22.15 -76.44)"/>
    <path class="cls-1" d="M202.71,132c-.65-7.55,4.64-10.35,9.22-10.92,5.16-.53,8.37,1.22,8.81,5.88a16.39,16.39,0,0,1,0,2.22c-2.83.48-5.65,1-8.48,1.49.54,1.21,1.6,1.72,3.43,1.45a7.52,7.52,0,0,0,4.18-2c.47.14,1,1.2,1.15,2.62.23,2.73-1.12,7.09-7.53,8.06C206.67,141.85,203.19,137.56,202.71,132Zm9.09-3.25,2.18-.65c.14-1.25-.24-2.8-1.12-2.68-.69.09-1.24,1.31-1.07,3.21Z" transform="translate(22.15 -76.44)"/>
    <path class="cls-1" d="M222,128.93c-.54-6,1.8-9.05,5.73-9.44a5.44,5.44,0,0,1,4.64,1.64l.28,0a11.57,11.57,0,0,0-1.21-4,11.06,11.06,0,0,1,5.52-1.62c3.32-.19,5.08.79,5.35,3.11a11,11,0,0,1-.48,4c.07,1.22.15,2.5.23,3.84.06.93.46,1.22,1.09,1.16a2,2,0,0,0,1-.41,7.15,7.15,0,0,1,.58,2.29c.32,3.59-2,7.22-5.59,7.63-2.78.33-4.53-1.43-4.74-4a7.57,7.57,0,0,1,0-1l-.58.07c-.84,4.12-2.51,5.91-4.77,6.17C225.21,138.87,222.51,135.07,222,128.93Zm11.23.25q-.19-3.09-.4-5.79c-1.21.27-1.7,1.8-1.55,3.4s.78,2.52,1.75,2.41Z" transform="translate(22.15 -76.44)"/>
    <path class="cls-1" d="M245.17,126.38c-.54-5.75,1.8-8.37,5.72-8.65a5.74,5.74,0,0,1,4.64,1.64h.29a10.08,10.08,0,0,0-1.21-3.75,11.81,11.81,0,0,1,5.51-1.4c3.32-.13,5.08.82,5.36,3A10,10,0,0,1,265,121q.12,1.76.24,3.69c0,.9.46,1.19,1.09,1.16a2.08,2.08,0,0,0,1-.35,7.09,7.09,0,0,1,.58,2.22c.31,3.48-2,6.87-5.59,7.13a4.22,4.22,0,0,1-4.75-4.11c0-.31,0-.61,0-.91l-.57,0c-.84,3.94-2.51,5.62-4.77,5.8C248.42,136.11,245.71,132.26,245.17,126.38Zm11.23.64c-.14-2-.27-3.81-.4-5.51-1.22.21-1.7,1.64-1.55,3.16s.77,2.44,1.75,2.37Z" transform="translate(22.15 -76.44)"/>
    <path class="cls-1" d="M266.22,115.18c-.27-2,1.13-2.71,3.88-2.85,1.32-.06,3.26.14,5,.07a10.74,10.74,0,0,0,1.94-.32,2.85,2.85,0,0,1,.63,1.49c.21,1.54-.52,2.18-2.47,2.24-.49,0-1.58,0-3.22,0a13.27,13.27,0,0,0-5.24,1.1A7.1,7.1,0,0,1,266.22,115.18Zm2.5,11.83c0-.92,0-1.81,0-2.67a15.68,15.68,0,0,0-1.52-6.14,9.3,9.3,0,0,1,5.2-1.49c3.52-.1,5.79,1.15,5.86,4.5q0,1.49.06,3.09c0,.86.36,1.13,1,1.12a2,2,0,0,0,1-.33,7.92,7.92,0,0,1,.58,2.22,6.14,6.14,0,0,1-6,6.85C271.16,134.36,268.77,131.63,268.72,127Z" transform="translate(22.15 -76.44)"/>
    <path class="cls-1" d="M292.72,126.41a17.38,17.38,0,0,1,0-3.6,1,1,0,0,0-.48-.15c-.74,0-1.16.64-.94,3.06s.45,4.93.68,7.63q-4.9,0-9.8.08c-.15-3-.29-5.7-.44-8.24a19.39,19.39,0,0,0-1.64-7.42,9,9,0,0,1,4.88-1.44c3.18-.08,5.2,1.08,5.39,4H291c.56-2.61,2.58-4.15,5.7-4.24,3.41-.08,5.44,1.89,5.47,5.65,0,.84,0,1.71,0,2.59s.45,1.22,1.08,1.24a2,2,0,0,0,1-.29,8.33,8.33,0,0,1,.58,2.31,5.59,5.59,0,0,1-5.88,6.39C295.23,133.89,293.15,131.15,292.72,126.41Z" transform="translate(22.15 -76.44)"/>
    <path class="cls-1" d="M307.79,134.17a5.78,5.78,0,0,1,.4-2.81,11.65,11.65,0,0,0,4.47,1.31c3.81.26,5.16-1.6,4.34-5.22l-.29,0a4.44,4.44,0,0,1-4.85,3.87c-3.44-.19-6.39-3.05-6.84-7.89s2.28-7.53,6.24-7.69a5.75,5.75,0,0,1,5.06,2.22h.57c.1-.65.21-1.29.31-1.94a12.8,12.8,0,0,1,3.31-.54c3.53-.13,5.17,1.34,6,4a5.11,5.11,0,0,1-1,2.23c.26,2.15.51,4.31.77,6.49.94,8-2.36,12.63-10.41,12.07C310.32,139.89,308,137,307.79,134.17Zm8.8-8.79c-.1-1.52-.19-3-.29-4.47-1.46,0-2.07,1-1.95,2.39a2.08,2.08,0,0,0,1.92,2.06Z" transform="translate(22.15 -76.44)"/>
  </g>
  <g>
    <path class="cls-2" d="M-20.8,149.23c-.54-6.67,2.48-12.34,10.12-11.73,2.58.2,5.28,1.17,7,.67a15.62,15.62,0,0,1,1.17,4.7c.25,2.94-.67,4.69-3,4.59-1.55-.07-3.31-1.2-5.41-3.46a5.57,5.57,0,0,0-.38,2.81C-11,150-9.34,151.92-6.39,152a5.29,5.29,0,0,0,4.09-1.71,11.17,11.17,0,0,1,1.12,3.92c.37,3.67-2.17,6.41-7.87,6.86C-15,161.59-20.11,157.76-20.8,149.23Z" transform="translate(22.15 -76.44)"/>
    <path class="cls-2" d="M-.47,156.57c-.29-2.76,1.65-5,7.09-4.89a16.22,16.22,0,0,1,1.88.13c-.06-.58-.12-1.18-.18-1.79a7.78,7.78,0,0,1-4.07,1.13c-2.58,0-4-1.4-4.26-4a10.18,10.18,0,0,1,.34-3.81,11,11,0,0,0,3.48.56c2.89.1,5-.68,7.52-.65,3.81,0,5.88,2.17,6.22,5.73.12,1.23,0,2.63.06,3.45a.9.9,0,0,0,1,.89,2,2,0,0,0,1-.28,5.69,5.69,0,0,1,.58,1.9c.32,2.79-2,4.74-5.59,4.91-2.92.13-4.65-1.05-4.68-2.86H9.33c-.39,2.18-2.37,3.16-4.71,3.29C1.75,160.41-.24,158.86-.47,156.57Zm9.34-1.12c-.08-.75-.16-1.51-.24-2.3H8.2a2.05,2.05,0,0,0-.73,1.75.8.8,0,0,0,.8.8A.9.9,0,0,0,8.87,155.45Z" transform="translate(22.15 -76.44)"/>
    <path class="cls-2" d="M21,154.31c0-1.17-.07-2.41-.11-3.7a38.87,38.87,0,0,0-1.75-10.12,7.42,7.42,0,0,1,5.18-2c4.29-.17,6.06,2.67,6.12,7.48,0,2.16.05,4.18.07,6,0,.79.37,1,1,1a2.24,2.24,0,0,0,1-.3,5.64,5.64,0,0,1,.58,1.85c.32,2.73-2,4.59-6,4.76C23.41,159.44,21.13,158.07,21,154.31Z" transform="translate(22.15 -76.44)"/>
    <path class="cls-2" d="M31.45,140.35c-.27-3.33,1.13-5,3.88-5.14,1.32-.08,3.25.38,5,.26a5.63,5.63,0,0,0,1.94-.61,9.53,9.53,0,0,1,.62,2.85c.22,2.73-.51,3.61-2.46,3.74-.49,0-1.59,0-3.22.07A10.09,10.09,0,0,0,32,143.09,14.14,14.14,0,0,1,31.45,140.35ZM34,154c0-.75,0-1.52,0-2.31a24.23,24.23,0,0,0-1.52-6.83,7.87,7.87,0,0,1,5.2-2c3.52-.22,5.79,1.85,5.86,5.57,0,1.08,0,2.12.05,3.11,0,.79.37,1,1,1a2.29,2.29,0,0,0,1-.32A5.89,5.89,0,0,1,46.1,154c.32,2.75-2,4.63-6,4.8C36.39,158.92,34,157.65,34,154Z" transform="translate(22.15 -76.44)"/>
    <path class="cls-2" d="M49.3,160.1c.72-1.48.59-3.24.41-6.07,0-.2,0-.39,0-.59a10.89,10.89,0,0,0-2.5.53,4.38,4.38,0,0,1-1.07-2.59,3.33,3.33,0,0,1,3.21-3.94q-.09-1.58-.18-3.27c-.22-4.5,1.69-7.26,5.93-7.63,1.6-.15,4.94.15,6.41-.28a10.22,10.22,0,0,1,1,3.75c.21,2.52-.23,4.39-2.32,4.59-1.35.1-3.08-.42-5.38-3.42.8,1.69,1.67,3.63,2.45,5.54l1.14-.1a13,13,0,0,0,3.46-.69,4.92,4.92,0,0,1,1,2.8c.17,1.76-.54,3.73-2.69,3.83l-.75,0a19.53,19.53,0,0,1,.6,2.7c.55,4.49-1.87,5.64-5.65,5.87A8.47,8.47,0,0,1,49.3,160.1Z" transform="translate(22.15 -76.44)"/>
    <path class="cls-2" d="M63.62,150.49c-.54-5.24,3.17-10.27,9.55-11,6-.78,10.22,3,10.75,8.51s-3.26,8.57-9.59,9C68.46,157.36,64.13,155.39,63.62,150.49Zm11.26-1.6c-.2-2.07-.74-3.23-1.45-3.14s-1,1.39-.82,3.64c.21,2,.74,2.93,1.46,2.87S75.1,151.14,74.88,148.89Z" transform="translate(22.15 -76.44)"/>
    <path class="cls-2" d="M85.79,155.62c-.11-2-.23-4.18-.35-6.56a30.27,30.27,0,0,0-1.87-9.19,9,9,0,0,1,4.83-2.25c3.75-.57,4.75,1.79,4.76,5.95l.72-.11c-.39-4.44.93-6.93,3-7.21,1.15-.18,2.13.18,3.19-.09a12.67,12.67,0,0,1,1.58,5.15c.26,3-.74,6-3.26,6.32A3.38,3.38,0,0,1,95,146.41l-.29,0c.35,3,.69,5.71,1,8.21C92.4,155,89.1,155.32,85.79,155.62Z" transform="translate(22.15 -76.44)"/>
    <path class="cls-2" d="M114.29,146.08a22.24,22.24,0,0,1,0-3.9.82.82,0,0,0-.47-.1c-.75.12-1.17,1-.94,3.51s.45,4.8.67,7c-3.26.4-6.53.79-9.79,1.16q-.23-3.45-.44-7.39a33.48,33.48,0,0,0-1.64-8.84,8.36,8.36,0,0,1,4.88-2.74c3.18-.53,5.19,1.09,5.38,4.71l.58-.1c.55-3.38,2.58-6,5.7-6.55,3.41-.58,5.44,2,5.46,6.33,0,1,0,2,0,2.93s.46,1.23,1.09,1.12a2,2,0,0,0,1-.5,7.41,7.41,0,0,1,.58,2.3,6.44,6.44,0,0,1-5.87,7.09C116.8,152.6,114.73,150.79,114.29,146.08Z" transform="translate(22.15 -76.44)"/>
    <path class="cls-2" d="M124.73,128.87c-.27-3.46,1.13-5.25,3.88-5.67,1.32-.21,3.25,0,5-.22a6.38,6.38,0,0,0,1.94-.75,8.22,8.22,0,0,1,.62,2.7c.22,2.67-.51,3.69-2.46,4-.49.08-1.59.16-3.22.44a10.57,10.57,0,0,0-5.24,2.32A15.29,15.29,0,0,1,124.73,128.87Zm2.5,15.33c0-1,0-1.94,0-2.92a27.38,27.38,0,0,0-1.52-7.72,8.44,8.44,0,0,1,5.2-2.85c3.52-.61,5.79,1.21,5.86,5.49,0,1.26,0,2.5.05,3.73,0,1,.37,1.24,1,1.13a2.15,2.15,0,0,0,1-.52,8.5,8.5,0,0,1,.58,2.36,6.79,6.79,0,0,1-6,7.48C129.67,150.89,127.28,149,127.23,144.2Z" transform="translate(22.15 -76.44)"/>
    <path class="cls-2" d="M140.11,144.54c-.29-3.26,1.65-6.17,7.09-7.15a13.28,13.28,0,0,1,1.87-.19c0-.7-.11-1.4-.17-2.09a8.67,8.67,0,0,1-4.07,2.12c-2.58.46-4-.83-4.27-3.7a13,13,0,0,1,.35-4.24,10.35,10.35,0,0,0,3.48-.14c2.89-.51,5-1.75,7.52-2.18,3.81-.63,5.88,1.14,6.22,5.16.12,1.4,0,3.13.06,4.16.06.72.41,1.08,1,1a2.18,2.18,0,0,0,1-.53,8,8,0,0,1,.58,2.42c.32,3.79-2,7.34-5.59,7.9-2.92.46-4.65-1.14-4.68-3.55l-.57.09a5.45,5.45,0,0,1-4.72,5A4.23,4.23,0,0,1,140.11,144.54Zm9.34-2.87-.24-2.87-.43.08a3.29,3.29,0,0,0-.73,2.31c.06.72.43,1,.8.9A.94.94,0,0,0,149.45,141.67Z" transform="translate(22.15 -76.44)"/>
    <path class="cls-2" d="M170,137c-.17-2.13.46-5,.25-7.37-.12-1.41-.77-1.84-1.8-1.67a2,2,0,0,0-1.27.77,9.16,9.16,0,0,1-.59-2.44c-.29-3.37,1.38-6.44,5.65-7,4-.52,6.53,2.14,7,7.1s-.62,7.65-.56,8.4c0,.35.16.47.39.43.94-.16,2.17-4.38,1.76-8.93a13,13,0,0,0-2-6.4,8.18,8.18,0,0,1,4.82-2.12c3.21-.36,5.67.87,6.17,6.24a33,33,0,0,1-.5,9c0,.35.16.47.39.43.94-.15,2.16-4.37,1.76-8.78a12,12,0,0,0-2-6.16,8.34,8.34,0,0,1,4.82-2c3.21-.31,5.78.79,6.28,6,.6,6.09-2.12,17.44-10.14,18.84a5,5,0,0,1-5.33-2.11,11.64,11.64,0,0,1-7,4.16C173.07,144.12,170.39,141.81,170,137Z" transform="translate(22.15 -76.44)"/>
    <path class="cls-2" d="M201.43,129.32c-.66-7.54,4.63-10.35,9.21-10.92,5.16-.53,8.38,1.23,8.81,5.88a14.9,14.9,0,0,1,0,2.22q-4.23.72-8.48,1.5c.54,1.2,1.6,1.71,3.43,1.45a7.55,7.55,0,0,0,4.18-2c.48.14,1,1.2,1.15,2.62.23,2.73-1.11,7.09-7.53,8.07C205.38,139.16,201.9,134.87,201.43,129.32Zm9.08-3.24,2.18-.66c.15-1.25-.23-2.79-1.12-2.68-.69.1-1.24,1.32-1.07,3.21Z" transform="translate(22.15 -76.44)"/>
    <path class="cls-2" d="M220.68,126.24c-.54-6,1.8-9,5.72-9.44a5.41,5.41,0,0,1,4.64,1.65l.29,0a11.65,11.65,0,0,0-1.22-4,11.09,11.09,0,0,1,5.52-1.63c3.32-.19,5.08.79,5.36,3.11a11.13,11.13,0,0,1-.49,4c.08,1.21.16,2.49.23,3.83.06.94.46,1.23,1.09,1.16a2,2,0,0,0,1-.41,7.42,7.42,0,0,1,.58,2.29c.31,3.59-2,7.22-5.59,7.63-2.78.33-4.53-1.43-4.75-4,0-.32,0-.64,0-1l-.57.07c-.85,4.12-2.51,5.91-4.78,6.18C223.92,136.18,221.22,132.38,220.68,126.24Zm11.23.25q-.21-3.09-.4-5.79c-1.22.27-1.71,1.81-1.56,3.4s.78,2.53,1.76,2.41Z" transform="translate(22.15 -76.44)"/>
    <path class="cls-2" d="M243.88,123.7c-.54-5.75,1.8-8.38,5.73-8.66a5.76,5.76,0,0,1,4.64,1.65l.28,0a10.08,10.08,0,0,0-1.21-3.75,11.81,11.81,0,0,1,5.51-1.4c3.33-.13,5.09.82,5.36,3a10.2,10.2,0,0,1-.48,3.79c.07,1.16.15,2.39.23,3.68.06.9.46,1.2,1.09,1.16a1.92,1.92,0,0,0,1-.35,6.88,6.88,0,0,1,.58,2.23c.32,3.47-2,6.87-5.59,7.12a4.2,4.2,0,0,1-4.74-4.11,6.91,6.91,0,0,1,0-.91l-.58,0c-.84,3.94-2.51,5.63-4.77,5.8C247.13,133.42,244.43,129.57,243.88,123.7Zm11.23.64c-.13-2-.27-3.82-.4-5.52-1.22.21-1.7,1.64-1.55,3.16s.78,2.44,1.75,2.37Z" transform="translate(22.15 -76.44)"/>
    <path class="cls-2" d="M264.94,112.49c-.28-2,1.13-2.71,3.88-2.85,1.31-.06,3.25.14,5,.07a11,11,0,0,0,1.94-.32,2.92,2.92,0,0,1,.62,1.49c.21,1.54-.52,2.18-2.46,2.24-.49,0-1.59,0-3.22,0a13.14,13.14,0,0,0-5.25,1.09A7.07,7.07,0,0,1,264.94,112.49Zm2.5,11.83c0-.92,0-1.81,0-2.67a15.66,15.66,0,0,0-1.53-6.14,9.33,9.33,0,0,1,5.2-1.49c3.53-.1,5.79,1.16,5.87,4.5,0,1,0,2,.05,3.09,0,.86.37,1.13,1,1.12a2.12,2.12,0,0,0,1-.32,7.83,7.83,0,0,1,.58,2.22,6.14,6.14,0,0,1-6,6.84C269.88,131.67,267.48,128.94,267.44,124.32Z" transform="translate(22.15 -76.44)"/>
    <path class="cls-2" d="M291.43,123.72a18.11,18.11,0,0,1,0-3.6A1.1,1.1,0,0,0,291,120c-.74,0-1.16.63-.93,3s.45,4.93.67,7.63c-3.27,0-6.53,0-9.8.08-.15-3-.29-5.7-.44-8.24a19.44,19.44,0,0,0-1.64-7.42,9.06,9.06,0,0,1,4.89-1.44c3.18-.08,5.19,1.09,5.38,4h.57c.56-2.61,2.58-4.15,5.71-4.24,3.41-.08,5.44,1.89,5.46,5.65,0,.85,0,1.71,0,2.59s.46,1.22,1.09,1.24a1.84,1.84,0,0,0,1-.28,7.85,7.85,0,0,1,.58,2.3,5.59,5.59,0,0,1-5.88,6.39C293.94,131.2,291.86,128.46,291.43,123.72Z" transform="translate(22.15 -76.44)"/>
    <path class="cls-2" d="M306.51,131.48a5.66,5.66,0,0,1,.39-2.81,11.7,11.7,0,0,0,4.47,1.31c3.81.27,5.17-1.59,4.34-5.22l-.29,0a4.42,4.42,0,0,1-4.85,3.87c-3.44-.19-6.38-3.05-6.84-7.89S306,113.2,310,113a5.73,5.73,0,0,1,5.06,2.23h.58l.3-2a12.37,12.37,0,0,1,3.31-.53c3.53-.13,5.18,1.33,6,4a4.89,4.89,0,0,1-1,2.23c.26,2.14.51,4.31.77,6.48.94,8-2.36,12.63-10.41,12.07C309,137.21,306.74,134.34,306.51,131.48Zm8.79-8.79c-.09-1.51-.19-3-.28-4.47-1.46,0-2.08,1-2,2.4a2.07,2.07,0,0,0,1.93,2Z" transform="translate(22.15 -76.44)"/>
  </g>
  <g>
    <path class="cls-3" d="M-22.09,146.31c-.54-6.67,2.47-12.35,10.12-11.73,2.58.2,5.28,1.16,7,.66a15.69,15.69,0,0,1,1.17,4.7c.25,2.94-.67,4.69-3,4.6-1.55-.08-3.31-1.21-5.41-3.46a5.51,5.51,0,0,0-.38,2.8c.27,3.16,1.94,5.11,4.89,5.17a5.34,5.34,0,0,0,4.09-1.72,11.17,11.17,0,0,1,1.12,3.92c.37,3.68-2.17,6.41-7.87,6.86C-16.33,158.67-21.4,154.83-22.09,146.31Z" transform="translate(22.15 -76.44)"/>
    <path class="cls-3" d="M-1.76,153.65c-.29-2.77,1.65-5,7.09-4.9a16.22,16.22,0,0,1,1.88.13c-.06-.58-.12-1.18-.18-1.79A7.89,7.89,0,0,1,3,148.23c-2.58,0-4-1.4-4.26-4A10.24,10.24,0,0,1-1,140.37a11,11,0,0,0,3.48.56c2.89.1,5-.68,7.52-.64,3.81,0,5.88,2.17,6.22,5.72.12,1.23,0,2.63.06,3.46a.9.9,0,0,0,1,.89,2.1,2.1,0,0,0,1-.29,5.69,5.69,0,0,1,.58,1.9c.32,2.79-2,4.74-5.59,4.91-2.92.13-4.65-1-4.68-2.85H8c-.39,2.17-2.37,3.15-4.71,3.28C.46,157.48-1.53,155.93-1.76,153.65Zm9.34-1.13c-.08-.74-.16-1.51-.24-2.3H6.91A2,2,0,0,0,6.18,152a.8.8,0,0,0,.8.8A.82.82,0,0,0,7.58,152.52Z" transform="translate(22.15 -76.44)"/>
    <path class="cls-3" d="M19.74,151.38c0-1.17-.07-2.4-.11-3.69a38.87,38.87,0,0,0-1.75-10.13,7.48,7.48,0,0,1,5.17-2c4.3-.16,6.07,2.67,6.13,7.48,0,2.17.05,4.19.07,6.05,0,.8.37,1,1,1a2.12,2.12,0,0,0,1-.3,5.64,5.64,0,0,1,.58,1.85c.32,2.73-2,4.6-6,4.76C22.12,156.51,19.84,155.14,19.74,151.38Z" transform="translate(22.15 -76.44)"/>
    <path class="cls-3" d="M30.16,137.43c-.27-3.34,1.13-5,3.88-5.15,1.32-.08,3.25.38,5,.26a5.63,5.63,0,0,0,1.94-.61,9.53,9.53,0,0,1,.62,2.86c.21,2.72-.51,3.6-2.46,3.73-.49,0-1.59,0-3.22.08a9.88,9.88,0,0,0-5.24,1.57A14.28,14.28,0,0,1,30.16,137.43ZM32.66,151c0-.74,0-1.51,0-2.31a24.23,24.23,0,0,0-1.52-6.83,7.85,7.85,0,0,1,5.2-2c3.52-.21,5.79,1.85,5.86,5.57,0,1.08,0,2.12,0,3.11,0,.79.37,1,1,1a2.16,2.16,0,0,0,1-.32,5.89,5.89,0,0,1,.58,1.85c.32,2.76-2,4.63-6,4.81C35.1,156,32.71,154.72,32.66,151Z" transform="translate(22.15 -76.44)"/>
    <path class="cls-3" d="M48,157.17c.72-1.48.59-3.24.41-6.07,0-.19,0-.39,0-.59a10.89,10.89,0,0,0-2.5.53,4.35,4.35,0,0,1-1.07-2.59A3.33,3.33,0,0,1,48,144.51q-.09-1.57-.18-3.27c-.22-4.49,1.69-7.25,5.93-7.63,1.6-.15,4.94.16,6.41-.27a10.13,10.13,0,0,1,1,3.74c.21,2.53-.23,4.39-2.32,4.59-1.35.11-3.08-.42-5.38-3.42.8,1.69,1.66,3.63,2.45,5.54l1.14-.1a13,13,0,0,0,3.46-.69,5,5,0,0,1,1,2.8c.17,1.76-.54,3.73-2.7,3.83l-.74,0a20.19,20.19,0,0,1,.6,2.7c.55,4.49-1.87,5.64-5.65,5.87A8.47,8.47,0,0,1,48,157.17Z" transform="translate(22.15 -76.44)"/>
    <path class="cls-3" d="M62.33,147.56c-.54-5.24,3.17-10.27,9.55-11,6-.78,10.22,3,10.75,8.52.51,5.39-3.26,8.56-9.59,9C67.17,154.43,62.83,152.46,62.33,147.56ZM73.59,146c-.2-2.07-.74-3.22-1.45-3.14s-1,1.4-.82,3.64c.21,2,.74,2.93,1.46,2.88S73.81,148.21,73.59,146Z" transform="translate(22.15 -76.44)"/>
    <path class="cls-3" d="M84.5,152.69q-.16-3-.35-6.55A30.15,30.15,0,0,0,82.28,137a9.08,9.08,0,0,1,4.83-2.26c3.75-.57,4.75,1.79,4.76,5.95l.72-.1c-.39-4.45.93-6.93,3-7.22,1.15-.18,2.13.18,3.18-.09a12.57,12.57,0,0,1,1.59,5.15c.26,3-.74,6-3.26,6.32a3.35,3.35,0,0,1-3.42-1.22l-.29,0c.35,3,.69,5.71,1,8.22C91.11,152.07,87.81,152.39,84.5,152.69Z" transform="translate(22.15 -76.44)"/>
    <path class="cls-3" d="M113,143.16a22.35,22.35,0,0,1,0-3.91.74.74,0,0,0-.47-.09c-.75.11-1.17,1-.94,3.5s.45,4.8.67,7c-3.26.41-6.53.8-9.79,1.16q-.23-3.45-.44-7.38a33.58,33.58,0,0,0-1.64-8.85,8.36,8.36,0,0,1,4.88-2.74c3.18-.53,5.19,1.1,5.38,4.71l.58-.09c.55-3.39,2.58-6,5.7-6.56,3.41-.58,5.44,2,5.46,6.34,0,1,0,2,0,2.92s.46,1.23,1.09,1.13a2.19,2.19,0,0,0,1-.5,7.35,7.35,0,0,1,.58,2.29,6.45,6.45,0,0,1-5.87,7.1C115.51,149.67,113.44,147.86,113,143.16Z" transform="translate(22.15 -76.44)"/>
    <path class="cls-3" d="M123.44,125.94c-.27-3.46,1.13-5.25,3.88-5.67,1.32-.2,3.25.06,5-.22a6.38,6.38,0,0,0,1.94-.75,8.28,8.28,0,0,1,.62,2.71c.22,2.67-.51,3.68-2.46,4-.49.08-1.59.16-3.22.44a10.57,10.57,0,0,0-5.24,2.32A15.29,15.29,0,0,1,123.44,125.94Zm2.5,15.33c0-1,0-1.93,0-2.92a27.45,27.45,0,0,0-1.52-7.72,8.49,8.49,0,0,1,5.2-2.85c3.52-.61,5.79,1.21,5.86,5.5,0,1.25,0,2.49,0,3.72,0,1,.37,1.24,1,1.13a2,2,0,0,0,1-.52,8.59,8.59,0,0,1,.58,2.36,6.8,6.8,0,0,1-6,7.49C128.38,148,126,146,125.94,141.27Z" transform="translate(22.15 -76.44)"/>
    <path class="cls-3" d="M138.82,141.61c-.29-3.26,1.65-6.17,7.09-7.14a11.91,11.91,0,0,1,1.87-.2c-.06-.7-.11-1.39-.17-2.09a8.49,8.49,0,0,1-4.07,2.12c-2.58.46-4-.83-4.27-3.7a13,13,0,0,1,.35-4.24,9.85,9.85,0,0,0,3.48-.14c2.89-.5,5-1.75,7.52-2.17,3.81-.64,5.88,1.13,6.22,5.15.12,1.4,0,3.13.06,4.16.06.72.41,1.08,1,1a2.08,2.08,0,0,0,1-.53,8,8,0,0,1,.58,2.42c.32,3.79-2,7.34-5.59,7.9-2.92.46-4.65-1.13-4.68-3.55l-.57.1a5.47,5.47,0,0,1-4.72,5A4.24,4.24,0,0,1,138.82,141.61Zm9.34-2.86-.24-2.87-.43.07a3.36,3.36,0,0,0-.74,2.32c.07.71.44,1,.81.89A.93.93,0,0,0,148.16,138.75Z" transform="translate(22.15 -76.44)"/>
    <path class="cls-3" d="M168.7,134.07c-.17-2.14.46-5,.25-7.38-.12-1.41-.77-1.84-1.8-1.66a2,2,0,0,0-1.27.76,9.16,9.16,0,0,1-.59-2.44c-.29-3.36,1.38-6.44,5.65-7,4-.51,6.53,2.14,7,7.1s-.62,7.66-.56,8.41c0,.35.16.47.39.43.94-.16,2.17-4.39,1.76-8.93a13,13,0,0,0-2-6.41,8.24,8.24,0,0,1,4.82-2.12c3.21-.35,5.67.87,6.16,6.24s-.55,8.23-.49,9c0,.34.16.46.39.42.94-.15,2.16-4.37,1.76-8.78a12,12,0,0,0-2-6.16,8.4,8.4,0,0,1,4.82-2c3.21-.3,5.78.8,6.28,6,.6,6.08-2.12,17.43-10.14,18.83a5,5,0,0,1-5.33-2.11,11.64,11.64,0,0,1-7.05,4.16C171.78,141.2,169.1,138.88,168.7,134.07Z" transform="translate(22.15 -76.44)"/>
    <path class="cls-3" d="M200.14,126.39c-.66-7.54,4.63-10.34,9.21-10.91,5.16-.54,8.38,1.22,8.81,5.87a14.91,14.91,0,0,1,0,2.22q-4.23.72-8.48,1.5c.54,1.2,1.6,1.71,3.43,1.45a7.59,7.59,0,0,0,4.18-2c.48.14,1,1.19,1.15,2.61.23,2.73-1.11,7.09-7.53,8.07C204.09,136.23,200.61,131.94,200.14,126.39Zm9.08-3.24,2.18-.66c.15-1.25-.23-2.79-1.12-2.67-.69.09-1.24,1.31-1.07,3.2Z" transform="translate(22.15 -76.44)"/>
    <path class="cls-3" d="M219.39,123.32c-.54-6,1.8-9,5.72-9.44a5.4,5.4,0,0,1,4.64,1.64l.29,0a11.65,11.65,0,0,0-1.22-4,11.09,11.09,0,0,1,5.52-1.63c3.32-.19,5.08.8,5.36,3.11a11.13,11.13,0,0,1-.49,4c.08,1.21.15,2.49.23,3.84.06.93.46,1.22,1.09,1.16a2.14,2.14,0,0,0,1-.42,7.5,7.5,0,0,1,.58,2.29c.31,3.59-2,7.23-5.59,7.64-2.78.33-4.54-1.44-4.75-4,0-.31,0-.63,0-1l-.57.07c-.85,4.13-2.51,5.91-4.78,6.18C222.63,133.26,219.93,129.46,219.39,123.32Zm11.23.24q-.21-3.07-.4-5.78c-1.22.26-1.71,1.8-1.56,3.39s.78,2.53,1.76,2.41Z" transform="translate(22.15 -76.44)"/>
    <path class="cls-3" d="M242.59,120.77c-.54-5.75,1.8-8.38,5.73-8.66a5.76,5.76,0,0,1,4.64,1.65l.28,0A10.08,10.08,0,0,0,252,110a11.81,11.81,0,0,1,5.51-1.39c3.33-.13,5.09.81,5.36,3a10.17,10.17,0,0,1-.48,3.78c.07,1.17.15,2.39.23,3.69.06.89.46,1.19,1.09,1.16a2,2,0,0,0,1-.36,7.15,7.15,0,0,1,.58,2.23c.32,3.47-2,6.87-5.59,7.12a4.2,4.2,0,0,1-4.74-4.1,7.1,7.1,0,0,1,0-.92l-.58,0c-.84,4-2.51,5.63-4.77,5.81C245.84,130.5,243.14,126.65,242.59,120.77Zm11.23.64c-.13-2-.27-3.81-.4-5.52-1.22.21-1.7,1.64-1.55,3.16s.78,2.45,1.75,2.37Z" transform="translate(22.15 -76.44)"/>
    <path class="cls-3" d="M263.65,109.56c-.28-2,1.13-2.7,3.88-2.84,1.31-.06,3.25.14,5,.06a9.45,9.45,0,0,0,1.94-.32,3,3,0,0,1,.62,1.49c.21,1.55-.52,2.19-2.46,2.24-.49,0-1.59,0-3.22,0a13.11,13.11,0,0,0-5.25,1.1A7.26,7.26,0,0,1,263.65,109.56Zm2.5,11.83c0-.92,0-1.8,0-2.66a15.5,15.5,0,0,0-1.52-6.14,9.25,9.25,0,0,1,5.2-1.49c3.53-.1,5.79,1.15,5.86,4.5,0,1,0,2,.06,3.08,0,.86.37,1.14,1,1.12a1.92,1.92,0,0,0,1-.32,7.92,7.92,0,0,1,.58,2.22,6.13,6.13,0,0,1-6,6.84C268.58,128.74,266.19,126,266.15,121.39Z" transform="translate(22.15 -76.44)"/>
    <path class="cls-3" d="M290.14,120.8a17.37,17.37,0,0,1,0-3.6,1,1,0,0,0-.48-.15c-.74,0-1.16.63-.93,3s.44,4.94.67,7.64c-3.27,0-6.53,0-9.8.08-.15-3-.29-5.71-.44-8.25a19.33,19.33,0,0,0-1.64-7.41,9.07,9.07,0,0,1,4.89-1.45c3.18-.07,5.19,1.09,5.38,4h.57c.56-2.61,2.58-4.15,5.71-4.23,3.41-.08,5.44,1.89,5.46,5.64,0,.85,0,1.71,0,2.59s.46,1.22,1.09,1.24a1.84,1.84,0,0,0,1-.28,7.84,7.84,0,0,1,.58,2.31,5.6,5.6,0,0,1-5.88,6.39C292.65,128.28,290.57,125.53,290.14,120.8Z" transform="translate(22.15 -76.44)"/>
    <path class="cls-3" d="M305.22,128.56a5.63,5.63,0,0,1,.39-2.81,11.7,11.7,0,0,0,4.47,1.31c3.81.26,5.16-1.6,4.34-5.23l-.29,0a4.42,4.42,0,0,1-4.85,3.87c-3.44-.18-6.38-3.05-6.84-7.88-.47-5,2.29-7.53,6.24-7.69a5.73,5.73,0,0,1,5.06,2.22h.57c.11-.65.21-1.3.31-1.94a12,12,0,0,1,3.31-.54c3.53-.13,5.18,1.33,6,4a5,5,0,0,1-1,2.23c.26,2.15.51,4.31.77,6.49.94,8-2.36,12.62-10.41,12.07C307.74,134.28,305.45,131.41,305.22,128.56Zm8.79-8.8c-.09-1.51-.19-3-.28-4.47-1.46,0-2.08,1-2,2.4a2.09,2.09,0,0,0,1.93,2.06Z" transform="translate(22.15 -76.44)"/>
  </g>
  <g>
    <path class="cls-4" d="M97.55,86.22A.4.4,0,0,1,98,85.8h.85a.4.4,0,0,0,.44-.28l3.29-8.47a.82.82,0,0,1,.78-.58h.13a.86.86,0,0,1,.79.56l3.24,8.49a.45.45,0,0,0,.42.28h1a.43.43,0,1,1,0,.85h-3.53a.43.43,0,1,1,0-.85h.93c.13,0,.25,0,.25-.17a1.2,1.2,0,0,0-.07-.19l-.9-2.34a.39.39,0,0,0-.38-.25h-3.66a.4.4,0,0,0-.38.27l-.93,2.38a.3.3,0,0,0,0,.12c0,.15.17.18.25.18h.9a.43.43,0,1,1,0,.85H98A.4.4,0,0,1,97.55,86.22ZM105,82.07c.12,0,.18,0,.18-.13a.39.39,0,0,0,0-.13l-1.6-4.31c0-.08-.07-.11-.1-.11s-.07,0-.1.1l-1.62,4.32a.39.39,0,0,0,0,.13c0,.08.06.13.16.13Z" transform="translate(22.15 -76.44)"/>
    <path class="cls-4" d="M109.67,86.24a.41.41,0,0,1,.41-.41h1.16c.12,0,.17,0,.17-.16V80.5a.18.18,0,0,0-.17-.17h-1.16a.4.4,0,0,1-.41-.4.41.41,0,0,1,.41-.41h1.78a.43.43,0,0,1,.43.42v.72s0,.08,0,.08a.11.11,0,0,0,.1-.06,3.46,3.46,0,0,1,2.63-1.1.47.47,0,0,0,.28-.08.57.57,0,0,1,.31-.08.4.4,0,0,1,.43.37l.16,1.48a3,3,0,0,1,0,.39.4.4,0,0,1-.44.39.41.41,0,0,1-.44-.39l-.11-.92c0-.18-.15-.26-.51-.26a2.39,2.39,0,0,0-2.47,2.14v3a.14.14,0,0,0,.16.16h1.66a.4.4,0,0,1,.4.41.39.39,0,0,1-.4.41h-4A.41.41,0,0,1,109.67,86.24Z" transform="translate(22.15 -76.44)"/>
    <path class="cls-4" d="M117.69,83.07a3.64,3.64,0,0,1,3.82-3.72,3.6,3.6,0,0,1,3.82,3.29c0,.46-.18.72-.71.72h-5.84c-.08,0-.13,0-.13.13,0,1.1,1.26,2.47,3.54,2.47a6.94,6.94,0,0,0,2.06-.28,1.75,1.75,0,0,1,.42-.08.37.37,0,0,1,.38.41c0,.18-.12.3-.36.41a6.75,6.75,0,0,1-2.67.39C119.27,86.81,117.69,85.27,117.69,83.07Zm6.51-.51c.11,0,.16,0,.16-.13a2.78,2.78,0,0,0-2.85-2.23,2.74,2.74,0,0,0-2.84,2.23c0,.08,0,.13.15.13Z" transform="translate(22.15 -76.44)"/>
    <path class="cls-4" d="M132.41,86.22a.39.39,0,0,1,.42-.42h1.26a.18.18,0,0,0,.2-.2v-8a.18.18,0,0,0-.2-.2h-1.26a.43.43,0,0,1,0-.85h3.7a.43.43,0,1,1,0,.85H135.4c-.13,0-.19.06-.19.2v3.3a.15.15,0,0,0,.14.15H141a.15.15,0,0,0,.15-.15v-3.3a.18.18,0,0,0-.2-.2h-1.13a.43.43,0,0,1,0-.85h3.7a.43.43,0,0,1,0,.85h-1.26a.18.18,0,0,0-.2.2v8a.18.18,0,0,0,.2.2h1.26a.43.43,0,0,1,0,.85h-3.7a.43.43,0,0,1,0-.85H141a.18.18,0,0,0,.2-.2V82.08a.15.15,0,0,0-.15-.14h-5.68a.14.14,0,0,0-.14.14V85.6c0,.13.06.2.19.2h1.13a.43.43,0,1,1,0,.85h-3.7A.39.39,0,0,1,132.41,86.22Z" transform="translate(22.15 -76.44)"/>
    <path class="cls-4" d="M145.15,84.56a2,2,0,0,1,1.18-1.94,11.83,11.83,0,0,1,3.68-.31h1c.12,0,.17,0,.17-.16,0-1.65-.72-2-2.34-2a8.88,8.88,0,0,0-2.08.3,4.57,4.57,0,0,1-.48.08.42.42,0,0,1-.42-.43.38.38,0,0,1,.33-.39,11.82,11.82,0,0,1,2.76-.38c2,0,3.11.64,3.11,2.67v3.65a.14.14,0,0,0,.16.16h1.16a.41.41,0,1,1,0,.82h-1.71c-.4,0-.48-.34-.48-1,0-.07,0-.1-.06-.1s-.12.06-.23.16a4.47,4.47,0,0,1-3,1.08C146.16,86.81,145.15,86,145.15,84.56Zm6-.77v-.53c0-.11-.05-.16-.17-.16a22,22,0,0,0-4.15.21,1.12,1.12,0,0,0-.82,1.18c0,1.05.74,1.52,1.88,1.52C149.57,86,151.19,85.27,151.19,83.79Z" transform="translate(22.15 -76.44)"/>
    <path class="cls-4" d="M157.76,86.34l-2.88-5.83a.35.35,0,0,0-.28-.18h-.83a.41.41,0,1,1,0-.81H157a.41.41,0,0,1,0,.81h-1c-.1,0-.15,0-.15.09a.32.32,0,0,0,0,.09l2.64,5.3s.06.09.09.09.07,0,.1-.09l2.6-5.25a.25.25,0,0,0,0-.11.12.12,0,0,0-.13-.12h-1a.41.41,0,1,1,0-.81h3.22a.41.41,0,1,1,0,.81h-.83a.4.4,0,0,0-.33.23l-2.85,5.78a.62.62,0,0,1-.59.39h-.47A.66.66,0,0,1,157.76,86.34Z" transform="translate(22.15 -76.44)"/>
    <path class="cls-4" d="M164.3,86.24a.39.39,0,0,1,.41-.41h1.16a.16.16,0,0,0,.17-.16V80.5a.18.18,0,0,0-.17-.17h-1.16a.4.4,0,0,1-.41-.4.41.41,0,0,1,.41-.41h1.79a.42.42,0,0,1,.42.41v5.74a.15.15,0,0,0,.16.16h1.17a.41.41,0,0,1,0,.82h-3.54A.39.39,0,0,1,164.3,86.24Zm1.26-9a.76.76,0,0,1,.77-.75.76.76,0,0,1,0,1.51A.76.76,0,0,1,165.56,77.19Z" transform="translate(22.15 -76.44)"/>
    <path class="cls-4" d="M179.6,86.24a.39.39,0,0,1-.41.41H176a.39.39,0,0,1-.41-.41.38.38,0,0,1,.41-.41h.85q.15,0,.15-.18V83.46c0-2-.25-3.29-2.44-3.29-1.45,0-2.78.84-2.78,1.88v3.6a.18.18,0,0,0,.17.18h1a.37.37,0,0,1,.41.41.38.38,0,0,1-.41.41h-3.39a.39.39,0,0,1-.41-.41.38.38,0,0,1,.41-.41h1.16a.17.17,0,0,0,.17-.18V80.5c0-.12,0-.17-.17-.17h-1.16a.4.4,0,0,1-.41-.4.41.41,0,0,1,.41-.41h1.8a.39.39,0,0,1,.41.41c0,.19,0,.44.12.44s.11-.05.18-.1a4.67,4.67,0,0,1,2.66-.92c3.14,0,3.14,2.46,3.14,4.11v2.19c0,.12,0,.18.18.18h1.15A.38.38,0,0,1,179.6,86.24Z" transform="translate(22.15 -76.44)"/>
    <path class="cls-4" d="M180.58,88.68a2.29,2.29,0,0,1,1.68-2.13c.07,0,.12,0,.12-.1a.19.19,0,0,0,0-.08,1,1,0,0,1-.26-.64.8.8,0,0,1,.29-.67c.07,0,.07-.06.07-.08s0-.06-.1-.1a2.48,2.48,0,0,1-1.6-2.55c0-2.22,1.53-3,3.84-3h.06a4.72,4.72,0,0,1,.64,0s.92,0,1.83,0l1.82,0a.43.43,0,0,1,.38.43.42.42,0,0,1-.38.42h-.62l-.61,0c-.05,0-.06,0-.06,0s0,.07.08.11a2.56,2.56,0,0,1,.77,2c0,2.24-1.54,3-3.85,3h-1.11c-.36,0-.52.21-.52.44s.23.53.69.53h1.16c2.58,0,3.78.7,3.78,2.25,0,1.79-1.26,2.6-4,2.6h-.06C181.84,91.11,180.58,90.35,180.58,88.68Zm4,1.63c1.71,0,3.08-.18,3.08-1.71,0-1.3-1.34-1.54-3.14-1.54s-3.08.06-3.08,1.54,1.31,1.71,3.08,1.71Zm0-5.85c1.75,0,2.93-.4,2.93-2.13s-1.18-2.13-2.93-2.13h-.06c-1.75,0-2.93.41-2.93,2.13s1.18,2.13,2.93,2.13Z" transform="translate(22.15 -76.44)"/>
    <path class="cls-4" d="M195.53,86.22a.39.39,0,0,1,.42-.42h.85a.42.42,0,0,0,.45-.28l3.28-8.47a.84.84,0,0,1,.79-.58h.13a.84.84,0,0,1,.78.56l3.24,8.49a.45.45,0,0,0,.43.28h1a.43.43,0,0,1,0,.85h-3.54a.43.43,0,0,1,0-.85h.93c.14,0,.25,0,.25-.17a.93.93,0,0,0-.06-.19l-.9-2.34a.39.39,0,0,0-.38-.25h-3.66a.39.39,0,0,0-.38.27l-.93,2.38a.3.3,0,0,0,0,.12c0,.15.16.18.25.18h.9a.43.43,0,0,1,0,.85H196A.39.39,0,0,1,195.53,86.22Zm7.41-4.15c.11,0,.18,0,.18-.13a.46.46,0,0,0,0-.13l-1.6-4.31c0-.08-.06-.11-.1-.11s-.06,0-.09.1l-1.62,4.32a.46.46,0,0,0,0,.13c0,.08.07.13.17.13Z" transform="translate(22.15 -76.44)"/>
  </g>
</svg>
