<svg id="Layer_1" data-name="Layer 1" xmlns="http://www.w3.org/2000/svg" viewBox="0 0 300 75">
  <defs>
    <style>
      .cls-1 {
        fill: #fee7d6;
      }

      .cls-2 {
        fill: #cce8f9;
      }
    </style>
  </defs>
  <g>
    <path class="cls-1" d="M8,47.18a1.31,1.31,0,0,1,1-1.62l2.85-.71a.49.49,0,0,0,.41-.65Q10,35,7.72,25.84c-.08-.32-.29-.44-.67-.34l-2.91.73a1.41,1.41,0,0,1-1.69-.92,1.4,1.4,0,0,1,1.13-1.64q6.3-1.61,12.63-3.06c5.52-1.28,9.55,1.1,10.48,5.46S25,34,19.68,35.23c-1.89.43-3.78.88-5.66,1.33-.34.08-.47.28-.4.56l1.54,6.37c.09.36.29.47.67.38l3-.72a1.29,1.29,0,0,1,1.7,1,1.25,1.25,0,0,1-1.06,1.59q-4.9,1.16-9.79,2.4A1.31,1.31,0,0,1,8,47.18ZM19,32.64c3.37-.78,5.22-3,4.59-5.9s-3.34-4.34-6.78-3.55q-2.87.66-5.73,1.35c-.35.09-.48.29-.41.57l2.06,8.51a.45.45,0,0,0,.62.36C15.27,33.52,17.15,33.08,19,32.64Z"/>
    <path class="cls-1" d="M32,33.77c-1.25-5.88,3.16-10.2,8.35-11.18,5.62-1.07,10.71,1.76,11.52,6.56.2,1.13-.18,1.73-1.44,2Q43,32.4,35.66,33.9a.31.31,0,0,0-.27.39c.47,2.29,4,4.81,9.55,3.76a20.41,20.41,0,0,0,5-1.58,6.18,6.18,0,0,1,1.18-.41,1.21,1.21,0,0,1,1.47,1.07c.1.56-.2,1-.9,1.44a22.67,22.67,0,0,1-6.82,2.16C38,42,33.14,39.19,32,33.77Zm16.14-4.54c.25-.05.35-.19.32-.39-.16-.89-2.62-4.62-7.7-3.66-5.68,1.09-6,5.86-5.91,6.25,0,.2.19.3.45.25Q41.71,30.38,48.14,29.23Z"/>
    <path class="cls-1" d="M56.78,36.91a1.24,1.24,0,0,1,1.09-1.46L60.58,35c.34,0,.44-.24.39-.56Q60,28.63,59.12,22.81a.43.43,0,0,0-.54-.41l-2.78.44a1.29,1.29,0,0,1-1.54-1,1.27,1.27,0,0,1,1.13-1.47l4.72-.76a1.37,1.37,0,0,1,1.7,1.07L62,22.1c0,.13.07.2.11.19a.34.34,0,0,0,.28-.2,8.66,8.66,0,0,1,6.17-3.64,1.64,1.64,0,0,0,.83-.33,2.09,2.09,0,0,1,.88-.32,1.22,1.22,0,0,1,1.46,1c.27,1.07.55,2.15.83,3.23a4.94,4.94,0,0,1,.26,1,1.46,1.46,0,0,1-2.83.55l-.54-1.95c-.1-.4-.47-.55-1.28-.44A6,6,0,0,0,62.94,28l.93,6a.42.42,0,0,0,.52.38l4.15-.62a1.3,1.3,0,0,1,1.52,1.06,1.28,1.28,0,0,1-1.15,1.45q-5.32.78-10.63,1.64A1.24,1.24,0,0,1,56.78,36.91Z"/>
    <path class="cls-1" d="M77.43,33.86a1.24,1.24,0,0,1,1.14-1.42l2.73-.34c.34-.05.44-.22.4-.55l-1.42-11.7a.43.43,0,0,0-.53-.43L77,19.76a1.28,1.28,0,0,1-1.49-1.08,1.26,1.26,0,0,1,1.17-1.43l4.74-.59A1.38,1.38,0,0,1,83,17.79l.17,1.46c0,.12.07.2.11.19a.31.31,0,0,0,.28-.19,8.7,8.7,0,0,1,6.3-3.41,1.66,1.66,0,0,0,.84-.3,2,2,0,0,1,.88-.29c.74-.08,1.21.25,1.42,1.09l.72,3.26a5.35,5.35,0,0,1,.22,1,1.46,1.46,0,0,1-2.85.45c-.15-.66-.31-1.31-.46-2-.09-.4-.45-.57-1.27-.49a6,6,0,0,0-5.5,6.59c.24,2,.47,4,.71,6.06a.42.42,0,0,0,.51.39l4.17-.47a1.3,1.3,0,0,1,1.47,1.12,1.28,1.28,0,0,1-1.2,1.41q-5.34.57-10.67,1.25A1.25,1.25,0,0,1,77.43,33.86Z"/>
    <path class="cls-1" d="M101.26,42.13a1.21,1.21,0,0,1,1.17-1.38l2.93-.25a.77.77,0,0,0,.71-.55q1.47-3.53,3-7a1.49,1.49,0,0,0,.16-.67.56.56,0,0,0-.32-.43,1.24,1.24,0,0,1-.46-.46q-4.2-6.78-8.59-13.51a1,1,0,0,0-.9-.45l-2.11.19a1.28,1.28,0,1,1-.24-2.53c2.93-.27,5.85-.52,8.78-.75a1.33,1.33,0,0,1,1.48,1.16,1.3,1.3,0,0,1-1.2,1.33L103.4,17c-.21.06-.29.15-.28.31a.93.93,0,0,0,.07.29q3.54,5.49,7,11c.14.15.27.27.44.26a.62.62,0,0,0,.32-.31q2.61-6,5.35-11.88a2,2,0,0,0,.07-.33c0-.17-.11-.24-.37-.27l-2.33.15a1.24,1.24,0,0,1-1.33-1.15,1.29,1.29,0,0,1,1.26-1.35c2.89-.19,5.77-.35,8.66-.49a1.27,1.27,0,1,1,.13,2.53l-2.07.11a1.11,1.11,0,0,0-.92.7Q114,28,109.16,39.51a1.3,1.3,0,0,0-.13.5c0,.12.1.2.26.19l2.07-.15a1.27,1.27,0,1,1,.18,2.53c-3,.21-5.93.44-8.89.7A1.19,1.19,0,0,1,101.26,42.13Z"/>
    <path class="cls-1" d="M141.56,24.05c-.08-4,4.05-5.91,6-6.82.17-.09.26-.17.26-.29a.37.37,0,0,0-.18-.29c-.9-.77-3-2.51-3.07-5.5,0-3.56,3.43-6.06,8-6.05,4.26,0,7.44,2.43,7.38,6-.05,3.27-3,4.66-6.15,6.09-.18.08-.22.16-.22.28a.39.39,0,0,0,.13.21c2,1.64,4,3.3,5.9,5,.22.17.3.21.39.21s.25-.08.55-.36c.87-.76,2.13-2,2.83-2.61a.63.63,0,0,0,.22-.4c0-.13-.12-.25-.38-.26l-1.93-.07a1.22,1.22,0,0,1-1.09-1.21,1.3,1.3,0,0,1,1.31-1.21l5.89.13a1.25,1.25,0,0,1,1.26,1.31,1.46,1.46,0,0,1-.63,1.13c-1.07,1-4.73,4.14-5.72,5.06a.43.43,0,0,0-.21.25.19.19,0,0,0,.12.2l3.2,2.81c.37.34.79.43,2,.47l1.14,0a1.27,1.27,0,1,1-.07,2.53q-3.09-.09-6.18-.14a1.31,1.31,0,0,1-1.29-1.3v-.53c0-.57,0-.73-.28-1l-1-.79a.39.39,0,0,0-.25-.17.86.86,0,0,0-.47.24c-2.57,1.94-5.64,3.79-9.3,3.8C145.21,30.7,141.63,27.9,141.56,24.05ZM157,25.3c.3-.16.47-.28.47-.4s-.12-.21-.21-.29q-3.24-2.79-6.55-5.55c-.3-.25-.38-.29-.51-.29a1.51,1.51,0,0,0-.56.21c-2.95,1.44-4.9,2.65-4.87,4.95s2.41,4.18,5.37,4.17C152.35,28.1,154.46,27,157,25.3Zm-5.38-9.81c4.4-2,5.42-2.75,5.43-4.43,0-2.09-1.89-3.54-4.47-3.55-2.8,0-4.72,1.53-4.7,3.61,0,1.81,1.75,3.23,3,4.21a.77.77,0,0,0,.52.25A.58.58,0,0,0,151.64,15.49Z"/>
    <path class="cls-1" d="M185.81,30.06a1.27,1.27,0,0,1,1.47-1.22l2.11.13a1,1,0,0,0,1.14-.58q5-10,10.22-20a2.21,2.21,0,0,1,2.31-1.29l.48,0a2.33,2.33,0,0,1,2.11,1.63Q209,19.5,212.12,30.26a1.13,1.13,0,0,0,1,.77l2.31.25a1.27,1.27,0,0,1,1.2,1.45,1.31,1.31,0,0,1-1.57,1.14q-4.44-.49-8.89-.91a1.32,1.32,0,0,1-1.3-1.44,1.28,1.28,0,0,1,1.51-1.18l1.94.19c.33,0,.64-.06.67-.38a1.76,1.76,0,0,0-.12-.51c-.48-1.69-1-3.39-1.46-5.08a1,1,0,0,0-.84-.65c-3.18-.31-6.36-.58-9.55-.83a1,1,0,0,0-1,.54c-.81,1.62-1.61,3.25-2.41,4.87a.57.57,0,0,0-.06.28c0,.37.34.52.59.54l1.9.14a1.25,1.25,0,0,1,1.25,1.41,1.28,1.28,0,0,1-1.49,1.2q-4.35-.33-8.69-.6A1.31,1.31,0,0,1,185.81,30.06Zm20-8.61c.25,0,.47,0,.5-.28a1.88,1.88,0,0,0-.06-.34q-1.49-5.07-3-10.14c-.07-.21-.15-.3-.24-.31s-.23.07-.28.23q-2.44,4.74-4.83,9.5a1.1,1.1,0,0,0-.11.32c0,.2.19.34.4.36C200.73,21,203.29,21.21,205.84,21.45Z"/>
    <path class="cls-1" d="M244.82,36.67a1.24,1.24,0,0,1-1.54,1c-2.72-.44-5.45-.86-8.17-1.26a1.27,1.27,0,1,1,.37-2.51l1.76.26c.25,0,.44-.1.49-.42.26-1.72.51-3.43.77-5.14.68-4.49.47-7.44-4.89-8.2-3.44-.49-7.05.79-7.38,3.39l-1,8.2a.48.48,0,0,0,.4.55l2.18.28a1.27,1.27,0,1,1-.33,2.52q-4.35-.59-8.7-1.09a1.27,1.27,0,1,1,.3-2.52c.91.11,1.82.21,2.73.33a.46.46,0,0,0,.52-.44q.72-5.86,1.45-11.74c0-.32,0-.46-.42-.5l-2.79-.34a1.27,1.27,0,1,1,.29-2.52c1.69.2,3.37.4,5.05.62a1.07,1.07,0,0,1,1.06,1.25c0,.44-.08,1,.18,1a1,1,0,0,0,.5-.18,11.81,11.81,0,0,1,7.19-1.3c7.63,1.1,7.28,6.72,6.58,11.2-.26,1.67-.52,3.34-.79,5a.49.49,0,0,0,.47.62l2.63.41A1.24,1.24,0,0,1,244.82,36.67Z"/>
    <path class="cls-1" d="M273.26,42.07a1.24,1.24,0,0,1-1.59,1q-4.05-.87-8.11-1.67a1.21,1.21,0,0,1-1-1.5,1.19,1.19,0,0,1,1.53-1l1.75.35c.25.05.45-.08.51-.4q.53-2.55,1-5.1c.91-4.45.84-7.4-4.49-8.43-3.41-.66-7.09.43-7.55,3s-1,5.42-1.46,8.14a.47.47,0,0,0,.38.56l2.17.4a1.27,1.27,0,1,1-.46,2.5c-2.88-.53-5.77-1-8.65-1.53a1.22,1.22,0,0,1-1.08-1.47,1.21,1.21,0,0,1,1.5-1l2.72.46a.45.45,0,0,0,.54-.4l2-11.66c.06-.32,0-.46-.39-.52l-2.78-.48a1.27,1.27,0,1,1,.43-2.5q2.5.42,5,.87a1.08,1.08,0,0,1,1,1.3c-.08.44-.13,1,.12,1a1.16,1.16,0,0,0,.52-.16,11.88,11.88,0,0,1,7.25-.93c7.58,1.48,6.95,7.08,6,11.52-.35,1.65-.69,3.31-1,5a.49.49,0,0,0,.44.63l2.61.55A1.24,1.24,0,0,1,273.26,42.07Z"/>
    <path class="cls-1" d="M277.11,35.07c1.27-5.88,7.06-8,12.22-6.77,5.58,1.32,9.07,6,7.85,10.71-.29,1.11-.88,1.51-2.13,1.19q-7.31-1.85-14.65-3.51a.31.31,0,0,0-.41.24c-.51,2.28,1.7,6,7.18,7.35a20.83,20.83,0,0,0,5.24.62,6.72,6.72,0,0,1,1.25.1,1.23,1.23,0,0,1,.92,1.59c-.15.55-.62.85-1.43.94A23,23,0,0,1,286,46.7C279.21,45.07,275.93,40.48,277.11,35.07Zm16.61,2.47c.26.07.41,0,.46-.22.22-.87-.5-5.29-5.55-6.5-5.64-1.33-7.87,2.89-8,3.28,0,.2.06.35.31.41Q287.37,36,293.72,37.54Z"/>
  </g>
  <g>
    <path class="cls-2" d="M8,45.15a1.3,1.3,0,0,1,1-1.61l2.85-.72a.48.48,0,0,0,.41-.65L7.72,23.81c-.08-.32-.29-.43-.67-.34l-2.91.73a1.39,1.39,0,0,1-1.69-.92,1.41,1.41,0,0,1,1.13-1.64Q9.88,20,16.21,18.58c5.52-1.27,9.55,1.1,10.48,5.46S25,32,19.68,33.2q-2.84.64-5.66,1.34c-.34.08-.47.28-.4.55l1.54,6.37c.09.36.29.48.67.39,1-.25,2-.49,3-.72a1.29,1.29,0,0,1,1.7.94,1.27,1.27,0,0,1-1.06,1.6q-4.9,1.15-9.79,2.39A1.3,1.3,0,0,1,8,45.15ZM19,30.62c3.37-.78,5.22-3,4.59-5.91s-3.34-4.34-6.78-3.55c-1.91.44-3.82.9-5.73,1.36-.35.08-.48.28-.41.56l2.06,8.51a.45.45,0,0,0,.62.36Q16.21,31.26,19,30.62Z"/>
    <path class="cls-2" d="M32,31.75c-1.25-5.89,3.16-10.2,8.35-11.19,5.62-1.07,10.71,1.76,11.52,6.56.2,1.13-.18,1.74-1.44,2q-7.4,1.3-14.77,2.79a.31.31,0,0,0-.27.39c.47,2.29,4,4.81,9.55,3.77a20.77,20.77,0,0,0,5-1.59A7,7,0,0,1,51.13,34,1.21,1.21,0,0,1,52.6,35.1c.1.56-.2,1-.9,1.45a23.11,23.11,0,0,1-6.82,2.15C38,40,33.14,37.16,32,31.75ZM48.14,27.2c.25-.05.35-.19.32-.39-.16-.88-2.62-4.62-7.7-3.66-5.68,1.09-6,5.86-5.91,6.25,0,.21.19.3.45.25Q41.71,28.35,48.14,27.2Z"/>
    <path class="cls-2" d="M56.78,34.89a1.24,1.24,0,0,1,1.09-1.47L60.58,33c.34,0,.44-.23.39-.56Q60,26.6,59.12,20.78a.44.44,0,0,0-.54-.41l-2.78.45a1.31,1.31,0,0,1-1.54-1,1.27,1.27,0,0,1,1.13-1.47c1.57-.26,3.15-.51,4.72-.75a1.36,1.36,0,0,1,1.7,1.06L62,20.08c0,.12.07.19.11.19a.35.35,0,0,0,.28-.21,8.69,8.69,0,0,1,6.17-3.64,1.64,1.64,0,0,0,.83-.32,2.1,2.1,0,0,1,.88-.33,1.23,1.23,0,0,1,1.46,1c.27,1.08.55,2.16.83,3.23a5.29,5.29,0,0,1,.26,1,1.34,1.34,0,0,1-1.27,1.5A1.32,1.32,0,0,1,70,21.6l-.54-2c-.1-.39-.47-.55-1.28-.43A6,6,0,0,0,62.94,26l.93,6a.41.41,0,0,0,.52.38l4.15-.62a1.31,1.31,0,0,1,1.52,1.07,1.27,1.27,0,0,1-1.15,1.44q-5.32.78-10.63,1.65A1.25,1.25,0,0,1,56.78,34.89Z"/>
    <path class="cls-2" d="M77.43,31.83a1.24,1.24,0,0,1,1.14-1.42l2.73-.34c.34,0,.44-.22.4-.55l-1.42-11.7a.44.44,0,0,0-.53-.43L77,17.74a1.29,1.29,0,0,1-1.49-1.09,1.26,1.26,0,0,1,1.17-1.43c1.58-.2,3.16-.4,4.74-.58A1.36,1.36,0,0,1,83,15.76l.17,1.46c0,.13.07.2.11.2a.34.34,0,0,0,.28-.2,8.73,8.73,0,0,1,6.3-3.41,1.76,1.76,0,0,0,.84-.29,2,2,0,0,1,.88-.3c.74-.08,1.21.25,1.42,1.09l.72,3.26a5.35,5.35,0,0,1,.22,1,1.46,1.46,0,0,1-2.85.45c-.15-.66-.31-1.31-.46-2-.09-.4-.45-.57-1.27-.48a6,6,0,0,0-5.5,6.58c.24,2,.47,4,.71,6.06a.41.41,0,0,0,.51.39l4.17-.46a1.3,1.3,0,0,1,1.47,1.12,1.27,1.27,0,0,1-1.2,1.4c-3.56.39-7.12.8-10.67,1.26A1.26,1.26,0,0,1,77.43,31.83Z"/>
    <path class="cls-2" d="M101.26,40.1a1.21,1.21,0,0,1,1.17-1.38l2.93-.24a.78.78,0,0,0,.71-.55q1.47-3.52,3-7a1.47,1.47,0,0,0,.16-.67c0-.2-.15-.31-.32-.42a1.33,1.33,0,0,1-.46-.46q-4.2-6.79-8.59-13.52a1.06,1.06,0,0,0-.9-.45l-2.11.19A1.27,1.27,0,1,1,96.58,13c2.93-.28,5.85-.53,8.78-.75a1.25,1.25,0,1,1,.28,2.48l-2.24.18c-.21.06-.29.14-.28.31a.94.94,0,0,0,.07.28q3.54,5.51,7,11c.14.16.27.27.44.26a.58.58,0,0,0,.32-.31q2.61-6,5.35-11.88a1.79,1.79,0,0,0,.07-.33c0-.16-.11-.24-.37-.26l-2.33.14a1.23,1.23,0,0,1-1.33-1.14,1.29,1.29,0,0,1,1.26-1.36c2.89-.18,5.77-.35,8.66-.49a1.27,1.27,0,1,1,.13,2.54l-2.07.1a1.12,1.12,0,0,0-.92.71Q114,26,109.16,37.48A1.29,1.29,0,0,0,109,38c0,.12.1.19.26.18l2.07-.15a1.24,1.24,0,0,1,1.41,1.17,1.22,1.22,0,0,1-1.23,1.36c-3,.21-5.93.45-8.89.7A1.19,1.19,0,0,1,101.26,40.1Z"/>
    <path class="cls-2" d="M141.56,22c-.08-4,4.05-5.92,6-6.83.17-.08.26-.17.26-.29a.35.35,0,0,0-.18-.28c-.9-.78-3-2.52-3.07-5.5,0-3.56,3.43-6.07,8-6.06,4.26,0,7.44,2.43,7.38,5.95-.05,3.28-3,4.67-6.15,6.09-.18.08-.22.16-.22.28a.33.33,0,0,0,.13.21c2,1.64,4,3.3,5.9,5,.22.17.3.21.39.21s.25-.07.55-.36c.87-.76,2.13-2,2.83-2.61a.63.63,0,0,0,.22-.4c0-.12-.12-.25-.38-.26l-1.93-.07a1.22,1.22,0,0,1-1.09-1.21,1.28,1.28,0,0,1,1.31-1.2c2,0,3.93.07,5.89.13a1.24,1.24,0,0,1,1.26,1.3,1.46,1.46,0,0,1-.63,1.13c-1.07,1-4.73,4.14-5.72,5.07a.45.45,0,0,0-.21.24.21.21,0,0,0,.12.21l3.2,2.81c.37.33.79.43,2,.46l1.14,0a1.27,1.27,0,0,1-.07,2.54q-3.09-.09-6.18-.15A1.3,1.3,0,0,1,161,27.14V26.6c0-.57,0-.73-.28-1l-1-.8a.36.36,0,0,0-.25-.16c-.13,0-.26.08-.47.24-2.57,1.93-5.64,3.79-9.3,3.8C145.21,28.67,141.63,25.88,141.56,22ZM157,23.28c.3-.16.47-.28.47-.41s-.12-.2-.21-.29Q154,19.79,150.73,17c-.3-.25-.38-.29-.51-.29a1.73,1.73,0,0,0-.56.21c-2.95,1.44-4.9,2.66-4.87,4.95s2.41,4.18,5.37,4.18C152.35,26.07,154.46,24.93,157,23.28Zm-5.38-9.81c4.4-2,5.42-2.76,5.43-4.44,0-2.09-1.89-3.54-4.47-3.55-2.8,0-4.72,1.53-4.7,3.62,0,1.8,1.75,3.22,3,4.2a.73.73,0,0,0,.52.25A.7.7,0,0,0,151.64,13.47Z"/>
    <path class="cls-2" d="M185.81,28a1.27,1.27,0,0,1,1.47-1.23l2.11.14a1.06,1.06,0,0,0,1.14-.58q5-10,10.22-20a2.19,2.19,0,0,1,2.31-1.28l.48,0a2.32,2.32,0,0,1,2.11,1.62q3.39,10.73,6.47,21.49a1.11,1.11,0,0,0,1,.77l2.31.25a1.27,1.27,0,0,1,1.2,1.45,1.32,1.32,0,0,1-1.57,1.15q-4.44-.5-8.89-.92a1.32,1.32,0,0,1-1.3-1.44,1.28,1.28,0,0,1,1.51-1.17l1.94.18c.33,0,.64-.06.67-.38a1.91,1.91,0,0,0-.12-.51q-.72-2.53-1.46-5.08a1,1,0,0,0-.84-.65q-4.77-.45-9.55-.83a1,1,0,0,0-1,.54l-2.41,4.87a.58.58,0,0,0-.06.29c0,.36.34.51.59.53l1.9.15a1.24,1.24,0,0,1,1.25,1.41,1.29,1.29,0,0,1-1.49,1.2q-4.35-.34-8.69-.61A1.31,1.31,0,0,1,185.81,28Zm20-8.62c.25,0,.47,0,.5-.28a1.66,1.66,0,0,0-.06-.33q-1.49-5.08-3-10.14c-.07-.22-.15-.3-.24-.31a.26.26,0,0,0-.28.22q-2.44,4.74-4.83,9.5a1.1,1.1,0,0,0-.11.32c0,.21.19.34.4.36C200.73,19,203.29,19.19,205.84,19.42Z"/>
    <path class="cls-2" d="M244.82,34.65a1.24,1.24,0,0,1-1.54,1c-2.72-.44-5.45-.86-8.17-1.26a1.27,1.27,0,1,1,.37-2.51l1.76.26c.25,0,.44-.1.49-.42.26-1.71.51-3.43.77-5.14.68-4.49.47-7.44-4.89-8.2-3.44-.48-7.05.79-7.38,3.39l-1,8.2a.47.47,0,0,0,.4.55l2.18.28a1.27,1.27,0,1,1-.33,2.52c-2.9-.38-5.8-.75-8.7-1.09a1.27,1.27,0,1,1,.3-2.52l2.73.33a.46.46,0,0,0,.52-.43q.72-5.88,1.45-11.74c0-.33,0-.46-.42-.51l-2.79-.33a1.28,1.28,0,1,1,.29-2.53l5.05.62a1.07,1.07,0,0,1,1.06,1.25c0,.45-.08,1,.18,1a1,1,0,0,0,.5-.18,11.89,11.89,0,0,1,7.19-1.3c7.63,1.1,7.28,6.72,6.58,11.2-.26,1.67-.52,3.35-.79,5a.49.49,0,0,0,.47.61l2.63.42A1.24,1.24,0,0,1,244.82,34.65Z"/>
    <path class="cls-2" d="M273.26,40a1.24,1.24,0,0,1-1.59,1c-2.7-.58-5.4-1.13-8.11-1.67a1.27,1.27,0,1,1,.49-2.49l1.75.35c.25.05.45-.08.51-.4q.53-2.55,1-5.09c.91-4.45.84-7.41-4.49-8.44-3.41-.66-7.09.43-7.55,3s-1,5.43-1.46,8.14a.49.49,0,0,0,.38.57l2.17.39a1.27,1.27,0,1,1-.46,2.5c-2.88-.53-5.77-1-8.65-1.53a1.27,1.27,0,1,1,.42-2.5l2.72.46a.44.44,0,0,0,.54-.4l2-11.65c.06-.33,0-.46-.39-.53l-2.78-.48a1.27,1.27,0,1,1,.43-2.5q2.5.42,5,.87a1.09,1.09,0,0,1,1,1.3c-.08.45-.13,1,.12,1a1,1,0,0,0,.52-.15,11.81,11.81,0,0,1,7.25-.94c7.58,1.49,6.95,7.08,6,11.52-.35,1.66-.69,3.31-1,5a.48.48,0,0,0,.44.63l2.61.56A1.23,1.23,0,0,1,273.26,40Z"/>
    <path class="cls-2" d="M277.11,33c1.27-5.88,7.06-8,12.22-6.77,5.58,1.33,9.07,6,7.85,10.71-.29,1.11-.88,1.51-2.13,1.19q-7.31-1.85-14.65-3.51a.31.31,0,0,0-.41.24c-.51,2.28,1.7,6,7.18,7.36a21.19,21.19,0,0,0,5.24.61,7.74,7.74,0,0,1,1.25.1,1.24,1.24,0,0,1,.92,1.59c-.15.55-.62.85-1.43.95a22.85,22.85,0,0,1-7.12-.84C279.21,43,275.93,38.45,277.11,33Zm16.61,2.48c.26.06.41,0,.46-.23.22-.86-.5-5.29-5.55-6.49-5.64-1.34-7.87,2.88-8,3.28,0,.2.06.34.31.4Q287.37,33.94,293.72,35.52Z"/>
  </g>
  <g>
    <path class="cls-2" d="M83.5,56.48a1.63,1.63,0,0,1,.92-1.55,7.73,7.73,0,0,1,2.7-.28h1.09c.08,0,.12,0,.12-.12,0-1.25-.58-1.48-1.84-1.48a7.32,7.32,0,0,0-1.6.21,3.16,3.16,0,0,1-.42.07.4.4,0,0,1-.41-.41.36.36,0,0,1,.29-.38,9.39,9.39,0,0,1,2.23-.31c1.74,0,2.68.51,2.68,2.26v2.75c0,.11,0,.15.15.15h.86a.42.42,0,0,1,0,.83H88.8c-.27,0-.4-.22-.43-.75,0-.05,0-.08-.05-.08s-.11.06-.2.14a3.83,3.83,0,0,1-2.38.83C84.3,58.35,83.5,57.6,83.5,56.48Zm4.83-.58v-.4c0-.08,0-.12-.12-.12a17.3,17.3,0,0,0-3,.15.85.85,0,0,0-.75.91c0,.75.53,1.13,1.39,1.13C87.07,57.57,88.33,57,88.33,55.9Z"/>
    <path class="cls-2" d="M91.14,57.8a.4.4,0,0,1,.42-.42h.87c.11,0,.15-.05.15-.16V53.35a.14.14,0,0,0-.15-.16h-.87a.42.42,0,0,1-.42-.42.4.4,0,0,1,.42-.42H93a.44.44,0,0,1,.47.43v.49s0,.06,0,.06a.11.11,0,0,0,.1,0,2.66,2.66,0,0,1,2.05-.89.47.47,0,0,0,.27-.06.65.65,0,0,1,.29-.07c.22,0,.36.12.4.4l.12,1.09a1.69,1.69,0,0,1,0,.34.45.45,0,0,1-.9,0l-.08-.66c0-.13-.12-.2-.38-.2a1.93,1.93,0,0,0-1.93,1.95v2c0,.1,0,.15.14.15H95a.42.42,0,0,1,.43.42.41.41,0,0,1-.43.41H91.56A.4.4,0,0,1,91.14,57.8Z"/>
    <path class="cls-2" d="M97.9,55.28a3.06,3.06,0,0,1,3.23-3.06,3,3,0,0,1,3.16,2.8c0,.37-.15.55-.55.55H99a.1.1,0,0,0-.11.1c0,.77.94,1.82,2.73,1.82a5.81,5.81,0,0,0,1.65-.22,2.05,2.05,0,0,1,.39-.06.4.4,0,0,1,.41.43c0,.19-.12.32-.37.41a6.49,6.49,0,0,1-2.25.3C99.23,58.35,97.9,57.1,97.9,55.28Zm5.23-.45c.08,0,.12,0,.12-.11a2.1,2.1,0,0,0-2.15-1.64,2.07,2.07,0,0,0-2.17,1.64c0,.07,0,.11.12.11Z"/>
    <path class="cls-2" d="M110.45,60a1.8,1.8,0,0,1,1.33-1.7s.09,0,.09-.08a.11.11,0,0,0,0-.08.75.75,0,0,1-.23-.53.71.71,0,0,1,.3-.61s0-.05,0-.08,0,0-.08-.08a2.08,2.08,0,0,1-1.3-2.1c0-1.78,1.28-2.47,3.18-2.47h.06a6.58,6.58,0,0,1,.74,0H116l1.45,0a.41.41,0,0,1,0,.82h-1c-.06,0-.08,0-.08,0s0,0,0,.08a2,2,0,0,1,.58,1.53c0,1.83-1.31,2.42-3.19,2.42H113c-.3,0-.43.16-.43.37s.17.4.56.4h1c2.12,0,3.14.55,3.14,1.85,0,1.58-1.23,2.15-3.41,2.15h0C111.59,61.88,110.45,61.33,110.45,60Zm3.36,1.17c1.29,0,2.48-.11,2.48-1.31,0-1-1-1.19-2.51-1.19s-2.38.09-2.38,1.19,1,1.31,2.35,1.31Zm.07-4.79c1.34,0,2.23-.32,2.23-1.65s-.9-1.65-2.23-1.65h-.13c-1.35,0-2.24.35-2.24,1.65s.89,1.65,2.24,1.65Z"/>
    <path class="cls-2" d="M118.85,55.28a3.06,3.06,0,0,1,3.23-3.06,3,3,0,0,1,3.16,2.8c0,.37-.15.55-.56.55H120c-.06,0-.11,0-.11.1,0,.77.94,1.82,2.73,1.82a5.87,5.87,0,0,0,1.65-.22,2.05,2.05,0,0,1,.39-.06.4.4,0,0,1,.4.43c0,.19-.12.32-.36.41a6.57,6.57,0,0,1-2.26.3C120.18,58.35,118.85,57.1,118.85,55.28Zm5.23-.45c.08,0,.12,0,.12-.11a2.25,2.25,0,0,0-4.33,0c0,.07,0,.11.12.11Z"/>
    <path class="cls-2" d="M127.54,56.21V53.35a.16.16,0,0,0-.17-.16h-.78a.42.42,0,0,1,0-.84h.78c.1,0,.17-.05.17-.14v-1a.44.44,0,0,1,.45-.46.45.45,0,0,1,.46.46v1c0,.09.05.14.15.14H131a.42.42,0,0,1,0,.84h-2.4a.14.14,0,0,0-.15.16v2.79c0,1.15.58,1.3,1.12,1.3a3.5,3.5,0,0,0,1-.15,2,2,0,0,1,.52-.12.41.41,0,0,1,.41.4.45.45,0,0,1-.33.44,4.13,4.13,0,0,1-1.5.29A1.85,1.85,0,0,1,127.54,56.21Z"/>
    <path class="cls-2" d="M133.61,56.21V53.35a.15.15,0,0,0-.16-.16h-.78a.42.42,0,0,1,0-.84h.78c.1,0,.16-.05.16-.14v-1a.45.45,0,0,1,.46-.46.45.45,0,0,1,.46.46v1a.13.13,0,0,0,.14.14h2.41a.42.42,0,0,1,0,.84h-2.41c-.09,0-.14.06-.14.16v2.79c0,1.15.57,1.3,1.11,1.3a3.51,3.51,0,0,0,1-.15,1.92,1.92,0,0,1,.52-.12.4.4,0,0,1,.4.4.44.44,0,0,1-.32.44,4.13,4.13,0,0,1-1.5.29A1.85,1.85,0,0,1,133.61,56.21Z"/>
    <path class="cls-2" d="M138.43,57.8a.4.4,0,0,1,.41-.42h.93a.14.14,0,0,0,.16-.15v-3.9a.15.15,0,0,0-.16-.14h-.91a.42.42,0,1,1,0-.84h1.54a.42.42,0,0,1,.45.42v4.46a.13.13,0,0,0,.14.15h.92a.42.42,0,1,1,0,.83h-3.07A.39.39,0,0,1,138.43,57.8Zm1.1-7.41a.71.71,0,1,1,.71.71A.7.7,0,0,1,139.53,50.39Z"/>
    <path class="cls-2" d="M151.55,57.8a.4.4,0,0,1-.43.41h-2.64a.42.42,0,1,1,0-.83h.57c.08,0,.13-.05.13-.16V55.51c0-1.49-.2-2.43-1.88-2.43-1.08,0-2.14.56-2.14,1.42v2.72a.16.16,0,0,0,.15.16h.7a.42.42,0,0,1,0,.83h-2.8a.42.42,0,0,1,0-.83h.88a.14.14,0,0,0,.14-.16V53.33c0-.1,0-.14-.14-.14h-.88a.42.42,0,0,1,0-.84h1.58a.34.34,0,0,1,.37.37c0,.14,0,.32.09.32a.28.28,0,0,0,.15-.08,3.59,3.59,0,0,1,2.15-.74c2.38,0,2.54,1.83,2.54,3.32v1.67a.16.16,0,0,0,.18.17h.85A.4.4,0,0,1,151.55,57.8Z"/>
    <path class="cls-2" d="M152.33,60a1.8,1.8,0,0,1,1.33-1.7c.05,0,.09,0,.09-.08a.11.11,0,0,0,0-.08.75.75,0,0,1-.23-.53.71.71,0,0,1,.3-.61s.05-.05.05-.08,0,0-.08-.08a2.08,2.08,0,0,1-1.3-2.1c0-1.78,1.28-2.47,3.18-2.47h.06a6.58,6.58,0,0,1,.74,0h1.46l1.45,0a.41.41,0,0,1,0,.82h-1c-.06,0-.08,0-.08,0s0,0,0,.08a2,2,0,0,1,.58,1.53c0,1.83-1.31,2.42-3.19,2.42h-.87c-.3,0-.43.16-.43.37s.17.4.56.4h1c2.12,0,3.14.55,3.14,1.85,0,1.58-1.23,2.15-3.41,2.15h0C153.47,61.88,152.33,61.33,152.33,60Zm3.36,1.17c1.29,0,2.48-.11,2.48-1.31,0-1-1-1.19-2.51-1.19s-2.38.09-2.38,1.19,1.05,1.31,2.35,1.31Zm.06-4.79c1.35,0,2.24-.32,2.24-1.65s-.9-1.65-2.24-1.65h-.12c-1.35,0-2.24.35-2.24,1.65s.89,1.65,2.24,1.65Z"/>
    <path class="cls-2" d="M165.22,57.8a.39.39,0,0,1,.42-.42h.87c.11,0,.15,0,.15-.15v-3.9c0-.09,0-.14-.15-.14h-.86a.42.42,0,1,1,0-.84h1.53a.37.37,0,0,1,.42.35c0,.18,0,.33.09.33s.11-.06.18-.12a2.13,2.13,0,0,1,1.6-.69,2,2,0,0,1,1.85,1s.06.07.08.07.07,0,.1,0a2.62,2.62,0,0,1,2-1c2.09,0,2.28,1.83,2.28,3.24v1.76a.14.14,0,0,0,.16.16h.86a.42.42,0,1,1,0,.83H174.2a.42.42,0,1,1,0-.83h.55c.11,0,.15,0,.15-.15V55.49c0-1.48-.18-2.38-1.45-2.38-1.55,0-1.76,1-1.76,2.32v1.8c0,.11.05.15.14.15h.56a.42.42,0,1,1,0,.83h-2.32a.42.42,0,1,1,0-.83h.55c.1,0,.15,0,.15-.15V55.49c0-1.48-.17-2.38-1.45-2.38a1.56,1.56,0,0,0-1.73,1.41v2.71c0,.11,0,.15.14.15h.56a.42.42,0,0,1,0,.83h-2.65A.39.39,0,0,1,165.22,57.8Z"/>
    <path class="cls-2" d="M177.9,56.48a1.62,1.62,0,0,1,.91-1.55,7.76,7.76,0,0,1,2.71-.28h1.08c.08,0,.12,0,.12-.12,0-1.25-.57-1.48-1.84-1.48a7.41,7.41,0,0,0-1.6.21,3.39,3.39,0,0,1-.41.07.4.4,0,0,1-.42-.41.36.36,0,0,1,.3-.38,9.39,9.39,0,0,1,2.23-.31c1.73,0,2.67.51,2.67,2.26v2.75c0,.11,0,.15.15.15h.86a.42.42,0,1,1,0,.83H183.2c-.27,0-.41-.22-.43-.75,0-.05,0-.08-.06-.08s-.11.06-.2.14a3.8,3.8,0,0,1-2.38.83C178.69,58.35,177.9,57.6,177.9,56.48Zm4.82-.58v-.4c0-.08,0-.12-.12-.12a17.3,17.3,0,0,0-3,.15.85.85,0,0,0-.75.91c0,.75.54,1.13,1.4,1.13C181.46,57.57,182.72,57,182.72,55.9Z"/>
    <path class="cls-2" d="M185.54,57.8a.4.4,0,0,1,.41-.42h.88c.1,0,.14-.05.14-.16V53.35c0-.07,0-.16-.14-.16H186a.41.41,0,0,1-.41-.42.4.4,0,0,1,.41-.42h1.48a.44.44,0,0,1,.47.43v.49s0,.06,0,.06a.09.09,0,0,0,.09,0,2.68,2.68,0,0,1,2.06-.89.51.51,0,0,0,.27-.06.61.61,0,0,1,.28-.07c.23,0,.36.12.4.4l.13,1.09a3,3,0,0,1,0,.34.46.46,0,0,1-.91,0l-.08-.66c0-.13-.12-.2-.37-.2a1.93,1.93,0,0,0-1.94,1.95v2a.14.14,0,0,0,.15.15h1.33a.42.42,0,0,1,.43.42.4.4,0,0,1-.43.41H186A.39.39,0,0,1,185.54,57.8Z"/>
    <path class="cls-2" d="M192.18,57.8a.4.4,0,0,1,.41-.42h.88c.11,0,.15-.05.15-.16V53.35a.14.14,0,0,0-.15-.16h-.88a.41.41,0,0,1-.41-.42.4.4,0,0,1,.41-.42h1.48a.44.44,0,0,1,.47.43v.49s0,.06,0,.06a.09.09,0,0,0,.09,0,2.7,2.7,0,0,1,2.06-.89.51.51,0,0,0,.27-.06.64.64,0,0,1,.28-.07c.23,0,.37.12.41.4l.12,1.09a3,3,0,0,1,0,.34.45.45,0,0,1-.9,0l-.08-.66c0-.13-.13-.2-.38-.2a1.94,1.94,0,0,0-1.94,1.95v2a.14.14,0,0,0,.15.15H196a.42.42,0,0,1,.43.42.4.4,0,0,1-.43.41h-3.43A.39.39,0,0,1,192.18,57.8Z"/>
    <path class="cls-2" d="M198.82,57.8a.4.4,0,0,1,.42-.42h.92c.1,0,.17-.05.17-.15v-3.9a.17.17,0,0,0-.17-.14h-.91a.42.42,0,1,1,0-.84h1.54a.42.42,0,0,1,.45.42v4.46a.14.14,0,0,0,.15.15h.91a.42.42,0,1,1,0,.83h-3.06A.39.39,0,0,1,198.82,57.8Zm1.1-7.41a.7.7,0,0,1,.71-.7.71.71,0,1,1-.71.7Z"/>
    <path class="cls-2" d="M203.51,55.28a3.06,3.06,0,0,1,3.23-3.06A3,3,0,0,1,209.9,55c0,.37-.15.55-.56.55h-4.71c-.06,0-.11,0-.11.1,0,.77.94,1.82,2.73,1.82a5.87,5.87,0,0,0,1.65-.22,2.05,2.05,0,0,1,.39-.06.4.4,0,0,1,.4.43c0,.19-.12.32-.36.41a6.57,6.57,0,0,1-2.26.3C204.84,58.35,203.51,57.1,203.51,55.28Zm5.23-.45c.08,0,.12,0,.12-.11a2.25,2.25,0,0,0-4.33,0c0,.07,0,.11.12.11Z"/>
    <path class="cls-2" d="M211.34,55.28a3,3,0,0,1,3.22-3.06,2.93,2.93,0,0,1,2,.64c.07.06.13.11.16.11a.08.08,0,0,0,.08-.09V49.65c0-.09,0-.15-.15-.15h-1a.42.42,0,1,1,0-.83h1.66a.4.4,0,0,1,.43.42v8.14c0,.1,0,.15.15.15h.89a.42.42,0,1,1,0,.83h-1.64a.32.32,0,0,1-.35-.33v-.27c0-.07,0-.11-.07-.11a.28.28,0,0,0-.15.08,3.07,3.07,0,0,1-2.09.77A2.94,2.94,0,0,1,211.34,55.28Zm5.49.68V54.41c0-.74-.83-1.33-2.24-1.33a2.11,2.11,0,0,0-2.3,2.22,2.09,2.09,0,0,0,2.29,2.18C216.07,57.48,216.83,56.72,216.83,56Zm-2-13.2h0Zm0,20.21h0v0h0Z"/>
    <path class="cls-2" d="M220.41,57.58a.77.77,0,0,1,.77-.75.76.76,0,0,1,.75.75.77.77,0,0,1-.75.77A.78.78,0,0,1,220.41,57.58Zm.28-2.26c-.06-1.07-.17-4.59-.17-4.74a.63.63,0,1,1,1.26,0c0,.13-.08,3.74-.15,4.74a.48.48,0,0,1-.47.49A.5.5,0,0,1,220.69,55.32Z"/>
  </g>
</svg>
