<svg id="Layer_1" data-name="Layer 1" xmlns="http://www.w3.org/2000/svg" viewBox="0 0 300 75">
  <defs>
    <style>
      .cls-1 {
        fill: #fee7d6;
      }

      .cls-2 {
        fill: #cce8f9;
      }
    </style>
  </defs>
  <g>
    <path class="cls-1" d="M8,58.18a1.31,1.31,0,0,1,1-1.62l2.85-.71a.49.49,0,0,0,.41-.65Q10,46,7.72,36.84c-.08-.32-.29-.44-.67-.34l-2.91.73a1.41,1.41,0,0,1-1.69-.92,1.4,1.4,0,0,1,1.13-1.64q6.3-1.61,12.63-3.06c5.52-1.28,9.55,1.1,10.48,5.46S25,45,19.68,46.23c-1.89.43-3.78.88-5.66,1.33-.34.08-.47.28-.4.56l1.54,6.37c.09.36.29.47.67.38l3-.72a1.29,1.29,0,0,1,1.7,1,1.25,1.25,0,0,1-1.06,1.59q-4.9,1.16-9.79,2.4A1.31,1.31,0,0,1,8,58.18ZM19,43.64c3.37-.78,5.22-3,4.59-5.9s-3.34-4.34-6.78-3.55l-5.73,1.35c-.35.09-.48.29-.41.57l2.06,8.51a.45.45,0,0,0,.62.36C15.27,44.52,17.15,44.08,19,43.64Z"/>
    <path class="cls-1" d="M32,44.77c-1.25-5.88,3.16-10.2,8.35-11.18,5.62-1.07,10.71,1.76,11.52,6.56.2,1.13-.18,1.73-1.44,2Q43,43.4,35.66,44.9a.31.31,0,0,0-.27.39c.47,2.29,4,4.81,9.55,3.76a20.41,20.41,0,0,0,5-1.58,6.18,6.18,0,0,1,1.18-.41,1.21,1.21,0,0,1,1.47,1.07c.1.56-.2,1-.9,1.44a22.67,22.67,0,0,1-6.82,2.16C38,53,33.14,50.19,32,44.77Zm16.14-4.54c.25,0,.35-.19.32-.39-.16-.89-2.62-4.62-7.7-3.66-5.68,1.09-6,5.86-5.91,6.25,0,.2.19.3.45.25Q41.71,41.38,48.14,40.23Z"/>
    <path class="cls-1" d="M56.78,47.91a1.24,1.24,0,0,1,1.09-1.46L60.58,46c.34,0,.44-.24.39-.56Q60,39.63,59.12,33.81a.43.43,0,0,0-.54-.41l-2.78.44a1.29,1.29,0,0,1-1.54-1,1.27,1.27,0,0,1,1.13-1.47l4.72-.76a1.37,1.37,0,0,1,1.7,1.07L62,33.1c0,.13.07.2.11.19a.34.34,0,0,0,.28-.2,8.66,8.66,0,0,1,6.17-3.64,1.64,1.64,0,0,0,.83-.33,2.09,2.09,0,0,1,.88-.32,1.22,1.22,0,0,1,1.46,1c.27,1.07.55,2.15.83,3.23a4.94,4.94,0,0,1,.26,1,1.46,1.46,0,0,1-2.83.55l-.54-1.95c-.1-.4-.47-.55-1.28-.44A6,6,0,0,0,62.94,39l.93,6a.42.42,0,0,0,.52.38l4.15-.62a1.3,1.3,0,0,1,1.52,1.06,1.28,1.28,0,0,1-1.15,1.45q-5.32.78-10.63,1.64A1.24,1.24,0,0,1,56.78,47.91Z"/>
    <path class="cls-1" d="M77.43,44.86a1.24,1.24,0,0,1,1.14-1.42l2.73-.34c.34-.05.44-.22.4-.55l-1.42-11.7a.43.43,0,0,0-.53-.43L77,30.76a1.28,1.28,0,0,1-1.49-1.08,1.26,1.26,0,0,1,1.17-1.43l4.74-.59A1.38,1.38,0,0,1,83,28.79l.17,1.46c0,.12.07.2.11.19a.31.31,0,0,0,.28-.19,8.7,8.7,0,0,1,6.3-3.41,1.66,1.66,0,0,0,.84-.3,2,2,0,0,1,.88-.29c.74-.08,1.21.25,1.42,1.09l.72,3.26a5.35,5.35,0,0,1,.22,1,1.46,1.46,0,0,1-2.85.45c-.15-.66-.31-1.31-.46-2-.09-.4-.45-.57-1.27-.49a6,6,0,0,0-5.5,6.59c.24,2,.47,4,.71,6.06a.42.42,0,0,0,.51.39l4.17-.47a1.3,1.3,0,0,1,1.47,1.12,1.28,1.28,0,0,1-1.2,1.41q-5.34.57-10.67,1.25A1.25,1.25,0,0,1,77.43,44.86Z"/>
    <path class="cls-1" d="M101.26,53.13a1.21,1.21,0,0,1,1.17-1.38l2.93-.25a.77.77,0,0,0,.71-.55q1.47-3.53,3-7a1.49,1.49,0,0,0,.16-.67.56.56,0,0,0-.32-.43,1.24,1.24,0,0,1-.46-.46q-4.2-6.78-8.59-13.51a1,1,0,0,0-.9-.45l-2.11.19a1.28,1.28,0,1,1-.24-2.53c2.93-.27,5.85-.52,8.78-.75a1.33,1.33,0,0,1,1.48,1.16,1.3,1.3,0,0,1-1.2,1.33L103.4,28c-.21.06-.29.15-.28.31a.93.93,0,0,0,.07.29q3.54,5.49,7,11c.14.15.27.27.44.26a.62.62,0,0,0,.32-.31q2.61-6,5.35-11.88a2,2,0,0,0,.07-.33c0-.17-.11-.24-.37-.27l-2.33.15a1.24,1.24,0,0,1-1.33-1.15,1.29,1.29,0,0,1,1.26-1.35c2.89-.19,5.77-.35,8.66-.49a1.27,1.27,0,1,1,.13,2.53l-2.07.11a1.11,1.11,0,0,0-.92.7Q114,39,109.16,50.51a1.3,1.3,0,0,0-.13.5c0,.12.1.2.26.19l2.07-.15a1.27,1.27,0,1,1,.18,2.53c-3,.21-5.93.44-8.89.7A1.19,1.19,0,0,1,101.26,53.13Z"/>
    <path class="cls-1" d="M141.56,35.05c-.08-4,4.05-5.91,6-6.82.17-.09.26-.17.26-.29a.37.37,0,0,0-.18-.29c-.9-.77-3-2.51-3.07-5.5,0-3.56,3.43-6.06,8-6,4.26,0,7.44,2.43,7.38,5.95-.05,3.27-3,4.66-6.15,6.09-.18.08-.22.16-.22.28a.39.39,0,0,0,.13.21c2,1.64,4,3.3,5.9,5,.22.17.3.21.39.21s.25-.08.55-.36c.87-.76,2.13-2,2.83-2.61a.63.63,0,0,0,.22-.4c0-.13-.12-.25-.38-.26l-1.93-.07a1.22,1.22,0,0,1-1.09-1.21,1.3,1.3,0,0,1,1.31-1.21l5.89.13a1.25,1.25,0,0,1,1.26,1.31,1.46,1.46,0,0,1-.63,1.13c-1.07,1-4.73,4.14-5.72,5.06a.43.43,0,0,0-.21.25.19.19,0,0,0,.12.2l3.2,2.81c.37.34.79.43,2,.47l1.14,0a1.27,1.27,0,1,1-.07,2.53q-3.09-.09-6.18-.14a1.31,1.31,0,0,1-1.29-1.3v-.53c0-.57,0-.73-.28-1l-1-.79a.39.39,0,0,0-.25-.17.86.86,0,0,0-.47.24c-2.57,1.94-5.64,3.79-9.3,3.8C145.21,41.7,141.63,38.9,141.56,35.05ZM157,36.3c.3-.16.47-.28.47-.4s-.12-.21-.21-.29q-3.24-2.79-6.55-5.55c-.3-.25-.38-.29-.51-.29a1.51,1.51,0,0,0-.56.21c-2.95,1.44-4.9,2.65-4.87,4.95s2.41,4.18,5.37,4.17C152.35,39.1,154.46,38,157,36.3Zm-5.38-9.81c4.4-2,5.42-2.75,5.43-4.43,0-2.09-1.89-3.54-4.47-3.55-2.8,0-4.72,1.53-4.7,3.61,0,1.81,1.75,3.23,3,4.21a.77.77,0,0,0,.52.25A.58.58,0,0,0,151.64,26.49Z"/>
    <path class="cls-1" d="M185.81,41.06a1.27,1.27,0,0,1,1.47-1.22l2.11.13a1,1,0,0,0,1.14-.58q5-10,10.22-20a2.21,2.21,0,0,1,2.31-1.29l.48,0a2.33,2.33,0,0,1,2.11,1.63Q209,30.5,212.12,41.26a1.13,1.13,0,0,0,1,.77l2.31.25a1.27,1.27,0,0,1,1.2,1.45,1.31,1.31,0,0,1-1.57,1.14q-4.44-.49-8.89-.91a1.32,1.32,0,0,1-1.3-1.44,1.28,1.28,0,0,1,1.51-1.18l1.94.19c.33,0,.64-.06.67-.38a1.76,1.76,0,0,0-.12-.51c-.48-1.69-1-3.39-1.46-5.08a1,1,0,0,0-.84-.65c-3.18-.31-6.36-.58-9.55-.83a1,1,0,0,0-1,.54c-.81,1.62-1.61,3.25-2.41,4.87a.57.57,0,0,0-.06.28c0,.37.34.52.59.54l1.9.14a1.25,1.25,0,0,1,1.25,1.41,1.28,1.28,0,0,1-1.49,1.2q-4.35-.33-8.69-.6A1.31,1.31,0,0,1,185.81,41.06Zm20-8.61c.25,0,.47,0,.5-.28a1.88,1.88,0,0,0-.06-.34q-1.49-5.07-3-10.14c-.07-.21-.15-.3-.24-.31s-.23.07-.28.23q-2.44,4.74-4.83,9.5a1.1,1.1,0,0,0-.11.32c0,.2.19.34.4.36C200.73,32,203.29,32.21,205.84,32.45Z"/>
    <path class="cls-1" d="M244.82,47.67a1.24,1.24,0,0,1-1.54,1c-2.72-.44-5.45-.86-8.17-1.26a1.27,1.27,0,1,1,.37-2.51l1.76.26c.25,0,.44-.1.49-.42.26-1.72.51-3.43.77-5.14.68-4.49.47-7.44-4.89-8.2-3.44-.49-7.05.79-7.38,3.39l-1,8.2a.48.48,0,0,0,.4.55l2.18.28a1.27,1.27,0,1,1-.33,2.52q-4.35-.59-8.7-1.09a1.27,1.27,0,1,1,.3-2.52c.91.11,1.82.21,2.73.33a.46.46,0,0,0,.52-.44q.72-5.86,1.45-11.74c0-.32,0-.46-.42-.5l-2.79-.34a1.27,1.27,0,1,1,.29-2.52c1.69.2,3.37.4,5.05.62a1.07,1.07,0,0,1,1.06,1.25c0,.44-.08,1,.18,1a1,1,0,0,0,.5-.18,11.81,11.81,0,0,1,7.19-1.3c7.63,1.1,7.28,6.72,6.58,11.2-.26,1.67-.52,3.34-.79,5a.49.49,0,0,0,.47.62l2.63.41A1.24,1.24,0,0,1,244.82,47.67Z"/>
    <path class="cls-1" d="M273.26,53.07a1.24,1.24,0,0,1-1.59,1q-4.05-.87-8.11-1.67a1.21,1.21,0,0,1-1-1.5,1.19,1.19,0,0,1,1.53-1l1.75.35c.25.05.45-.08.51-.4q.53-2.55,1-5.1c.91-4.45.84-7.4-4.49-8.43-3.41-.66-7.09.43-7.55,3s-1,5.42-1.46,8.14a.47.47,0,0,0,.38.56l2.17.4a1.27,1.27,0,1,1-.46,2.5c-2.88-.53-5.77-1-8.65-1.53a1.22,1.22,0,0,1-1.08-1.47,1.21,1.21,0,0,1,1.5-1l2.72.46a.45.45,0,0,0,.54-.4l2-11.66c.06-.32,0-.46-.39-.52l-2.78-.48a1.27,1.27,0,1,1,.43-2.5l5,.87a1.08,1.08,0,0,1,1,1.3c-.08.44-.13,1,.12,1a1.16,1.16,0,0,0,.52-.16,11.88,11.88,0,0,1,7.25-.93c7.58,1.48,6.95,7.08,6,11.52-.35,1.65-.69,3.31-1,5a.49.49,0,0,0,.44.63l2.61.55A1.24,1.24,0,0,1,273.26,53.07Z"/>
    <path class="cls-1" d="M277.11,46.07c1.27-5.88,7.06-8,12.22-6.77,5.58,1.32,9.07,6,7.85,10.71-.29,1.11-.88,1.51-2.13,1.19q-7.31-1.85-14.65-3.51a.31.31,0,0,0-.41.24c-.51,2.28,1.7,6,7.18,7.35a20.83,20.83,0,0,0,5.24.62,6.72,6.72,0,0,1,1.25.1,1.23,1.23,0,0,1,.92,1.59c-.15.55-.62.85-1.43.94A23,23,0,0,1,286,57.7C279.21,56.07,275.93,51.48,277.11,46.07Zm16.61,2.47c.26.07.41,0,.46-.22.22-.87-.5-5.29-5.55-6.5-5.64-1.33-7.87,2.89-8,3.28,0,.2.06.35.31.41Q287.37,47,293.72,48.54Z"/>
  </g>
  <g>
    <path class="cls-2" d="M8,56.15a1.3,1.3,0,0,1,1-1.61l2.85-.72a.48.48,0,0,0,.41-.65L7.72,34.81c-.08-.32-.29-.43-.67-.34l-2.91.73a1.39,1.39,0,0,1-1.69-.92,1.41,1.41,0,0,1,1.13-1.64Q9.88,31,16.21,29.58c5.52-1.27,9.55,1.1,10.48,5.46S25,43,19.68,44.2q-2.84.64-5.66,1.34c-.34.08-.47.28-.4.55l1.54,6.37c.09.36.29.48.67.39,1-.25,2-.49,3-.72a1.29,1.29,0,0,1,1.7.94,1.27,1.27,0,0,1-1.06,1.6q-4.9,1.15-9.79,2.39A1.3,1.3,0,0,1,8,56.15ZM19,41.62c3.37-.78,5.22-3,4.59-5.91s-3.34-4.34-6.78-3.55c-1.91.44-3.82.9-5.73,1.36-.35.08-.48.28-.41.56l2.06,8.51a.45.45,0,0,0,.62.36Q16.21,42.26,19,41.62Z"/>
    <path class="cls-2" d="M32,42.75c-1.25-5.89,3.16-10.2,8.35-11.19,5.62-1.07,10.71,1.76,11.52,6.56.2,1.13-.18,1.74-1.44,2Q43,41.39,35.66,42.87a.31.31,0,0,0-.27.39c.47,2.29,4,4.81,9.55,3.77a20.77,20.77,0,0,0,5-1.59A7,7,0,0,1,51.13,45,1.21,1.21,0,0,1,52.6,46.1c.1.56-.2,1-.9,1.45a23.11,23.11,0,0,1-6.82,2.15C38,51,33.14,48.16,32,42.75ZM48.14,38.2c.25-.05.35-.19.32-.39-.16-.88-2.62-4.62-7.7-3.66-5.68,1.09-6,5.86-5.91,6.25,0,.21.19.3.45.25Q41.71,39.35,48.14,38.2Z"/>
    <path class="cls-2" d="M56.78,45.89a1.24,1.24,0,0,1,1.09-1.47L60.58,44c.34,0,.44-.23.39-.56Q60,37.6,59.12,31.78a.44.44,0,0,0-.54-.41l-2.78.45a1.31,1.31,0,0,1-1.54-1,1.27,1.27,0,0,1,1.13-1.47c1.57-.26,3.15-.51,4.72-.75a1.36,1.36,0,0,1,1.7,1.06L62,31.08c0,.12.07.19.11.19a.35.35,0,0,0,.28-.21,8.69,8.69,0,0,1,6.17-3.64,1.64,1.64,0,0,0,.83-.32,2.1,2.1,0,0,1,.88-.33,1.23,1.23,0,0,1,1.46,1c.27,1.08.55,2.16.83,3.23a5.29,5.29,0,0,1,.26,1,1.34,1.34,0,0,1-1.27,1.5A1.32,1.32,0,0,1,70,32.6l-.54-2c-.1-.39-.47-.55-1.28-.43A6,6,0,0,0,62.94,37l.93,6a.41.41,0,0,0,.52.38l4.15-.62a1.31,1.31,0,0,1,1.52,1.07,1.27,1.27,0,0,1-1.15,1.44q-5.32.78-10.63,1.65A1.25,1.25,0,0,1,56.78,45.89Z"/>
    <path class="cls-2" d="M77.43,42.83a1.24,1.24,0,0,1,1.14-1.42l2.73-.34c.34,0,.44-.22.4-.55l-1.42-11.7a.44.44,0,0,0-.53-.43L77,28.74a1.29,1.29,0,0,1-1.49-1.09,1.26,1.26,0,0,1,1.17-1.43c1.58-.2,3.16-.4,4.74-.58A1.36,1.36,0,0,1,83,26.76l.17,1.46c0,.13.07.2.11.2a.34.34,0,0,0,.28-.2,8.73,8.73,0,0,1,6.3-3.41,1.76,1.76,0,0,0,.84-.29,2,2,0,0,1,.88-.3c.74-.08,1.21.25,1.42,1.09l.72,3.26a5.35,5.35,0,0,1,.22,1,1.46,1.46,0,0,1-2.85.45c-.15-.66-.31-1.31-.46-2-.09-.4-.45-.57-1.27-.48a6,6,0,0,0-5.5,6.58c.24,2,.47,4,.71,6.06a.41.41,0,0,0,.51.39l4.17-.46a1.3,1.3,0,0,1,1.47,1.12,1.27,1.27,0,0,1-1.2,1.4c-3.56.39-7.12.8-10.67,1.26A1.26,1.26,0,0,1,77.43,42.83Z"/>
    <path class="cls-2" d="M101.26,51.1a1.21,1.21,0,0,1,1.17-1.38l2.93-.24a.78.78,0,0,0,.71-.55q1.47-3.52,3-7a1.47,1.47,0,0,0,.16-.67c0-.2-.15-.31-.32-.42a1.33,1.33,0,0,1-.46-.46q-4.2-6.8-8.59-13.52a1.06,1.06,0,0,0-.9-.45l-2.11.19A1.27,1.27,0,1,1,96.58,24c2.93-.28,5.85-.53,8.78-.75a1.25,1.25,0,1,1,.28,2.48l-2.24.18c-.21.06-.29.14-.28.31a.94.94,0,0,0,.07.28q3.54,5.5,7,11c.14.16.27.27.44.26a.58.58,0,0,0,.32-.31q2.61-6,5.35-11.88a1.79,1.79,0,0,0,.07-.33c0-.16-.11-.24-.37-.26l-2.33.14a1.23,1.23,0,0,1-1.33-1.14,1.29,1.29,0,0,1,1.26-1.36c2.89-.18,5.77-.35,8.66-.49a1.27,1.27,0,1,1,.13,2.54l-2.07.1a1.12,1.12,0,0,0-.92.71Q114,37,109.16,48.48A1.29,1.29,0,0,0,109,49c0,.12.1.19.26.18l2.07-.15a1.24,1.24,0,0,1,1.41,1.17,1.22,1.22,0,0,1-1.23,1.36c-3,.21-5.93.45-8.89.7A1.19,1.19,0,0,1,101.26,51.1Z"/>
    <path class="cls-2" d="M141.56,33c-.08-4,4.05-5.92,6-6.83.17-.08.26-.17.26-.29a.35.35,0,0,0-.18-.28c-.9-.78-3-2.52-3.07-5.5,0-3.56,3.43-6.07,8-6.06,4.26,0,7.44,2.43,7.38,5.95-.05,3.28-3,4.67-6.15,6.09-.18.08-.22.16-.22.28a.33.33,0,0,0,.13.21c2,1.64,4,3.3,5.9,5,.22.17.3.21.39.21s.25-.07.55-.36c.87-.76,2.13-2,2.83-2.61a.63.63,0,0,0,.22-.4c0-.12-.12-.25-.38-.26l-1.93-.07a1.22,1.22,0,0,1-1.09-1.21,1.28,1.28,0,0,1,1.31-1.2c2,0,3.93.07,5.89.13a1.24,1.24,0,0,1,1.26,1.3,1.46,1.46,0,0,1-.63,1.13c-1.07,1-4.73,4.14-5.72,5.07a.45.45,0,0,0-.21.24.21.21,0,0,0,.12.21l3.2,2.81c.37.33.79.43,2,.46l1.14,0a1.27,1.27,0,0,1-.07,2.54l-6.18-.15A1.3,1.3,0,0,1,161,38.14V37.6c0-.57,0-.73-.28-1l-1-.8a.36.36,0,0,0-.25-.16c-.13,0-.26.08-.47.24-2.57,1.93-5.64,3.79-9.3,3.8C145.21,39.67,141.63,36.88,141.56,33ZM157,34.28c.3-.16.47-.28.47-.41s-.12-.2-.21-.29Q154,30.79,150.73,28c-.3-.25-.38-.29-.51-.29a1.73,1.73,0,0,0-.56.21c-2.95,1.44-4.9,2.66-4.87,4.95s2.41,4.18,5.37,4.18C152.35,37.07,154.46,35.93,157,34.28Zm-5.38-9.81c4.4-2,5.42-2.76,5.43-4.44,0-2.09-1.89-3.54-4.47-3.55-2.8,0-4.72,1.53-4.7,3.62,0,1.8,1.75,3.22,3,4.2a.73.73,0,0,0,.52.25A.7.7,0,0,0,151.64,24.47Z"/>
    <path class="cls-2" d="M185.81,39a1.27,1.27,0,0,1,1.47-1.23l2.11.14a1.06,1.06,0,0,0,1.14-.58q5-10,10.22-20a2.19,2.19,0,0,1,2.31-1.28l.48,0a2.32,2.32,0,0,1,2.11,1.62q3.39,10.73,6.47,21.49a1.11,1.11,0,0,0,1,.77l2.31.25a1.27,1.27,0,0,1,1.2,1.45,1.32,1.32,0,0,1-1.57,1.15q-4.44-.49-8.89-.92a1.32,1.32,0,0,1-1.3-1.44,1.28,1.28,0,0,1,1.51-1.17l1.94.18c.33,0,.64-.06.67-.38a1.91,1.91,0,0,0-.12-.51q-.72-2.53-1.46-5.08a1,1,0,0,0-.84-.65q-4.77-.45-9.55-.83a1,1,0,0,0-1,.54l-2.41,4.87a.58.58,0,0,0-.06.29c0,.36.34.51.59.53l1.9.15a1.24,1.24,0,0,1,1.25,1.41,1.29,1.29,0,0,1-1.49,1.2q-4.35-.34-8.69-.61A1.31,1.31,0,0,1,185.81,39Zm20-8.62c.25,0,.47,0,.5-.28a1.66,1.66,0,0,0-.06-.33q-1.49-5.08-3-10.14c-.07-.22-.15-.3-.24-.31a.26.26,0,0,0-.28.22q-2.44,4.74-4.83,9.5a1.1,1.1,0,0,0-.11.32c0,.21.19.34.4.36C200.73,30,203.29,30.19,205.84,30.42Z"/>
    <path class="cls-2" d="M244.82,45.65a1.24,1.24,0,0,1-1.54,1c-2.72-.44-5.45-.86-8.17-1.26a1.27,1.27,0,1,1,.37-2.51l1.76.26c.25,0,.44-.1.49-.42.26-1.71.51-3.43.77-5.14.68-4.49.47-7.44-4.89-8.2-3.44-.48-7.05.79-7.38,3.39l-1,8.2a.47.47,0,0,0,.4.55l2.18.28a1.27,1.27,0,1,1-.33,2.52c-2.9-.38-5.8-.75-8.7-1.09a1.27,1.27,0,1,1,.3-2.52l2.73.33a.46.46,0,0,0,.52-.43q.72-5.88,1.45-11.74c0-.33,0-.46-.42-.51l-2.79-.33a1.28,1.28,0,1,1,.29-2.53l5.05.62a1.07,1.07,0,0,1,1.06,1.25c0,.45-.08,1,.18,1a1,1,0,0,0,.5-.18,11.89,11.89,0,0,1,7.19-1.3c7.63,1.1,7.28,6.72,6.58,11.2-.26,1.67-.52,3.35-.79,5a.49.49,0,0,0,.47.61l2.63.42A1.24,1.24,0,0,1,244.82,45.65Z"/>
    <path class="cls-2" d="M273.26,51a1.24,1.24,0,0,1-1.59,1c-2.7-.58-5.4-1.13-8.11-1.67a1.27,1.27,0,1,1,.49-2.49l1.75.35c.25.05.45-.08.51-.4q.53-2.55,1-5.09c.91-4.45.84-7.41-4.49-8.44-3.41-.66-7.09.43-7.55,3s-1,5.43-1.46,8.14a.49.49,0,0,0,.38.57l2.17.39a1.27,1.27,0,1,1-.46,2.5c-2.88-.53-5.77-1-8.65-1.53a1.27,1.27,0,1,1,.42-2.5l2.72.46a.44.44,0,0,0,.54-.4l2-11.65c.06-.33,0-.46-.39-.53l-2.78-.48a1.27,1.27,0,1,1,.43-2.5q2.5.42,5,.87a1.09,1.09,0,0,1,1,1.3c-.08.45-.13,1,.12,1a1,1,0,0,0,.52-.15,11.81,11.81,0,0,1,7.25-.94c7.58,1.49,6.95,7.08,6,11.52-.35,1.66-.69,3.31-1,5a.48.48,0,0,0,.44.63l2.61.56A1.23,1.23,0,0,1,273.26,51Z"/>
    <path class="cls-2" d="M277.11,44c1.27-5.88,7.06-8,12.22-6.77,5.58,1.33,9.07,6,7.85,10.71-.29,1.11-.88,1.51-2.13,1.19q-7.31-1.85-14.65-3.51a.31.31,0,0,0-.41.24c-.51,2.28,1.7,6,7.18,7.36a21.19,21.19,0,0,0,5.24.61,7.74,7.74,0,0,1,1.25.1,1.24,1.24,0,0,1,.92,1.59c-.15.55-.62.85-1.43.95a22.85,22.85,0,0,1-7.12-.84C279.21,54,275.93,49.45,277.11,44Zm16.61,2.48c.26.06.41,0,.46-.23.22-.86-.5-5.29-5.55-6.49-5.64-1.34-7.87,2.88-8,3.28,0,.2.06.34.31.4Q287.37,44.94,293.72,46.52Z"/>
  </g>
</svg>
