<svg id="Layer_1" data-name="Layer 1" xmlns="http://www.w3.org/2000/svg" viewBox="0 0 92.92 23.28">
  <defs>
    <style>
      .cls-1 {
        fill: #cce7f9;
      }

      .cls-2 {
        fill: #1c3557;
      }
    </style>
  </defs>
  <g>
    <path class="cls-1" d="M4.55,46.43a1.48,1.48,0,0,1,1.56-1.49H8a.54.54,0,0,0,.55-.59V30.08A.45.45,0,0,0,8,29.6H6.25a1.45,1.45,0,0,1-1.52-1.49,1.52,1.52,0,0,1,1.66-1.49H16.61c4.86,0,7.85,2.53,7.85,6.65a6.08,6.08,0,0,1-4.9,6.2.29.29,0,0,0-.24.28c0,.07.07.13.17.27l3,4.13a2,2,0,0,0,1.6.79h1.25a1.5,1.5,0,1,1,0,3H21.12c-.86,0-1.42-.48-1.42-1.21a1.17,1.17,0,0,0-.28-.94l-4.1-5.57a.86.86,0,0,0-.62-.35H12.26c-.24,0-.34.14-.34.38v4.19c0,.35.1.52.45.52h.83a1.49,1.49,0,1,1,0,3H6.11A1.47,1.47,0,0,1,4.55,46.43Zm12-9.63c2.78,0,4.42-1.14,4.42-3.53,0-2.18-1.67-3.53-4.45-3.53H12.37c-.31,0-.49.14-.49.41v6.27a.35.35,0,0,0,.38.38Z" transform="translate(-4.07 -24.92)"/>
    <path class="cls-1" d="M32.76,47.16a1.19,1.19,0,0,0-.49-.14.65.65,0,0,0-.48.31,1.3,1.3,0,0,1-1.18.59,1.32,1.32,0,0,1-1.39-1.28l-.14-3.08L29,42.38a1.45,1.45,0,0,1,1.56-1.53,1.36,1.36,0,0,1,1.5,1.29l0,.48a1.39,1.39,0,0,0,.35.9c1.11,1,4,1.7,5.83,1.7,2.68,0,4.83-1,4.83-3.29s-2.5-2.67-5.31-3.19c-3.68-.62-8.13-1.42-8.13-6.23,0-3.74,2.88-6.17,7.92-6.17a14.41,14.41,0,0,1,4,.66,4.42,4.42,0,0,0,.94.21,1.09,1.09,0,0,0,.66-.31,2,2,0,0,1,1.21-.42,1.19,1.19,0,0,1,1.22,1.28l.14,2.46c0,.8,0,1.39,0,1.63a1.52,1.52,0,0,1-1.49,1.63,1.5,1.5,0,0,1-1.53-1.39l-.07-.73a1.33,1.33,0,0,0-.76-1.1,9.66,9.66,0,0,0-4.07-.87c-1.77,0-4.62.49-4.62,3,0,2.11,2.36,2.53,5.18,3,3.65.59,8,1.28,8,6.34,0,4-3.17,6.44-8.14,6.44A16,16,0,0,1,32.76,47.16Z" transform="translate(-4.07 -24.92)"/>
    <path class="cls-1" d="M60,46.85,53,30.12a.94.94,0,0,0-.84-.52H50.51A1.45,1.45,0,0,1,49,28.11a1.43,1.43,0,0,1,1.53-1.49H58a1.49,1.49,0,1,1,0,3H57c-.31,0-.48.14-.48.41a1.08,1.08,0,0,0,.14.49l5.21,12.85c.07.14.14.24.24.24s.17-.1.24-.24l5.39-12.89a1.42,1.42,0,0,0,.1-.45c0-.27-.21-.41-.52-.41h-1a1.49,1.49,0,1,1,0-3h7.47a1.49,1.49,0,1,1,0,3H72.19a1,1,0,0,0-.87.52L64.24,46.81a2,2,0,0,1-2.12,1.28A2,2,0,0,1,60,46.85Z" transform="translate(-4.07 -24.92)"/>
    <path class="cls-1" d="M77.09,46.43a1.47,1.47,0,0,1,1.56-1.49h1.84a.55.55,0,0,0,.59-.55V30.08a.46.46,0,0,0-.52-.48H78.82a1.47,1.47,0,0,1-1.53-1.49,1.54,1.54,0,0,1,1.64-1.49H89.14c4.76,0,7.86,2.77,7.86,6.89s-3.1,6.82-7.82,6.82H84.83a.35.35,0,0,0-.38.39v3.7a.46.46,0,0,0,.52.52h1.81a1.54,1.54,0,0,1,1.74,1.49,1.51,1.51,0,0,1-1.67,1.49h-8.1A1.5,1.5,0,0,1,77.09,46.43Zm12-9.21c2.71,0,4.42-1.28,4.42-3.71s-1.71-3.77-4.42-3.77H84.8a.33.33,0,0,0-.35.34v6.76a.35.35,0,0,0,.38.38Z" transform="translate(-4.07 -24.92)"/>
  </g>
  <g>
    <path class="cls-2" d="M4.07,45a1.48,1.48,0,0,1,1.57-1.49H7.48A.54.54,0,0,0,8,42.93V28.66a.46.46,0,0,0-.49-.49H5.78a1.44,1.44,0,0,1-1.53-1.49,1.53,1.53,0,0,1,1.67-1.49H16.13C21,25.19,24,27.72,24,31.85a6.07,6.07,0,0,1-4.9,6.2.29.29,0,0,0-.24.27c0,.07.07.14.17.28l3,4.12a1.94,1.94,0,0,0,1.6.8h1.25a1.5,1.5,0,1,1,0,3h-4.2c-.87,0-1.43-.49-1.43-1.21a1.2,1.2,0,0,0-.27-.94l-4.1-5.58a.9.9,0,0,0-.63-.34H11.79c-.25,0-.35.14-.35.38V43c0,.34.1.52.45.52h.84a1.49,1.49,0,1,1,0,3H5.64A1.48,1.48,0,0,1,4.07,45Zm12-9.63c2.78,0,4.41-1.14,4.41-3.53,0-2.19-1.67-3.54-4.45-3.54H11.89c-.31,0-.48.14-.48.42V35a.34.34,0,0,0,.38.38Z" transform="translate(-4.07 -24.92)"/>
    <path class="cls-2" d="M32.28,45.74a1.19,1.19,0,0,0-.48-.14.65.65,0,0,0-.49.31,1.3,1.3,0,0,1-1.18.59,1.33,1.33,0,0,1-1.39-1.28l-.14-3.09L28.53,41a1.45,1.45,0,0,1,1.56-1.53,1.36,1.36,0,0,1,1.5,1.28l0,.49a1.45,1.45,0,0,0,.35.9c1.11,1,4,1.69,5.84,1.69,2.67,0,4.83-1,4.83-3.29s-2.5-2.66-5.32-3.18c-3.68-.63-8.13-1.42-8.13-6.24,0-3.74,2.89-6.16,7.92-6.16a14.34,14.34,0,0,1,4,.66,4.56,4.56,0,0,0,.94.2,1,1,0,0,0,.66-.31A2.13,2.13,0,0,1,44,25.06a1.17,1.17,0,0,1,1.21,1.28l.14,2.46c0,.79,0,1.38,0,1.63a1.51,1.51,0,0,1-1.5,1.62,1.49,1.49,0,0,1-1.53-1.38l-.06-.73a1.37,1.37,0,0,0-.77-1.11A9.62,9.62,0,0,0,37.43,28c-1.78,0-4.62.48-4.62,3,0,2.12,2.36,2.53,5.17,3,3.65.59,8,1.28,8,6.34,0,4-3.16,6.44-8.13,6.44A16.1,16.1,0,0,1,32.28,45.74Z" transform="translate(-4.07 -24.92)"/>
    <path class="cls-2" d="M59.52,45.42l-7-16.73a.94.94,0,0,0-.83-.52H50a1.49,1.49,0,1,1,0-3h7.51a1.49,1.49,0,1,1,0,3h-1c-.32,0-.49.14-.49.42a1.05,1.05,0,0,0,.14.48l5.21,12.85c.07.14.14.25.24.25s.18-.11.25-.25L67.3,29a1.65,1.65,0,0,0,.11-.45c0-.28-.21-.42-.52-.42h-1a1.49,1.49,0,1,1,0-3h7.47a1.49,1.49,0,1,1,0,3H71.71a.94.94,0,0,0-.86.52l-7.09,16.7a2,2,0,0,1-2.12,1.28A2,2,0,0,1,59.52,45.42Z" transform="translate(-4.07 -24.92)"/>
    <path class="cls-2" d="M76.61,45a1.48,1.48,0,0,1,1.56-1.49H80a.56.56,0,0,0,.6-.56V28.66a.47.47,0,0,0-.53-.49H78.35a1.46,1.46,0,0,1-1.53-1.49,1.54,1.54,0,0,1,1.63-1.49H88.67c4.76,0,7.85,2.78,7.85,6.9s-3.09,6.82-7.82,6.82H84.36a.34.34,0,0,0-.38.38V43a.46.46,0,0,0,.52.52h1.8A1.53,1.53,0,0,1,88,45a1.51,1.51,0,0,1-1.67,1.49H78.28A1.51,1.51,0,0,1,76.61,45Zm12.06-9.22c2.71,0,4.41-1.28,4.41-3.7s-1.7-3.78-4.41-3.78H84.32a.32.32,0,0,0-.34.35v6.75a.34.34,0,0,0,.38.38Z" transform="translate(-4.07 -24.92)"/>
  </g>
</svg>
