<svg id="Layer_1" data-name="Layer 1" xmlns="http://www.w3.org/2000/svg" viewBox="0 0 460.76 130.17">
  <defs>
    <style>
      .cls-1, .cls-2 {
        fill: #cce8f9;
      }

      .cls-1 {
        stroke: #f1f2f2;
        stroke-miterlimit: 10;
        stroke-width: 2px;
      }

      .cls-3 {
        fill: #f5bd60;
      }
    </style>
  </defs>
  <g>
    <path class="cls-1" d="M127.9,146.63c-2.31,0-4.57-.66-4.57-3.68,0-.28,0-1.27.43-1.27s.61.8,1.5.8c6.13,0,15.69-9.47,15.69-13.33,0-1-.61-1.6-2.12-1.6-12,0-31.18,27.84-31.18,40.18,0,.61.23,1.18,1.08,1.18,4.24,0,11-4.67,18.32-4.67,1.75,0,3,1.37,3,3.35a2.29,2.29,0,0,1-2.4,2.4c-6.46,0-12,3.58-19.55,3.58-3.39,0-6.64-1.84-6.64-4.95,0-11.35,18.51-46,38.15-46,5,0,6.93,2.08,6.93,5C146.51,134.62,135.3,146.63,127.9,146.63Z" transform="translate(-26.45 -46.56)"/>
    <path class="cls-1" d="M143.25,170.51c-4.05,0-7.44-1.89-7.44-6.12,0-6.74,7.63-11.59,13.61-11.59a6.93,6.93,0,0,1,6.93,5.23c3.2-2.5,7.67-5.66,11.73-5.66A6.21,6.21,0,0,1,174,157a32,32,0,0,1,4.66-.38c4.71,0,7,2.26,7,4.48s-3.06,4.23-4.38,4.23c-.33,0-.56-.14-.56-.47s.09-.66.09-1.13c0-2.49-3.25-3.62-6.41-3.91v0c0,4.81-3.43,10.13-11.54,10.13-3.77,0-5.46-1.37-5.46-3.21,0-3.72,4.9-6.68,10.6-8.47a3.9,3.9,0,0,0-2.31-.66C158,157.7,155.55,170.51,143.25,170.51Zm5.47-13.14c-1.65,0-7.35,1.32-7.35,6.45,0,1.37.94,1.93,2.21,1.93,4.15,0,7.87-2.92,7.87-5.56A2.79,2.79,0,0,0,148.72,157.37Zm20.72,3.81a4.06,4.06,0,0,0-.14-1c-2.83.61-5.13,1.93-5.13,3.67,0,.52.33.94,1.13.94C168.12,164.76,169.44,163,169.44,161.18Z" transform="translate(-26.45 -46.56)"/>
    <path class="cls-1" d="M246.26,170.23c-.43.75-.71,1.32-2.45,1.32-1.13,0-5.18-.1-5.18-2,0-.8,1.08-1.28,1.08-2.78,0-4.19-7.44-7-16.49-7-2.54,0-4.47.47-5.79.47-1.13,0-1.79-.38-1.79-1.7,0-2.45,2.78-4.47,6.41-4.47,7.77,0,14.93.47,21,5.93.94-2.35,4.57-11.63,4.57-16,0-3-.48-7.06-5.33-7.06-16,0-33.77,20.72-35.94,34,0,1.51-1.36,2.5-3.81,2.5-2.12,0-3.82-.52-3.82-2.36,0-7.72,20.77-39.42,43.48-39.42,6.22,0,11.4,3.43,11.4,11.72C253.56,154.26,246.26,170.23,246.26,170.23Z" transform="translate(-26.45 -46.56)"/>
    <path class="cls-1" d="M266.88,155.53a30.09,30.09,0,0,0-.75,6c0,2.83.75,4.71,2.73,4.71,1.18,0,1.74-.61,3.06-.61.8,0,1,.33,1,1.17,0,2.22-3.63,3.91-6.31,3.91-5.14,0-7.21-4-7.21-9.32a25.47,25.47,0,0,1,.47-4.85h-.38c-1.36,0-1.88-.8-1.88-1.51a1,1,0,0,1,.94-1.08l2-.29c2.69-10.17,9.8-21.05,16.68-21.05,4.8,0,6.87,2.31,6.87,5.51C284.07,143.94,277.24,152.56,266.88,155.53Zm8.05-18.46c-1.5,0-4.85,7.06-7,14.22,6.46-3.2,8.86-8.24,8.86-11.35C276.82,138.24,276.11,137.07,274.93,137.07Z" transform="translate(-26.45 -46.56)"/>
    <path class="cls-1" d="M299.47,169.24a3.67,3.67,0,0,1-3.58-2.26.29.29,0,0,0-.28-.24c-.75,0-4.71,3.53-11.4,3.53-4.47,0-6.31-1.79-6.31-4.24,0-5.32,8.76-13.84,17.47-13.84,1.7,0,2.36.75,2.36,1.69,0,1.65-2,3.86-3.77,3.86-3.77,0-9.61,4.24-9.61,6.32,0,.66.61,1.13,2.12,1.13,2.78,0,7.82-2.78,11.78-6.46a2.71,2.71,0,0,1,1.65-.8c.56,0,1,.38,1,1.37,0,1.18-.38,2.59-.38,3.63,0,.89.28,1.5,1.22,1.5s2.31-.61,3.44-.66a1.13,1.13,0,0,1,1.27,1.23C306.44,166.51,302.63,169.24,299.47,169.24Z" transform="translate(-26.45 -46.56)"/>
    <path class="cls-1" d="M334.84,169.9c-2.64,0-2.78-2.12-2.78-4.48,0-.61-.23-.94-.8-.94-3.3,0-5.37,5.75-7.72,5.75-1,0-1.79-.47-1.79-1.13,0-1.51.14-2.69.14-3.54,0-.37-.19-.66-.9-.66-2.87,0-4.09,4.81-7.39,4.81-1.09,0-2.36-.71-2.36-1.56s1.7-3.34,1.7-6.78c0-1.27-.43-1.6-1-1.6l-2.4.52a1.38,1.38,0,0,1-1.42-1.56c0-1.88,2.12-4.75,7.12-4.75,2.82,0,3.2,1,3.2,1.69,0,1.27-.61,2.54-.61,3.25a.45.45,0,0,0,.52.52c1.08,0,3.43-2.26,5.41-2.26,1.75,0,2,1.08,2,2.12,0,.56-.1,1.13-.1,1.51s.05.47.24.47c.42,0,3.39-3.72,8-3.72,1.65,0,2.64.61,2.68,2.35,0,.85-.18,1.74-.18,2.73,0,1.32.37,2.55,2,2.55.47,0,1.32-.29,1.89-.29a.8.8,0,0,1,.8.9C341.11,167.35,337.43,169.9,334.84,169.9Z" transform="translate(-26.45 -46.56)"/>
    <path class="cls-1" d="M372.75,170c-3.81,0-5.55-1.84-5.55-3.21s2-4.28,3.67-4.28c1.27,0,1.23,2.21,4.29,2.21,2.82,0,4.14-1.79,4.14-3.58a3.47,3.47,0,0,0-3.72-3.48c-7.72,0-10.17,12.81-22.47,12.81-4.05,0-7.44-1.89-7.44-6.12,0-6.74,7.63-11.59,13.61-11.59a6.93,6.93,0,0,1,6.93,5.23c3.2-2.5,7.68-5.66,11.73-5.66s6.35,3.58,6.35,7.54C384.29,164.72,380.86,170,372.75,170Zm-14.17-12.67c-1.65,0-7.35,1.32-7.35,6.45,0,1.37.94,1.93,2.21,1.93,4.15,0,7.87-2.92,7.87-5.56A2.79,2.79,0,0,0,358.58,157.37Z" transform="translate(-26.45 -46.56)"/>
    <path class="cls-1" d="M394,175.74c-1.79,0-4.33-.94-4.33-3.68,0-.7.66-.84,1.08-.84,1,0,.76.66,2.07.66s1.51-.62,1.51-1.42c0-1.18-.7-2.78-.7-3.81,0,0,.09-1.23,2.73-1.23,1.22,0,2.59.76,2.59,4S396.91,175.74,394,175.74Z" transform="translate(-26.45 -46.56)"/>
    <path class="cls-1" d="M444.72,150.25c-1.13,0-4.43-.84-4.43-3.25,0-.28.09-.51.42-.51a10.23,10.23,0,0,0,1.46.28c3.91,0,11.22-4.1,11.22-8.72,0-2.12-1.84-2.59-3.87-2.59-9.94,0-21.1,14.75-21.1,23.79,0,4,2.17,6.93,7.68,6.93s8.38-3.11,10.93-3.11c1.6,0,4.33,1.65,4.33,3.2s-8,5.46-15.78,5.46c-10.41,0-14.84-5.27-14.84-12,0-11.73,13.38-27.84,31.19-27.84,7,0,9.65,1.84,9.65,5.23C461.58,142.53,453.15,150.11,444.72,150.25Z" transform="translate(-26.45 -46.56)"/>
    <path class="cls-1" d="M479.24,169.24a3.66,3.66,0,0,1-3.58-2.26.29.29,0,0,0-.28-.24c-.76,0-4.71,3.53-11.4,3.53-4.48,0-6.31-1.79-6.31-4.24,0-5.32,8.76-13.84,17.47-13.84,1.7,0,2.36.75,2.36,1.69,0,1.65-2,3.86-3.77,3.86-3.77,0-9.61,4.24-9.61,6.32,0,.66.61,1.13,2.12,1.13,2.78,0,7.82-2.78,11.77-6.46a2.71,2.71,0,0,1,1.65-.8c.57,0,1,.38,1,1.37,0,1.18-.37,2.59-.37,3.63,0,.89.28,1.5,1.22,1.5s2.31-.61,3.44-.66a1.13,1.13,0,0,1,1.27,1.23C486.21,166.51,482.4,169.24,479.24,169.24Z" transform="translate(-26.45 -46.56)"/>
  </g>
  <g>
    <path class="cls-2" d="M42.62,120.15c-1.08-4.5-.21-10.93-1.44-16.09-.74-3.1-2.63-3.9-5.39-3.25a5.36,5.36,0,0,0-3.22,2,17.89,17.89,0,0,1-2.37-5.28c-1.86-7.41,1.74-15,13.37-17.68,10.87-2.45,18.68,3.61,21.11,14.95,2.39,11.11.18,17.08.54,18.71.16.74.53,1,1.13.85,2.49-.53,4.84-9.69,2.65-20.07-1.26-5.94-3.65-11.41-7.07-14.72,2.45-2.6,6.74-5.12,12.79-6.31,8.81-1.74,16,1.36,18.39,14.25s0,18.72.37,20.36c.14.74.5,1,1.11.87,2.5-.47,5.09-9.56,3.16-20-1.1-6-3.35-11.5-6.69-14.9,2.52-2.54,6.88-4.94,13-6,8.86-1.51,16.25,1.72,18.35,14.66,2.49,15.61-3.54,38.57-24.44,42.4-6.3,1.16-11.13-.13-14.52-3.4a33.63,33.63,0,0,1-17.77,9.88C52.71,134.24,45.07,130.33,42.62,120.15Z" transform="translate(-26.45 -46.56)"/>
    <path class="cls-2" d="M158.15,98.39a41.59,41.59,0,0,1-.17-9.07,2.63,2.63,0,0,0-1.29-.22c-2,.26-3.11,2.16-2.31,8.09s1.55,11.62,2.32,17.44q-13,1.68-25.94,3.68-1.48-12-3-24.09c-1.9-15-4.22-20.82-6.29-25,3.44-3.22,8-5.36,14.1-6.24,9.39-1.33,14.72,1.91,16,11.44a28.31,28.31,0,0,1-.2,9l1.56-.2c1.29-7.43,6.75-12.88,15.39-13.87,9.44-1.07,15.1,4.33,15.18,14,0,2.18,0,4.36.08,6.54s1.25,2.85,3,2.68a6.21,6.21,0,0,0,2.72-1,15.54,15.54,0,0,1,1.56,5.33c.82,8.23-5.49,15.52-15.67,16.66C165.28,114.58,159.64,109.67,158.15,98.39Z" transform="translate(-26.45 -46.56)"/>
    <path class="cls-2" d="M191.92,90.37c-1.8-17.05,12.89-24.84,25.7-25.73,14.39-1,23.11,4.91,23.74,16.32a32.28,32.28,0,0,1-.24,5.25q-11.64,1-23.21,2.2c1.4,2.79,4.23,4,9.22,3.7a22.27,22.27,0,0,0,11.51-3.87c1.28.39,2.68,2.9,2.86,6,.33,6.08-3.72,14.45-20.87,15.64C202.43,111.2,193.22,102.84,191.92,90.37Zm24.85-6.43c2-.43,4-.85,6-1.26.49-2.92-.43-6.81-2.88-6.64-1.9.13-3.49,3.14-3.13,7.59Z" transform="translate(-26.45 -46.56)"/>
    <path class="cls-2" d="M245.66,106.71q0-9.15,0-18.29a55.14,55.14,0,0,0-4.09-21.81,27.52,27.52,0,0,1,13.66-4c10.51-.39,12.94,4.59,12.32,14.08l2-.06c-.36-10.22,3.65-14.81,9.44-14.92,3.22-.06,5.89,1,8.86.71A22.58,22.58,0,0,1,291.22,74c.09,6.83-3.28,13.66-10.18,13.77-4,.07-7-1.08-9.08-3.91l-.79,0q.61,10.9,1.2,21.81Q259,106.06,245.66,106.71Z" transform="translate(-26.45 -46.56)"/>
    <path class="cls-2" d="M291.93,85.26c-.3-17.15,15.13-23.61,28.07-23.36,14.54.27,22.78,6.93,22.42,18.36a33.14,33.14,0,0,1-.71,5.21q-11.77,0-23.5.14c1.16,2.9,3.89,4.38,8.93,4.5A22.75,22.75,0,0,0,339,87.27c1.26.5,2.44,3.12,2.35,6.23-.2,6.09-5,14.07-22.33,13.73C300.66,106.94,292.14,97.79,291.93,85.26ZM317.46,81l6.11-.72c.76-2.86.17-6.82-2.31-6.87-1.91,0-3.77,2.82-3.8,7.29Z" transform="translate(-26.45 -46.56)"/>
    <path class="cls-2" d="M350.59,81c.16-4.24,3.12-6.63,9-7.84,5.6-1.22,7.15-1.58,7.2-2.64a1.15,1.15,0,0,0-.59-1.1,29.31,29.31,0,0,1-11.61,2.27c-7.85-.36-11.87-5.58-11.74-11.27a14.08,14.08,0,0,1,3-8,27.83,27.83,0,0,0,8.19,1.34c5.46.25,10.87-.46,19.2.06,12.08.76,18.56,6,18,14.35-.56,8-7.63,11.15-18.75,12.65-1.44.13-1.86.48-1.88.79,0,.83,1.53,1.23,3.52,1.36a14.31,14.31,0,0,0,7.28-1.33,17,17,0,0,1,.05,1.83c-.37,5.68-5.72,8.62-15.11,8.06C357.74,91,350.36,87.8,350.59,81Zm3.24,18.21A10.44,10.44,0,0,1,355,94.92c4.15-1.39,6.63-1.86,9.86-1.67,7.65.44,10.49,4.61,10.06,11.56a18.53,18.53,0,0,1-12.09,3.43C356.5,107.88,353.65,103.66,353.83,99.19Z" transform="translate(-26.45 -46.56)"/>
  </g>
  <g>
    <path class="cls-3" d="M39.33,114.32c-1.07-4.5-.21-10.93-1.44-16.09-.74-3.1-2.63-3.9-5.39-3.25a5.34,5.34,0,0,0-3.22,2,18.15,18.15,0,0,1-2.37-5.28c-1.86-7.42,1.74-15,13.38-17.69C51.15,71.59,59,77.65,61.39,89c2.4,11.11.18,17.08.54,18.71.16.74.53,1,1.14.84,2.48-.53,4.83-9.68,2.64-20.07-1.26-5.93-3.64-11.4-7.06-14.71,2.44-2.61,6.73-5.12,12.78-6.32,8.81-1.73,16,1.37,18.39,14.26s.05,18.72.37,20.36c.14.74.5,1,1.11.87,2.5-.47,5.09-9.56,3.17-20C93.36,77,91.11,71.44,87.78,68c2.51-2.54,6.87-5,13-6,8.86-1.52,16.25,1.72,18.35,14.66,2.49,15.61-3.53,38.56-24.43,42.39-6.31,1.17-11.13-.12-14.53-3.39a33.55,33.55,0,0,1-17.77,9.87C49.43,128.41,41.79,124.5,39.33,114.32Z" transform="translate(-26.45 -46.56)"/>
    <path class="cls-3" d="M154.86,92.56a42.26,42.26,0,0,1-.17-9.07,2.61,2.61,0,0,0-1.29-.22c-2,.26-3.11,2.16-2.31,8.09s1.55,11.62,2.32,17.43q-13,1.69-25.93,3.68-1.5-12-3-24.08c-1.9-15-4.22-20.83-6.29-25,3.44-3.22,8-5.37,14.1-6.24,9.39-1.33,14.72,1.91,16,11.44a28.31,28.31,0,0,1-.2,9l1.56-.2c1.29-7.43,6.75-12.88,15.39-13.87,9.45-1.07,15.1,4.32,15.18,14,0,2.18.05,4.36.08,6.54s1.25,2.85,3,2.67a6.06,6.06,0,0,0,2.72-1A15.54,15.54,0,0,1,187.55,91c.82,8.23-5.48,15.51-15.67,16.66C162,108.75,156.35,103.84,154.86,92.56Z" transform="translate(-26.45 -46.56)"/>
    <path class="cls-3" d="M188.63,84.54c-1.8-17.05,12.89-24.85,25.7-25.73,14.39-1,23.11,4.9,23.74,16.32a32.28,32.28,0,0,1-.24,5.25q-11.62,1-23.2,2.2c1.39,2.79,4.22,4,9.21,3.7a22.33,22.33,0,0,0,11.51-3.87c1.28.39,2.68,2.89,2.86,6,.33,6.08-3.71,14.45-20.87,15.63C199.14,105.37,189.93,97,188.63,84.54Zm24.86-6.44,6-1.25c.49-2.92-.43-6.81-2.88-6.64-1.9.13-3.49,3.13-3.13,7.59Z" transform="translate(-26.45 -46.56)"/>
    <path class="cls-3" d="M242.38,100.87l0-18.29a55.21,55.21,0,0,0-4.09-21.81,27.61,27.61,0,0,1,13.66-3.94c10.51-.39,12.94,4.59,12.32,14.07l2-.05c-.36-10.23,3.65-14.82,9.44-14.92,3.22-.06,5.89,1,8.86.71a22.45,22.45,0,0,1,3.41,11.57C288,75,284.65,81.87,277.75,82c-4,.06-7-1.08-9.08-3.91l-.79,0q.63,10.91,1.2,21.81Q255.7,100.23,242.38,100.87Z" transform="translate(-26.45 -46.56)"/>
    <path class="cls-3" d="M288.64,79.42c-.3-17.14,15.13-23.61,28.07-23.35,14.54.26,22.78,6.93,22.42,18.36a33.14,33.14,0,0,1-.71,5.21q-11.78-.06-23.5.13c1.16,2.91,3.89,4.39,8.93,4.51a22.8,22.8,0,0,0,11.91-2.84c1.25.5,2.44,3.12,2.34,6.23-.2,6.09-5,14.07-22.33,13.73C297.37,101.11,288.85,92,288.64,79.42Zm25.53-4.21,6.11-.72c.76-2.87.17-6.82-2.3-6.87-1.92,0-3.78,2.82-3.81,7.29Z" transform="translate(-26.45 -46.56)"/>
    <path class="cls-3" d="M347.31,75.15c.15-4.24,3.11-6.63,9-7.84,5.6-1.23,7.15-1.58,7.2-2.64a1.12,1.12,0,0,0-.59-1.1,29.48,29.48,0,0,1-11.61,2.27c-7.85-.37-11.87-5.58-11.73-11.27a14,14,0,0,1,3-8,27.2,27.2,0,0,0,8.2,1.34c5.45.26,10.87-.45,19.19.06,12.08.77,18.56,6,18,14.35-.56,8-7.63,11.16-18.74,12.65-1.45.14-1.87.49-1.89.8,0,.83,1.54,1.23,3.52,1.36a14.31,14.31,0,0,0,7.28-1.33,17,17,0,0,1,0,1.83c-.37,5.68-5.72,8.61-15.11,8.06C354.45,85.17,347.07,82,347.31,75.15Zm3.23,18.21a10.44,10.44,0,0,1,1.21-4.27c4.15-1.39,6.63-1.86,9.86-1.68,7.65.45,10.49,4.61,10.06,11.57a18.58,18.58,0,0,1-12.09,3.43C353.21,102.05,350.36,97.83,350.54,93.36Z" transform="translate(-26.45 -46.56)"/>
  </g>
</svg>
