<svg id="Layer_1" data-name="Layer 1" xmlns="http://www.w3.org/2000/svg" xmlns:xlink="http://www.w3.org/1999/xlink" viewBox="0 0 234.17 86.56">
  <defs>
    <style>
      .cls-1 {
        fill: #231f20;
      }

      .cls-2, .cls-3, .cls-4, .cls-5, .cls-6, .cls-7 {
        stroke: #000;
        stroke-miterlimit: 10;
        stroke-width: 0.75px;
      }

      .cls-2 {
        fill: url(#linear-gradient);
      }

      .cls-3 {
        fill: url(#linear-gradient-2);
      }

      .cls-4 {
        fill: url(#linear-gradient-3);
      }

      .cls-5 {
        fill: url(#linear-gradient-4);
      }

      .cls-6 {
        fill: url(#linear-gradient-5);
      }

      .cls-7 {
        fill: url(#linear-gradient-6);
      }
    </style>
    <linearGradient id="linear-gradient" x1="24.84" y1="64.68" x2="56.73" y2="96.57" gradientUnits="userSpaceOnUse">
      <stop offset="0" stop-color="#fee6d6"/>
      <stop offset="0.39" stop-color="#fee8d9"/>
      <stop offset="0.64" stop-color="#feede1"/>
      <stop offset="0.86" stop-color="#fff6f0"/>
      <stop offset="1" stop-color="#fff"/>
    </linearGradient>
    <linearGradient id="linear-gradient-2" x1="69.46" y1="51.12" x2="101.22" y2="82.87" xlink:href="#linear-gradient"/>
    <linearGradient id="linear-gradient-3" x1="116.45" y1="46.66" x2="139.03" y2="69.24" xlink:href="#linear-gradient"/>
    <linearGradient id="linear-gradient-4" x1="145.53" y1="37.13" x2="168.67" y2="60.27" xlink:href="#linear-gradient"/>
    <linearGradient id="linear-gradient-5" x1="182.02" y1="34.8" x2="205.73" y2="58.51" xlink:href="#linear-gradient"/>
    <linearGradient id="linear-gradient-6" x1="210.57" y1="21.96" x2="238.8" y2="50.18" xlink:href="#linear-gradient"/>
  </defs>
  <g>
    <path class="cls-1" d="M21.81,102.57C20.46,100,20,95.93,18.43,93c-.95-1.77-2.25-2-3.86-1.16a3.36,3.36,0,0,0-1.68,1.72,11.35,11.35,0,0,1-2.31-2.85c-2.35-4.22-1.38-9.42,5.48-12.8,6.42-3.14,12.33-.6,15.58,6s2.7,10.42,3.17,11.36c.21.43.47.52.83.36,1.46-.69,1.58-6.63-1.37-12.66-1.69-3.44-4-6.43-6.72-7.94a15.05,15.05,0,0,1,7.08-5.73c5.3-2.34,10.34-1.46,13.8,6.09s2.76,11.46,3.2,12.42c.2.44.46.54.82.38,1.5-.63,1.85-6.57-.9-12.69-1.58-3.5-3.84-6.57-6.47-8.17a15.15,15.15,0,0,1,7.34-5.48c5.42-2.16,10.66-1.17,13.86,6.49,3.85,9.26,3.06,24.14-9.46,29.33-3.77,1.58-7,1.46-9.53-.07a21.55,21.55,0,0,1-9.6,8.57C30.12,109.68,24.88,108.43,21.81,102.57Z" transform="translate(-7.99 -22.59)"/>
    <path class="cls-1" d="M91.32,73.42A26.46,26.46,0,0,1,90,67.85a1.78,1.78,0,0,0-.86,0c-1.26.41-1.7,1.72-.4,5.28s2.52,7,3.75,10.46q-8.05,2.64-16,5.54Q74,81.92,71.37,74.72c-3.3-9-5.66-12.23-7.6-14.53a16,16,0,0,1,8.13-5.7c5.85-2.05,9.78-.73,11.95,5A16.84,16.84,0,0,1,85,65l1-.32c-.19-4.73,2.55-8.78,8-10.45,6-1.82,10.39.84,11.71,6.8.31,1.35.61,2.69.91,4a1.57,1.57,0,0,0,2.25,1.31,3.93,3.93,0,0,0,1.63-1,9.68,9.68,0,0,1,1.69,3.12c1.56,5-1.63,10.22-8,12.13C98,82.53,93.76,80.19,91.32,73.42Z" transform="translate(-7.99 -22.59)"/>
    <path class="cls-1" d="M112,64.43c-3.36-10.33,5.12-16.86,13.43-18.81,9.32-2.21,15.85.58,17.66,7.6a19.23,19.23,0,0,1,.48,3.29q-7.51,1.79-14.92,3.8c1.26,1.58,3.25,2,6.47,1.31a15,15,0,0,0,7.07-3.6c.88.11,2.1,1.52,2.58,3.43,1,3.76-.77,9.34-11.77,11.88C121.37,76.1,114.46,72,112,64.43Zm15.35-6.77,3.75-1.42c0-1.87-1.13-4.18-2.72-3.81-1.22.29-1.87,2.32-1.08,5Z" transform="translate(-7.99 -22.59)"/>
    <path class="cls-1" d="M149,68.78q-1-5.69-2.14-11.36a33.43,33.43,0,0,0-5.37-13.13A18.14,18.14,0,0,1,150,40.45c6.92-1.29,9.17,1.59,9.89,7.55l1.31-.22c-1.46-6.33.61-9.58,4.47-10.18,2.13-.34,4,.06,6-.37a14.22,14.22,0,0,1,3.66,6.91c.87,4.26-.61,8.81-5.17,9.51-2.66.4-4.78,0-6.47-1.6l-.52.08q1.68,6.73,3.26,13.48Q157.63,67,149,68.78Z" transform="translate(-7.99 -22.59)"/>
    <path class="cls-1" d="M177.08,51.08c-2.18-10.67,7.31-16.09,16.07-17,9.81-1,16.18,2.59,17.18,9.79a17.88,17.88,0,0,1,.09,3.32q-7.92.83-15.76,1.88c1.09,1.73,3.08,2.44,6.47,2.12a15.64,15.64,0,0,0,7.7-2.67c.89.22,2,1.78,2.24,3.74.51,3.85-1.93,9.16-13.54,10.29C185.23,63.84,178.65,58.9,177.08,51.08Zm16.56-4.78c1.34-.31,2.68-.63,4-.93.18-1.86-.66-4.29-2.33-4.13-1.29.13-2.21,2.07-1.73,4.87Z" transform="translate(-7.99 -22.59)"/>
    <path class="cls-1" d="M215.94,43.76c-.36-2.67,1.37-4.38,5.24-5.55,3.66-1.15,4.68-1.47,4.59-2.15a.75.75,0,0,0-.52-.65,20.64,20.64,0,0,1-7.62,2.22c-5.35.32-8.65-2.65-9.22-6.24a8.11,8.11,0,0,1,1.07-5.25,20.82,20.82,0,0,0,5.72.24c3.73-.22,7.32-1.06,13.05-1.28,8.32-.31,13.35,2.61,13.87,7.95.49,5.11-4,7.49-11.39,9.13-1,.18-1.21.43-1.19.63.06.52,1.17.68,2.53.63a10,10,0,0,0,4.8-1.28,9,9,0,0,1,.23,1.15c.35,3.61-3,5.77-9.41,6C221.82,49.56,216.52,48.07,215.94,43.76ZM220,55a6.13,6.13,0,0,1,.37-2.77,16.43,16.43,0,0,1,6.49-1.71c5.23-.21,7.59,2.25,8,6.66A12.64,12.64,0,0,1,227,60.09C222.71,60.28,220.38,57.82,220,55Z" transform="translate(-7.99 -22.59)"/>
  </g>
  <g>
    <path class="cls-2" d="M20.74,100.46c-1.35-2.58-1.81-6.64-3.38-9.6-.94-1.78-2.25-2-3.86-1.16a3.32,3.32,0,0,0-1.68,1.72,11.56,11.56,0,0,1-2.31-2.86C7.16,84.34,8.14,79.15,15,75.77c6.42-3.14,12.33-.6,15.58,6s2.69,10.42,3.16,11.36c.21.43.47.52.83.35,1.46-.68,1.59-6.62-1.36-12.65-1.69-3.44-4-6.43-6.72-8a15.13,15.13,0,0,1,7.09-5.72c5.3-2.34,10.34-1.46,13.8,6.09s2.76,11.47,3.2,12.43c.19.43.45.53.82.38,1.5-.63,1.85-6.57-.9-12.7-1.58-3.5-3.83-6.57-6.47-8.17a15.18,15.18,0,0,1,7.35-5.48c5.42-2.15,10.67-1.17,13.86,6.5,3.85,9.26,3,24.14-9.48,29.33-3.77,1.57-7,1.45-9.53-.08A21.58,21.58,0,0,1,36.63,104C29,107.58,23.81,106.32,20.74,100.46Z" transform="translate(-7.99 -22.59)"/>
    <path class="cls-3" d="M90.3,71.33A26.18,26.18,0,0,1,89,65.76a1.9,1.9,0,0,0-.86,0c-1.27.41-1.7,1.71-.4,5.27s2.52,7,3.75,10.47q-8.07,2.64-16,5.53Q73,79.85,70.34,72.63C67,63.68,64.68,60.4,62.74,58.1a16,16,0,0,1,8.14-5.7c5.86-2,9.78-.73,12,5A16.88,16.88,0,0,1,84,62.92l1-.33c-.19-4.73,2.56-8.77,8-10.45,6-1.81,10.4.85,11.72,6.81l.9,4a1.58,1.58,0,0,0,2.26,1.31,4.08,4.08,0,0,0,1.62-1,9.49,9.49,0,0,1,1.69,3.12c1.56,5-1.63,10.22-8,12.13C96.93,80.44,92.74,78.11,90.3,71.33Z" transform="translate(-7.99 -22.59)"/>
    <path class="cls-4" d="M111,62.35c-3.36-10.33,5.12-16.86,13.44-18.81,9.31-2.21,15.85.57,17.66,7.6a19.11,19.11,0,0,1,.48,3.28q-7.53,1.8-14.92,3.81c1.25,1.58,3.25,2,6.47,1.31a15.08,15.08,0,0,0,7.07-3.6c.88.1,2.1,1.52,2.59,3.43.94,3.76-.78,9.33-11.79,11.88C120.37,74,113.46,69.91,111,62.35Zm15.35-6.77,3.76-1.43c0-1.86-1.14-4.17-2.72-3.8-1.23.29-1.88,2.32-1.09,5Z" transform="translate(-7.99 -22.59)"/>
    <path class="cls-5" d="M148,66.7q-1-5.69-2.14-11.37a33.51,33.51,0,0,0-5.38-13.13A18.43,18.43,0,0,1,149,38.36c6.92-1.28,9.17,1.59,9.9,7.56l1.3-.23c-1.46-6.33.62-9.57,4.47-10.18,2.13-.33,4.05.06,6-.37a14.22,14.22,0,0,1,3.66,6.91c.88,4.26-.6,8.81-5.16,9.51-2.66.4-4.78,0-6.48-1.6l-.52.09q1.69,6.74,3.27,13.47Q156.64,65,148,66.7Z" transform="translate(-7.99 -22.59)"/>
    <path class="cls-6" d="M176.1,49c-2.18-10.67,7.31-16.09,16.07-17,9.81-1,16.18,2.58,17.19,9.78a18,18,0,0,1,.09,3.33q-7.94.83-15.77,1.88c1.1,1.73,3.09,2.43,6.48,2.12a15.74,15.74,0,0,0,7.69-2.68c.9.22,2,1.79,2.25,3.74.52,3.85-1.92,9.17-13.53,10.3C184.26,61.74,177.67,56.81,176.1,49Zm16.57-4.78c1.34-.32,2.68-.64,4-.94.19-1.86-.66-4.3-2.33-4.13-1.29.13-2.21,2.07-1.72,4.88Z" transform="translate(-7.99 -22.59)"/>
    <path class="cls-7" d="M215,41.65c-.36-2.67,1.37-4.39,5.25-5.56,3.65-1.15,4.67-1.47,4.59-2.15a.81.81,0,0,0-.53-.65,20.8,20.8,0,0,1-7.61,2.23c-5.35.32-8.66-2.65-9.23-6.24A8.07,8.07,0,0,1,208.5,24a20.74,20.74,0,0,0,5.71.24c3.73-.23,7.33-1.06,13.06-1.29,8.32-.31,13.35,2.6,13.87,7.94.5,5.11-4,7.5-11.38,9.15-1,.17-1.21.42-1.19.62.06.53,1.17.68,2.53.63A10,10,0,0,0,235.9,40a9.31,9.31,0,0,1,.23,1.15c.35,3.62-3,5.78-9.4,6C220.86,47.45,215.55,46,215,41.65Zm4.12,11.23a6,6,0,0,1,.37-2.76,16.59,16.59,0,0,1,6.49-1.72c5.22-.21,7.59,2.25,8,6.66A12.76,12.76,0,0,1,226.09,58C221.76,58.17,219.41,55.71,219.08,52.88Z" transform="translate(-7.99 -22.59)"/>
  </g>
  <g>
    <path class="cls-1" d="M129,85.66c-1,0-2-.28-2-1.58,0-.12,0-.55.18-.55s.27.35.65.35c2.64,0,6.75-4.08,6.75-5.74,0-.43-.26-.69-.91-.69-5.17,0-13.42,12-13.42,17.3,0,.26.1.5.46.5,1.83,0,4.75-2,7.89-2a1.3,1.3,0,0,1,1.28,1.44,1,1,0,0,1-1,1c-2.77,0-5.15,1.54-8.41,1.54-1.46,0-2.86-.79-2.86-2.13,0-4.88,8-19.81,16.43-19.81,2.14,0,3,.89,3,2.15C137,80.49,132.13,85.66,129,85.66Z" transform="translate(-7.99 -22.59)"/>
    <path class="cls-1" d="M133.53,95.94c-1.74,0-3.2-.81-3.2-2.63,0-2.9,3.29-5,5.86-5a3,3,0,0,1,3,2.25c1.38-1.08,3.31-2.43,5.05-2.43a2.68,2.68,0,0,1,2.56,2,14.15,14.15,0,0,1,2-.16c2,0,3,1,3,1.93s-1.31,1.82-1.88,1.82c-.14,0-.24-.06-.24-.2s0-.28,0-.49c0-1.07-1.4-1.56-2.76-1.68v0c0,2.07-1.48,4.36-5,4.36-1.62,0-2.35-.59-2.35-1.38,0-1.6,2.11-2.88,4.56-3.65a1.7,1.7,0,0,0-1-.28C139.88,90.43,138.83,95.94,133.53,95.94Zm2.36-5.65c-.71,0-3.17.56-3.17,2.77,0,.59.41.83,1,.83,1.78,0,3.38-1.25,3.38-2.39A1.19,1.19,0,0,0,135.89,90.29Zm8.92,1.64a1.74,1.74,0,0,0-.06-.45c-1.22.27-2.21.83-2.21,1.58,0,.23.14.41.48.41A1.59,1.59,0,0,0,144.81,91.93Z" transform="translate(-7.99 -22.59)"/>
    <path class="cls-1" d="M173.84,95.82c-.19.33-.31.57-1.06.57-.49,0-2.23,0-2.23-.85,0-.35.47-.55.47-1.2,0-1.8-3.21-3-7.1-3-1.09,0-1.93.2-2.49.2s-.77-.16-.77-.73c0-1,1.19-1.92,2.75-1.92,3.35,0,6.43.2,9,2.55.4-1,2-5,2-6.87,0-1.28-.2-3-2.29-3-6.87,0-14.54,8.93-15.47,14.63,0,.64-.59,1.07-1.64,1.07s-1.65-.22-1.65-1c0-3.33,9-17,18.72-17,2.68,0,4.91,1.48,4.91,5C177,89,173.84,95.82,173.84,95.82Z" transform="translate(-7.99 -22.59)"/>
    <path class="cls-1" d="M180.7,89.49a13.29,13.29,0,0,0-.33,2.6c0,1.22.33,2,1.18,2,.51,0,.75-.27,1.32-.27.34,0,.42.15.42.51,0,1-1.56,1.68-2.71,1.68-2.21,0-3.11-1.7-3.11-4a11.21,11.21,0,0,1,.21-2.09h-.17c-.58,0-.81-.34-.81-.65a.42.42,0,0,1,.41-.46l.85-.13c1.16-4.38,4.22-9.06,7.18-9.06,2.07,0,3,1,3,2.37C188.1,84.51,185.16,88.22,180.7,89.49Zm3.47-7.95c-.65,0-2.09,3-3,6.13,2.77-1.38,3.81-3.55,3.81-4.89C185,82.05,184.67,81.54,184.17,81.54Z" transform="translate(-7.99 -22.59)"/>
    <path class="cls-1" d="M192.71,95.4a1.6,1.6,0,0,1-1.55-1,.13.13,0,0,0-.12-.1,10.33,10.33,0,0,1-4.91,1.52c-1.92,0-2.71-.77-2.71-1.82,0-2.3,3.77-6,7.52-6,.73,0,1,.33,1,.73a1.93,1.93,0,0,1-1.63,1.67c-1.62,0-4.13,1.82-4.13,2.72,0,.28.26.48.91.48,1.19,0,3.36-1.19,5.07-2.78a1.17,1.17,0,0,1,.71-.34c.24,0,.42.16.42.59s-.16,1.11-.16,1.56.12.65.53.65,1-.27,1.48-.29a.49.49,0,0,1,.55.53C195.71,94.22,194.06,95.4,192.71,95.4Z" transform="translate(-7.99 -22.59)"/>
    <path class="cls-1" d="M205.91,95.68c-1.13,0-1.2-.91-1.2-1.93,0-.26-.1-.4-.34-.4-1.42,0-2.31,2.47-3.33,2.47-.44,0-.77-.2-.77-.49,0-.64.06-1.15.06-1.52,0-.16-.08-.28-.38-.28-1.24,0-1.77,2.07-3.18,2.07-.47,0-1-.31-1-.67a11.15,11.15,0,0,0,.73-2.92c0-.55-.18-.69-.42-.69l-1,.22a.59.59,0,0,1-.61-.67c0-.81.92-2,3.06-2,1.22,0,1.38.44,1.38.73,0,.54-.26,1.09-.26,1.39,0,.15.06.23.22.23.47,0,1.48-1,2.34-1s.87.47.87.92c0,.24,0,.48,0,.65s0,.2.1.2,1.46-1.6,3.43-1.6c.7,0,1.13.26,1.15,1,0,.37-.08.75-.08,1.18s.16,1.09.87,1.09c.21,0,.57-.12.81-.12a.34.34,0,0,1,.35.39C208.61,94.58,207,95.68,205.91,95.68Z" transform="translate(-7.99 -22.59)"/>
    <path class="cls-1" d="M211.76,95.94c-1.75,0-3.21-.81-3.21-2.63,0-2.9,3.29-5,5.86-5a3,3,0,0,1,3,2.25c1.38-1.08,3.31-2.43,5.05-2.43a2.68,2.68,0,0,1,2.56,2,14.29,14.29,0,0,1,2-.16c2,0,3,1,3,1.93s-1.32,1.82-1.89,1.82c-.14,0-.24-.06-.24-.2s0-.28,0-.49c0-1.07-1.4-1.56-2.76-1.68v0c0,2.07-1.48,4.36-5,4.36-1.62,0-2.35-.59-2.35-1.38,0-1.6,2.11-2.88,4.56-3.65a1.7,1.7,0,0,0-1-.28C218.1,90.43,217.05,95.94,211.76,95.94Zm2.35-5.65c-.71,0-3.16.56-3.16,2.77,0,.59.4.83,1,.83,1.78,0,3.39-1.25,3.39-2.39A1.2,1.2,0,0,0,214.11,90.29ZM223,91.93a1.74,1.74,0,0,0-.06-.45c-1.22.27-2.21.83-2.21,1.58,0,.23.14.41.49.41A1.59,1.59,0,0,0,223,91.93Z" transform="translate(-7.99 -22.59)"/>
    <path class="cls-1" d="M235.75,95.62c-.77,0-1.21-.2-1.21-1.18a2.07,2.07,0,0,1,.16-.85,1.12,1.12,0,0,1,1.08-.51c.42,0,1.27.06,1.27.61S236.81,95.62,235.75,95.62Zm4-13.59c-.12.45-2.47,5.66-2.47,9,0,.73,0,1.17-.43,1.17,0,0-1.36-.32-1.36-1.17a2.41,2.41,0,0,1,.1-.61c1-3.35.94-7.32,1.5-8.66.35-.83,1.18-.87,2.13-.87.25,0,.79,0,.79.26A4.74,4.74,0,0,1,239.75,82Z" transform="translate(-7.99 -22.59)"/>
  </g>
  <g>
    <path class="cls-1" d="M131.25,106.4a.33.33,0,0,1,.36-.33h.4a.11.11,0,0,0,.12-.12V102.1c0-.08,0-.12-.11-.12h-1.41c-.07,0-.1,0-.11.07l-.08.43a.33.33,0,0,1-.34.27.29.29,0,0,1-.32-.32,2.32,2.32,0,0,1,0-.24l.12-.62a.32.32,0,0,1,.33-.27h4.55a.32.32,0,0,1,.34.27l.12.62a1.2,1.2,0,0,1,0,.24.31.31,0,0,1-.33.32.33.33,0,0,1-.35-.27l-.08-.43s0-.07-.1-.07H133c-.09,0-.11,0-.11.12V106a.11.11,0,0,0,.12.12h.4a.34.34,0,1,1,0,.67h-1.8A.34.34,0,0,1,131.25,106.4Z" transform="translate(-7.99 -22.59)"/>
    <path class="cls-1" d="M135.67,106.4a.32.32,0,0,1,.34-.32h.52a.11.11,0,0,0,.11-.12v-4.73c0-.08,0-.11-.11-.11H136a.33.33,0,0,1,0-.66h1a.3.3,0,0,1,.33.33v2.35c0,.08,0,.18.06.18a.37.37,0,0,0,.16-.09,2.18,2.18,0,0,1,1.34-.42c1.43,0,1.63,1.06,1.63,2.12v1a.11.11,0,0,0,.12.12h.51a.32.32,0,0,1,.34.32.33.33,0,0,1-.34.34h-1.74a.32.32,0,0,1-.33-.34.31.31,0,0,1,.33-.32h.28c.07,0,.1,0,.1-.11V104.9c0-.87-.13-1.41-1.16-1.41-.61,0-1.3.29-1.3.85V106c0,.07,0,.12.09.12h.39a.31.31,0,0,1,.34.32.32.32,0,0,1-.34.34H136A.33.33,0,0,1,135.67,106.4Z" transform="translate(-7.99 -22.59)"/>
    <path class="cls-1" d="M142,104.81a2,2,0,0,1,2.17-2,1.94,1.94,0,0,1,2.09,1.89c0,.24-.1.33-.33.33h-3c-.05,0-.07,0-.07.07,0,.42.55,1.06,1.66,1.06a5,5,0,0,0,1.07-.13l.29,0a.32.32,0,0,1,.33.33.36.36,0,0,1-.29.33,5,5,0,0,1-1.53.18C142.91,106.82,142,106,142,104.81Zm3.34-.33c.06,0,.08,0,.08-.06a1.27,1.27,0,0,0-1.28-.94,1.24,1.24,0,0,0-1.32.94s0,.06.07.06Z" transform="translate(-7.99 -22.59)"/>
    <path class="cls-1" d="M150.41,106.4a.32.32,0,0,1,.34-.33h.53a.12.12,0,0,0,.14-.13V102.1a.12.12,0,0,0-.14-.13h-.53a.32.32,0,0,1-.34-.33.34.34,0,0,1,.36-.34h1.95a.34.34,0,1,1,0,.67h-.44c-.08,0-.11,0-.11.12v1.43c0,.09,0,.13.11.13h2.82a.11.11,0,0,0,.12-.13v-1.43a.11.11,0,0,0-.12-.12h-.44a.34.34,0,1,1,0-.67h2a.34.34,0,0,1,0,.67h-.54a.11.11,0,0,0-.13.12V106a.11.11,0,0,0,.13.12h.54a.34.34,0,0,1,0,.67h-2a.34.34,0,1,1,0-.67h.44a.11.11,0,0,0,.12-.12v-1.54a.11.11,0,0,0-.12-.12h-2.82c-.06,0-.11,0-.11.12V106c0,.08,0,.12.11.12h.44a.34.34,0,1,1,0,.67h-2A.32.32,0,0,1,150.41,106.4Z" transform="translate(-7.99 -22.59)"/>
    <path class="cls-1" d="M157.69,104.8a1.93,1.93,0,0,1,2.1-2h.12a2,2,0,1,1,0,4h-.12A2,2,0,0,1,157.69,104.8Zm2.23,1.34a1.33,1.33,0,1,0,0-2.65h-.13a1.33,1.33,0,1,0,0,2.65Z" transform="translate(-7.99 -22.59)"/>
    <path class="cls-1" d="M163.66,105.34v-1.68a.11.11,0,0,0-.12-.12H163a.33.33,0,1,1,0-.65h.54a.11.11,0,0,0,.12-.12v-.64a.34.34,0,0,1,.37-.34.35.35,0,0,1,.37.34v.64c0,.08,0,.12.1.12h1.62a.33.33,0,1,1,0,.65H164.5c-.07,0-.1,0-.1.12v1.61c0,.72.33.86.72.86a2,2,0,0,0,.64-.12,1.63,1.63,0,0,1,.36-.07.32.32,0,0,1,.33.32.35.35,0,0,1-.25.34,2.83,2.83,0,0,1-1,.19A1.31,1.31,0,0,1,163.66,105.34Z" transform="translate(-7.99 -22.59)"/>
    <path class="cls-1" d="M167.09,104.81a2.05,2.05,0,0,1,2.17-2,1.94,1.94,0,0,1,2.09,1.89c0,.24-.1.33-.33.33H168c-.05,0-.07,0-.07.07,0,.42.55,1.06,1.66,1.06a5,5,0,0,0,1.07-.13l.29,0a.32.32,0,0,1,.33.33.36.36,0,0,1-.29.33,5,5,0,0,1-1.52.18C168,106.82,167.09,106,167.09,104.81Zm3.34-.33c.06,0,.08,0,.08-.06a1.27,1.27,0,0,0-1.28-.94,1.24,1.24,0,0,0-1.32.94s0,.06.07.06Z" transform="translate(-7.99 -22.59)"/>
    <path class="cls-1" d="M172,106.41a.32.32,0,0,1,.34-.33h.57c.08,0,.14,0,.14-.12v-4.73c0-.08,0-.11-.12-.11h-.59a.33.33,0,1,1,0-.66h1.1a.31.31,0,0,1,.34.33V106c0,.08,0,.12.11.12h.58a.33.33,0,0,1,0,.66h-2.13A.32.32,0,0,1,172,106.41Z" transform="translate(-7.99 -22.59)"/>
    <path class="cls-1" d="M178.49,106.4a.33.33,0,0,1,.34-.33h.54a.12.12,0,0,0,.13-.12v-3.87c0-.07,0-.11-.12-.11h-.5a.34.34,0,1,1,0-.67h2.41a2.71,2.71,0,0,1,3,2.73c0,1.66-1.16,2.71-3,2.71h-2.44A.34.34,0,0,1,178.49,106.4Zm2.83-.33a2.05,2.05,0,1,0,0-4.1h-1a.12.12,0,0,0-.13.13V106a.11.11,0,0,0,.13.12Z" transform="translate(-7.99 -22.59)"/>
    <path class="cls-1" d="M185.35,106.41a.32.32,0,0,1,.33-.33h.59a.1.1,0,0,0,.11-.1v-2.33c0-.06,0-.11-.12-.11h-.57a.33.33,0,1,1,0-.65h1.08a.32.32,0,0,1,.35.32V106a.1.1,0,0,0,.11.1h.57a.32.32,0,0,1,.35.33.33.33,0,0,1-.35.33h-2.12A.31.31,0,0,1,185.35,106.41Zm.77-4.84a.53.53,0,1,1,.53.52A.52.52,0,0,1,186.12,101.57Z" transform="translate(-7.99 -22.59)"/>
    <path class="cls-1" d="M194.33,106.41a.32.32,0,0,1-.34.33h-1.73a.33.33,0,1,1,0-.66h.27a.1.1,0,0,0,.11-.1V104.9c0-.86-.14-1.41-1.16-1.41-.62,0-1.31.29-1.31.85V106c0,.07.06.1.12.1h.37a.33.33,0,0,1,0,.66h-1.85a.33.33,0,1,1,0-.66h.52a.1.1,0,0,0,.11-.1v-2.33c0-.08,0-.11-.11-.11h-.52a.31.31,0,0,1-.33-.33.32.32,0,0,1,.33-.32h1.1c.18,0,.26.08.26.24s0,.19.07.19a.16.16,0,0,0,.09,0,2.24,2.24,0,0,1,1.4-.46c1.43,0,1.64,1.06,1.64,2.12v1a.11.11,0,0,0,.12.13h.5A.32.32,0,0,1,194.33,106.41Z" transform="translate(-7.99 -22.59)"/>
    <path class="cls-1" d="M194.83,107.93a1.17,1.17,0,0,1,.84-1.08s.05,0,.05-.06a.07.07,0,0,0,0-.06.51.51,0,0,1,.08-.8.06.06,0,0,0,0-.06s0,0-.05-.05a1.39,1.39,0,0,1-.85-1.38c0-1.15.85-1.64,2.11-1.64h0l.54,0h2a.31.31,0,0,1,0,.62h-.61s-.07,0-.07,0,0,0,0,.07a1.22,1.22,0,0,1,.33.92c0,1.2-.87,1.58-2.11,1.58h-.54c-.19,0-.29.1-.29.24s.11.25.37.25h.63c1.39,0,2.09.34,2.09,1.22,0,1.1-.94,1.42-2.33,1.42h0C195.66,109.15,194.83,108.85,194.83,107.93Zm2.23.65c.78,0,1.61-.06,1.61-.79s-.62-.73-1.61-.73-1.47.07-1.47.73.67.79,1.44.79Zm.09-3.13c.82,0,1.35-.22,1.35-1s-.55-1-1.35-1H197c-.83,0-1.36.23-1.36,1s.53,1,1.36,1Z" transform="translate(-7.99 -22.59)"/>
    <path class="cls-1" d="M200.46,106.4a.33.33,0,0,1,.34-.33h.54a.12.12,0,0,0,.13-.12v-3.87a.11.11,0,0,0-.12-.11h-.5a.34.34,0,1,1,0-.67h2.41a2.71,2.71,0,0,1,3,2.73c0,1.66-1.16,2.71-3,2.71h-2.44A.34.34,0,0,1,200.46,106.4Zm2.83-.33a1.94,1.94,0,0,0,2.15-2A2,2,0,0,0,203.3,102h-1a.12.12,0,0,0-.13.13V106a.11.11,0,0,0,.12.12Z" transform="translate(-7.99 -22.59)"/>
    <path class="cls-1" d="M207.21,104.8a1.93,1.93,0,0,1,2.11-2h.11a2,2,0,1,1,0,4h-.11A2,2,0,0,1,207.21,104.8Zm2.23,1.34a1.33,1.33,0,1,0,0-2.65h-.12a1.33,1.33,0,1,0,0,2.65Z" transform="translate(-7.99 -22.59)"/>
    <path class="cls-1" d="M218,106.41a.31.31,0,0,1-.33.33H216a.33.33,0,1,1,0-.66h.27a.1.1,0,0,0,.11-.1V104.9c0-.86-.14-1.41-1.16-1.41-.63,0-1.31.29-1.31.85V106c0,.07.06.1.12.1h.37a.33.33,0,0,1,0,.66h-1.85a.33.33,0,1,1,0-.66H213c.08,0,.12,0,.12-.1v-2.33c0-.08,0-.11-.12-.11h-.51a.31.31,0,0,1-.33-.33.32.32,0,0,1,.33-.32h1.1c.17,0,.26.08.26.24s0,.19.07.19a.16.16,0,0,0,.09,0,2.24,2.24,0,0,1,1.4-.46c1.43,0,1.64,1.06,1.64,2.12v1c0,.09,0,.13.12.13h.5A.31.31,0,0,1,218,106.41Z" transform="translate(-7.99 -22.59)"/>
    <path class="cls-1" d="M218.55,107.93a1.17,1.17,0,0,1,.84-1.08s.05,0,.05-.06a.07.07,0,0,0,0-.06.51.51,0,0,1,.08-.8.06.06,0,0,0,0-.06s0,0-.05-.05a1.39,1.39,0,0,1-.85-1.38c0-1.15.85-1.64,2.11-1.64h0l.54,0h2a.31.31,0,0,1,0,.62h-.61s-.07,0-.07,0,0,0,0,.07a1.26,1.26,0,0,1,.33.92c0,1.2-.88,1.58-2.11,1.58h-.54c-.2,0-.29.1-.29.24s.11.25.37.25H221c1.4,0,2.1.34,2.1,1.22,0,1.1-1,1.42-2.33,1.42h0C219.38,109.15,218.55,108.85,218.55,107.93Zm2.23.65c.77,0,1.6-.06,1.6-.79s-.61-.73-1.6-.73-1.47.07-1.47.73.67.79,1.44.79Zm.08-3.13c.83,0,1.36-.22,1.36-1s-.55-1-1.36-1h-.12c-.83,0-1.36.23-1.36,1s.53,1,1.36,1Z" transform="translate(-7.99 -22.59)"/>
  </g>
</svg>
